G04 #@! TF.GenerationSoftware,KiCad,Pcbnew,(5.1.6)-1*
G04 #@! TF.CreationDate,2020-11-13T23:39:30+01:00*
G04 #@! TF.ProjectId,ebuzzz-adapter,6562757a-7a7a-42d6-9164-61707465722e,rev?*
G04 #@! TF.SameCoordinates,Original*
G04 #@! TF.FileFunction,Legend,Bot*
G04 #@! TF.FilePolarity,Positive*
%FSLAX46Y46*%
G04 Gerber Fmt 4.6, Leading zero omitted, Abs format (unit mm)*
G04 Created by KiCad (PCBNEW (5.1.6)-1) date 2020-11-13 23:39:30*
%MOMM*%
%LPD*%
G01*
G04 APERTURE LIST*
%ADD10C,0.150000*%
%ADD11C,0.120000*%
G04 APERTURE END LIST*
D10*
X169316666Y-71861904D02*
X169316666Y-71061904D01*
X169011904Y-71061904D01*
X168935714Y-71100000D01*
X168897619Y-71138095D01*
X168859523Y-71214285D01*
X168859523Y-71328571D01*
X168897619Y-71404761D01*
X168935714Y-71442857D01*
X169011904Y-71480952D01*
X169316666Y-71480952D01*
X168592857Y-71061904D02*
X168402380Y-71861904D01*
X168250000Y-71290476D01*
X168097619Y-71861904D01*
X167907142Y-71061904D01*
X167145238Y-71861904D02*
X167411904Y-71480952D01*
X167602380Y-71861904D02*
X167602380Y-71061904D01*
X167297619Y-71061904D01*
X167221428Y-71100000D01*
X167183333Y-71138095D01*
X167145238Y-71214285D01*
X167145238Y-71328571D01*
X167183333Y-71404761D01*
X167221428Y-71442857D01*
X167297619Y-71480952D01*
X167602380Y-71480952D01*
D11*
X170108909Y-71500000D02*
G75*
G03*
X170108909Y-71500000I-1843909J0D01*
G01*
D10*
X130609523Y-71061904D02*
X130152380Y-71061904D01*
X130380952Y-71861904D02*
X130380952Y-71061904D01*
X129961904Y-71061904D02*
X129428571Y-71861904D01*
X129428571Y-71061904D02*
X129961904Y-71861904D01*
D11*
X131843909Y-71500000D02*
G75*
G03*
X131843909Y-71500000I-1843909J0D01*
G01*
D10*
X113633333Y-77111904D02*
X113900000Y-76730952D01*
X114090476Y-77111904D02*
X114090476Y-76311904D01*
X113785714Y-76311904D01*
X113709523Y-76350000D01*
X113671428Y-76388095D01*
X113633333Y-76464285D01*
X113633333Y-76578571D01*
X113671428Y-76654761D01*
X113709523Y-76692857D01*
X113785714Y-76730952D01*
X114090476Y-76730952D01*
X113366666Y-76311904D02*
X112833333Y-77111904D01*
X112833333Y-76311904D02*
X113366666Y-77111904D01*
D11*
X115343909Y-76750000D02*
G75*
G03*
X115343909Y-76750000I-1843909J0D01*
G01*
M02*
