G04 #@! TF.GenerationSoftware,KiCad,Pcbnew,(5.1.6)-1*
G04 #@! TF.CreationDate,2020-11-13T23:39:30+01:00*
G04 #@! TF.ProjectId,ebuzzz-adapter,6562757a-7a7a-42d6-9164-61707465722e,rev?*
G04 #@! TF.SameCoordinates,Original*
G04 #@! TF.FileFunction,Copper,L2,Bot*
G04 #@! TF.FilePolarity,Positive*
%FSLAX46Y46*%
G04 Gerber Fmt 4.6, Leading zero omitted, Abs format (unit mm)*
G04 Created by KiCad (PCBNEW (5.1.6)-1) date 2020-11-13 23:39:30*
%MOMM*%
%LPD*%
G01*
G04 APERTURE LIST*
G04 #@! TA.AperFunction,ComponentPad*
%ADD10O,3.600000X1.800000*%
G04 #@! TD*
G04 #@! TA.AperFunction,ComponentPad*
%ADD11O,3.500000X1.900000*%
G04 #@! TD*
G04 #@! TA.AperFunction,ViaPad*
%ADD12C,0.500000*%
G04 #@! TD*
G04 #@! TA.AperFunction,Conductor*
%ADD13R,2.600000X2.600000*%
G04 #@! TD*
G04 #@! TA.AperFunction,ViaPad*
%ADD14C,0.800000*%
G04 #@! TD*
G04 #@! TA.AperFunction,Conductor*
%ADD15C,0.250000*%
G04 #@! TD*
G04 #@! TA.AperFunction,Conductor*
%ADD16C,0.254000*%
G04 #@! TD*
G04 APERTURE END LIST*
D10*
X168500000Y-77190000D03*
G04 #@! TA.AperFunction,ComponentPad*
G36*
G01*
X170050000Y-81900000D02*
X166950000Y-81900000D01*
G75*
G02*
X166700000Y-81650000I0J250000D01*
G01*
X166700000Y-80350000D01*
G75*
G02*
X166950000Y-80100000I250000J0D01*
G01*
X170050000Y-80100000D01*
G75*
G02*
X170300000Y-80350000I0J-250000D01*
G01*
X170300000Y-81650000D01*
G75*
G02*
X170050000Y-81900000I-250000J0D01*
G01*
G37*
G04 #@! TD.AperFunction*
D11*
X95900000Y-73300000D03*
X95900000Y-84700000D03*
D12*
X106950000Y-77950000D03*
X108000000Y-77950000D03*
X109050000Y-77950000D03*
X106950000Y-79000000D03*
X108000000Y-79000000D03*
X109050000Y-79000000D03*
X106950000Y-80050000D03*
X108000000Y-80050000D03*
X109050000Y-80050000D03*
D13*
X108000000Y-79000000D03*
D14*
X160750000Y-71500000D03*
X146650000Y-76490000D03*
X129350000Y-81300000D03*
X132400000Y-74650000D03*
X155800000Y-82300000D03*
X132700000Y-82600000D03*
X149699986Y-87000000D03*
X142500000Y-74750000D03*
X141250000Y-77000000D03*
X137510000Y-74600000D03*
X138640000Y-80590000D03*
X134400000Y-84000000D03*
X135800000Y-87000000D03*
X116750000Y-81750000D03*
X106000000Y-82000000D03*
X108250000Y-82000000D03*
X108000000Y-86250000D03*
X110000000Y-86250000D03*
X114000000Y-86250000D03*
X104750000Y-82250000D03*
X105000000Y-80000000D03*
X105000000Y-78000000D03*
D15*
X141250000Y-77000000D02*
X142500000Y-74750000D01*
X137510000Y-79460000D02*
X138640000Y-80590000D01*
X137510000Y-74600000D02*
X137510000Y-79460000D01*
X134400000Y-84800000D02*
X134400000Y-84000000D01*
X135800000Y-86200000D02*
X134400000Y-84800000D01*
X135800000Y-87000000D02*
X135800000Y-86200000D01*
X106000000Y-82000000D02*
X108250000Y-82000000D01*
X105000000Y-78000000D02*
X105000000Y-80000000D01*
D16*
G36*
X172114994Y-69419222D02*
G01*
X172225614Y-69452620D01*
X172327639Y-69506868D01*
X172417179Y-69579895D01*
X172490833Y-69668925D01*
X172545792Y-69770572D01*
X172579960Y-69880949D01*
X172594001Y-70014537D01*
X172594000Y-87980146D01*
X172580778Y-88114994D01*
X172547379Y-88225615D01*
X172493132Y-88327639D01*
X172420106Y-88417179D01*
X172331072Y-88490834D01*
X172229428Y-88545792D01*
X172119051Y-88579960D01*
X171985472Y-88594000D01*
X126127000Y-88594000D01*
X126127000Y-83923078D01*
X133619000Y-83923078D01*
X133619000Y-84076922D01*
X133649013Y-84227809D01*
X133707887Y-84369942D01*
X133793358Y-84497859D01*
X133894000Y-84598501D01*
X133894000Y-84775153D01*
X133891553Y-84800000D01*
X133894000Y-84824846D01*
X133894000Y-84824853D01*
X133901322Y-84899192D01*
X133930255Y-84994574D01*
X133977241Y-85082479D01*
X134040473Y-85159527D01*
X134059785Y-85175376D01*
X135289954Y-86405545D01*
X135193358Y-86502141D01*
X135107887Y-86630058D01*
X135049013Y-86772191D01*
X135019000Y-86923078D01*
X135019000Y-87076922D01*
X135049013Y-87227809D01*
X135107887Y-87369942D01*
X135193358Y-87497859D01*
X135302141Y-87606642D01*
X135430058Y-87692113D01*
X135572191Y-87750987D01*
X135723078Y-87781000D01*
X135876922Y-87781000D01*
X136027809Y-87750987D01*
X136169942Y-87692113D01*
X136297859Y-87606642D01*
X136406642Y-87497859D01*
X136492113Y-87369942D01*
X136550987Y-87227809D01*
X136581000Y-87076922D01*
X136581000Y-86923078D01*
X136550987Y-86772191D01*
X136492113Y-86630058D01*
X136406642Y-86502141D01*
X136306000Y-86401499D01*
X136306000Y-86224846D01*
X136308447Y-86200000D01*
X136306000Y-86175154D01*
X136306000Y-86175146D01*
X136298678Y-86100807D01*
X136269745Y-86005425D01*
X136222759Y-85917521D01*
X136159527Y-85840473D01*
X136140220Y-85824628D01*
X134910046Y-84594455D01*
X135006642Y-84497859D01*
X135092113Y-84369942D01*
X135150987Y-84227809D01*
X135181000Y-84076922D01*
X135181000Y-83923078D01*
X135150987Y-83772191D01*
X135092113Y-83630058D01*
X135006642Y-83502141D01*
X134897859Y-83393358D01*
X134769942Y-83307887D01*
X134627809Y-83249013D01*
X134476922Y-83219000D01*
X134323078Y-83219000D01*
X134172191Y-83249013D01*
X134030058Y-83307887D01*
X133902141Y-83393358D01*
X133793358Y-83502141D01*
X133707887Y-83630058D01*
X133649013Y-83772191D01*
X133619000Y-83923078D01*
X126127000Y-83923078D01*
X126127000Y-74523078D01*
X136729000Y-74523078D01*
X136729000Y-74676922D01*
X136759013Y-74827809D01*
X136817887Y-74969942D01*
X136903358Y-75097859D01*
X137004000Y-75198501D01*
X137004001Y-79435144D01*
X137001553Y-79460000D01*
X137011322Y-79559192D01*
X137040255Y-79654574D01*
X137040256Y-79654575D01*
X137087242Y-79742479D01*
X137150474Y-79819527D01*
X137169780Y-79835371D01*
X137859000Y-80524592D01*
X137859000Y-80666922D01*
X137889013Y-80817809D01*
X137947887Y-80959942D01*
X138033358Y-81087859D01*
X138142141Y-81196642D01*
X138270058Y-81282113D01*
X138412191Y-81340987D01*
X138563078Y-81371000D01*
X138716922Y-81371000D01*
X138867809Y-81340987D01*
X139009942Y-81282113D01*
X139137859Y-81196642D01*
X139246642Y-81087859D01*
X139332113Y-80959942D01*
X139390987Y-80817809D01*
X139421000Y-80666922D01*
X139421000Y-80513078D01*
X139390987Y-80362191D01*
X139385938Y-80350000D01*
X166317157Y-80350000D01*
X166317157Y-81650000D01*
X166329317Y-81773462D01*
X166365329Y-81892179D01*
X166423810Y-82001589D01*
X166502512Y-82097488D01*
X166598411Y-82176190D01*
X166707821Y-82234671D01*
X166826538Y-82270683D01*
X166950000Y-82282843D01*
X170050000Y-82282843D01*
X170173462Y-82270683D01*
X170292179Y-82234671D01*
X170401589Y-82176190D01*
X170497488Y-82097488D01*
X170576190Y-82001589D01*
X170634671Y-81892179D01*
X170670683Y-81773462D01*
X170682843Y-81650000D01*
X170682843Y-80350000D01*
X170670683Y-80226538D01*
X170634671Y-80107821D01*
X170576190Y-79998411D01*
X170497488Y-79902512D01*
X170401589Y-79823810D01*
X170292179Y-79765329D01*
X170173462Y-79729317D01*
X170050000Y-79717157D01*
X166950000Y-79717157D01*
X166826538Y-79729317D01*
X166707821Y-79765329D01*
X166598411Y-79823810D01*
X166502512Y-79902512D01*
X166423810Y-79998411D01*
X166365329Y-80107821D01*
X166329317Y-80226538D01*
X166317157Y-80350000D01*
X139385938Y-80350000D01*
X139332113Y-80220058D01*
X139246642Y-80092141D01*
X139137859Y-79983358D01*
X139009942Y-79897887D01*
X138867809Y-79839013D01*
X138716922Y-79809000D01*
X138574592Y-79809000D01*
X138016000Y-79250409D01*
X138016000Y-76923078D01*
X140469000Y-76923078D01*
X140469000Y-77076922D01*
X140499013Y-77227809D01*
X140557887Y-77369942D01*
X140643358Y-77497859D01*
X140752141Y-77606642D01*
X140880058Y-77692113D01*
X141022191Y-77750987D01*
X141173078Y-77781000D01*
X141326922Y-77781000D01*
X141477809Y-77750987D01*
X141619942Y-77692113D01*
X141747859Y-77606642D01*
X141856642Y-77497859D01*
X141942113Y-77369942D01*
X142000987Y-77227809D01*
X142008507Y-77190000D01*
X166312802Y-77190000D01*
X166337535Y-77441120D01*
X166410784Y-77682589D01*
X166529734Y-77905129D01*
X166689814Y-78100186D01*
X166884871Y-78260266D01*
X167107411Y-78379216D01*
X167348880Y-78452465D01*
X167537070Y-78471000D01*
X169462930Y-78471000D01*
X169651120Y-78452465D01*
X169892589Y-78379216D01*
X170115129Y-78260266D01*
X170310186Y-78100186D01*
X170470266Y-77905129D01*
X170589216Y-77682589D01*
X170662465Y-77441120D01*
X170687198Y-77190000D01*
X170662465Y-76938880D01*
X170589216Y-76697411D01*
X170470266Y-76474871D01*
X170310186Y-76279814D01*
X170115129Y-76119734D01*
X169892589Y-76000784D01*
X169651120Y-75927535D01*
X169462930Y-75909000D01*
X167537070Y-75909000D01*
X167348880Y-75927535D01*
X167107411Y-76000784D01*
X166884871Y-76119734D01*
X166689814Y-76279814D01*
X166529734Y-76474871D01*
X166410784Y-76697411D01*
X166337535Y-76938880D01*
X166312802Y-77190000D01*
X142008507Y-77190000D01*
X142031000Y-77076922D01*
X142031000Y-76923078D01*
X142000987Y-76772191D01*
X141981517Y-76725186D01*
X142653405Y-75515787D01*
X142727809Y-75500987D01*
X142869942Y-75442113D01*
X142997859Y-75356642D01*
X143106642Y-75247859D01*
X143192113Y-75119942D01*
X143250987Y-74977809D01*
X143281000Y-74826922D01*
X143281000Y-74673078D01*
X143250987Y-74522191D01*
X143192113Y-74380058D01*
X143106642Y-74252141D01*
X142997859Y-74143358D01*
X142869942Y-74057887D01*
X142727809Y-73999013D01*
X142576922Y-73969000D01*
X142423078Y-73969000D01*
X142272191Y-73999013D01*
X142130058Y-74057887D01*
X142002141Y-74143358D01*
X141893358Y-74252141D01*
X141807887Y-74380058D01*
X141749013Y-74522191D01*
X141719000Y-74673078D01*
X141719000Y-74826922D01*
X141749013Y-74977809D01*
X141768483Y-75024813D01*
X141096594Y-76234213D01*
X141022191Y-76249013D01*
X140880058Y-76307887D01*
X140752141Y-76393358D01*
X140643358Y-76502141D01*
X140557887Y-76630058D01*
X140499013Y-76772191D01*
X140469000Y-76923078D01*
X138016000Y-76923078D01*
X138016000Y-75198501D01*
X138116642Y-75097859D01*
X138202113Y-74969942D01*
X138260987Y-74827809D01*
X138291000Y-74676922D01*
X138291000Y-74523078D01*
X138260987Y-74372191D01*
X138202113Y-74230058D01*
X138116642Y-74102141D01*
X138007859Y-73993358D01*
X137879942Y-73907887D01*
X137737809Y-73849013D01*
X137586922Y-73819000D01*
X137433078Y-73819000D01*
X137282191Y-73849013D01*
X137140058Y-73907887D01*
X137012141Y-73993358D01*
X136903358Y-74102141D01*
X136817887Y-74230058D01*
X136759013Y-74372191D01*
X136729000Y-74523078D01*
X126127000Y-74523078D01*
X126127000Y-69751814D01*
X128098013Y-69751814D01*
X128148013Y-73251814D01*
X128150440Y-73274776D01*
X128157667Y-73298601D01*
X128169403Y-73320557D01*
X128185197Y-73339803D01*
X128204443Y-73355597D01*
X128226399Y-73367333D01*
X128250224Y-73374560D01*
X128275000Y-73377000D01*
X131775000Y-73377000D01*
X131801553Y-73374193D01*
X131825272Y-73366627D01*
X131847059Y-73354578D01*
X131866076Y-73338511D01*
X131881594Y-73319042D01*
X131893015Y-73296920D01*
X131899901Y-73272995D01*
X131901987Y-73248186D01*
X131852013Y-69750000D01*
X166373000Y-69750000D01*
X166373000Y-73250000D01*
X166375440Y-73274776D01*
X166382667Y-73298601D01*
X166394403Y-73320557D01*
X166410197Y-73339803D01*
X166429443Y-73355597D01*
X166451399Y-73367333D01*
X166475224Y-73374560D01*
X166500000Y-73377000D01*
X170000000Y-73377000D01*
X170024776Y-73374560D01*
X170048601Y-73367333D01*
X170070557Y-73355597D01*
X170089803Y-73339803D01*
X170105597Y-73320557D01*
X170117333Y-73298601D01*
X170124560Y-73274776D01*
X170127000Y-73250000D01*
X170127000Y-69750000D01*
X170124560Y-69725224D01*
X170117333Y-69701399D01*
X170105597Y-69679443D01*
X170089803Y-69660197D01*
X170070557Y-69644403D01*
X170048601Y-69632667D01*
X170024776Y-69625440D01*
X170000000Y-69623000D01*
X166500000Y-69623000D01*
X166475224Y-69625440D01*
X166451399Y-69632667D01*
X166429443Y-69644403D01*
X166410197Y-69660197D01*
X166394403Y-69679443D01*
X166382667Y-69701399D01*
X166375440Y-69725224D01*
X166373000Y-69750000D01*
X131852013Y-69750000D01*
X131851987Y-69748186D01*
X131849560Y-69725224D01*
X131842333Y-69701399D01*
X131830597Y-69679443D01*
X131814803Y-69660197D01*
X131795557Y-69644403D01*
X131773601Y-69632667D01*
X131749776Y-69625440D01*
X131725000Y-69623000D01*
X128225000Y-69623000D01*
X128198447Y-69625807D01*
X128174728Y-69633373D01*
X128152941Y-69645422D01*
X128133924Y-69661489D01*
X128118406Y-69680958D01*
X128106985Y-69703080D01*
X128100099Y-69727005D01*
X128098013Y-69751814D01*
X126127000Y-69751814D01*
X126127000Y-69406000D01*
X171980146Y-69406000D01*
X172114994Y-69419222D01*
G37*
X172114994Y-69419222D02*
X172225614Y-69452620D01*
X172327639Y-69506868D01*
X172417179Y-69579895D01*
X172490833Y-69668925D01*
X172545792Y-69770572D01*
X172579960Y-69880949D01*
X172594001Y-70014537D01*
X172594000Y-87980146D01*
X172580778Y-88114994D01*
X172547379Y-88225615D01*
X172493132Y-88327639D01*
X172420106Y-88417179D01*
X172331072Y-88490834D01*
X172229428Y-88545792D01*
X172119051Y-88579960D01*
X171985472Y-88594000D01*
X126127000Y-88594000D01*
X126127000Y-83923078D01*
X133619000Y-83923078D01*
X133619000Y-84076922D01*
X133649013Y-84227809D01*
X133707887Y-84369942D01*
X133793358Y-84497859D01*
X133894000Y-84598501D01*
X133894000Y-84775153D01*
X133891553Y-84800000D01*
X133894000Y-84824846D01*
X133894000Y-84824853D01*
X133901322Y-84899192D01*
X133930255Y-84994574D01*
X133977241Y-85082479D01*
X134040473Y-85159527D01*
X134059785Y-85175376D01*
X135289954Y-86405545D01*
X135193358Y-86502141D01*
X135107887Y-86630058D01*
X135049013Y-86772191D01*
X135019000Y-86923078D01*
X135019000Y-87076922D01*
X135049013Y-87227809D01*
X135107887Y-87369942D01*
X135193358Y-87497859D01*
X135302141Y-87606642D01*
X135430058Y-87692113D01*
X135572191Y-87750987D01*
X135723078Y-87781000D01*
X135876922Y-87781000D01*
X136027809Y-87750987D01*
X136169942Y-87692113D01*
X136297859Y-87606642D01*
X136406642Y-87497859D01*
X136492113Y-87369942D01*
X136550987Y-87227809D01*
X136581000Y-87076922D01*
X136581000Y-86923078D01*
X136550987Y-86772191D01*
X136492113Y-86630058D01*
X136406642Y-86502141D01*
X136306000Y-86401499D01*
X136306000Y-86224846D01*
X136308447Y-86200000D01*
X136306000Y-86175154D01*
X136306000Y-86175146D01*
X136298678Y-86100807D01*
X136269745Y-86005425D01*
X136222759Y-85917521D01*
X136159527Y-85840473D01*
X136140220Y-85824628D01*
X134910046Y-84594455D01*
X135006642Y-84497859D01*
X135092113Y-84369942D01*
X135150987Y-84227809D01*
X135181000Y-84076922D01*
X135181000Y-83923078D01*
X135150987Y-83772191D01*
X135092113Y-83630058D01*
X135006642Y-83502141D01*
X134897859Y-83393358D01*
X134769942Y-83307887D01*
X134627809Y-83249013D01*
X134476922Y-83219000D01*
X134323078Y-83219000D01*
X134172191Y-83249013D01*
X134030058Y-83307887D01*
X133902141Y-83393358D01*
X133793358Y-83502141D01*
X133707887Y-83630058D01*
X133649013Y-83772191D01*
X133619000Y-83923078D01*
X126127000Y-83923078D01*
X126127000Y-74523078D01*
X136729000Y-74523078D01*
X136729000Y-74676922D01*
X136759013Y-74827809D01*
X136817887Y-74969942D01*
X136903358Y-75097859D01*
X137004000Y-75198501D01*
X137004001Y-79435144D01*
X137001553Y-79460000D01*
X137011322Y-79559192D01*
X137040255Y-79654574D01*
X137040256Y-79654575D01*
X137087242Y-79742479D01*
X137150474Y-79819527D01*
X137169780Y-79835371D01*
X137859000Y-80524592D01*
X137859000Y-80666922D01*
X137889013Y-80817809D01*
X137947887Y-80959942D01*
X138033358Y-81087859D01*
X138142141Y-81196642D01*
X138270058Y-81282113D01*
X138412191Y-81340987D01*
X138563078Y-81371000D01*
X138716922Y-81371000D01*
X138867809Y-81340987D01*
X139009942Y-81282113D01*
X139137859Y-81196642D01*
X139246642Y-81087859D01*
X139332113Y-80959942D01*
X139390987Y-80817809D01*
X139421000Y-80666922D01*
X139421000Y-80513078D01*
X139390987Y-80362191D01*
X139385938Y-80350000D01*
X166317157Y-80350000D01*
X166317157Y-81650000D01*
X166329317Y-81773462D01*
X166365329Y-81892179D01*
X166423810Y-82001589D01*
X166502512Y-82097488D01*
X166598411Y-82176190D01*
X166707821Y-82234671D01*
X166826538Y-82270683D01*
X166950000Y-82282843D01*
X170050000Y-82282843D01*
X170173462Y-82270683D01*
X170292179Y-82234671D01*
X170401589Y-82176190D01*
X170497488Y-82097488D01*
X170576190Y-82001589D01*
X170634671Y-81892179D01*
X170670683Y-81773462D01*
X170682843Y-81650000D01*
X170682843Y-80350000D01*
X170670683Y-80226538D01*
X170634671Y-80107821D01*
X170576190Y-79998411D01*
X170497488Y-79902512D01*
X170401589Y-79823810D01*
X170292179Y-79765329D01*
X170173462Y-79729317D01*
X170050000Y-79717157D01*
X166950000Y-79717157D01*
X166826538Y-79729317D01*
X166707821Y-79765329D01*
X166598411Y-79823810D01*
X166502512Y-79902512D01*
X166423810Y-79998411D01*
X166365329Y-80107821D01*
X166329317Y-80226538D01*
X166317157Y-80350000D01*
X139385938Y-80350000D01*
X139332113Y-80220058D01*
X139246642Y-80092141D01*
X139137859Y-79983358D01*
X139009942Y-79897887D01*
X138867809Y-79839013D01*
X138716922Y-79809000D01*
X138574592Y-79809000D01*
X138016000Y-79250409D01*
X138016000Y-76923078D01*
X140469000Y-76923078D01*
X140469000Y-77076922D01*
X140499013Y-77227809D01*
X140557887Y-77369942D01*
X140643358Y-77497859D01*
X140752141Y-77606642D01*
X140880058Y-77692113D01*
X141022191Y-77750987D01*
X141173078Y-77781000D01*
X141326922Y-77781000D01*
X141477809Y-77750987D01*
X141619942Y-77692113D01*
X141747859Y-77606642D01*
X141856642Y-77497859D01*
X141942113Y-77369942D01*
X142000987Y-77227809D01*
X142008507Y-77190000D01*
X166312802Y-77190000D01*
X166337535Y-77441120D01*
X166410784Y-77682589D01*
X166529734Y-77905129D01*
X166689814Y-78100186D01*
X166884871Y-78260266D01*
X167107411Y-78379216D01*
X167348880Y-78452465D01*
X167537070Y-78471000D01*
X169462930Y-78471000D01*
X169651120Y-78452465D01*
X169892589Y-78379216D01*
X170115129Y-78260266D01*
X170310186Y-78100186D01*
X170470266Y-77905129D01*
X170589216Y-77682589D01*
X170662465Y-77441120D01*
X170687198Y-77190000D01*
X170662465Y-76938880D01*
X170589216Y-76697411D01*
X170470266Y-76474871D01*
X170310186Y-76279814D01*
X170115129Y-76119734D01*
X169892589Y-76000784D01*
X169651120Y-75927535D01*
X169462930Y-75909000D01*
X167537070Y-75909000D01*
X167348880Y-75927535D01*
X167107411Y-76000784D01*
X166884871Y-76119734D01*
X166689814Y-76279814D01*
X166529734Y-76474871D01*
X166410784Y-76697411D01*
X166337535Y-76938880D01*
X166312802Y-77190000D01*
X142008507Y-77190000D01*
X142031000Y-77076922D01*
X142031000Y-76923078D01*
X142000987Y-76772191D01*
X141981517Y-76725186D01*
X142653405Y-75515787D01*
X142727809Y-75500987D01*
X142869942Y-75442113D01*
X142997859Y-75356642D01*
X143106642Y-75247859D01*
X143192113Y-75119942D01*
X143250987Y-74977809D01*
X143281000Y-74826922D01*
X143281000Y-74673078D01*
X143250987Y-74522191D01*
X143192113Y-74380058D01*
X143106642Y-74252141D01*
X142997859Y-74143358D01*
X142869942Y-74057887D01*
X142727809Y-73999013D01*
X142576922Y-73969000D01*
X142423078Y-73969000D01*
X142272191Y-73999013D01*
X142130058Y-74057887D01*
X142002141Y-74143358D01*
X141893358Y-74252141D01*
X141807887Y-74380058D01*
X141749013Y-74522191D01*
X141719000Y-74673078D01*
X141719000Y-74826922D01*
X141749013Y-74977809D01*
X141768483Y-75024813D01*
X141096594Y-76234213D01*
X141022191Y-76249013D01*
X140880058Y-76307887D01*
X140752141Y-76393358D01*
X140643358Y-76502141D01*
X140557887Y-76630058D01*
X140499013Y-76772191D01*
X140469000Y-76923078D01*
X138016000Y-76923078D01*
X138016000Y-75198501D01*
X138116642Y-75097859D01*
X138202113Y-74969942D01*
X138260987Y-74827809D01*
X138291000Y-74676922D01*
X138291000Y-74523078D01*
X138260987Y-74372191D01*
X138202113Y-74230058D01*
X138116642Y-74102141D01*
X138007859Y-73993358D01*
X137879942Y-73907887D01*
X137737809Y-73849013D01*
X137586922Y-73819000D01*
X137433078Y-73819000D01*
X137282191Y-73849013D01*
X137140058Y-73907887D01*
X137012141Y-73993358D01*
X136903358Y-74102141D01*
X136817887Y-74230058D01*
X136759013Y-74372191D01*
X136729000Y-74523078D01*
X126127000Y-74523078D01*
X126127000Y-69751814D01*
X128098013Y-69751814D01*
X128148013Y-73251814D01*
X128150440Y-73274776D01*
X128157667Y-73298601D01*
X128169403Y-73320557D01*
X128185197Y-73339803D01*
X128204443Y-73355597D01*
X128226399Y-73367333D01*
X128250224Y-73374560D01*
X128275000Y-73377000D01*
X131775000Y-73377000D01*
X131801553Y-73374193D01*
X131825272Y-73366627D01*
X131847059Y-73354578D01*
X131866076Y-73338511D01*
X131881594Y-73319042D01*
X131893015Y-73296920D01*
X131899901Y-73272995D01*
X131901987Y-73248186D01*
X131852013Y-69750000D01*
X166373000Y-69750000D01*
X166373000Y-73250000D01*
X166375440Y-73274776D01*
X166382667Y-73298601D01*
X166394403Y-73320557D01*
X166410197Y-73339803D01*
X166429443Y-73355597D01*
X166451399Y-73367333D01*
X166475224Y-73374560D01*
X166500000Y-73377000D01*
X170000000Y-73377000D01*
X170024776Y-73374560D01*
X170048601Y-73367333D01*
X170070557Y-73355597D01*
X170089803Y-73339803D01*
X170105597Y-73320557D01*
X170117333Y-73298601D01*
X170124560Y-73274776D01*
X170127000Y-73250000D01*
X170127000Y-69750000D01*
X170124560Y-69725224D01*
X170117333Y-69701399D01*
X170105597Y-69679443D01*
X170089803Y-69660197D01*
X170070557Y-69644403D01*
X170048601Y-69632667D01*
X170024776Y-69625440D01*
X170000000Y-69623000D01*
X166500000Y-69623000D01*
X166475224Y-69625440D01*
X166451399Y-69632667D01*
X166429443Y-69644403D01*
X166410197Y-69660197D01*
X166394403Y-69679443D01*
X166382667Y-69701399D01*
X166375440Y-69725224D01*
X166373000Y-69750000D01*
X131852013Y-69750000D01*
X131851987Y-69748186D01*
X131849560Y-69725224D01*
X131842333Y-69701399D01*
X131830597Y-69679443D01*
X131814803Y-69660197D01*
X131795557Y-69644403D01*
X131773601Y-69632667D01*
X131749776Y-69625440D01*
X131725000Y-69623000D01*
X128225000Y-69623000D01*
X128198447Y-69625807D01*
X128174728Y-69633373D01*
X128152941Y-69645422D01*
X128133924Y-69661489D01*
X128118406Y-69680958D01*
X128106985Y-69703080D01*
X128100099Y-69727005D01*
X128098013Y-69751814D01*
X126127000Y-69751814D01*
X126127000Y-69406000D01*
X171980146Y-69406000D01*
X172114994Y-69419222D01*
G36*
X117873000Y-88594000D02*
G01*
X94019854Y-88594000D01*
X93885006Y-88580778D01*
X93774385Y-88547379D01*
X93672361Y-88493132D01*
X93582821Y-88420106D01*
X93509166Y-88331072D01*
X93454208Y-88229428D01*
X93420040Y-88119051D01*
X93406000Y-87985472D01*
X93406000Y-81208304D01*
X94969000Y-81208304D01*
X94969000Y-81391696D01*
X95004778Y-81571563D01*
X95074958Y-81740994D01*
X95176845Y-81893478D01*
X95306522Y-82023155D01*
X95459006Y-82125042D01*
X95628437Y-82195222D01*
X95808304Y-82231000D01*
X95991696Y-82231000D01*
X96171563Y-82195222D01*
X96340994Y-82125042D01*
X96493478Y-82023155D01*
X96593555Y-81923078D01*
X105219000Y-81923078D01*
X105219000Y-82076922D01*
X105249013Y-82227809D01*
X105307887Y-82369942D01*
X105393358Y-82497859D01*
X105502141Y-82606642D01*
X105630058Y-82692113D01*
X105772191Y-82750987D01*
X105923078Y-82781000D01*
X106076922Y-82781000D01*
X106227809Y-82750987D01*
X106369942Y-82692113D01*
X106497859Y-82606642D01*
X106598501Y-82506000D01*
X107651499Y-82506000D01*
X107752141Y-82606642D01*
X107880058Y-82692113D01*
X108022191Y-82750987D01*
X108173078Y-82781000D01*
X108326922Y-82781000D01*
X108477809Y-82750987D01*
X108619942Y-82692113D01*
X108747859Y-82606642D01*
X108856642Y-82497859D01*
X108942113Y-82369942D01*
X109000987Y-82227809D01*
X109031000Y-82076922D01*
X109031000Y-81923078D01*
X109000987Y-81772191D01*
X108942113Y-81630058D01*
X108856642Y-81502141D01*
X108747859Y-81393358D01*
X108619942Y-81307887D01*
X108477809Y-81249013D01*
X108326922Y-81219000D01*
X108173078Y-81219000D01*
X108022191Y-81249013D01*
X107880058Y-81307887D01*
X107752141Y-81393358D01*
X107651499Y-81494000D01*
X106598501Y-81494000D01*
X106497859Y-81393358D01*
X106369942Y-81307887D01*
X106227809Y-81249013D01*
X106076922Y-81219000D01*
X105923078Y-81219000D01*
X105772191Y-81249013D01*
X105630058Y-81307887D01*
X105502141Y-81393358D01*
X105393358Y-81502141D01*
X105307887Y-81630058D01*
X105249013Y-81772191D01*
X105219000Y-81923078D01*
X96593555Y-81923078D01*
X96623155Y-81893478D01*
X96725042Y-81740994D01*
X96795222Y-81571563D01*
X96831000Y-81391696D01*
X96831000Y-81208304D01*
X96795222Y-81028437D01*
X96725042Y-80859006D01*
X96623155Y-80706522D01*
X96493478Y-80576845D01*
X96340994Y-80474958D01*
X96171563Y-80404778D01*
X95991696Y-80369000D01*
X95808304Y-80369000D01*
X95628437Y-80404778D01*
X95459006Y-80474958D01*
X95306522Y-80576845D01*
X95176845Y-80706522D01*
X95074958Y-80859006D01*
X95004778Y-81028437D01*
X94969000Y-81208304D01*
X93406000Y-81208304D01*
X93406000Y-77923078D01*
X104219000Y-77923078D01*
X104219000Y-78076922D01*
X104249013Y-78227809D01*
X104307887Y-78369942D01*
X104393358Y-78497859D01*
X104494000Y-78598501D01*
X104494001Y-79401498D01*
X104393358Y-79502141D01*
X104307887Y-79630058D01*
X104249013Y-79772191D01*
X104219000Y-79923078D01*
X104219000Y-80076922D01*
X104249013Y-80227809D01*
X104307887Y-80369942D01*
X104393358Y-80497859D01*
X104502141Y-80606642D01*
X104630058Y-80692113D01*
X104772191Y-80750987D01*
X104923078Y-80781000D01*
X105076922Y-80781000D01*
X105227809Y-80750987D01*
X105369942Y-80692113D01*
X105497859Y-80606642D01*
X105606642Y-80497859D01*
X105692113Y-80369942D01*
X105750987Y-80227809D01*
X105781000Y-80076922D01*
X105781000Y-79923078D01*
X105750987Y-79772191D01*
X105692113Y-79630058D01*
X105606642Y-79502141D01*
X105506000Y-79401499D01*
X105506000Y-78598501D01*
X105606642Y-78497859D01*
X105692113Y-78369942D01*
X105750987Y-78227809D01*
X105781000Y-78076922D01*
X105781000Y-77923078D01*
X105750987Y-77772191D01*
X105692113Y-77630058D01*
X105606642Y-77502141D01*
X105497859Y-77393358D01*
X105369942Y-77307887D01*
X105227809Y-77249013D01*
X105076922Y-77219000D01*
X104923078Y-77219000D01*
X104772191Y-77249013D01*
X104630058Y-77307887D01*
X104502141Y-77393358D01*
X104393358Y-77502141D01*
X104307887Y-77630058D01*
X104249013Y-77772191D01*
X104219000Y-77923078D01*
X93406000Y-77923078D01*
X93406000Y-76608304D01*
X94969000Y-76608304D01*
X94969000Y-76791696D01*
X95004778Y-76971563D01*
X95074958Y-77140994D01*
X95176845Y-77293478D01*
X95306522Y-77423155D01*
X95459006Y-77525042D01*
X95628437Y-77595222D01*
X95808304Y-77631000D01*
X95991696Y-77631000D01*
X96171563Y-77595222D01*
X96340994Y-77525042D01*
X96493478Y-77423155D01*
X96623155Y-77293478D01*
X96725042Y-77140994D01*
X96795222Y-76971563D01*
X96831000Y-76791696D01*
X96831000Y-76608304D01*
X96795222Y-76428437D01*
X96725042Y-76259006D01*
X96623155Y-76106522D01*
X96493478Y-75976845D01*
X96340994Y-75874958D01*
X96171563Y-75804778D01*
X95991696Y-75769000D01*
X95808304Y-75769000D01*
X95628437Y-75804778D01*
X95459006Y-75874958D01*
X95306522Y-75976845D01*
X95176845Y-76106522D01*
X95074958Y-76259006D01*
X95004778Y-76428437D01*
X94969000Y-76608304D01*
X93406000Y-76608304D01*
X93406000Y-75000000D01*
X111623000Y-75000000D01*
X111623000Y-78500000D01*
X111625440Y-78524776D01*
X111632667Y-78548601D01*
X111644403Y-78570557D01*
X111660197Y-78589803D01*
X111679443Y-78605597D01*
X111701399Y-78617333D01*
X111725224Y-78624560D01*
X111750000Y-78627000D01*
X115250000Y-78627000D01*
X115274776Y-78624560D01*
X115298601Y-78617333D01*
X115320557Y-78605597D01*
X115339803Y-78589803D01*
X115355597Y-78570557D01*
X115367333Y-78548601D01*
X115374560Y-78524776D01*
X115377000Y-78500000D01*
X115377000Y-75000000D01*
X115374560Y-74975224D01*
X115367333Y-74951399D01*
X115355597Y-74929443D01*
X115339803Y-74910197D01*
X115320557Y-74894403D01*
X115298601Y-74882667D01*
X115274776Y-74875440D01*
X115250000Y-74873000D01*
X111750000Y-74873000D01*
X111725224Y-74875440D01*
X111701399Y-74882667D01*
X111679443Y-74894403D01*
X111660197Y-74910197D01*
X111644403Y-74929443D01*
X111632667Y-74951399D01*
X111625440Y-74975224D01*
X111623000Y-75000000D01*
X93406000Y-75000000D01*
X93406000Y-70019854D01*
X93419222Y-69885006D01*
X93452620Y-69774386D01*
X93506868Y-69672361D01*
X93579895Y-69582821D01*
X93668925Y-69509167D01*
X93770572Y-69454208D01*
X93880949Y-69420040D01*
X94014528Y-69406000D01*
X117873000Y-69406000D01*
X117873000Y-88594000D01*
G37*
X117873000Y-88594000D02*
X94019854Y-88594000D01*
X93885006Y-88580778D01*
X93774385Y-88547379D01*
X93672361Y-88493132D01*
X93582821Y-88420106D01*
X93509166Y-88331072D01*
X93454208Y-88229428D01*
X93420040Y-88119051D01*
X93406000Y-87985472D01*
X93406000Y-81208304D01*
X94969000Y-81208304D01*
X94969000Y-81391696D01*
X95004778Y-81571563D01*
X95074958Y-81740994D01*
X95176845Y-81893478D01*
X95306522Y-82023155D01*
X95459006Y-82125042D01*
X95628437Y-82195222D01*
X95808304Y-82231000D01*
X95991696Y-82231000D01*
X96171563Y-82195222D01*
X96340994Y-82125042D01*
X96493478Y-82023155D01*
X96593555Y-81923078D01*
X105219000Y-81923078D01*
X105219000Y-82076922D01*
X105249013Y-82227809D01*
X105307887Y-82369942D01*
X105393358Y-82497859D01*
X105502141Y-82606642D01*
X105630058Y-82692113D01*
X105772191Y-82750987D01*
X105923078Y-82781000D01*
X106076922Y-82781000D01*
X106227809Y-82750987D01*
X106369942Y-82692113D01*
X106497859Y-82606642D01*
X106598501Y-82506000D01*
X107651499Y-82506000D01*
X107752141Y-82606642D01*
X107880058Y-82692113D01*
X108022191Y-82750987D01*
X108173078Y-82781000D01*
X108326922Y-82781000D01*
X108477809Y-82750987D01*
X108619942Y-82692113D01*
X108747859Y-82606642D01*
X108856642Y-82497859D01*
X108942113Y-82369942D01*
X109000987Y-82227809D01*
X109031000Y-82076922D01*
X109031000Y-81923078D01*
X109000987Y-81772191D01*
X108942113Y-81630058D01*
X108856642Y-81502141D01*
X108747859Y-81393358D01*
X108619942Y-81307887D01*
X108477809Y-81249013D01*
X108326922Y-81219000D01*
X108173078Y-81219000D01*
X108022191Y-81249013D01*
X107880058Y-81307887D01*
X107752141Y-81393358D01*
X107651499Y-81494000D01*
X106598501Y-81494000D01*
X106497859Y-81393358D01*
X106369942Y-81307887D01*
X106227809Y-81249013D01*
X106076922Y-81219000D01*
X105923078Y-81219000D01*
X105772191Y-81249013D01*
X105630058Y-81307887D01*
X105502141Y-81393358D01*
X105393358Y-81502141D01*
X105307887Y-81630058D01*
X105249013Y-81772191D01*
X105219000Y-81923078D01*
X96593555Y-81923078D01*
X96623155Y-81893478D01*
X96725042Y-81740994D01*
X96795222Y-81571563D01*
X96831000Y-81391696D01*
X96831000Y-81208304D01*
X96795222Y-81028437D01*
X96725042Y-80859006D01*
X96623155Y-80706522D01*
X96493478Y-80576845D01*
X96340994Y-80474958D01*
X96171563Y-80404778D01*
X95991696Y-80369000D01*
X95808304Y-80369000D01*
X95628437Y-80404778D01*
X95459006Y-80474958D01*
X95306522Y-80576845D01*
X95176845Y-80706522D01*
X95074958Y-80859006D01*
X95004778Y-81028437D01*
X94969000Y-81208304D01*
X93406000Y-81208304D01*
X93406000Y-77923078D01*
X104219000Y-77923078D01*
X104219000Y-78076922D01*
X104249013Y-78227809D01*
X104307887Y-78369942D01*
X104393358Y-78497859D01*
X104494000Y-78598501D01*
X104494001Y-79401498D01*
X104393358Y-79502141D01*
X104307887Y-79630058D01*
X104249013Y-79772191D01*
X104219000Y-79923078D01*
X104219000Y-80076922D01*
X104249013Y-80227809D01*
X104307887Y-80369942D01*
X104393358Y-80497859D01*
X104502141Y-80606642D01*
X104630058Y-80692113D01*
X104772191Y-80750987D01*
X104923078Y-80781000D01*
X105076922Y-80781000D01*
X105227809Y-80750987D01*
X105369942Y-80692113D01*
X105497859Y-80606642D01*
X105606642Y-80497859D01*
X105692113Y-80369942D01*
X105750987Y-80227809D01*
X105781000Y-80076922D01*
X105781000Y-79923078D01*
X105750987Y-79772191D01*
X105692113Y-79630058D01*
X105606642Y-79502141D01*
X105506000Y-79401499D01*
X105506000Y-78598501D01*
X105606642Y-78497859D01*
X105692113Y-78369942D01*
X105750987Y-78227809D01*
X105781000Y-78076922D01*
X105781000Y-77923078D01*
X105750987Y-77772191D01*
X105692113Y-77630058D01*
X105606642Y-77502141D01*
X105497859Y-77393358D01*
X105369942Y-77307887D01*
X105227809Y-77249013D01*
X105076922Y-77219000D01*
X104923078Y-77219000D01*
X104772191Y-77249013D01*
X104630058Y-77307887D01*
X104502141Y-77393358D01*
X104393358Y-77502141D01*
X104307887Y-77630058D01*
X104249013Y-77772191D01*
X104219000Y-77923078D01*
X93406000Y-77923078D01*
X93406000Y-76608304D01*
X94969000Y-76608304D01*
X94969000Y-76791696D01*
X95004778Y-76971563D01*
X95074958Y-77140994D01*
X95176845Y-77293478D01*
X95306522Y-77423155D01*
X95459006Y-77525042D01*
X95628437Y-77595222D01*
X95808304Y-77631000D01*
X95991696Y-77631000D01*
X96171563Y-77595222D01*
X96340994Y-77525042D01*
X96493478Y-77423155D01*
X96623155Y-77293478D01*
X96725042Y-77140994D01*
X96795222Y-76971563D01*
X96831000Y-76791696D01*
X96831000Y-76608304D01*
X96795222Y-76428437D01*
X96725042Y-76259006D01*
X96623155Y-76106522D01*
X96493478Y-75976845D01*
X96340994Y-75874958D01*
X96171563Y-75804778D01*
X95991696Y-75769000D01*
X95808304Y-75769000D01*
X95628437Y-75804778D01*
X95459006Y-75874958D01*
X95306522Y-75976845D01*
X95176845Y-76106522D01*
X95074958Y-76259006D01*
X95004778Y-76428437D01*
X94969000Y-76608304D01*
X93406000Y-76608304D01*
X93406000Y-75000000D01*
X111623000Y-75000000D01*
X111623000Y-78500000D01*
X111625440Y-78524776D01*
X111632667Y-78548601D01*
X111644403Y-78570557D01*
X111660197Y-78589803D01*
X111679443Y-78605597D01*
X111701399Y-78617333D01*
X111725224Y-78624560D01*
X111750000Y-78627000D01*
X115250000Y-78627000D01*
X115274776Y-78624560D01*
X115298601Y-78617333D01*
X115320557Y-78605597D01*
X115339803Y-78589803D01*
X115355597Y-78570557D01*
X115367333Y-78548601D01*
X115374560Y-78524776D01*
X115377000Y-78500000D01*
X115377000Y-75000000D01*
X115374560Y-74975224D01*
X115367333Y-74951399D01*
X115355597Y-74929443D01*
X115339803Y-74910197D01*
X115320557Y-74894403D01*
X115298601Y-74882667D01*
X115274776Y-74875440D01*
X115250000Y-74873000D01*
X111750000Y-74873000D01*
X111725224Y-74875440D01*
X111701399Y-74882667D01*
X111679443Y-74894403D01*
X111660197Y-74910197D01*
X111644403Y-74929443D01*
X111632667Y-74951399D01*
X111625440Y-74975224D01*
X111623000Y-75000000D01*
X93406000Y-75000000D01*
X93406000Y-70019854D01*
X93419222Y-69885006D01*
X93452620Y-69774386D01*
X93506868Y-69672361D01*
X93579895Y-69582821D01*
X93668925Y-69509167D01*
X93770572Y-69454208D01*
X93880949Y-69420040D01*
X94014528Y-69406000D01*
X117873000Y-69406000D01*
X117873000Y-88594000D01*
M02*
