G04 #@! TF.GenerationSoftware,KiCad,Pcbnew,(5.1.6)-1*
G04 #@! TF.CreationDate,2020-11-13T23:39:30+01:00*
G04 #@! TF.ProjectId,ebuzzz-adapter,6562757a-7a7a-42d6-9164-61707465722e,rev?*
G04 #@! TF.SameCoordinates,Original*
G04 #@! TF.FileFunction,Legend,Top*
G04 #@! TF.FilePolarity,Positive*
%FSLAX46Y46*%
G04 Gerber Fmt 4.6, Leading zero omitted, Abs format (unit mm)*
G04 Created by KiCad (PCBNEW (5.1.6)-1) date 2020-11-13 23:39:30*
%MOMM*%
%LPD*%
G01*
G04 APERTURE LIST*
%ADD10C,0.150000*%
%ADD11C,0.200000*%
%ADD12C,0.120000*%
G04 APERTURE END LIST*
D10*
X157119047Y-77571428D02*
X157880952Y-77571428D01*
X157500000Y-77952380D02*
X157500000Y-77190476D01*
X157119047Y-81071428D02*
X157880952Y-81071428D01*
D11*
X161476190Y-87452380D02*
X161809523Y-88452380D01*
X162142857Y-87452380D01*
X163000000Y-88452380D02*
X162428571Y-88452380D01*
X162714285Y-88452380D02*
X162714285Y-87452380D01*
X162619047Y-87595238D01*
X162523809Y-87690476D01*
X162428571Y-87738095D01*
X163428571Y-88357142D02*
X163476190Y-88404761D01*
X163428571Y-88452380D01*
X163380952Y-88404761D01*
X163428571Y-88357142D01*
X163428571Y-88452380D01*
X164428571Y-88452380D02*
X163857142Y-88452380D01*
X164142857Y-88452380D02*
X164142857Y-87452380D01*
X164047619Y-87595238D01*
X163952380Y-87690476D01*
X163857142Y-87738095D01*
D10*
X120780952Y-82017857D02*
X120514285Y-82017857D01*
X120514285Y-82436904D02*
X120514285Y-81636904D01*
X120895238Y-81636904D01*
X121314285Y-82436904D02*
X121238095Y-82398809D01*
X121200000Y-82322619D01*
X121200000Y-81636904D01*
X121733333Y-82436904D02*
X121657142Y-82398809D01*
X121619047Y-82360714D01*
X121580952Y-82284523D01*
X121580952Y-82055952D01*
X121619047Y-81979761D01*
X121657142Y-81941666D01*
X121733333Y-81903571D01*
X121847619Y-81903571D01*
X121923809Y-81941666D01*
X121961904Y-81979761D01*
X122000000Y-82055952D01*
X122000000Y-82284523D01*
X121961904Y-82360714D01*
X121923809Y-82398809D01*
X121847619Y-82436904D01*
X121733333Y-82436904D01*
X122342857Y-82436904D02*
X122342857Y-81903571D01*
X122342857Y-82055952D02*
X122380952Y-81979761D01*
X122419047Y-81941666D01*
X122495238Y-81903571D01*
X122571428Y-81903571D01*
X122838095Y-82436904D02*
X122838095Y-81903571D01*
X122838095Y-81636904D02*
X122800000Y-81675000D01*
X122838095Y-81713095D01*
X122876190Y-81675000D01*
X122838095Y-81636904D01*
X122838095Y-81713095D01*
X123180952Y-82398809D02*
X123257142Y-82436904D01*
X123409523Y-82436904D01*
X123485714Y-82398809D01*
X123523809Y-82322619D01*
X123523809Y-82284523D01*
X123485714Y-82208333D01*
X123409523Y-82170238D01*
X123295238Y-82170238D01*
X123219047Y-82132142D01*
X123180952Y-82055952D01*
X123180952Y-82017857D01*
X123219047Y-81941666D01*
X123295238Y-81903571D01*
X123409523Y-81903571D01*
X123485714Y-81941666D01*
X120266666Y-83786904D02*
X120000000Y-83405952D01*
X119809523Y-83786904D02*
X119809523Y-82986904D01*
X120114285Y-82986904D01*
X120190476Y-83025000D01*
X120228571Y-83063095D01*
X120266666Y-83139285D01*
X120266666Y-83253571D01*
X120228571Y-83329761D01*
X120190476Y-83367857D01*
X120114285Y-83405952D01*
X119809523Y-83405952D01*
X120723809Y-83786904D02*
X120647619Y-83748809D01*
X120609523Y-83710714D01*
X120571428Y-83634523D01*
X120571428Y-83405952D01*
X120609523Y-83329761D01*
X120647619Y-83291666D01*
X120723809Y-83253571D01*
X120838095Y-83253571D01*
X120914285Y-83291666D01*
X120952380Y-83329761D01*
X120990476Y-83405952D01*
X120990476Y-83634523D01*
X120952380Y-83710714D01*
X120914285Y-83748809D01*
X120838095Y-83786904D01*
X120723809Y-83786904D01*
X121333333Y-83786904D02*
X121333333Y-83253571D01*
X121333333Y-83329761D02*
X121371428Y-83291666D01*
X121447619Y-83253571D01*
X121561904Y-83253571D01*
X121638095Y-83291666D01*
X121676190Y-83367857D01*
X121676190Y-83786904D01*
X121676190Y-83367857D02*
X121714285Y-83291666D01*
X121790476Y-83253571D01*
X121904761Y-83253571D01*
X121980952Y-83291666D01*
X122019047Y-83367857D01*
X122019047Y-83786904D01*
X122704761Y-83748809D02*
X122628571Y-83786904D01*
X122476190Y-83786904D01*
X122400000Y-83748809D01*
X122361904Y-83672619D01*
X122361904Y-83367857D01*
X122400000Y-83291666D01*
X122476190Y-83253571D01*
X122628571Y-83253571D01*
X122704761Y-83291666D01*
X122742857Y-83367857D01*
X122742857Y-83444047D01*
X122361904Y-83520238D01*
X123085714Y-83786904D02*
X123085714Y-83253571D01*
X123085714Y-82986904D02*
X123047619Y-83025000D01*
X123085714Y-83063095D01*
X123123809Y-83025000D01*
X123085714Y-82986904D01*
X123085714Y-83063095D01*
X123466666Y-83253571D02*
X123466666Y-83939285D01*
X123428571Y-84015476D01*
X123352380Y-84053571D01*
X123314285Y-84053571D01*
X123466666Y-82986904D02*
X123428571Y-83025000D01*
X123466666Y-83063095D01*
X123504761Y-83025000D01*
X123466666Y-82986904D01*
X123466666Y-83063095D01*
X123847619Y-83253571D02*
X123847619Y-83786904D01*
X123847619Y-83329761D02*
X123885714Y-83291666D01*
X123961904Y-83253571D01*
X124076190Y-83253571D01*
X124152380Y-83291666D01*
X124190476Y-83367857D01*
X124190476Y-83786904D01*
X119504761Y-74936904D02*
X119504761Y-74136904D01*
X119695238Y-74136904D01*
X119809523Y-74175000D01*
X119885714Y-74251190D01*
X119923809Y-74327380D01*
X119961904Y-74479761D01*
X119961904Y-74594047D01*
X119923809Y-74746428D01*
X119885714Y-74822619D01*
X119809523Y-74898809D01*
X119695238Y-74936904D01*
X119504761Y-74936904D01*
X120609523Y-74898809D02*
X120533333Y-74936904D01*
X120380952Y-74936904D01*
X120304761Y-74898809D01*
X120266666Y-74822619D01*
X120266666Y-74517857D01*
X120304761Y-74441666D01*
X120380952Y-74403571D01*
X120533333Y-74403571D01*
X120609523Y-74441666D01*
X120647619Y-74517857D01*
X120647619Y-74594047D01*
X120266666Y-74670238D01*
X120952380Y-74898809D02*
X121028571Y-74936904D01*
X121180952Y-74936904D01*
X121257142Y-74898809D01*
X121295238Y-74822619D01*
X121295238Y-74784523D01*
X121257142Y-74708333D01*
X121180952Y-74670238D01*
X121066666Y-74670238D01*
X120990476Y-74632142D01*
X120952380Y-74555952D01*
X120952380Y-74517857D01*
X120990476Y-74441666D01*
X121066666Y-74403571D01*
X121180952Y-74403571D01*
X121257142Y-74441666D01*
X121638095Y-74936904D02*
X121638095Y-74403571D01*
X121638095Y-74136904D02*
X121600000Y-74175000D01*
X121638095Y-74213095D01*
X121676190Y-74175000D01*
X121638095Y-74136904D01*
X121638095Y-74213095D01*
X122361904Y-74403571D02*
X122361904Y-75051190D01*
X122323809Y-75127380D01*
X122285714Y-75165476D01*
X122209523Y-75203571D01*
X122095238Y-75203571D01*
X122019047Y-75165476D01*
X122361904Y-74898809D02*
X122285714Y-74936904D01*
X122133333Y-74936904D01*
X122057142Y-74898809D01*
X122019047Y-74860714D01*
X121980952Y-74784523D01*
X121980952Y-74555952D01*
X122019047Y-74479761D01*
X122057142Y-74441666D01*
X122133333Y-74403571D01*
X122285714Y-74403571D01*
X122361904Y-74441666D01*
X122742857Y-74403571D02*
X122742857Y-74936904D01*
X122742857Y-74479761D02*
X122780952Y-74441666D01*
X122857142Y-74403571D01*
X122971428Y-74403571D01*
X123047619Y-74441666D01*
X123085714Y-74517857D01*
X123085714Y-74936904D01*
X123771428Y-74898809D02*
X123695238Y-74936904D01*
X123542857Y-74936904D01*
X123466666Y-74898809D01*
X123428571Y-74822619D01*
X123428571Y-74517857D01*
X123466666Y-74441666D01*
X123542857Y-74403571D01*
X123695238Y-74403571D01*
X123771428Y-74441666D01*
X123809523Y-74517857D01*
X123809523Y-74594047D01*
X123428571Y-74670238D01*
X124495238Y-74936904D02*
X124495238Y-74136904D01*
X124495238Y-74898809D02*
X124419047Y-74936904D01*
X124266666Y-74936904D01*
X124190476Y-74898809D01*
X124152380Y-74860714D01*
X124114285Y-74784523D01*
X124114285Y-74555952D01*
X124152380Y-74479761D01*
X124190476Y-74441666D01*
X124266666Y-74403571D01*
X124419047Y-74403571D01*
X124495238Y-74441666D01*
X121523809Y-76286904D02*
X121523809Y-75486904D01*
X121523809Y-75791666D02*
X121600000Y-75753571D01*
X121752380Y-75753571D01*
X121828571Y-75791666D01*
X121866666Y-75829761D01*
X121904761Y-75905952D01*
X121904761Y-76134523D01*
X121866666Y-76210714D01*
X121828571Y-76248809D01*
X121752380Y-76286904D01*
X121600000Y-76286904D01*
X121523809Y-76248809D01*
X122171428Y-75753571D02*
X122361904Y-76286904D01*
X122552380Y-75753571D02*
X122361904Y-76286904D01*
X122285714Y-76477380D01*
X122247619Y-76515476D01*
X122171428Y-76553571D01*
D11*
X166457142Y-86185714D02*
X166342857Y-86242857D01*
X166114285Y-86242857D01*
X166000000Y-86185714D01*
X165942857Y-86071428D01*
X165942857Y-85614285D01*
X166000000Y-85500000D01*
X166114285Y-85442857D01*
X166342857Y-85442857D01*
X166457142Y-85500000D01*
X166514285Y-85614285D01*
X166514285Y-85728571D01*
X165942857Y-85842857D01*
X167428571Y-85614285D02*
X167600000Y-85671428D01*
X167657142Y-85728571D01*
X167714285Y-85842857D01*
X167714285Y-86014285D01*
X167657142Y-86128571D01*
X167600000Y-86185714D01*
X167485714Y-86242857D01*
X167028571Y-86242857D01*
X167028571Y-85042857D01*
X167428571Y-85042857D01*
X167542857Y-85100000D01*
X167600000Y-85157142D01*
X167657142Y-85271428D01*
X167657142Y-85385714D01*
X167600000Y-85500000D01*
X167542857Y-85557142D01*
X167428571Y-85614285D01*
X167028571Y-85614285D01*
X168228571Y-85042857D02*
X168228571Y-86014285D01*
X168285714Y-86128571D01*
X168342857Y-86185714D01*
X168457142Y-86242857D01*
X168685714Y-86242857D01*
X168800000Y-86185714D01*
X168857142Y-86128571D01*
X168914285Y-86014285D01*
X168914285Y-85042857D01*
X169371428Y-85042857D02*
X170171428Y-85042857D01*
X169371428Y-86242857D01*
X170171428Y-86242857D01*
X170514285Y-85442857D02*
X171142857Y-85442857D01*
X170514285Y-86242857D01*
X171142857Y-86242857D01*
X171485714Y-85442857D02*
X172114285Y-85442857D01*
X171485714Y-86242857D01*
X172114285Y-86242857D01*
X166400000Y-88242857D02*
X166400000Y-87614285D01*
X166342857Y-87500000D01*
X166228571Y-87442857D01*
X166000000Y-87442857D01*
X165885714Y-87500000D01*
X166400000Y-88185714D02*
X166285714Y-88242857D01*
X166000000Y-88242857D01*
X165885714Y-88185714D01*
X165828571Y-88071428D01*
X165828571Y-87957142D01*
X165885714Y-87842857D01*
X166000000Y-87785714D01*
X166285714Y-87785714D01*
X166400000Y-87728571D01*
X167485714Y-88242857D02*
X167485714Y-87042857D01*
X167485714Y-88185714D02*
X167371428Y-88242857D01*
X167142857Y-88242857D01*
X167028571Y-88185714D01*
X166971428Y-88128571D01*
X166914285Y-88014285D01*
X166914285Y-87671428D01*
X166971428Y-87557142D01*
X167028571Y-87500000D01*
X167142857Y-87442857D01*
X167371428Y-87442857D01*
X167485714Y-87500000D01*
X168571428Y-88242857D02*
X168571428Y-87614285D01*
X168514285Y-87500000D01*
X168400000Y-87442857D01*
X168171428Y-87442857D01*
X168057142Y-87500000D01*
X168571428Y-88185714D02*
X168457142Y-88242857D01*
X168171428Y-88242857D01*
X168057142Y-88185714D01*
X168000000Y-88071428D01*
X168000000Y-87957142D01*
X168057142Y-87842857D01*
X168171428Y-87785714D01*
X168457142Y-87785714D01*
X168571428Y-87728571D01*
X169142857Y-87442857D02*
X169142857Y-88642857D01*
X169142857Y-87500000D02*
X169257142Y-87442857D01*
X169485714Y-87442857D01*
X169600000Y-87500000D01*
X169657142Y-87557142D01*
X169714285Y-87671428D01*
X169714285Y-88014285D01*
X169657142Y-88128571D01*
X169600000Y-88185714D01*
X169485714Y-88242857D01*
X169257142Y-88242857D01*
X169142857Y-88185714D01*
X170057142Y-87442857D02*
X170514285Y-87442857D01*
X170228571Y-87042857D02*
X170228571Y-88071428D01*
X170285714Y-88185714D01*
X170400000Y-88242857D01*
X170514285Y-88242857D01*
X171371428Y-88185714D02*
X171257142Y-88242857D01*
X171028571Y-88242857D01*
X170914285Y-88185714D01*
X170857142Y-88071428D01*
X170857142Y-87614285D01*
X170914285Y-87500000D01*
X171028571Y-87442857D01*
X171257142Y-87442857D01*
X171371428Y-87500000D01*
X171428571Y-87614285D01*
X171428571Y-87728571D01*
X170857142Y-87842857D01*
X171942857Y-88242857D02*
X171942857Y-87442857D01*
X171942857Y-87671428D02*
X172000000Y-87557142D01*
X172057142Y-87500000D01*
X172171428Y-87442857D01*
X172285714Y-87442857D01*
D10*
X113083333Y-75452380D02*
X112750000Y-74976190D01*
X112511904Y-75452380D02*
X112511904Y-74452380D01*
X112892857Y-74452380D01*
X112988095Y-74500000D01*
X113035714Y-74547619D01*
X113083333Y-74642857D01*
X113083333Y-74785714D01*
X113035714Y-74880952D01*
X112988095Y-74928571D01*
X112892857Y-74976190D01*
X112511904Y-74976190D01*
X113416666Y-74452380D02*
X114083333Y-75452380D01*
X114083333Y-74452380D02*
X113416666Y-75452380D01*
X129238095Y-69202380D02*
X129809523Y-69202380D01*
X129523809Y-70202380D02*
X129523809Y-69202380D01*
X130047619Y-69202380D02*
X130714285Y-70202380D01*
X130714285Y-69202380D02*
X130047619Y-70202380D01*
X166766666Y-73852380D02*
X166766666Y-72852380D01*
X167147619Y-72852380D01*
X167242857Y-72900000D01*
X167290476Y-72947619D01*
X167338095Y-73042857D01*
X167338095Y-73185714D01*
X167290476Y-73280952D01*
X167242857Y-73328571D01*
X167147619Y-73376190D01*
X166766666Y-73376190D01*
X167671428Y-72852380D02*
X167909523Y-73852380D01*
X168100000Y-73138095D01*
X168290476Y-73852380D01*
X168528571Y-72852380D01*
X169480952Y-73852380D02*
X169147619Y-73376190D01*
X168909523Y-73852380D02*
X168909523Y-72852380D01*
X169290476Y-72852380D01*
X169385714Y-72900000D01*
X169433333Y-72947619D01*
X169480952Y-73042857D01*
X169480952Y-73185714D01*
X169433333Y-73280952D01*
X169385714Y-73328571D01*
X169290476Y-73376190D01*
X168909523Y-73376190D01*
D12*
X161150000Y-76700000D02*
X161150000Y-76500000D01*
X161150000Y-76500000D02*
X155350000Y-76500000D01*
X161150000Y-81500000D02*
X161150000Y-81700000D01*
X161150000Y-81700000D02*
X156550000Y-81700000D01*
X156550000Y-81700000D02*
X156550000Y-81500000D01*
X161150000Y-77600000D02*
X161150000Y-80600000D01*
X156550000Y-80600000D02*
X156550000Y-77600000D01*
X153400000Y-82650000D02*
X153400000Y-79350000D01*
X153400000Y-79350000D02*
X148000000Y-79350000D01*
X153400000Y-82650000D02*
X148000000Y-82650000D01*
X167190000Y-83710000D02*
X176610000Y-83710000D01*
X176610000Y-83710000D02*
X176610000Y-74480000D01*
X176610000Y-74480000D02*
X167190000Y-74480000D01*
X167190000Y-83710000D02*
X167190000Y-82050000D01*
X167190000Y-74480000D02*
X167190000Y-76140000D01*
X167190000Y-79950000D02*
X167190000Y-78240000D01*
X173300000Y-83710000D02*
X173300000Y-74480000D01*
X165900000Y-80700000D02*
X166500000Y-81000000D01*
X166500000Y-81000000D02*
X165900000Y-81300000D01*
X165900000Y-81300000D02*
X165900000Y-80700000D01*
X152510000Y-87830000D02*
X152510000Y-86900000D01*
X152510000Y-84670000D02*
X152510000Y-85600000D01*
X152510000Y-84670000D02*
X150350000Y-84670000D01*
X152510000Y-87830000D02*
X151050000Y-87830000D01*
X135440000Y-81250000D02*
X135440000Y-83200000D01*
X135440000Y-81250000D02*
X135440000Y-79300000D01*
X140560000Y-81250000D02*
X140560000Y-83200000D01*
X140560000Y-81250000D02*
X140560000Y-77800000D01*
X150250000Y-76060000D02*
X152200000Y-76060000D01*
X150250000Y-76060000D02*
X148300000Y-76060000D01*
X150250000Y-70940000D02*
X152200000Y-70940000D01*
X150250000Y-70940000D02*
X146800000Y-70940000D01*
X157850000Y-72900000D02*
X156150000Y-72900000D01*
X156150000Y-72900000D02*
X156150000Y-75450000D01*
X157850000Y-72900000D02*
X157850000Y-75450000D01*
X107710000Y-83741422D02*
X107710000Y-84258578D01*
X106290000Y-83741422D02*
X106290000Y-84258578D01*
X114710000Y-83741422D02*
X114710000Y-84258578D01*
X113290000Y-83741422D02*
X113290000Y-84258578D01*
X111710000Y-83741422D02*
X111710000Y-84258578D01*
X110290000Y-83741422D02*
X110290000Y-84258578D01*
X109710000Y-83741422D02*
X109710000Y-84258578D01*
X108290000Y-83741422D02*
X108290000Y-84258578D01*
X101350000Y-82200000D02*
X101350000Y-84600000D01*
X104450000Y-84600000D02*
X104450000Y-81650000D01*
X100397936Y-85840000D02*
X101602064Y-85840000D01*
X100397936Y-87660000D02*
X101602064Y-87660000D01*
X97020000Y-83400000D02*
X97020000Y-74600000D01*
X93850000Y-85145000D02*
X92800000Y-85145000D01*
X93850000Y-72855000D02*
X92800000Y-72855000D01*
X97020000Y-83400000D02*
X97775000Y-83400000D01*
X111210000Y-72241422D02*
X111210000Y-72758578D01*
X109790000Y-72241422D02*
X109790000Y-72758578D01*
X119600000Y-73150000D02*
X117900000Y-73150000D01*
X124400000Y-76850000D02*
X124400000Y-77000000D01*
X124400000Y-77000000D02*
X119600000Y-77000000D01*
X119600000Y-77000000D02*
X119600000Y-76850000D01*
X119600000Y-73150000D02*
X119600000Y-73000000D01*
X119600000Y-73000000D02*
X124400000Y-73000000D01*
X124400000Y-73000000D02*
X124400000Y-73150000D01*
X124400000Y-84850000D02*
X126100000Y-84850000D01*
X119600000Y-81150000D02*
X119600000Y-81000000D01*
X119600000Y-81000000D02*
X124400000Y-81000000D01*
X124400000Y-81000000D02*
X124400000Y-81150000D01*
X124400000Y-84850000D02*
X124400000Y-85000000D01*
X124400000Y-85000000D02*
X119600000Y-85000000D01*
X119600000Y-85000000D02*
X119600000Y-84850000D01*
X150258578Y-78210000D02*
X149741422Y-78210000D01*
X150258578Y-76790000D02*
X149741422Y-76790000D01*
X145210000Y-73741422D02*
X145210000Y-74258578D01*
X143790000Y-73741422D02*
X143790000Y-74258578D01*
X131990000Y-85183578D02*
X131990000Y-84666422D01*
X133410000Y-85183578D02*
X133410000Y-84666422D01*
X114500000Y-75790000D02*
X111815000Y-75790000D01*
X111815000Y-75790000D02*
X111815000Y-77710000D01*
X111815000Y-77710000D02*
X114500000Y-77710000D01*
X130975000Y-70540000D02*
X128290000Y-70540000D01*
X128290000Y-70540000D02*
X128290000Y-72460000D01*
X128290000Y-72460000D02*
X130975000Y-72460000D01*
X169250000Y-70540000D02*
X166565000Y-70540000D01*
X166565000Y-70540000D02*
X166565000Y-72460000D01*
X166565000Y-72460000D02*
X169250000Y-72460000D01*
X108710000Y-72241422D02*
X108710000Y-72758578D01*
X107290000Y-72241422D02*
X107290000Y-72758578D01*
X130058578Y-86910000D02*
X129541422Y-86910000D01*
X130058578Y-85490000D02*
X129541422Y-85490000D01*
X130050000Y-78771422D02*
X130050000Y-79288578D01*
X128630000Y-78771422D02*
X128630000Y-79288578D01*
X135008578Y-72210000D02*
X134491422Y-72210000D01*
X135008578Y-70790000D02*
X134491422Y-70790000D01*
X129791422Y-73890000D02*
X130308578Y-73890000D01*
X129791422Y-75310000D02*
X130308578Y-75310000D01*
X143690000Y-84258578D02*
X143690000Y-83741422D01*
X145110000Y-84258578D02*
X145110000Y-83741422D01*
X141490000Y-84258578D02*
X141490000Y-83741422D01*
X142910000Y-84258578D02*
X142910000Y-83741422D01*
X143658578Y-87710000D02*
X143141422Y-87710000D01*
X143658578Y-86290000D02*
X143141422Y-86290000D01*
X147241422Y-86290000D02*
X147758578Y-86290000D01*
X147241422Y-87710000D02*
X147758578Y-87710000D01*
X140233578Y-75210000D02*
X139716422Y-75210000D01*
X140233578Y-73790000D02*
X139716422Y-73790000D01*
X135008578Y-75310000D02*
X134491422Y-75310000D01*
X135008578Y-73890000D02*
X134491422Y-73890000D01*
X163483578Y-72210000D02*
X162966422Y-72210000D01*
X163483578Y-70790000D02*
X162966422Y-70790000D01*
X156566422Y-70815000D02*
X157083578Y-70815000D01*
X156566422Y-72235000D02*
X157083578Y-72235000D01*
X113710000Y-72241422D02*
X113710000Y-72758578D01*
X112290000Y-72241422D02*
X112290000Y-72758578D01*
X106365000Y-76890000D02*
X105890000Y-76890000D01*
X110110000Y-81110000D02*
X110110000Y-80635000D01*
X109635000Y-81110000D02*
X110110000Y-81110000D01*
X105890000Y-81110000D02*
X105890000Y-80635000D01*
X106365000Y-81110000D02*
X105890000Y-81110000D01*
X110110000Y-76890000D02*
X110110000Y-77365000D01*
X109635000Y-76890000D02*
X110110000Y-76890000D01*
X114790000Y-72241422D02*
X114790000Y-72758578D01*
X116210000Y-72241422D02*
X116210000Y-72758578D01*
D10*
X160861904Y-83102380D02*
X160861904Y-82102380D01*
X161100000Y-82102380D01*
X161242857Y-82150000D01*
X161338095Y-82245238D01*
X161385714Y-82340476D01*
X161433333Y-82530952D01*
X161433333Y-82673809D01*
X161385714Y-82864285D01*
X161338095Y-82959523D01*
X161242857Y-83054761D01*
X161100000Y-83102380D01*
X160861904Y-83102380D01*
X162290476Y-82435714D02*
X162290476Y-83102380D01*
X162052380Y-82054761D02*
X161814285Y-82769047D01*
X162433333Y-82769047D01*
X145511904Y-78952380D02*
X145511904Y-77952380D01*
X145750000Y-77952380D01*
X145892857Y-78000000D01*
X145988095Y-78095238D01*
X146035714Y-78190476D01*
X146083333Y-78380952D01*
X146083333Y-78523809D01*
X146035714Y-78714285D01*
X145988095Y-78809523D01*
X145892857Y-78904761D01*
X145750000Y-78952380D01*
X145511904Y-78952380D01*
X146416666Y-77952380D02*
X147035714Y-77952380D01*
X146702380Y-78333333D01*
X146845238Y-78333333D01*
X146940476Y-78380952D01*
X146988095Y-78428571D01*
X147035714Y-78523809D01*
X147035714Y-78761904D01*
X146988095Y-78857142D01*
X146940476Y-78904761D01*
X146845238Y-78952380D01*
X146559523Y-78952380D01*
X146464285Y-78904761D01*
X146416666Y-78857142D01*
X164952380Y-79433333D02*
X165666666Y-79433333D01*
X165809523Y-79480952D01*
X165904761Y-79576190D01*
X165952380Y-79719047D01*
X165952380Y-79814285D01*
X165285714Y-78528571D02*
X165952380Y-78528571D01*
X164904761Y-78766666D02*
X165619047Y-79004761D01*
X165619047Y-78385714D01*
X151654761Y-84297619D02*
X151559523Y-84250000D01*
X151464285Y-84154761D01*
X151321428Y-84011904D01*
X151226190Y-83964285D01*
X151130952Y-83964285D01*
X151178571Y-84202380D02*
X151083333Y-84154761D01*
X150988095Y-84059523D01*
X150940476Y-83869047D01*
X150940476Y-83535714D01*
X150988095Y-83345238D01*
X151083333Y-83250000D01*
X151178571Y-83202380D01*
X151369047Y-83202380D01*
X151464285Y-83250000D01*
X151559523Y-83345238D01*
X151607142Y-83535714D01*
X151607142Y-83869047D01*
X151559523Y-84059523D01*
X151464285Y-84154761D01*
X151369047Y-84202380D01*
X151178571Y-84202380D01*
X152559523Y-84202380D02*
X151988095Y-84202380D01*
X152273809Y-84202380D02*
X152273809Y-83202380D01*
X152178571Y-83345238D01*
X152083333Y-83440476D01*
X151988095Y-83488095D01*
X133238095Y-77552380D02*
X133238095Y-78361904D01*
X133285714Y-78457142D01*
X133333333Y-78504761D01*
X133428571Y-78552380D01*
X133619047Y-78552380D01*
X133714285Y-78504761D01*
X133761904Y-78457142D01*
X133809523Y-78361904D01*
X133809523Y-77552380D01*
X134190476Y-77552380D02*
X134809523Y-77552380D01*
X134476190Y-77933333D01*
X134619047Y-77933333D01*
X134714285Y-77980952D01*
X134761904Y-78028571D01*
X134809523Y-78123809D01*
X134809523Y-78361904D01*
X134761904Y-78457142D01*
X134714285Y-78504761D01*
X134619047Y-78552380D01*
X134333333Y-78552380D01*
X134238095Y-78504761D01*
X134190476Y-78457142D01*
X149488095Y-69202380D02*
X149488095Y-70011904D01*
X149535714Y-70107142D01*
X149583333Y-70154761D01*
X149678571Y-70202380D01*
X149869047Y-70202380D01*
X149964285Y-70154761D01*
X150011904Y-70107142D01*
X150059523Y-70011904D01*
X150059523Y-69202380D01*
X150964285Y-69535714D02*
X150964285Y-70202380D01*
X150726190Y-69154761D02*
X150488095Y-69869047D01*
X151107142Y-69869047D01*
X158261904Y-74852380D02*
X158261904Y-73852380D01*
X158500000Y-73852380D01*
X158642857Y-73900000D01*
X158738095Y-73995238D01*
X158785714Y-74090476D01*
X158833333Y-74280952D01*
X158833333Y-74423809D01*
X158785714Y-74614285D01*
X158738095Y-74709523D01*
X158642857Y-74804761D01*
X158500000Y-74852380D01*
X158261904Y-74852380D01*
X159690476Y-73852380D02*
X159500000Y-73852380D01*
X159404761Y-73900000D01*
X159357142Y-73947619D01*
X159261904Y-74090476D01*
X159214285Y-74280952D01*
X159214285Y-74661904D01*
X159261904Y-74757142D01*
X159309523Y-74804761D01*
X159404761Y-74852380D01*
X159595238Y-74852380D01*
X159690476Y-74804761D01*
X159738095Y-74757142D01*
X159785714Y-74661904D01*
X159785714Y-74423809D01*
X159738095Y-74328571D01*
X159690476Y-74280952D01*
X159595238Y-74233333D01*
X159404761Y-74233333D01*
X159309523Y-74280952D01*
X159261904Y-74328571D01*
X159214285Y-74423809D01*
X106083333Y-88107142D02*
X106035714Y-88154761D01*
X105892857Y-88202380D01*
X105797619Y-88202380D01*
X105654761Y-88154761D01*
X105559523Y-88059523D01*
X105511904Y-87964285D01*
X105464285Y-87773809D01*
X105464285Y-87630952D01*
X105511904Y-87440476D01*
X105559523Y-87345238D01*
X105654761Y-87250000D01*
X105797619Y-87202380D01*
X105892857Y-87202380D01*
X106035714Y-87250000D01*
X106083333Y-87297619D01*
X106940476Y-87535714D02*
X106940476Y-88202380D01*
X106702380Y-87154761D02*
X106464285Y-87869047D01*
X107083333Y-87869047D01*
X113583333Y-88107142D02*
X113535714Y-88154761D01*
X113392857Y-88202380D01*
X113297619Y-88202380D01*
X113154761Y-88154761D01*
X113059523Y-88059523D01*
X113011904Y-87964285D01*
X112964285Y-87773809D01*
X112964285Y-87630952D01*
X113011904Y-87440476D01*
X113059523Y-87345238D01*
X113154761Y-87250000D01*
X113297619Y-87202380D01*
X113392857Y-87202380D01*
X113535714Y-87250000D01*
X113583333Y-87297619D01*
X113916666Y-87202380D02*
X114583333Y-87202380D01*
X114154761Y-88202380D01*
X111083333Y-88107142D02*
X111035714Y-88154761D01*
X110892857Y-88202380D01*
X110797619Y-88202380D01*
X110654761Y-88154761D01*
X110559523Y-88059523D01*
X110511904Y-87964285D01*
X110464285Y-87773809D01*
X110464285Y-87630952D01*
X110511904Y-87440476D01*
X110559523Y-87345238D01*
X110654761Y-87250000D01*
X110797619Y-87202380D01*
X110892857Y-87202380D01*
X111035714Y-87250000D01*
X111083333Y-87297619D01*
X111940476Y-87202380D02*
X111750000Y-87202380D01*
X111654761Y-87250000D01*
X111607142Y-87297619D01*
X111511904Y-87440476D01*
X111464285Y-87630952D01*
X111464285Y-88011904D01*
X111511904Y-88107142D01*
X111559523Y-88154761D01*
X111654761Y-88202380D01*
X111845238Y-88202380D01*
X111940476Y-88154761D01*
X111988095Y-88107142D01*
X112035714Y-88011904D01*
X112035714Y-87773809D01*
X111988095Y-87678571D01*
X111940476Y-87630952D01*
X111845238Y-87583333D01*
X111654761Y-87583333D01*
X111559523Y-87630952D01*
X111511904Y-87678571D01*
X111464285Y-87773809D01*
X108583333Y-88107142D02*
X108535714Y-88154761D01*
X108392857Y-88202380D01*
X108297619Y-88202380D01*
X108154761Y-88154761D01*
X108059523Y-88059523D01*
X108011904Y-87964285D01*
X107964285Y-87773809D01*
X107964285Y-87630952D01*
X108011904Y-87440476D01*
X108059523Y-87345238D01*
X108154761Y-87250000D01*
X108297619Y-87202380D01*
X108392857Y-87202380D01*
X108535714Y-87250000D01*
X108583333Y-87297619D01*
X109488095Y-87202380D02*
X109011904Y-87202380D01*
X108964285Y-87678571D01*
X109011904Y-87630952D01*
X109107142Y-87583333D01*
X109345238Y-87583333D01*
X109440476Y-87630952D01*
X109488095Y-87678571D01*
X109535714Y-87773809D01*
X109535714Y-88011904D01*
X109488095Y-88107142D01*
X109440476Y-88154761D01*
X109345238Y-88202380D01*
X109107142Y-88202380D01*
X109011904Y-88154761D01*
X108964285Y-88107142D01*
X101261904Y-80952380D02*
X101261904Y-79952380D01*
X101500000Y-79952380D01*
X101642857Y-80000000D01*
X101738095Y-80095238D01*
X101785714Y-80190476D01*
X101833333Y-80380952D01*
X101833333Y-80523809D01*
X101785714Y-80714285D01*
X101738095Y-80809523D01*
X101642857Y-80904761D01*
X101500000Y-80952380D01*
X101261904Y-80952380D01*
X102166666Y-79952380D02*
X102833333Y-79952380D01*
X102404761Y-80952380D01*
X97166666Y-87178571D02*
X96833333Y-87178571D01*
X96833333Y-87702380D02*
X96833333Y-86702380D01*
X97309523Y-86702380D01*
X98214285Y-87702380D02*
X97642857Y-87702380D01*
X97928571Y-87702380D02*
X97928571Y-86702380D01*
X97833333Y-86845238D01*
X97738095Y-86940476D01*
X97642857Y-86988095D01*
X94166666Y-86702380D02*
X94166666Y-87416666D01*
X94119047Y-87559523D01*
X94023809Y-87654761D01*
X93880952Y-87702380D01*
X93785714Y-87702380D01*
X95166666Y-87702380D02*
X94595238Y-87702380D01*
X94880952Y-87702380D02*
X94880952Y-86702380D01*
X94785714Y-86845238D01*
X94690476Y-86940476D01*
X94595238Y-86988095D01*
X110333333Y-70202380D02*
X110000000Y-69726190D01*
X109761904Y-70202380D02*
X109761904Y-69202380D01*
X110142857Y-69202380D01*
X110238095Y-69250000D01*
X110285714Y-69297619D01*
X110333333Y-69392857D01*
X110333333Y-69535714D01*
X110285714Y-69630952D01*
X110238095Y-69678571D01*
X110142857Y-69726190D01*
X109761904Y-69726190D01*
X110714285Y-69297619D02*
X110761904Y-69250000D01*
X110857142Y-69202380D01*
X111095238Y-69202380D01*
X111190476Y-69250000D01*
X111238095Y-69297619D01*
X111285714Y-69392857D01*
X111285714Y-69488095D01*
X111238095Y-69630952D01*
X110666666Y-70202380D01*
X111285714Y-70202380D01*
X121238095Y-71452380D02*
X121238095Y-72261904D01*
X121285714Y-72357142D01*
X121333333Y-72404761D01*
X121428571Y-72452380D01*
X121619047Y-72452380D01*
X121714285Y-72404761D01*
X121761904Y-72357142D01*
X121809523Y-72261904D01*
X121809523Y-71452380D01*
X122809523Y-72452380D02*
X122238095Y-72452380D01*
X122523809Y-72452380D02*
X122523809Y-71452380D01*
X122428571Y-71595238D01*
X122333333Y-71690476D01*
X122238095Y-71738095D01*
X121238095Y-79452380D02*
X121238095Y-80261904D01*
X121285714Y-80357142D01*
X121333333Y-80404761D01*
X121428571Y-80452380D01*
X121619047Y-80452380D01*
X121714285Y-80404761D01*
X121761904Y-80357142D01*
X121809523Y-80261904D01*
X121809523Y-79452380D01*
X122238095Y-79547619D02*
X122285714Y-79500000D01*
X122380952Y-79452380D01*
X122619047Y-79452380D01*
X122714285Y-79500000D01*
X122761904Y-79547619D01*
X122809523Y-79642857D01*
X122809523Y-79738095D01*
X122761904Y-79880952D01*
X122190476Y-80452380D01*
X122809523Y-80452380D01*
X152583333Y-77857142D02*
X152535714Y-77904761D01*
X152392857Y-77952380D01*
X152297619Y-77952380D01*
X152154761Y-77904761D01*
X152059523Y-77809523D01*
X152011904Y-77714285D01*
X151964285Y-77523809D01*
X151964285Y-77380952D01*
X152011904Y-77190476D01*
X152059523Y-77095238D01*
X152154761Y-77000000D01*
X152297619Y-76952380D01*
X152392857Y-76952380D01*
X152535714Y-77000000D01*
X152583333Y-77047619D01*
X153535714Y-77952380D02*
X152964285Y-77952380D01*
X153250000Y-77952380D02*
X153250000Y-76952380D01*
X153154761Y-77095238D01*
X153059523Y-77190476D01*
X152964285Y-77238095D01*
X144333333Y-71857142D02*
X144285714Y-71904761D01*
X144142857Y-71952380D01*
X144047619Y-71952380D01*
X143904761Y-71904761D01*
X143809523Y-71809523D01*
X143761904Y-71714285D01*
X143714285Y-71523809D01*
X143714285Y-71380952D01*
X143761904Y-71190476D01*
X143809523Y-71095238D01*
X143904761Y-71000000D01*
X144047619Y-70952380D01*
X144142857Y-70952380D01*
X144285714Y-71000000D01*
X144333333Y-71047619D01*
X144714285Y-71047619D02*
X144761904Y-71000000D01*
X144857142Y-70952380D01*
X145095238Y-70952380D01*
X145190476Y-71000000D01*
X145238095Y-71047619D01*
X145285714Y-71142857D01*
X145285714Y-71238095D01*
X145238095Y-71380952D01*
X144666666Y-71952380D01*
X145285714Y-71952380D01*
X132583333Y-88107142D02*
X132535714Y-88154761D01*
X132392857Y-88202380D01*
X132297619Y-88202380D01*
X132154761Y-88154761D01*
X132059523Y-88059523D01*
X132011904Y-87964285D01*
X131964285Y-87773809D01*
X131964285Y-87630952D01*
X132011904Y-87440476D01*
X132059523Y-87345238D01*
X132154761Y-87250000D01*
X132297619Y-87202380D01*
X132392857Y-87202380D01*
X132535714Y-87250000D01*
X132583333Y-87297619D01*
X132916666Y-87202380D02*
X133535714Y-87202380D01*
X133202380Y-87583333D01*
X133345238Y-87583333D01*
X133440476Y-87630952D01*
X133488095Y-87678571D01*
X133535714Y-87773809D01*
X133535714Y-88011904D01*
X133488095Y-88107142D01*
X133440476Y-88154761D01*
X133345238Y-88202380D01*
X133059523Y-88202380D01*
X132964285Y-88154761D01*
X132916666Y-88107142D01*
X110261904Y-77202380D02*
X110261904Y-76202380D01*
X110500000Y-76202380D01*
X110642857Y-76250000D01*
X110738095Y-76345238D01*
X110785714Y-76440476D01*
X110833333Y-76630952D01*
X110833333Y-76773809D01*
X110785714Y-76964285D01*
X110738095Y-77059523D01*
X110642857Y-77154761D01*
X110500000Y-77202380D01*
X110261904Y-77202380D01*
X111785714Y-77202380D02*
X111214285Y-77202380D01*
X111500000Y-77202380D02*
X111500000Y-76202380D01*
X111404761Y-76345238D01*
X111309523Y-76440476D01*
X111214285Y-76488095D01*
X126511904Y-71952380D02*
X126511904Y-70952380D01*
X126750000Y-70952380D01*
X126892857Y-71000000D01*
X126988095Y-71095238D01*
X127035714Y-71190476D01*
X127083333Y-71380952D01*
X127083333Y-71523809D01*
X127035714Y-71714285D01*
X126988095Y-71809523D01*
X126892857Y-71904761D01*
X126750000Y-71952380D01*
X126511904Y-71952380D01*
X127464285Y-71047619D02*
X127511904Y-71000000D01*
X127607142Y-70952380D01*
X127845238Y-70952380D01*
X127940476Y-71000000D01*
X127988095Y-71047619D01*
X128035714Y-71142857D01*
X128035714Y-71238095D01*
X127988095Y-71380952D01*
X127416666Y-71952380D01*
X128035714Y-71952380D01*
X167511904Y-70202380D02*
X167511904Y-69202380D01*
X167750000Y-69202380D01*
X167892857Y-69250000D01*
X167988095Y-69345238D01*
X168035714Y-69440476D01*
X168083333Y-69630952D01*
X168083333Y-69773809D01*
X168035714Y-69964285D01*
X167988095Y-70059523D01*
X167892857Y-70154761D01*
X167750000Y-70202380D01*
X167511904Y-70202380D01*
X168988095Y-69202380D02*
X168511904Y-69202380D01*
X168464285Y-69678571D01*
X168511904Y-69630952D01*
X168607142Y-69583333D01*
X168845238Y-69583333D01*
X168940476Y-69630952D01*
X168988095Y-69678571D01*
X169035714Y-69773809D01*
X169035714Y-70011904D01*
X168988095Y-70107142D01*
X168940476Y-70154761D01*
X168845238Y-70202380D01*
X168607142Y-70202380D01*
X168511904Y-70154761D01*
X168464285Y-70107142D01*
X107833333Y-70202380D02*
X107500000Y-69726190D01*
X107261904Y-70202380D02*
X107261904Y-69202380D01*
X107642857Y-69202380D01*
X107738095Y-69250000D01*
X107785714Y-69297619D01*
X107833333Y-69392857D01*
X107833333Y-69535714D01*
X107785714Y-69630952D01*
X107738095Y-69678571D01*
X107642857Y-69726190D01*
X107261904Y-69726190D01*
X108785714Y-70202380D02*
X108214285Y-70202380D01*
X108500000Y-70202380D02*
X108500000Y-69202380D01*
X108404761Y-69345238D01*
X108309523Y-69440476D01*
X108214285Y-69488095D01*
X127083333Y-86702380D02*
X126750000Y-86226190D01*
X126511904Y-86702380D02*
X126511904Y-85702380D01*
X126892857Y-85702380D01*
X126988095Y-85750000D01*
X127035714Y-85797619D01*
X127083333Y-85892857D01*
X127083333Y-86035714D01*
X127035714Y-86130952D01*
X126988095Y-86178571D01*
X126892857Y-86226190D01*
X126511904Y-86226190D01*
X127988095Y-85702380D02*
X127511904Y-85702380D01*
X127464285Y-86178571D01*
X127511904Y-86130952D01*
X127607142Y-86083333D01*
X127845238Y-86083333D01*
X127940476Y-86130952D01*
X127988095Y-86178571D01*
X128035714Y-86273809D01*
X128035714Y-86511904D01*
X127988095Y-86607142D01*
X127940476Y-86654761D01*
X127845238Y-86702380D01*
X127607142Y-86702380D01*
X127511904Y-86654761D01*
X127464285Y-86607142D01*
X127083333Y-79452380D02*
X126750000Y-78976190D01*
X126511904Y-79452380D02*
X126511904Y-78452380D01*
X126892857Y-78452380D01*
X126988095Y-78500000D01*
X127035714Y-78547619D01*
X127083333Y-78642857D01*
X127083333Y-78785714D01*
X127035714Y-78880952D01*
X126988095Y-78928571D01*
X126892857Y-78976190D01*
X126511904Y-78976190D01*
X127940476Y-78452380D02*
X127750000Y-78452380D01*
X127654761Y-78500000D01*
X127607142Y-78547619D01*
X127511904Y-78690476D01*
X127464285Y-78880952D01*
X127464285Y-79261904D01*
X127511904Y-79357142D01*
X127559523Y-79404761D01*
X127654761Y-79452380D01*
X127845238Y-79452380D01*
X127940476Y-79404761D01*
X127988095Y-79357142D01*
X128035714Y-79261904D01*
X128035714Y-79023809D01*
X127988095Y-78928571D01*
X127940476Y-78880952D01*
X127845238Y-78833333D01*
X127654761Y-78833333D01*
X127559523Y-78880952D01*
X127511904Y-78928571D01*
X127464285Y-79023809D01*
X134583333Y-70202380D02*
X134250000Y-69726190D01*
X134011904Y-70202380D02*
X134011904Y-69202380D01*
X134392857Y-69202380D01*
X134488095Y-69250000D01*
X134535714Y-69297619D01*
X134583333Y-69392857D01*
X134583333Y-69535714D01*
X134535714Y-69630952D01*
X134488095Y-69678571D01*
X134392857Y-69726190D01*
X134011904Y-69726190D01*
X134916666Y-69202380D02*
X135583333Y-69202380D01*
X135154761Y-70202380D01*
X127083333Y-74952380D02*
X126750000Y-74476190D01*
X126511904Y-74952380D02*
X126511904Y-73952380D01*
X126892857Y-73952380D01*
X126988095Y-74000000D01*
X127035714Y-74047619D01*
X127083333Y-74142857D01*
X127083333Y-74285714D01*
X127035714Y-74380952D01*
X126988095Y-74428571D01*
X126892857Y-74476190D01*
X126511904Y-74476190D01*
X127654761Y-74380952D02*
X127559523Y-74333333D01*
X127511904Y-74285714D01*
X127464285Y-74190476D01*
X127464285Y-74142857D01*
X127511904Y-74047619D01*
X127559523Y-74000000D01*
X127654761Y-73952380D01*
X127845238Y-73952380D01*
X127940476Y-74000000D01*
X127988095Y-74047619D01*
X128035714Y-74142857D01*
X128035714Y-74190476D01*
X127988095Y-74285714D01*
X127940476Y-74333333D01*
X127845238Y-74380952D01*
X127654761Y-74380952D01*
X127559523Y-74428571D01*
X127511904Y-74476190D01*
X127464285Y-74571428D01*
X127464285Y-74761904D01*
X127511904Y-74857142D01*
X127559523Y-74904761D01*
X127654761Y-74952380D01*
X127845238Y-74952380D01*
X127940476Y-74904761D01*
X127988095Y-74857142D01*
X128035714Y-74761904D01*
X128035714Y-74571428D01*
X127988095Y-74476190D01*
X127940476Y-74428571D01*
X127845238Y-74380952D01*
X144833333Y-81952380D02*
X144500000Y-81476190D01*
X144261904Y-81952380D02*
X144261904Y-80952380D01*
X144642857Y-80952380D01*
X144738095Y-81000000D01*
X144785714Y-81047619D01*
X144833333Y-81142857D01*
X144833333Y-81285714D01*
X144785714Y-81380952D01*
X144738095Y-81428571D01*
X144642857Y-81476190D01*
X144261904Y-81476190D01*
X145309523Y-81952380D02*
X145500000Y-81952380D01*
X145595238Y-81904761D01*
X145642857Y-81857142D01*
X145738095Y-81714285D01*
X145785714Y-81523809D01*
X145785714Y-81142857D01*
X145738095Y-81047619D01*
X145690476Y-81000000D01*
X145595238Y-80952380D01*
X145404761Y-80952380D01*
X145309523Y-81000000D01*
X145261904Y-81047619D01*
X145214285Y-81142857D01*
X145214285Y-81380952D01*
X145261904Y-81476190D01*
X145309523Y-81523809D01*
X145404761Y-81571428D01*
X145595238Y-81571428D01*
X145690476Y-81523809D01*
X145738095Y-81476190D01*
X145785714Y-81380952D01*
X141607142Y-81952380D02*
X141273809Y-81476190D01*
X141035714Y-81952380D02*
X141035714Y-80952380D01*
X141416666Y-80952380D01*
X141511904Y-81000000D01*
X141559523Y-81047619D01*
X141607142Y-81142857D01*
X141607142Y-81285714D01*
X141559523Y-81380952D01*
X141511904Y-81428571D01*
X141416666Y-81476190D01*
X141035714Y-81476190D01*
X142559523Y-81952380D02*
X141988095Y-81952380D01*
X142273809Y-81952380D02*
X142273809Y-80952380D01*
X142178571Y-81095238D01*
X142083333Y-81190476D01*
X141988095Y-81238095D01*
X143178571Y-80952380D02*
X143273809Y-80952380D01*
X143369047Y-81000000D01*
X143416666Y-81047619D01*
X143464285Y-81142857D01*
X143511904Y-81333333D01*
X143511904Y-81571428D01*
X143464285Y-81761904D01*
X143416666Y-81857142D01*
X143369047Y-81904761D01*
X143273809Y-81952380D01*
X143178571Y-81952380D01*
X143083333Y-81904761D01*
X143035714Y-81857142D01*
X142988095Y-81761904D01*
X142940476Y-81571428D01*
X142940476Y-81333333D01*
X142988095Y-81142857D01*
X143035714Y-81047619D01*
X143083333Y-81000000D01*
X143178571Y-80952380D01*
X139357142Y-87452380D02*
X139023809Y-86976190D01*
X138785714Y-87452380D02*
X138785714Y-86452380D01*
X139166666Y-86452380D01*
X139261904Y-86500000D01*
X139309523Y-86547619D01*
X139357142Y-86642857D01*
X139357142Y-86785714D01*
X139309523Y-86880952D01*
X139261904Y-86928571D01*
X139166666Y-86976190D01*
X138785714Y-86976190D01*
X140309523Y-87452380D02*
X139738095Y-87452380D01*
X140023809Y-87452380D02*
X140023809Y-86452380D01*
X139928571Y-86595238D01*
X139833333Y-86690476D01*
X139738095Y-86738095D01*
X141261904Y-87452380D02*
X140690476Y-87452380D01*
X140976190Y-87452380D02*
X140976190Y-86452380D01*
X140880952Y-86595238D01*
X140785714Y-86690476D01*
X140690476Y-86738095D01*
X146857142Y-85802380D02*
X146523809Y-85326190D01*
X146285714Y-85802380D02*
X146285714Y-84802380D01*
X146666666Y-84802380D01*
X146761904Y-84850000D01*
X146809523Y-84897619D01*
X146857142Y-84992857D01*
X146857142Y-85135714D01*
X146809523Y-85230952D01*
X146761904Y-85278571D01*
X146666666Y-85326190D01*
X146285714Y-85326190D01*
X147809523Y-85802380D02*
X147238095Y-85802380D01*
X147523809Y-85802380D02*
X147523809Y-84802380D01*
X147428571Y-84945238D01*
X147333333Y-85040476D01*
X147238095Y-85088095D01*
X148190476Y-84897619D02*
X148238095Y-84850000D01*
X148333333Y-84802380D01*
X148571428Y-84802380D01*
X148666666Y-84850000D01*
X148714285Y-84897619D01*
X148761904Y-84992857D01*
X148761904Y-85088095D01*
X148714285Y-85230952D01*
X148142857Y-85802380D01*
X148761904Y-85802380D01*
X139357142Y-73202380D02*
X139023809Y-72726190D01*
X138785714Y-73202380D02*
X138785714Y-72202380D01*
X139166666Y-72202380D01*
X139261904Y-72250000D01*
X139309523Y-72297619D01*
X139357142Y-72392857D01*
X139357142Y-72535714D01*
X139309523Y-72630952D01*
X139261904Y-72678571D01*
X139166666Y-72726190D01*
X138785714Y-72726190D01*
X140309523Y-73202380D02*
X139738095Y-73202380D01*
X140023809Y-73202380D02*
X140023809Y-72202380D01*
X139928571Y-72345238D01*
X139833333Y-72440476D01*
X139738095Y-72488095D01*
X140642857Y-72202380D02*
X141261904Y-72202380D01*
X140928571Y-72583333D01*
X141071428Y-72583333D01*
X141166666Y-72630952D01*
X141214285Y-72678571D01*
X141261904Y-72773809D01*
X141261904Y-73011904D01*
X141214285Y-73107142D01*
X141166666Y-73154761D01*
X141071428Y-73202380D01*
X140785714Y-73202380D01*
X140690476Y-73154761D01*
X140642857Y-73107142D01*
X134107142Y-73452380D02*
X133773809Y-72976190D01*
X133535714Y-73452380D02*
X133535714Y-72452380D01*
X133916666Y-72452380D01*
X134011904Y-72500000D01*
X134059523Y-72547619D01*
X134107142Y-72642857D01*
X134107142Y-72785714D01*
X134059523Y-72880952D01*
X134011904Y-72928571D01*
X133916666Y-72976190D01*
X133535714Y-72976190D01*
X135059523Y-73452380D02*
X134488095Y-73452380D01*
X134773809Y-73452380D02*
X134773809Y-72452380D01*
X134678571Y-72595238D01*
X134583333Y-72690476D01*
X134488095Y-72738095D01*
X135916666Y-72785714D02*
X135916666Y-73452380D01*
X135678571Y-72404761D02*
X135440476Y-73119047D01*
X136059523Y-73119047D01*
X162607142Y-70202380D02*
X162273809Y-69726190D01*
X162035714Y-70202380D02*
X162035714Y-69202380D01*
X162416666Y-69202380D01*
X162511904Y-69250000D01*
X162559523Y-69297619D01*
X162607142Y-69392857D01*
X162607142Y-69535714D01*
X162559523Y-69630952D01*
X162511904Y-69678571D01*
X162416666Y-69726190D01*
X162035714Y-69726190D01*
X163559523Y-70202380D02*
X162988095Y-70202380D01*
X163273809Y-70202380D02*
X163273809Y-69202380D01*
X163178571Y-69345238D01*
X163083333Y-69440476D01*
X162988095Y-69488095D01*
X164464285Y-69202380D02*
X163988095Y-69202380D01*
X163940476Y-69678571D01*
X163988095Y-69630952D01*
X164083333Y-69583333D01*
X164321428Y-69583333D01*
X164416666Y-69630952D01*
X164464285Y-69678571D01*
X164511904Y-69773809D01*
X164511904Y-70011904D01*
X164464285Y-70107142D01*
X164416666Y-70154761D01*
X164321428Y-70202380D01*
X164083333Y-70202380D01*
X163988095Y-70154761D01*
X163940476Y-70107142D01*
X156182142Y-70202380D02*
X155848809Y-69726190D01*
X155610714Y-70202380D02*
X155610714Y-69202380D01*
X155991666Y-69202380D01*
X156086904Y-69250000D01*
X156134523Y-69297619D01*
X156182142Y-69392857D01*
X156182142Y-69535714D01*
X156134523Y-69630952D01*
X156086904Y-69678571D01*
X155991666Y-69726190D01*
X155610714Y-69726190D01*
X157134523Y-70202380D02*
X156563095Y-70202380D01*
X156848809Y-70202380D02*
X156848809Y-69202380D01*
X156753571Y-69345238D01*
X156658333Y-69440476D01*
X156563095Y-69488095D01*
X157991666Y-69202380D02*
X157801190Y-69202380D01*
X157705952Y-69250000D01*
X157658333Y-69297619D01*
X157563095Y-69440476D01*
X157515476Y-69630952D01*
X157515476Y-70011904D01*
X157563095Y-70107142D01*
X157610714Y-70154761D01*
X157705952Y-70202380D01*
X157896428Y-70202380D01*
X157991666Y-70154761D01*
X158039285Y-70107142D01*
X158086904Y-70011904D01*
X158086904Y-69773809D01*
X158039285Y-69678571D01*
X157991666Y-69630952D01*
X157896428Y-69583333D01*
X157705952Y-69583333D01*
X157610714Y-69630952D01*
X157563095Y-69678571D01*
X157515476Y-69773809D01*
X112833333Y-70202380D02*
X112500000Y-69726190D01*
X112261904Y-70202380D02*
X112261904Y-69202380D01*
X112642857Y-69202380D01*
X112738095Y-69250000D01*
X112785714Y-69297619D01*
X112833333Y-69392857D01*
X112833333Y-69535714D01*
X112785714Y-69630952D01*
X112738095Y-69678571D01*
X112642857Y-69726190D01*
X112261904Y-69726190D01*
X113166666Y-69202380D02*
X113785714Y-69202380D01*
X113452380Y-69583333D01*
X113595238Y-69583333D01*
X113690476Y-69630952D01*
X113738095Y-69678571D01*
X113785714Y-69773809D01*
X113785714Y-70011904D01*
X113738095Y-70107142D01*
X113690476Y-70154761D01*
X113595238Y-70202380D01*
X113309523Y-70202380D01*
X113214285Y-70154761D01*
X113166666Y-70107142D01*
X107238095Y-75152380D02*
X107238095Y-75961904D01*
X107285714Y-76057142D01*
X107333333Y-76104761D01*
X107428571Y-76152380D01*
X107619047Y-76152380D01*
X107714285Y-76104761D01*
X107761904Y-76057142D01*
X107809523Y-75961904D01*
X107809523Y-75152380D01*
X108761904Y-75152380D02*
X108285714Y-75152380D01*
X108238095Y-75628571D01*
X108285714Y-75580952D01*
X108380952Y-75533333D01*
X108619047Y-75533333D01*
X108714285Y-75580952D01*
X108761904Y-75628571D01*
X108809523Y-75723809D01*
X108809523Y-75961904D01*
X108761904Y-76057142D01*
X108714285Y-76104761D01*
X108619047Y-76152380D01*
X108380952Y-76152380D01*
X108285714Y-76104761D01*
X108238095Y-76057142D01*
X115333333Y-70202380D02*
X115000000Y-69726190D01*
X114761904Y-70202380D02*
X114761904Y-69202380D01*
X115142857Y-69202380D01*
X115238095Y-69250000D01*
X115285714Y-69297619D01*
X115333333Y-69392857D01*
X115333333Y-69535714D01*
X115285714Y-69630952D01*
X115238095Y-69678571D01*
X115142857Y-69726190D01*
X114761904Y-69726190D01*
X116190476Y-69535714D02*
X116190476Y-70202380D01*
X115952380Y-69154761D02*
X115714285Y-69869047D01*
X116333333Y-69869047D01*
M02*
