G04 #@! TF.GenerationSoftware,KiCad,Pcbnew,(5.1.6)-1*
G04 #@! TF.CreationDate,2020-11-13T23:39:30+01:00*
G04 #@! TF.ProjectId,ebuzzz-adapter,6562757a-7a7a-42d6-9164-61707465722e,rev?*
G04 #@! TF.SameCoordinates,Original*
G04 #@! TF.FileFunction,Paste,Top*
G04 #@! TF.FilePolarity,Positive*
%FSLAX46Y46*%
G04 Gerber Fmt 4.6, Leading zero omitted, Abs format (unit mm)*
G04 Created by KiCad (PCBNEW (5.1.6)-1) date 2020-11-13 23:39:30*
%MOMM*%
%LPD*%
G01*
G04 APERTURE LIST*
%ADD10R,1.000000X0.700000*%
%ADD11R,2.500000X1.800000*%
%ADD12R,0.900000X0.800000*%
%ADD13R,0.450000X0.600000*%
%ADD14R,1.000000X1.400000*%
%ADD15R,1.200000X1.400000*%
%ADD16R,2.500000X1.100000*%
%ADD17R,2.000000X0.640000*%
G04 APERTURE END LIST*
D10*
X161825000Y-77100000D03*
X161825000Y-81100000D03*
X155875000Y-81100000D03*
X155875000Y-77100000D03*
D11*
X148000000Y-81000000D03*
X152000000Y-81000000D03*
D12*
X152750000Y-86250000D03*
X150750000Y-87200000D03*
X150750000Y-85300000D03*
G36*
G01*
X139755000Y-82750000D02*
X140055000Y-82750000D01*
G75*
G02*
X140205000Y-82900000I0J-150000D01*
G01*
X140205000Y-84550000D01*
G75*
G02*
X140055000Y-84700000I-150000J0D01*
G01*
X139755000Y-84700000D01*
G75*
G02*
X139605000Y-84550000I0J150000D01*
G01*
X139605000Y-82900000D01*
G75*
G02*
X139755000Y-82750000I150000J0D01*
G01*
G37*
G36*
G01*
X138485000Y-82750000D02*
X138785000Y-82750000D01*
G75*
G02*
X138935000Y-82900000I0J-150000D01*
G01*
X138935000Y-84550000D01*
G75*
G02*
X138785000Y-84700000I-150000J0D01*
G01*
X138485000Y-84700000D01*
G75*
G02*
X138335000Y-84550000I0J150000D01*
G01*
X138335000Y-82900000D01*
G75*
G02*
X138485000Y-82750000I150000J0D01*
G01*
G37*
G36*
G01*
X137215000Y-82750000D02*
X137515000Y-82750000D01*
G75*
G02*
X137665000Y-82900000I0J-150000D01*
G01*
X137665000Y-84550000D01*
G75*
G02*
X137515000Y-84700000I-150000J0D01*
G01*
X137215000Y-84700000D01*
G75*
G02*
X137065000Y-84550000I0J150000D01*
G01*
X137065000Y-82900000D01*
G75*
G02*
X137215000Y-82750000I150000J0D01*
G01*
G37*
G36*
G01*
X135945000Y-82750000D02*
X136245000Y-82750000D01*
G75*
G02*
X136395000Y-82900000I0J-150000D01*
G01*
X136395000Y-84550000D01*
G75*
G02*
X136245000Y-84700000I-150000J0D01*
G01*
X135945000Y-84700000D01*
G75*
G02*
X135795000Y-84550000I0J150000D01*
G01*
X135795000Y-82900000D01*
G75*
G02*
X135945000Y-82750000I150000J0D01*
G01*
G37*
G36*
G01*
X135945000Y-77800000D02*
X136245000Y-77800000D01*
G75*
G02*
X136395000Y-77950000I0J-150000D01*
G01*
X136395000Y-79600000D01*
G75*
G02*
X136245000Y-79750000I-150000J0D01*
G01*
X135945000Y-79750000D01*
G75*
G02*
X135795000Y-79600000I0J150000D01*
G01*
X135795000Y-77950000D01*
G75*
G02*
X135945000Y-77800000I150000J0D01*
G01*
G37*
G36*
G01*
X137215000Y-77800000D02*
X137515000Y-77800000D01*
G75*
G02*
X137665000Y-77950000I0J-150000D01*
G01*
X137665000Y-79600000D01*
G75*
G02*
X137515000Y-79750000I-150000J0D01*
G01*
X137215000Y-79750000D01*
G75*
G02*
X137065000Y-79600000I0J150000D01*
G01*
X137065000Y-77950000D01*
G75*
G02*
X137215000Y-77800000I150000J0D01*
G01*
G37*
G36*
G01*
X138485000Y-77800000D02*
X138785000Y-77800000D01*
G75*
G02*
X138935000Y-77950000I0J-150000D01*
G01*
X138935000Y-79600000D01*
G75*
G02*
X138785000Y-79750000I-150000J0D01*
G01*
X138485000Y-79750000D01*
G75*
G02*
X138335000Y-79600000I0J150000D01*
G01*
X138335000Y-77950000D01*
G75*
G02*
X138485000Y-77800000I150000J0D01*
G01*
G37*
G36*
G01*
X139755000Y-77800000D02*
X140055000Y-77800000D01*
G75*
G02*
X140205000Y-77950000I0J-150000D01*
G01*
X140205000Y-79600000D01*
G75*
G02*
X140055000Y-79750000I-150000J0D01*
G01*
X139755000Y-79750000D01*
G75*
G02*
X139605000Y-79600000I0J150000D01*
G01*
X139605000Y-77950000D01*
G75*
G02*
X139755000Y-77800000I150000J0D01*
G01*
G37*
G36*
G01*
X151750000Y-71745000D02*
X151750000Y-71445000D01*
G75*
G02*
X151900000Y-71295000I150000J0D01*
G01*
X153550000Y-71295000D01*
G75*
G02*
X153700000Y-71445000I0J-150000D01*
G01*
X153700000Y-71745000D01*
G75*
G02*
X153550000Y-71895000I-150000J0D01*
G01*
X151900000Y-71895000D01*
G75*
G02*
X151750000Y-71745000I0J150000D01*
G01*
G37*
G36*
G01*
X151750000Y-73015000D02*
X151750000Y-72715000D01*
G75*
G02*
X151900000Y-72565000I150000J0D01*
G01*
X153550000Y-72565000D01*
G75*
G02*
X153700000Y-72715000I0J-150000D01*
G01*
X153700000Y-73015000D01*
G75*
G02*
X153550000Y-73165000I-150000J0D01*
G01*
X151900000Y-73165000D01*
G75*
G02*
X151750000Y-73015000I0J150000D01*
G01*
G37*
G36*
G01*
X151750000Y-74285000D02*
X151750000Y-73985000D01*
G75*
G02*
X151900000Y-73835000I150000J0D01*
G01*
X153550000Y-73835000D01*
G75*
G02*
X153700000Y-73985000I0J-150000D01*
G01*
X153700000Y-74285000D01*
G75*
G02*
X153550000Y-74435000I-150000J0D01*
G01*
X151900000Y-74435000D01*
G75*
G02*
X151750000Y-74285000I0J150000D01*
G01*
G37*
G36*
G01*
X151750000Y-75555000D02*
X151750000Y-75255000D01*
G75*
G02*
X151900000Y-75105000I150000J0D01*
G01*
X153550000Y-75105000D01*
G75*
G02*
X153700000Y-75255000I0J-150000D01*
G01*
X153700000Y-75555000D01*
G75*
G02*
X153550000Y-75705000I-150000J0D01*
G01*
X151900000Y-75705000D01*
G75*
G02*
X151750000Y-75555000I0J150000D01*
G01*
G37*
G36*
G01*
X146800000Y-75555000D02*
X146800000Y-75255000D01*
G75*
G02*
X146950000Y-75105000I150000J0D01*
G01*
X148600000Y-75105000D01*
G75*
G02*
X148750000Y-75255000I0J-150000D01*
G01*
X148750000Y-75555000D01*
G75*
G02*
X148600000Y-75705000I-150000J0D01*
G01*
X146950000Y-75705000D01*
G75*
G02*
X146800000Y-75555000I0J150000D01*
G01*
G37*
G36*
G01*
X146800000Y-74285000D02*
X146800000Y-73985000D01*
G75*
G02*
X146950000Y-73835000I150000J0D01*
G01*
X148600000Y-73835000D01*
G75*
G02*
X148750000Y-73985000I0J-150000D01*
G01*
X148750000Y-74285000D01*
G75*
G02*
X148600000Y-74435000I-150000J0D01*
G01*
X146950000Y-74435000D01*
G75*
G02*
X146800000Y-74285000I0J150000D01*
G01*
G37*
G36*
G01*
X146800000Y-73015000D02*
X146800000Y-72715000D01*
G75*
G02*
X146950000Y-72565000I150000J0D01*
G01*
X148600000Y-72565000D01*
G75*
G02*
X148750000Y-72715000I0J-150000D01*
G01*
X148750000Y-73015000D01*
G75*
G02*
X148600000Y-73165000I-150000J0D01*
G01*
X146950000Y-73165000D01*
G75*
G02*
X146800000Y-73015000I0J150000D01*
G01*
G37*
G36*
G01*
X146800000Y-71745000D02*
X146800000Y-71445000D01*
G75*
G02*
X146950000Y-71295000I150000J0D01*
G01*
X148600000Y-71295000D01*
G75*
G02*
X148750000Y-71445000I0J-150000D01*
G01*
X148750000Y-71745000D01*
G75*
G02*
X148600000Y-71895000I-150000J0D01*
G01*
X146950000Y-71895000D01*
G75*
G02*
X146800000Y-71745000I0J150000D01*
G01*
G37*
D13*
X157000000Y-75450000D03*
X157000000Y-73350000D03*
G36*
G01*
X106543750Y-84450000D02*
X107456250Y-84450000D01*
G75*
G02*
X107700000Y-84693750I0J-243750D01*
G01*
X107700000Y-85181250D01*
G75*
G02*
X107456250Y-85425000I-243750J0D01*
G01*
X106543750Y-85425000D01*
G75*
G02*
X106300000Y-85181250I0J243750D01*
G01*
X106300000Y-84693750D01*
G75*
G02*
X106543750Y-84450000I243750J0D01*
G01*
G37*
G36*
G01*
X106543750Y-82575000D02*
X107456250Y-82575000D01*
G75*
G02*
X107700000Y-82818750I0J-243750D01*
G01*
X107700000Y-83306250D01*
G75*
G02*
X107456250Y-83550000I-243750J0D01*
G01*
X106543750Y-83550000D01*
G75*
G02*
X106300000Y-83306250I0J243750D01*
G01*
X106300000Y-82818750D01*
G75*
G02*
X106543750Y-82575000I243750J0D01*
G01*
G37*
G36*
G01*
X113543750Y-84450000D02*
X114456250Y-84450000D01*
G75*
G02*
X114700000Y-84693750I0J-243750D01*
G01*
X114700000Y-85181250D01*
G75*
G02*
X114456250Y-85425000I-243750J0D01*
G01*
X113543750Y-85425000D01*
G75*
G02*
X113300000Y-85181250I0J243750D01*
G01*
X113300000Y-84693750D01*
G75*
G02*
X113543750Y-84450000I243750J0D01*
G01*
G37*
G36*
G01*
X113543750Y-82575000D02*
X114456250Y-82575000D01*
G75*
G02*
X114700000Y-82818750I0J-243750D01*
G01*
X114700000Y-83306250D01*
G75*
G02*
X114456250Y-83550000I-243750J0D01*
G01*
X113543750Y-83550000D01*
G75*
G02*
X113300000Y-83306250I0J243750D01*
G01*
X113300000Y-82818750D01*
G75*
G02*
X113543750Y-82575000I243750J0D01*
G01*
G37*
G36*
G01*
X110543750Y-84450000D02*
X111456250Y-84450000D01*
G75*
G02*
X111700000Y-84693750I0J-243750D01*
G01*
X111700000Y-85181250D01*
G75*
G02*
X111456250Y-85425000I-243750J0D01*
G01*
X110543750Y-85425000D01*
G75*
G02*
X110300000Y-85181250I0J243750D01*
G01*
X110300000Y-84693750D01*
G75*
G02*
X110543750Y-84450000I243750J0D01*
G01*
G37*
G36*
G01*
X110543750Y-82575000D02*
X111456250Y-82575000D01*
G75*
G02*
X111700000Y-82818750I0J-243750D01*
G01*
X111700000Y-83306250D01*
G75*
G02*
X111456250Y-83550000I-243750J0D01*
G01*
X110543750Y-83550000D01*
G75*
G02*
X110300000Y-83306250I0J243750D01*
G01*
X110300000Y-82818750D01*
G75*
G02*
X110543750Y-82575000I243750J0D01*
G01*
G37*
G36*
G01*
X108543750Y-84450000D02*
X109456250Y-84450000D01*
G75*
G02*
X109700000Y-84693750I0J-243750D01*
G01*
X109700000Y-85181250D01*
G75*
G02*
X109456250Y-85425000I-243750J0D01*
G01*
X108543750Y-85425000D01*
G75*
G02*
X108300000Y-85181250I0J243750D01*
G01*
X108300000Y-84693750D01*
G75*
G02*
X108543750Y-84450000I243750J0D01*
G01*
G37*
G36*
G01*
X108543750Y-82575000D02*
X109456250Y-82575000D01*
G75*
G02*
X109700000Y-82818750I0J-243750D01*
G01*
X109700000Y-83306250D01*
G75*
G02*
X109456250Y-83550000I-243750J0D01*
G01*
X108543750Y-83550000D01*
G75*
G02*
X108300000Y-83306250I0J243750D01*
G01*
X108300000Y-82818750D01*
G75*
G02*
X108543750Y-82575000I243750J0D01*
G01*
G37*
D14*
X103850000Y-84500000D03*
X101950000Y-84500000D03*
X101950000Y-82300000D03*
D15*
X103670000Y-82300000D03*
G36*
G01*
X101775000Y-87375000D02*
X101775000Y-86125000D01*
G75*
G02*
X102025000Y-85875000I250000J0D01*
G01*
X102775000Y-85875000D01*
G75*
G02*
X103025000Y-86125000I0J-250000D01*
G01*
X103025000Y-87375000D01*
G75*
G02*
X102775000Y-87625000I-250000J0D01*
G01*
X102025000Y-87625000D01*
G75*
G02*
X101775000Y-87375000I0J250000D01*
G01*
G37*
G36*
G01*
X98975000Y-87375000D02*
X98975000Y-86125000D01*
G75*
G02*
X99225000Y-85875000I250000J0D01*
G01*
X99975000Y-85875000D01*
G75*
G02*
X100225000Y-86125000I0J-250000D01*
G01*
X100225000Y-87375000D01*
G75*
G02*
X99975000Y-87625000I-250000J0D01*
G01*
X99225000Y-87625000D01*
G75*
G02*
X98975000Y-87375000I0J250000D01*
G01*
G37*
D16*
X98650000Y-75500000D03*
X98650000Y-82500000D03*
X98650000Y-78000000D03*
X98650000Y-80000000D03*
G36*
G01*
X110043750Y-72950000D02*
X110956250Y-72950000D01*
G75*
G02*
X111200000Y-73193750I0J-243750D01*
G01*
X111200000Y-73681250D01*
G75*
G02*
X110956250Y-73925000I-243750J0D01*
G01*
X110043750Y-73925000D01*
G75*
G02*
X109800000Y-73681250I0J243750D01*
G01*
X109800000Y-73193750D01*
G75*
G02*
X110043750Y-72950000I243750J0D01*
G01*
G37*
G36*
G01*
X110043750Y-71075000D02*
X110956250Y-71075000D01*
G75*
G02*
X111200000Y-71318750I0J-243750D01*
G01*
X111200000Y-71806250D01*
G75*
G02*
X110956250Y-72050000I-243750J0D01*
G01*
X110043750Y-72050000D01*
G75*
G02*
X109800000Y-71806250I0J243750D01*
G01*
X109800000Y-71318750D01*
G75*
G02*
X110043750Y-71075000I243750J0D01*
G01*
G37*
D17*
X125150000Y-73730000D03*
X125150000Y-76270000D03*
X118850000Y-76270000D03*
X118850000Y-73730000D03*
X118850000Y-84270000D03*
X118850000Y-81730000D03*
X125150000Y-81730000D03*
X125150000Y-84270000D03*
G36*
G01*
X149550000Y-77043750D02*
X149550000Y-77956250D01*
G75*
G02*
X149306250Y-78200000I-243750J0D01*
G01*
X148818750Y-78200000D01*
G75*
G02*
X148575000Y-77956250I0J243750D01*
G01*
X148575000Y-77043750D01*
G75*
G02*
X148818750Y-76800000I243750J0D01*
G01*
X149306250Y-76800000D01*
G75*
G02*
X149550000Y-77043750I0J-243750D01*
G01*
G37*
G36*
G01*
X151425000Y-77043750D02*
X151425000Y-77956250D01*
G75*
G02*
X151181250Y-78200000I-243750J0D01*
G01*
X150693750Y-78200000D01*
G75*
G02*
X150450000Y-77956250I0J243750D01*
G01*
X150450000Y-77043750D01*
G75*
G02*
X150693750Y-76800000I243750J0D01*
G01*
X151181250Y-76800000D01*
G75*
G02*
X151425000Y-77043750I0J-243750D01*
G01*
G37*
G36*
G01*
X144043750Y-74450000D02*
X144956250Y-74450000D01*
G75*
G02*
X145200000Y-74693750I0J-243750D01*
G01*
X145200000Y-75181250D01*
G75*
G02*
X144956250Y-75425000I-243750J0D01*
G01*
X144043750Y-75425000D01*
G75*
G02*
X143800000Y-75181250I0J243750D01*
G01*
X143800000Y-74693750D01*
G75*
G02*
X144043750Y-74450000I243750J0D01*
G01*
G37*
G36*
G01*
X144043750Y-72575000D02*
X144956250Y-72575000D01*
G75*
G02*
X145200000Y-72818750I0J-243750D01*
G01*
X145200000Y-73306250D01*
G75*
G02*
X144956250Y-73550000I-243750J0D01*
G01*
X144043750Y-73550000D01*
G75*
G02*
X143800000Y-73306250I0J243750D01*
G01*
X143800000Y-72818750D01*
G75*
G02*
X144043750Y-72575000I243750J0D01*
G01*
G37*
G36*
G01*
X133156250Y-84475000D02*
X132243750Y-84475000D01*
G75*
G02*
X132000000Y-84231250I0J243750D01*
G01*
X132000000Y-83743750D01*
G75*
G02*
X132243750Y-83500000I243750J0D01*
G01*
X133156250Y-83500000D01*
G75*
G02*
X133400000Y-83743750I0J-243750D01*
G01*
X133400000Y-84231250D01*
G75*
G02*
X133156250Y-84475000I-243750J0D01*
G01*
G37*
G36*
G01*
X133156250Y-86350000D02*
X132243750Y-86350000D01*
G75*
G02*
X132000000Y-86106250I0J243750D01*
G01*
X132000000Y-85618750D01*
G75*
G02*
X132243750Y-85375000I243750J0D01*
G01*
X133156250Y-85375000D01*
G75*
G02*
X133400000Y-85618750I0J-243750D01*
G01*
X133400000Y-86106250D01*
G75*
G02*
X133156250Y-86350000I-243750J0D01*
G01*
G37*
G36*
G01*
X113950000Y-77206250D02*
X113950000Y-76293750D01*
G75*
G02*
X114193750Y-76050000I243750J0D01*
G01*
X114681250Y-76050000D01*
G75*
G02*
X114925000Y-76293750I0J-243750D01*
G01*
X114925000Y-77206250D01*
G75*
G02*
X114681250Y-77450000I-243750J0D01*
G01*
X114193750Y-77450000D01*
G75*
G02*
X113950000Y-77206250I0J243750D01*
G01*
G37*
G36*
G01*
X112075000Y-77206250D02*
X112075000Y-76293750D01*
G75*
G02*
X112318750Y-76050000I243750J0D01*
G01*
X112806250Y-76050000D01*
G75*
G02*
X113050000Y-76293750I0J-243750D01*
G01*
X113050000Y-77206250D01*
G75*
G02*
X112806250Y-77450000I-243750J0D01*
G01*
X112318750Y-77450000D01*
G75*
G02*
X112075000Y-77206250I0J243750D01*
G01*
G37*
G36*
G01*
X130425000Y-71956250D02*
X130425000Y-71043750D01*
G75*
G02*
X130668750Y-70800000I243750J0D01*
G01*
X131156250Y-70800000D01*
G75*
G02*
X131400000Y-71043750I0J-243750D01*
G01*
X131400000Y-71956250D01*
G75*
G02*
X131156250Y-72200000I-243750J0D01*
G01*
X130668750Y-72200000D01*
G75*
G02*
X130425000Y-71956250I0J243750D01*
G01*
G37*
G36*
G01*
X128550000Y-71956250D02*
X128550000Y-71043750D01*
G75*
G02*
X128793750Y-70800000I243750J0D01*
G01*
X129281250Y-70800000D01*
G75*
G02*
X129525000Y-71043750I0J-243750D01*
G01*
X129525000Y-71956250D01*
G75*
G02*
X129281250Y-72200000I-243750J0D01*
G01*
X128793750Y-72200000D01*
G75*
G02*
X128550000Y-71956250I0J243750D01*
G01*
G37*
G36*
G01*
X168700000Y-71956250D02*
X168700000Y-71043750D01*
G75*
G02*
X168943750Y-70800000I243750J0D01*
G01*
X169431250Y-70800000D01*
G75*
G02*
X169675000Y-71043750I0J-243750D01*
G01*
X169675000Y-71956250D01*
G75*
G02*
X169431250Y-72200000I-243750J0D01*
G01*
X168943750Y-72200000D01*
G75*
G02*
X168700000Y-71956250I0J243750D01*
G01*
G37*
G36*
G01*
X166825000Y-71956250D02*
X166825000Y-71043750D01*
G75*
G02*
X167068750Y-70800000I243750J0D01*
G01*
X167556250Y-70800000D01*
G75*
G02*
X167800000Y-71043750I0J-243750D01*
G01*
X167800000Y-71956250D01*
G75*
G02*
X167556250Y-72200000I-243750J0D01*
G01*
X167068750Y-72200000D01*
G75*
G02*
X166825000Y-71956250I0J243750D01*
G01*
G37*
G36*
G01*
X107543750Y-72950000D02*
X108456250Y-72950000D01*
G75*
G02*
X108700000Y-73193750I0J-243750D01*
G01*
X108700000Y-73681250D01*
G75*
G02*
X108456250Y-73925000I-243750J0D01*
G01*
X107543750Y-73925000D01*
G75*
G02*
X107300000Y-73681250I0J243750D01*
G01*
X107300000Y-73193750D01*
G75*
G02*
X107543750Y-72950000I243750J0D01*
G01*
G37*
G36*
G01*
X107543750Y-71075000D02*
X108456250Y-71075000D01*
G75*
G02*
X108700000Y-71318750I0J-243750D01*
G01*
X108700000Y-71806250D01*
G75*
G02*
X108456250Y-72050000I-243750J0D01*
G01*
X107543750Y-72050000D01*
G75*
G02*
X107300000Y-71806250I0J243750D01*
G01*
X107300000Y-71318750D01*
G75*
G02*
X107543750Y-71075000I243750J0D01*
G01*
G37*
G36*
G01*
X129350000Y-85743750D02*
X129350000Y-86656250D01*
G75*
G02*
X129106250Y-86900000I-243750J0D01*
G01*
X128618750Y-86900000D01*
G75*
G02*
X128375000Y-86656250I0J243750D01*
G01*
X128375000Y-85743750D01*
G75*
G02*
X128618750Y-85500000I243750J0D01*
G01*
X129106250Y-85500000D01*
G75*
G02*
X129350000Y-85743750I0J-243750D01*
G01*
G37*
G36*
G01*
X131225000Y-85743750D02*
X131225000Y-86656250D01*
G75*
G02*
X130981250Y-86900000I-243750J0D01*
G01*
X130493750Y-86900000D01*
G75*
G02*
X130250000Y-86656250I0J243750D01*
G01*
X130250000Y-85743750D01*
G75*
G02*
X130493750Y-85500000I243750J0D01*
G01*
X130981250Y-85500000D01*
G75*
G02*
X131225000Y-85743750I0J-243750D01*
G01*
G37*
G36*
G01*
X128883750Y-79480000D02*
X129796250Y-79480000D01*
G75*
G02*
X130040000Y-79723750I0J-243750D01*
G01*
X130040000Y-80211250D01*
G75*
G02*
X129796250Y-80455000I-243750J0D01*
G01*
X128883750Y-80455000D01*
G75*
G02*
X128640000Y-80211250I0J243750D01*
G01*
X128640000Y-79723750D01*
G75*
G02*
X128883750Y-79480000I243750J0D01*
G01*
G37*
G36*
G01*
X128883750Y-77605000D02*
X129796250Y-77605000D01*
G75*
G02*
X130040000Y-77848750I0J-243750D01*
G01*
X130040000Y-78336250D01*
G75*
G02*
X129796250Y-78580000I-243750J0D01*
G01*
X128883750Y-78580000D01*
G75*
G02*
X128640000Y-78336250I0J243750D01*
G01*
X128640000Y-77848750D01*
G75*
G02*
X128883750Y-77605000I243750J0D01*
G01*
G37*
G36*
G01*
X134300000Y-71043750D02*
X134300000Y-71956250D01*
G75*
G02*
X134056250Y-72200000I-243750J0D01*
G01*
X133568750Y-72200000D01*
G75*
G02*
X133325000Y-71956250I0J243750D01*
G01*
X133325000Y-71043750D01*
G75*
G02*
X133568750Y-70800000I243750J0D01*
G01*
X134056250Y-70800000D01*
G75*
G02*
X134300000Y-71043750I0J-243750D01*
G01*
G37*
G36*
G01*
X136175000Y-71043750D02*
X136175000Y-71956250D01*
G75*
G02*
X135931250Y-72200000I-243750J0D01*
G01*
X135443750Y-72200000D01*
G75*
G02*
X135200000Y-71956250I0J243750D01*
G01*
X135200000Y-71043750D01*
G75*
G02*
X135443750Y-70800000I243750J0D01*
G01*
X135931250Y-70800000D01*
G75*
G02*
X136175000Y-71043750I0J-243750D01*
G01*
G37*
G36*
G01*
X130500000Y-75056250D02*
X130500000Y-74143750D01*
G75*
G02*
X130743750Y-73900000I243750J0D01*
G01*
X131231250Y-73900000D01*
G75*
G02*
X131475000Y-74143750I0J-243750D01*
G01*
X131475000Y-75056250D01*
G75*
G02*
X131231250Y-75300000I-243750J0D01*
G01*
X130743750Y-75300000D01*
G75*
G02*
X130500000Y-75056250I0J243750D01*
G01*
G37*
G36*
G01*
X128625000Y-75056250D02*
X128625000Y-74143750D01*
G75*
G02*
X128868750Y-73900000I243750J0D01*
G01*
X129356250Y-73900000D01*
G75*
G02*
X129600000Y-74143750I0J-243750D01*
G01*
X129600000Y-75056250D01*
G75*
G02*
X129356250Y-75300000I-243750J0D01*
G01*
X128868750Y-75300000D01*
G75*
G02*
X128625000Y-75056250I0J243750D01*
G01*
G37*
G36*
G01*
X144856250Y-83550000D02*
X143943750Y-83550000D01*
G75*
G02*
X143700000Y-83306250I0J243750D01*
G01*
X143700000Y-82818750D01*
G75*
G02*
X143943750Y-82575000I243750J0D01*
G01*
X144856250Y-82575000D01*
G75*
G02*
X145100000Y-82818750I0J-243750D01*
G01*
X145100000Y-83306250D01*
G75*
G02*
X144856250Y-83550000I-243750J0D01*
G01*
G37*
G36*
G01*
X144856250Y-85425000D02*
X143943750Y-85425000D01*
G75*
G02*
X143700000Y-85181250I0J243750D01*
G01*
X143700000Y-84693750D01*
G75*
G02*
X143943750Y-84450000I243750J0D01*
G01*
X144856250Y-84450000D01*
G75*
G02*
X145100000Y-84693750I0J-243750D01*
G01*
X145100000Y-85181250D01*
G75*
G02*
X144856250Y-85425000I-243750J0D01*
G01*
G37*
G36*
G01*
X142656250Y-83550000D02*
X141743750Y-83550000D01*
G75*
G02*
X141500000Y-83306250I0J243750D01*
G01*
X141500000Y-82818750D01*
G75*
G02*
X141743750Y-82575000I243750J0D01*
G01*
X142656250Y-82575000D01*
G75*
G02*
X142900000Y-82818750I0J-243750D01*
G01*
X142900000Y-83306250D01*
G75*
G02*
X142656250Y-83550000I-243750J0D01*
G01*
G37*
G36*
G01*
X142656250Y-85425000D02*
X141743750Y-85425000D01*
G75*
G02*
X141500000Y-85181250I0J243750D01*
G01*
X141500000Y-84693750D01*
G75*
G02*
X141743750Y-84450000I243750J0D01*
G01*
X142656250Y-84450000D01*
G75*
G02*
X142900000Y-84693750I0J-243750D01*
G01*
X142900000Y-85181250D01*
G75*
G02*
X142656250Y-85425000I-243750J0D01*
G01*
G37*
G36*
G01*
X142950000Y-86543750D02*
X142950000Y-87456250D01*
G75*
G02*
X142706250Y-87700000I-243750J0D01*
G01*
X142218750Y-87700000D01*
G75*
G02*
X141975000Y-87456250I0J243750D01*
G01*
X141975000Y-86543750D01*
G75*
G02*
X142218750Y-86300000I243750J0D01*
G01*
X142706250Y-86300000D01*
G75*
G02*
X142950000Y-86543750I0J-243750D01*
G01*
G37*
G36*
G01*
X144825000Y-86543750D02*
X144825000Y-87456250D01*
G75*
G02*
X144581250Y-87700000I-243750J0D01*
G01*
X144093750Y-87700000D01*
G75*
G02*
X143850000Y-87456250I0J243750D01*
G01*
X143850000Y-86543750D01*
G75*
G02*
X144093750Y-86300000I243750J0D01*
G01*
X144581250Y-86300000D01*
G75*
G02*
X144825000Y-86543750I0J-243750D01*
G01*
G37*
G36*
G01*
X147950000Y-87456250D02*
X147950000Y-86543750D01*
G75*
G02*
X148193750Y-86300000I243750J0D01*
G01*
X148681250Y-86300000D01*
G75*
G02*
X148925000Y-86543750I0J-243750D01*
G01*
X148925000Y-87456250D01*
G75*
G02*
X148681250Y-87700000I-243750J0D01*
G01*
X148193750Y-87700000D01*
G75*
G02*
X147950000Y-87456250I0J243750D01*
G01*
G37*
G36*
G01*
X146075000Y-87456250D02*
X146075000Y-86543750D01*
G75*
G02*
X146318750Y-86300000I243750J0D01*
G01*
X146806250Y-86300000D01*
G75*
G02*
X147050000Y-86543750I0J-243750D01*
G01*
X147050000Y-87456250D01*
G75*
G02*
X146806250Y-87700000I-243750J0D01*
G01*
X146318750Y-87700000D01*
G75*
G02*
X146075000Y-87456250I0J243750D01*
G01*
G37*
G36*
G01*
X139525000Y-74043750D02*
X139525000Y-74956250D01*
G75*
G02*
X139281250Y-75200000I-243750J0D01*
G01*
X138793750Y-75200000D01*
G75*
G02*
X138550000Y-74956250I0J243750D01*
G01*
X138550000Y-74043750D01*
G75*
G02*
X138793750Y-73800000I243750J0D01*
G01*
X139281250Y-73800000D01*
G75*
G02*
X139525000Y-74043750I0J-243750D01*
G01*
G37*
G36*
G01*
X141400000Y-74043750D02*
X141400000Y-74956250D01*
G75*
G02*
X141156250Y-75200000I-243750J0D01*
G01*
X140668750Y-75200000D01*
G75*
G02*
X140425000Y-74956250I0J243750D01*
G01*
X140425000Y-74043750D01*
G75*
G02*
X140668750Y-73800000I243750J0D01*
G01*
X141156250Y-73800000D01*
G75*
G02*
X141400000Y-74043750I0J-243750D01*
G01*
G37*
G36*
G01*
X134300000Y-74143750D02*
X134300000Y-75056250D01*
G75*
G02*
X134056250Y-75300000I-243750J0D01*
G01*
X133568750Y-75300000D01*
G75*
G02*
X133325000Y-75056250I0J243750D01*
G01*
X133325000Y-74143750D01*
G75*
G02*
X133568750Y-73900000I243750J0D01*
G01*
X134056250Y-73900000D01*
G75*
G02*
X134300000Y-74143750I0J-243750D01*
G01*
G37*
G36*
G01*
X136175000Y-74143750D02*
X136175000Y-75056250D01*
G75*
G02*
X135931250Y-75300000I-243750J0D01*
G01*
X135443750Y-75300000D01*
G75*
G02*
X135200000Y-75056250I0J243750D01*
G01*
X135200000Y-74143750D01*
G75*
G02*
X135443750Y-73900000I243750J0D01*
G01*
X135931250Y-73900000D01*
G75*
G02*
X136175000Y-74143750I0J-243750D01*
G01*
G37*
G36*
G01*
X162775000Y-71043750D02*
X162775000Y-71956250D01*
G75*
G02*
X162531250Y-72200000I-243750J0D01*
G01*
X162043750Y-72200000D01*
G75*
G02*
X161800000Y-71956250I0J243750D01*
G01*
X161800000Y-71043750D01*
G75*
G02*
X162043750Y-70800000I243750J0D01*
G01*
X162531250Y-70800000D01*
G75*
G02*
X162775000Y-71043750I0J-243750D01*
G01*
G37*
G36*
G01*
X164650000Y-71043750D02*
X164650000Y-71956250D01*
G75*
G02*
X164406250Y-72200000I-243750J0D01*
G01*
X163918750Y-72200000D01*
G75*
G02*
X163675000Y-71956250I0J243750D01*
G01*
X163675000Y-71043750D01*
G75*
G02*
X163918750Y-70800000I243750J0D01*
G01*
X164406250Y-70800000D01*
G75*
G02*
X164650000Y-71043750I0J-243750D01*
G01*
G37*
G36*
G01*
X157275000Y-71981250D02*
X157275000Y-71068750D01*
G75*
G02*
X157518750Y-70825000I243750J0D01*
G01*
X158006250Y-70825000D01*
G75*
G02*
X158250000Y-71068750I0J-243750D01*
G01*
X158250000Y-71981250D01*
G75*
G02*
X158006250Y-72225000I-243750J0D01*
G01*
X157518750Y-72225000D01*
G75*
G02*
X157275000Y-71981250I0J243750D01*
G01*
G37*
G36*
G01*
X155400000Y-71981250D02*
X155400000Y-71068750D01*
G75*
G02*
X155643750Y-70825000I243750J0D01*
G01*
X156131250Y-70825000D01*
G75*
G02*
X156375000Y-71068750I0J-243750D01*
G01*
X156375000Y-71981250D01*
G75*
G02*
X156131250Y-72225000I-243750J0D01*
G01*
X155643750Y-72225000D01*
G75*
G02*
X155400000Y-71981250I0J243750D01*
G01*
G37*
G36*
G01*
X112543750Y-72950000D02*
X113456250Y-72950000D01*
G75*
G02*
X113700000Y-73193750I0J-243750D01*
G01*
X113700000Y-73681250D01*
G75*
G02*
X113456250Y-73925000I-243750J0D01*
G01*
X112543750Y-73925000D01*
G75*
G02*
X112300000Y-73681250I0J243750D01*
G01*
X112300000Y-73193750D01*
G75*
G02*
X112543750Y-72950000I243750J0D01*
G01*
G37*
G36*
G01*
X112543750Y-71075000D02*
X113456250Y-71075000D01*
G75*
G02*
X113700000Y-71318750I0J-243750D01*
G01*
X113700000Y-71806250D01*
G75*
G02*
X113456250Y-72050000I-243750J0D01*
G01*
X112543750Y-72050000D01*
G75*
G02*
X112300000Y-71806250I0J243750D01*
G01*
X112300000Y-71318750D01*
G75*
G02*
X112543750Y-71075000I243750J0D01*
G01*
G37*
G36*
G01*
X105650000Y-77812500D02*
X105650000Y-77687500D01*
G75*
G02*
X105712500Y-77625000I62500J0D01*
G01*
X106412500Y-77625000D01*
G75*
G02*
X106475000Y-77687500I0J-62500D01*
G01*
X106475000Y-77812500D01*
G75*
G02*
X106412500Y-77875000I-62500J0D01*
G01*
X105712500Y-77875000D01*
G75*
G02*
X105650000Y-77812500I0J62500D01*
G01*
G37*
G36*
G01*
X105650000Y-78312500D02*
X105650000Y-78187500D01*
G75*
G02*
X105712500Y-78125000I62500J0D01*
G01*
X106412500Y-78125000D01*
G75*
G02*
X106475000Y-78187500I0J-62500D01*
G01*
X106475000Y-78312500D01*
G75*
G02*
X106412500Y-78375000I-62500J0D01*
G01*
X105712500Y-78375000D01*
G75*
G02*
X105650000Y-78312500I0J62500D01*
G01*
G37*
G36*
G01*
X105650000Y-78812500D02*
X105650000Y-78687500D01*
G75*
G02*
X105712500Y-78625000I62500J0D01*
G01*
X106412500Y-78625000D01*
G75*
G02*
X106475000Y-78687500I0J-62500D01*
G01*
X106475000Y-78812500D01*
G75*
G02*
X106412500Y-78875000I-62500J0D01*
G01*
X105712500Y-78875000D01*
G75*
G02*
X105650000Y-78812500I0J62500D01*
G01*
G37*
G36*
G01*
X105650000Y-79312500D02*
X105650000Y-79187500D01*
G75*
G02*
X105712500Y-79125000I62500J0D01*
G01*
X106412500Y-79125000D01*
G75*
G02*
X106475000Y-79187500I0J-62500D01*
G01*
X106475000Y-79312500D01*
G75*
G02*
X106412500Y-79375000I-62500J0D01*
G01*
X105712500Y-79375000D01*
G75*
G02*
X105650000Y-79312500I0J62500D01*
G01*
G37*
G36*
G01*
X105650000Y-79812500D02*
X105650000Y-79687500D01*
G75*
G02*
X105712500Y-79625000I62500J0D01*
G01*
X106412500Y-79625000D01*
G75*
G02*
X106475000Y-79687500I0J-62500D01*
G01*
X106475000Y-79812500D01*
G75*
G02*
X106412500Y-79875000I-62500J0D01*
G01*
X105712500Y-79875000D01*
G75*
G02*
X105650000Y-79812500I0J62500D01*
G01*
G37*
G36*
G01*
X105650000Y-80312500D02*
X105650000Y-80187500D01*
G75*
G02*
X105712500Y-80125000I62500J0D01*
G01*
X106412500Y-80125000D01*
G75*
G02*
X106475000Y-80187500I0J-62500D01*
G01*
X106475000Y-80312500D01*
G75*
G02*
X106412500Y-80375000I-62500J0D01*
G01*
X105712500Y-80375000D01*
G75*
G02*
X105650000Y-80312500I0J62500D01*
G01*
G37*
G36*
G01*
X106625000Y-81287500D02*
X106625000Y-80587500D01*
G75*
G02*
X106687500Y-80525000I62500J0D01*
G01*
X106812500Y-80525000D01*
G75*
G02*
X106875000Y-80587500I0J-62500D01*
G01*
X106875000Y-81287500D01*
G75*
G02*
X106812500Y-81350000I-62500J0D01*
G01*
X106687500Y-81350000D01*
G75*
G02*
X106625000Y-81287500I0J62500D01*
G01*
G37*
G36*
G01*
X107125000Y-81287500D02*
X107125000Y-80587500D01*
G75*
G02*
X107187500Y-80525000I62500J0D01*
G01*
X107312500Y-80525000D01*
G75*
G02*
X107375000Y-80587500I0J-62500D01*
G01*
X107375000Y-81287500D01*
G75*
G02*
X107312500Y-81350000I-62500J0D01*
G01*
X107187500Y-81350000D01*
G75*
G02*
X107125000Y-81287500I0J62500D01*
G01*
G37*
G36*
G01*
X107625000Y-81287500D02*
X107625000Y-80587500D01*
G75*
G02*
X107687500Y-80525000I62500J0D01*
G01*
X107812500Y-80525000D01*
G75*
G02*
X107875000Y-80587500I0J-62500D01*
G01*
X107875000Y-81287500D01*
G75*
G02*
X107812500Y-81350000I-62500J0D01*
G01*
X107687500Y-81350000D01*
G75*
G02*
X107625000Y-81287500I0J62500D01*
G01*
G37*
G36*
G01*
X108125000Y-81287500D02*
X108125000Y-80587500D01*
G75*
G02*
X108187500Y-80525000I62500J0D01*
G01*
X108312500Y-80525000D01*
G75*
G02*
X108375000Y-80587500I0J-62500D01*
G01*
X108375000Y-81287500D01*
G75*
G02*
X108312500Y-81350000I-62500J0D01*
G01*
X108187500Y-81350000D01*
G75*
G02*
X108125000Y-81287500I0J62500D01*
G01*
G37*
G36*
G01*
X108625000Y-81287500D02*
X108625000Y-80587500D01*
G75*
G02*
X108687500Y-80525000I62500J0D01*
G01*
X108812500Y-80525000D01*
G75*
G02*
X108875000Y-80587500I0J-62500D01*
G01*
X108875000Y-81287500D01*
G75*
G02*
X108812500Y-81350000I-62500J0D01*
G01*
X108687500Y-81350000D01*
G75*
G02*
X108625000Y-81287500I0J62500D01*
G01*
G37*
G36*
G01*
X109125000Y-81287500D02*
X109125000Y-80587500D01*
G75*
G02*
X109187500Y-80525000I62500J0D01*
G01*
X109312500Y-80525000D01*
G75*
G02*
X109375000Y-80587500I0J-62500D01*
G01*
X109375000Y-81287500D01*
G75*
G02*
X109312500Y-81350000I-62500J0D01*
G01*
X109187500Y-81350000D01*
G75*
G02*
X109125000Y-81287500I0J62500D01*
G01*
G37*
G36*
G01*
X109525000Y-80312500D02*
X109525000Y-80187500D01*
G75*
G02*
X109587500Y-80125000I62500J0D01*
G01*
X110287500Y-80125000D01*
G75*
G02*
X110350000Y-80187500I0J-62500D01*
G01*
X110350000Y-80312500D01*
G75*
G02*
X110287500Y-80375000I-62500J0D01*
G01*
X109587500Y-80375000D01*
G75*
G02*
X109525000Y-80312500I0J62500D01*
G01*
G37*
G36*
G01*
X109525000Y-79812500D02*
X109525000Y-79687500D01*
G75*
G02*
X109587500Y-79625000I62500J0D01*
G01*
X110287500Y-79625000D01*
G75*
G02*
X110350000Y-79687500I0J-62500D01*
G01*
X110350000Y-79812500D01*
G75*
G02*
X110287500Y-79875000I-62500J0D01*
G01*
X109587500Y-79875000D01*
G75*
G02*
X109525000Y-79812500I0J62500D01*
G01*
G37*
G36*
G01*
X109525000Y-79312500D02*
X109525000Y-79187500D01*
G75*
G02*
X109587500Y-79125000I62500J0D01*
G01*
X110287500Y-79125000D01*
G75*
G02*
X110350000Y-79187500I0J-62500D01*
G01*
X110350000Y-79312500D01*
G75*
G02*
X110287500Y-79375000I-62500J0D01*
G01*
X109587500Y-79375000D01*
G75*
G02*
X109525000Y-79312500I0J62500D01*
G01*
G37*
G36*
G01*
X109525000Y-78812500D02*
X109525000Y-78687500D01*
G75*
G02*
X109587500Y-78625000I62500J0D01*
G01*
X110287500Y-78625000D01*
G75*
G02*
X110350000Y-78687500I0J-62500D01*
G01*
X110350000Y-78812500D01*
G75*
G02*
X110287500Y-78875000I-62500J0D01*
G01*
X109587500Y-78875000D01*
G75*
G02*
X109525000Y-78812500I0J62500D01*
G01*
G37*
G36*
G01*
X109525000Y-78312500D02*
X109525000Y-78187500D01*
G75*
G02*
X109587500Y-78125000I62500J0D01*
G01*
X110287500Y-78125000D01*
G75*
G02*
X110350000Y-78187500I0J-62500D01*
G01*
X110350000Y-78312500D01*
G75*
G02*
X110287500Y-78375000I-62500J0D01*
G01*
X109587500Y-78375000D01*
G75*
G02*
X109525000Y-78312500I0J62500D01*
G01*
G37*
G36*
G01*
X109525000Y-77812500D02*
X109525000Y-77687500D01*
G75*
G02*
X109587500Y-77625000I62500J0D01*
G01*
X110287500Y-77625000D01*
G75*
G02*
X110350000Y-77687500I0J-62500D01*
G01*
X110350000Y-77812500D01*
G75*
G02*
X110287500Y-77875000I-62500J0D01*
G01*
X109587500Y-77875000D01*
G75*
G02*
X109525000Y-77812500I0J62500D01*
G01*
G37*
G36*
G01*
X109125000Y-77412500D02*
X109125000Y-76712500D01*
G75*
G02*
X109187500Y-76650000I62500J0D01*
G01*
X109312500Y-76650000D01*
G75*
G02*
X109375000Y-76712500I0J-62500D01*
G01*
X109375000Y-77412500D01*
G75*
G02*
X109312500Y-77475000I-62500J0D01*
G01*
X109187500Y-77475000D01*
G75*
G02*
X109125000Y-77412500I0J62500D01*
G01*
G37*
G36*
G01*
X108625000Y-77412500D02*
X108625000Y-76712500D01*
G75*
G02*
X108687500Y-76650000I62500J0D01*
G01*
X108812500Y-76650000D01*
G75*
G02*
X108875000Y-76712500I0J-62500D01*
G01*
X108875000Y-77412500D01*
G75*
G02*
X108812500Y-77475000I-62500J0D01*
G01*
X108687500Y-77475000D01*
G75*
G02*
X108625000Y-77412500I0J62500D01*
G01*
G37*
G36*
G01*
X108125000Y-77412500D02*
X108125000Y-76712500D01*
G75*
G02*
X108187500Y-76650000I62500J0D01*
G01*
X108312500Y-76650000D01*
G75*
G02*
X108375000Y-76712500I0J-62500D01*
G01*
X108375000Y-77412500D01*
G75*
G02*
X108312500Y-77475000I-62500J0D01*
G01*
X108187500Y-77475000D01*
G75*
G02*
X108125000Y-77412500I0J62500D01*
G01*
G37*
G36*
G01*
X107625000Y-77412500D02*
X107625000Y-76712500D01*
G75*
G02*
X107687500Y-76650000I62500J0D01*
G01*
X107812500Y-76650000D01*
G75*
G02*
X107875000Y-76712500I0J-62500D01*
G01*
X107875000Y-77412500D01*
G75*
G02*
X107812500Y-77475000I-62500J0D01*
G01*
X107687500Y-77475000D01*
G75*
G02*
X107625000Y-77412500I0J62500D01*
G01*
G37*
G36*
G01*
X107125000Y-77412500D02*
X107125000Y-76712500D01*
G75*
G02*
X107187500Y-76650000I62500J0D01*
G01*
X107312500Y-76650000D01*
G75*
G02*
X107375000Y-76712500I0J-62500D01*
G01*
X107375000Y-77412500D01*
G75*
G02*
X107312500Y-77475000I-62500J0D01*
G01*
X107187500Y-77475000D01*
G75*
G02*
X107125000Y-77412500I0J62500D01*
G01*
G37*
G36*
G01*
X106625000Y-77412500D02*
X106625000Y-76712500D01*
G75*
G02*
X106687500Y-76650000I62500J0D01*
G01*
X106812500Y-76650000D01*
G75*
G02*
X106875000Y-76712500I0J-62500D01*
G01*
X106875000Y-77412500D01*
G75*
G02*
X106812500Y-77475000I-62500J0D01*
G01*
X106687500Y-77475000D01*
G75*
G02*
X106625000Y-77412500I0J62500D01*
G01*
G37*
G36*
G01*
X106785000Y-78665000D02*
X106785000Y-78035000D01*
G75*
G02*
X107035000Y-77785000I250000J0D01*
G01*
X107665000Y-77785000D01*
G75*
G02*
X107915000Y-78035000I0J-250000D01*
G01*
X107915000Y-78665000D01*
G75*
G02*
X107665000Y-78915000I-250000J0D01*
G01*
X107035000Y-78915000D01*
G75*
G02*
X106785000Y-78665000I0J250000D01*
G01*
G37*
G36*
G01*
X106785000Y-79965000D02*
X106785000Y-79335000D01*
G75*
G02*
X107035000Y-79085000I250000J0D01*
G01*
X107665000Y-79085000D01*
G75*
G02*
X107915000Y-79335000I0J-250000D01*
G01*
X107915000Y-79965000D01*
G75*
G02*
X107665000Y-80215000I-250000J0D01*
G01*
X107035000Y-80215000D01*
G75*
G02*
X106785000Y-79965000I0J250000D01*
G01*
G37*
G36*
G01*
X108085000Y-78665000D02*
X108085000Y-78035000D01*
G75*
G02*
X108335000Y-77785000I250000J0D01*
G01*
X108965000Y-77785000D01*
G75*
G02*
X109215000Y-78035000I0J-250000D01*
G01*
X109215000Y-78665000D01*
G75*
G02*
X108965000Y-78915000I-250000J0D01*
G01*
X108335000Y-78915000D01*
G75*
G02*
X108085000Y-78665000I0J250000D01*
G01*
G37*
G36*
G01*
X108085000Y-79965000D02*
X108085000Y-79335000D01*
G75*
G02*
X108335000Y-79085000I250000J0D01*
G01*
X108965000Y-79085000D01*
G75*
G02*
X109215000Y-79335000I0J-250000D01*
G01*
X109215000Y-79965000D01*
G75*
G02*
X108965000Y-80215000I-250000J0D01*
G01*
X108335000Y-80215000D01*
G75*
G02*
X108085000Y-79965000I0J250000D01*
G01*
G37*
G36*
G01*
X115043750Y-71075000D02*
X115956250Y-71075000D01*
G75*
G02*
X116200000Y-71318750I0J-243750D01*
G01*
X116200000Y-71806250D01*
G75*
G02*
X115956250Y-72050000I-243750J0D01*
G01*
X115043750Y-72050000D01*
G75*
G02*
X114800000Y-71806250I0J243750D01*
G01*
X114800000Y-71318750D01*
G75*
G02*
X115043750Y-71075000I243750J0D01*
G01*
G37*
G36*
G01*
X115043750Y-72950000D02*
X115956250Y-72950000D01*
G75*
G02*
X116200000Y-73193750I0J-243750D01*
G01*
X116200000Y-73681250D01*
G75*
G02*
X115956250Y-73925000I-243750J0D01*
G01*
X115043750Y-73925000D01*
G75*
G02*
X114800000Y-73681250I0J243750D01*
G01*
X114800000Y-73193750D01*
G75*
G02*
X115043750Y-72950000I243750J0D01*
G01*
G37*
M02*
