G04 #@! TF.GenerationSoftware,KiCad,Pcbnew,5.1.4-e60b266~84~ubuntu18.04.1*
G04 #@! TF.CreationDate,2019-08-12T17:35:48+02:00*
G04 #@! TF.ProjectId,ebuzzz-adapter,6562757a-7a7a-42d6-9164-61707465722e,rev?*
G04 #@! TF.SameCoordinates,Original*
G04 #@! TF.FileFunction,Paste,Top*
G04 #@! TF.FilePolarity,Positive*
%FSLAX46Y46*%
G04 Gerber Fmt 4.6, Leading zero omitted, Abs format (unit mm)*
G04 Created by KiCad (PCBNEW 5.1.4-e60b266~84~ubuntu18.04.1) date 2019-08-12 17:35:48*
%MOMM*%
%LPD*%
G04 APERTURE LIST*
%ADD10R,1.000000X0.700000*%
%ADD11C,0.100000*%
%ADD12C,1.150000*%
%ADD13R,2.500000X1.800000*%
%ADD14R,0.900000X0.800000*%
%ADD15C,0.600000*%
G04 APERTURE END LIST*
D10*
X155875000Y-77100000D03*
X155875000Y-81100000D03*
X161825000Y-81100000D03*
X161825000Y-77100000D03*
D11*
G36*
X149324505Y-76801204D02*
G01*
X149348773Y-76804804D01*
X149372572Y-76810765D01*
X149395671Y-76819030D01*
X149417850Y-76829520D01*
X149438893Y-76842132D01*
X149458599Y-76856747D01*
X149476777Y-76873223D01*
X149493253Y-76891401D01*
X149507868Y-76911107D01*
X149520480Y-76932150D01*
X149530970Y-76954329D01*
X149539235Y-76977428D01*
X149545196Y-77001227D01*
X149548796Y-77025495D01*
X149550000Y-77049999D01*
X149550000Y-77950001D01*
X149548796Y-77974505D01*
X149545196Y-77998773D01*
X149539235Y-78022572D01*
X149530970Y-78045671D01*
X149520480Y-78067850D01*
X149507868Y-78088893D01*
X149493253Y-78108599D01*
X149476777Y-78126777D01*
X149458599Y-78143253D01*
X149438893Y-78157868D01*
X149417850Y-78170480D01*
X149395671Y-78180970D01*
X149372572Y-78189235D01*
X149348773Y-78195196D01*
X149324505Y-78198796D01*
X149300001Y-78200000D01*
X148649999Y-78200000D01*
X148625495Y-78198796D01*
X148601227Y-78195196D01*
X148577428Y-78189235D01*
X148554329Y-78180970D01*
X148532150Y-78170480D01*
X148511107Y-78157868D01*
X148491401Y-78143253D01*
X148473223Y-78126777D01*
X148456747Y-78108599D01*
X148442132Y-78088893D01*
X148429520Y-78067850D01*
X148419030Y-78045671D01*
X148410765Y-78022572D01*
X148404804Y-77998773D01*
X148401204Y-77974505D01*
X148400000Y-77950001D01*
X148400000Y-77049999D01*
X148401204Y-77025495D01*
X148404804Y-77001227D01*
X148410765Y-76977428D01*
X148419030Y-76954329D01*
X148429520Y-76932150D01*
X148442132Y-76911107D01*
X148456747Y-76891401D01*
X148473223Y-76873223D01*
X148491401Y-76856747D01*
X148511107Y-76842132D01*
X148532150Y-76829520D01*
X148554329Y-76819030D01*
X148577428Y-76810765D01*
X148601227Y-76804804D01*
X148625495Y-76801204D01*
X148649999Y-76800000D01*
X149300001Y-76800000D01*
X149324505Y-76801204D01*
X149324505Y-76801204D01*
G37*
D12*
X148975000Y-77500000D03*
D11*
G36*
X151374505Y-76801204D02*
G01*
X151398773Y-76804804D01*
X151422572Y-76810765D01*
X151445671Y-76819030D01*
X151467850Y-76829520D01*
X151488893Y-76842132D01*
X151508599Y-76856747D01*
X151526777Y-76873223D01*
X151543253Y-76891401D01*
X151557868Y-76911107D01*
X151570480Y-76932150D01*
X151580970Y-76954329D01*
X151589235Y-76977428D01*
X151595196Y-77001227D01*
X151598796Y-77025495D01*
X151600000Y-77049999D01*
X151600000Y-77950001D01*
X151598796Y-77974505D01*
X151595196Y-77998773D01*
X151589235Y-78022572D01*
X151580970Y-78045671D01*
X151570480Y-78067850D01*
X151557868Y-78088893D01*
X151543253Y-78108599D01*
X151526777Y-78126777D01*
X151508599Y-78143253D01*
X151488893Y-78157868D01*
X151467850Y-78170480D01*
X151445671Y-78180970D01*
X151422572Y-78189235D01*
X151398773Y-78195196D01*
X151374505Y-78198796D01*
X151350001Y-78200000D01*
X150699999Y-78200000D01*
X150675495Y-78198796D01*
X150651227Y-78195196D01*
X150627428Y-78189235D01*
X150604329Y-78180970D01*
X150582150Y-78170480D01*
X150561107Y-78157868D01*
X150541401Y-78143253D01*
X150523223Y-78126777D01*
X150506747Y-78108599D01*
X150492132Y-78088893D01*
X150479520Y-78067850D01*
X150469030Y-78045671D01*
X150460765Y-78022572D01*
X150454804Y-77998773D01*
X150451204Y-77974505D01*
X150450000Y-77950001D01*
X150450000Y-77049999D01*
X150451204Y-77025495D01*
X150454804Y-77001227D01*
X150460765Y-76977428D01*
X150469030Y-76954329D01*
X150479520Y-76932150D01*
X150492132Y-76911107D01*
X150506747Y-76891401D01*
X150523223Y-76873223D01*
X150541401Y-76856747D01*
X150561107Y-76842132D01*
X150582150Y-76829520D01*
X150604329Y-76819030D01*
X150627428Y-76810765D01*
X150651227Y-76804804D01*
X150675495Y-76801204D01*
X150699999Y-76800000D01*
X151350001Y-76800000D01*
X151374505Y-76801204D01*
X151374505Y-76801204D01*
G37*
D12*
X151025000Y-77500000D03*
D11*
G36*
X144974505Y-72401204D02*
G01*
X144998773Y-72404804D01*
X145022572Y-72410765D01*
X145045671Y-72419030D01*
X145067850Y-72429520D01*
X145088893Y-72442132D01*
X145108599Y-72456747D01*
X145126777Y-72473223D01*
X145143253Y-72491401D01*
X145157868Y-72511107D01*
X145170480Y-72532150D01*
X145180970Y-72554329D01*
X145189235Y-72577428D01*
X145195196Y-72601227D01*
X145198796Y-72625495D01*
X145200000Y-72649999D01*
X145200000Y-73300001D01*
X145198796Y-73324505D01*
X145195196Y-73348773D01*
X145189235Y-73372572D01*
X145180970Y-73395671D01*
X145170480Y-73417850D01*
X145157868Y-73438893D01*
X145143253Y-73458599D01*
X145126777Y-73476777D01*
X145108599Y-73493253D01*
X145088893Y-73507868D01*
X145067850Y-73520480D01*
X145045671Y-73530970D01*
X145022572Y-73539235D01*
X144998773Y-73545196D01*
X144974505Y-73548796D01*
X144950001Y-73550000D01*
X144049999Y-73550000D01*
X144025495Y-73548796D01*
X144001227Y-73545196D01*
X143977428Y-73539235D01*
X143954329Y-73530970D01*
X143932150Y-73520480D01*
X143911107Y-73507868D01*
X143891401Y-73493253D01*
X143873223Y-73476777D01*
X143856747Y-73458599D01*
X143842132Y-73438893D01*
X143829520Y-73417850D01*
X143819030Y-73395671D01*
X143810765Y-73372572D01*
X143804804Y-73348773D01*
X143801204Y-73324505D01*
X143800000Y-73300001D01*
X143800000Y-72649999D01*
X143801204Y-72625495D01*
X143804804Y-72601227D01*
X143810765Y-72577428D01*
X143819030Y-72554329D01*
X143829520Y-72532150D01*
X143842132Y-72511107D01*
X143856747Y-72491401D01*
X143873223Y-72473223D01*
X143891401Y-72456747D01*
X143911107Y-72442132D01*
X143932150Y-72429520D01*
X143954329Y-72419030D01*
X143977428Y-72410765D01*
X144001227Y-72404804D01*
X144025495Y-72401204D01*
X144049999Y-72400000D01*
X144950001Y-72400000D01*
X144974505Y-72401204D01*
X144974505Y-72401204D01*
G37*
D12*
X144500000Y-72975000D03*
D11*
G36*
X144974505Y-74451204D02*
G01*
X144998773Y-74454804D01*
X145022572Y-74460765D01*
X145045671Y-74469030D01*
X145067850Y-74479520D01*
X145088893Y-74492132D01*
X145108599Y-74506747D01*
X145126777Y-74523223D01*
X145143253Y-74541401D01*
X145157868Y-74561107D01*
X145170480Y-74582150D01*
X145180970Y-74604329D01*
X145189235Y-74627428D01*
X145195196Y-74651227D01*
X145198796Y-74675495D01*
X145200000Y-74699999D01*
X145200000Y-75350001D01*
X145198796Y-75374505D01*
X145195196Y-75398773D01*
X145189235Y-75422572D01*
X145180970Y-75445671D01*
X145170480Y-75467850D01*
X145157868Y-75488893D01*
X145143253Y-75508599D01*
X145126777Y-75526777D01*
X145108599Y-75543253D01*
X145088893Y-75557868D01*
X145067850Y-75570480D01*
X145045671Y-75580970D01*
X145022572Y-75589235D01*
X144998773Y-75595196D01*
X144974505Y-75598796D01*
X144950001Y-75600000D01*
X144049999Y-75600000D01*
X144025495Y-75598796D01*
X144001227Y-75595196D01*
X143977428Y-75589235D01*
X143954329Y-75580970D01*
X143932150Y-75570480D01*
X143911107Y-75557868D01*
X143891401Y-75543253D01*
X143873223Y-75526777D01*
X143856747Y-75508599D01*
X143842132Y-75488893D01*
X143829520Y-75467850D01*
X143819030Y-75445671D01*
X143810765Y-75422572D01*
X143804804Y-75398773D01*
X143801204Y-75374505D01*
X143800000Y-75350001D01*
X143800000Y-74699999D01*
X143801204Y-74675495D01*
X143804804Y-74651227D01*
X143810765Y-74627428D01*
X143819030Y-74604329D01*
X143829520Y-74582150D01*
X143842132Y-74561107D01*
X143856747Y-74541401D01*
X143873223Y-74523223D01*
X143891401Y-74506747D01*
X143911107Y-74492132D01*
X143932150Y-74479520D01*
X143954329Y-74469030D01*
X143977428Y-74460765D01*
X144001227Y-74454804D01*
X144025495Y-74451204D01*
X144049999Y-74450000D01*
X144950001Y-74450000D01*
X144974505Y-74451204D01*
X144974505Y-74451204D01*
G37*
D12*
X144500000Y-75025000D03*
D11*
G36*
X133974505Y-81851204D02*
G01*
X133998773Y-81854804D01*
X134022572Y-81860765D01*
X134045671Y-81869030D01*
X134067850Y-81879520D01*
X134088893Y-81892132D01*
X134108599Y-81906747D01*
X134126777Y-81923223D01*
X134143253Y-81941401D01*
X134157868Y-81961107D01*
X134170480Y-81982150D01*
X134180970Y-82004329D01*
X134189235Y-82027428D01*
X134195196Y-82051227D01*
X134198796Y-82075495D01*
X134200000Y-82099999D01*
X134200000Y-82750001D01*
X134198796Y-82774505D01*
X134195196Y-82798773D01*
X134189235Y-82822572D01*
X134180970Y-82845671D01*
X134170480Y-82867850D01*
X134157868Y-82888893D01*
X134143253Y-82908599D01*
X134126777Y-82926777D01*
X134108599Y-82943253D01*
X134088893Y-82957868D01*
X134067850Y-82970480D01*
X134045671Y-82980970D01*
X134022572Y-82989235D01*
X133998773Y-82995196D01*
X133974505Y-82998796D01*
X133950001Y-83000000D01*
X133049999Y-83000000D01*
X133025495Y-82998796D01*
X133001227Y-82995196D01*
X132977428Y-82989235D01*
X132954329Y-82980970D01*
X132932150Y-82970480D01*
X132911107Y-82957868D01*
X132891401Y-82943253D01*
X132873223Y-82926777D01*
X132856747Y-82908599D01*
X132842132Y-82888893D01*
X132829520Y-82867850D01*
X132819030Y-82845671D01*
X132810765Y-82822572D01*
X132804804Y-82798773D01*
X132801204Y-82774505D01*
X132800000Y-82750001D01*
X132800000Y-82099999D01*
X132801204Y-82075495D01*
X132804804Y-82051227D01*
X132810765Y-82027428D01*
X132819030Y-82004329D01*
X132829520Y-81982150D01*
X132842132Y-81961107D01*
X132856747Y-81941401D01*
X132873223Y-81923223D01*
X132891401Y-81906747D01*
X132911107Y-81892132D01*
X132932150Y-81879520D01*
X132954329Y-81869030D01*
X132977428Y-81860765D01*
X133001227Y-81854804D01*
X133025495Y-81851204D01*
X133049999Y-81850000D01*
X133950001Y-81850000D01*
X133974505Y-81851204D01*
X133974505Y-81851204D01*
G37*
D12*
X133500000Y-82425000D03*
D11*
G36*
X133974505Y-79801204D02*
G01*
X133998773Y-79804804D01*
X134022572Y-79810765D01*
X134045671Y-79819030D01*
X134067850Y-79829520D01*
X134088893Y-79842132D01*
X134108599Y-79856747D01*
X134126777Y-79873223D01*
X134143253Y-79891401D01*
X134157868Y-79911107D01*
X134170480Y-79932150D01*
X134180970Y-79954329D01*
X134189235Y-79977428D01*
X134195196Y-80001227D01*
X134198796Y-80025495D01*
X134200000Y-80049999D01*
X134200000Y-80700001D01*
X134198796Y-80724505D01*
X134195196Y-80748773D01*
X134189235Y-80772572D01*
X134180970Y-80795671D01*
X134170480Y-80817850D01*
X134157868Y-80838893D01*
X134143253Y-80858599D01*
X134126777Y-80876777D01*
X134108599Y-80893253D01*
X134088893Y-80907868D01*
X134067850Y-80920480D01*
X134045671Y-80930970D01*
X134022572Y-80939235D01*
X133998773Y-80945196D01*
X133974505Y-80948796D01*
X133950001Y-80950000D01*
X133049999Y-80950000D01*
X133025495Y-80948796D01*
X133001227Y-80945196D01*
X132977428Y-80939235D01*
X132954329Y-80930970D01*
X132932150Y-80920480D01*
X132911107Y-80907868D01*
X132891401Y-80893253D01*
X132873223Y-80876777D01*
X132856747Y-80858599D01*
X132842132Y-80838893D01*
X132829520Y-80817850D01*
X132819030Y-80795671D01*
X132810765Y-80772572D01*
X132804804Y-80748773D01*
X132801204Y-80724505D01*
X132800000Y-80700001D01*
X132800000Y-80049999D01*
X132801204Y-80025495D01*
X132804804Y-80001227D01*
X132810765Y-79977428D01*
X132819030Y-79954329D01*
X132829520Y-79932150D01*
X132842132Y-79911107D01*
X132856747Y-79891401D01*
X132873223Y-79873223D01*
X132891401Y-79856747D01*
X132911107Y-79842132D01*
X132932150Y-79829520D01*
X132954329Y-79819030D01*
X132977428Y-79810765D01*
X133001227Y-79804804D01*
X133025495Y-79801204D01*
X133049999Y-79800000D01*
X133950001Y-79800000D01*
X133974505Y-79801204D01*
X133974505Y-79801204D01*
G37*
D12*
X133500000Y-80375000D03*
D11*
G36*
X115420505Y-76901204D02*
G01*
X115444773Y-76904804D01*
X115468572Y-76910765D01*
X115491671Y-76919030D01*
X115513850Y-76929520D01*
X115534893Y-76942132D01*
X115554599Y-76956747D01*
X115572777Y-76973223D01*
X115589253Y-76991401D01*
X115603868Y-77011107D01*
X115616480Y-77032150D01*
X115626970Y-77054329D01*
X115635235Y-77077428D01*
X115641196Y-77101227D01*
X115644796Y-77125495D01*
X115646000Y-77149999D01*
X115646000Y-78050001D01*
X115644796Y-78074505D01*
X115641196Y-78098773D01*
X115635235Y-78122572D01*
X115626970Y-78145671D01*
X115616480Y-78167850D01*
X115603868Y-78188893D01*
X115589253Y-78208599D01*
X115572777Y-78226777D01*
X115554599Y-78243253D01*
X115534893Y-78257868D01*
X115513850Y-78270480D01*
X115491671Y-78280970D01*
X115468572Y-78289235D01*
X115444773Y-78295196D01*
X115420505Y-78298796D01*
X115396001Y-78300000D01*
X114745999Y-78300000D01*
X114721495Y-78298796D01*
X114697227Y-78295196D01*
X114673428Y-78289235D01*
X114650329Y-78280970D01*
X114628150Y-78270480D01*
X114607107Y-78257868D01*
X114587401Y-78243253D01*
X114569223Y-78226777D01*
X114552747Y-78208599D01*
X114538132Y-78188893D01*
X114525520Y-78167850D01*
X114515030Y-78145671D01*
X114506765Y-78122572D01*
X114500804Y-78098773D01*
X114497204Y-78074505D01*
X114496000Y-78050001D01*
X114496000Y-77149999D01*
X114497204Y-77125495D01*
X114500804Y-77101227D01*
X114506765Y-77077428D01*
X114515030Y-77054329D01*
X114525520Y-77032150D01*
X114538132Y-77011107D01*
X114552747Y-76991401D01*
X114569223Y-76973223D01*
X114587401Y-76956747D01*
X114607107Y-76942132D01*
X114628150Y-76929520D01*
X114650329Y-76919030D01*
X114673428Y-76910765D01*
X114697227Y-76904804D01*
X114721495Y-76901204D01*
X114745999Y-76900000D01*
X115396001Y-76900000D01*
X115420505Y-76901204D01*
X115420505Y-76901204D01*
G37*
D12*
X115071000Y-77600000D03*
D11*
G36*
X113370505Y-76901204D02*
G01*
X113394773Y-76904804D01*
X113418572Y-76910765D01*
X113441671Y-76919030D01*
X113463850Y-76929520D01*
X113484893Y-76942132D01*
X113504599Y-76956747D01*
X113522777Y-76973223D01*
X113539253Y-76991401D01*
X113553868Y-77011107D01*
X113566480Y-77032150D01*
X113576970Y-77054329D01*
X113585235Y-77077428D01*
X113591196Y-77101227D01*
X113594796Y-77125495D01*
X113596000Y-77149999D01*
X113596000Y-78050001D01*
X113594796Y-78074505D01*
X113591196Y-78098773D01*
X113585235Y-78122572D01*
X113576970Y-78145671D01*
X113566480Y-78167850D01*
X113553868Y-78188893D01*
X113539253Y-78208599D01*
X113522777Y-78226777D01*
X113504599Y-78243253D01*
X113484893Y-78257868D01*
X113463850Y-78270480D01*
X113441671Y-78280970D01*
X113418572Y-78289235D01*
X113394773Y-78295196D01*
X113370505Y-78298796D01*
X113346001Y-78300000D01*
X112695999Y-78300000D01*
X112671495Y-78298796D01*
X112647227Y-78295196D01*
X112623428Y-78289235D01*
X112600329Y-78280970D01*
X112578150Y-78270480D01*
X112557107Y-78257868D01*
X112537401Y-78243253D01*
X112519223Y-78226777D01*
X112502747Y-78208599D01*
X112488132Y-78188893D01*
X112475520Y-78167850D01*
X112465030Y-78145671D01*
X112456765Y-78122572D01*
X112450804Y-78098773D01*
X112447204Y-78074505D01*
X112446000Y-78050001D01*
X112446000Y-77149999D01*
X112447204Y-77125495D01*
X112450804Y-77101227D01*
X112456765Y-77077428D01*
X112465030Y-77054329D01*
X112475520Y-77032150D01*
X112488132Y-77011107D01*
X112502747Y-76991401D01*
X112519223Y-76973223D01*
X112537401Y-76956747D01*
X112557107Y-76942132D01*
X112578150Y-76929520D01*
X112600329Y-76919030D01*
X112623428Y-76910765D01*
X112647227Y-76904804D01*
X112671495Y-76901204D01*
X112695999Y-76900000D01*
X113346001Y-76900000D01*
X113370505Y-76901204D01*
X113370505Y-76901204D01*
G37*
D12*
X113021000Y-77600000D03*
D11*
G36*
X131349505Y-70801204D02*
G01*
X131373773Y-70804804D01*
X131397572Y-70810765D01*
X131420671Y-70819030D01*
X131442850Y-70829520D01*
X131463893Y-70842132D01*
X131483599Y-70856747D01*
X131501777Y-70873223D01*
X131518253Y-70891401D01*
X131532868Y-70911107D01*
X131545480Y-70932150D01*
X131555970Y-70954329D01*
X131564235Y-70977428D01*
X131570196Y-71001227D01*
X131573796Y-71025495D01*
X131575000Y-71049999D01*
X131575000Y-71950001D01*
X131573796Y-71974505D01*
X131570196Y-71998773D01*
X131564235Y-72022572D01*
X131555970Y-72045671D01*
X131545480Y-72067850D01*
X131532868Y-72088893D01*
X131518253Y-72108599D01*
X131501777Y-72126777D01*
X131483599Y-72143253D01*
X131463893Y-72157868D01*
X131442850Y-72170480D01*
X131420671Y-72180970D01*
X131397572Y-72189235D01*
X131373773Y-72195196D01*
X131349505Y-72198796D01*
X131325001Y-72200000D01*
X130674999Y-72200000D01*
X130650495Y-72198796D01*
X130626227Y-72195196D01*
X130602428Y-72189235D01*
X130579329Y-72180970D01*
X130557150Y-72170480D01*
X130536107Y-72157868D01*
X130516401Y-72143253D01*
X130498223Y-72126777D01*
X130481747Y-72108599D01*
X130467132Y-72088893D01*
X130454520Y-72067850D01*
X130444030Y-72045671D01*
X130435765Y-72022572D01*
X130429804Y-71998773D01*
X130426204Y-71974505D01*
X130425000Y-71950001D01*
X130425000Y-71049999D01*
X130426204Y-71025495D01*
X130429804Y-71001227D01*
X130435765Y-70977428D01*
X130444030Y-70954329D01*
X130454520Y-70932150D01*
X130467132Y-70911107D01*
X130481747Y-70891401D01*
X130498223Y-70873223D01*
X130516401Y-70856747D01*
X130536107Y-70842132D01*
X130557150Y-70829520D01*
X130579329Y-70819030D01*
X130602428Y-70810765D01*
X130626227Y-70804804D01*
X130650495Y-70801204D01*
X130674999Y-70800000D01*
X131325001Y-70800000D01*
X131349505Y-70801204D01*
X131349505Y-70801204D01*
G37*
D12*
X131000000Y-71500000D03*
D11*
G36*
X129299505Y-70801204D02*
G01*
X129323773Y-70804804D01*
X129347572Y-70810765D01*
X129370671Y-70819030D01*
X129392850Y-70829520D01*
X129413893Y-70842132D01*
X129433599Y-70856747D01*
X129451777Y-70873223D01*
X129468253Y-70891401D01*
X129482868Y-70911107D01*
X129495480Y-70932150D01*
X129505970Y-70954329D01*
X129514235Y-70977428D01*
X129520196Y-71001227D01*
X129523796Y-71025495D01*
X129525000Y-71049999D01*
X129525000Y-71950001D01*
X129523796Y-71974505D01*
X129520196Y-71998773D01*
X129514235Y-72022572D01*
X129505970Y-72045671D01*
X129495480Y-72067850D01*
X129482868Y-72088893D01*
X129468253Y-72108599D01*
X129451777Y-72126777D01*
X129433599Y-72143253D01*
X129413893Y-72157868D01*
X129392850Y-72170480D01*
X129370671Y-72180970D01*
X129347572Y-72189235D01*
X129323773Y-72195196D01*
X129299505Y-72198796D01*
X129275001Y-72200000D01*
X128624999Y-72200000D01*
X128600495Y-72198796D01*
X128576227Y-72195196D01*
X128552428Y-72189235D01*
X128529329Y-72180970D01*
X128507150Y-72170480D01*
X128486107Y-72157868D01*
X128466401Y-72143253D01*
X128448223Y-72126777D01*
X128431747Y-72108599D01*
X128417132Y-72088893D01*
X128404520Y-72067850D01*
X128394030Y-72045671D01*
X128385765Y-72022572D01*
X128379804Y-71998773D01*
X128376204Y-71974505D01*
X128375000Y-71950001D01*
X128375000Y-71049999D01*
X128376204Y-71025495D01*
X128379804Y-71001227D01*
X128385765Y-70977428D01*
X128394030Y-70954329D01*
X128404520Y-70932150D01*
X128417132Y-70911107D01*
X128431747Y-70891401D01*
X128448223Y-70873223D01*
X128466401Y-70856747D01*
X128486107Y-70842132D01*
X128507150Y-70829520D01*
X128529329Y-70819030D01*
X128552428Y-70810765D01*
X128576227Y-70804804D01*
X128600495Y-70801204D01*
X128624999Y-70800000D01*
X129275001Y-70800000D01*
X129299505Y-70801204D01*
X129299505Y-70801204D01*
G37*
D12*
X128950000Y-71500000D03*
D13*
X152000000Y-81000000D03*
X148000000Y-81000000D03*
D11*
G36*
X167574505Y-70801204D02*
G01*
X167598773Y-70804804D01*
X167622572Y-70810765D01*
X167645671Y-70819030D01*
X167667850Y-70829520D01*
X167688893Y-70842132D01*
X167708599Y-70856747D01*
X167726777Y-70873223D01*
X167743253Y-70891401D01*
X167757868Y-70911107D01*
X167770480Y-70932150D01*
X167780970Y-70954329D01*
X167789235Y-70977428D01*
X167795196Y-71001227D01*
X167798796Y-71025495D01*
X167800000Y-71049999D01*
X167800000Y-71950001D01*
X167798796Y-71974505D01*
X167795196Y-71998773D01*
X167789235Y-72022572D01*
X167780970Y-72045671D01*
X167770480Y-72067850D01*
X167757868Y-72088893D01*
X167743253Y-72108599D01*
X167726777Y-72126777D01*
X167708599Y-72143253D01*
X167688893Y-72157868D01*
X167667850Y-72170480D01*
X167645671Y-72180970D01*
X167622572Y-72189235D01*
X167598773Y-72195196D01*
X167574505Y-72198796D01*
X167550001Y-72200000D01*
X166899999Y-72200000D01*
X166875495Y-72198796D01*
X166851227Y-72195196D01*
X166827428Y-72189235D01*
X166804329Y-72180970D01*
X166782150Y-72170480D01*
X166761107Y-72157868D01*
X166741401Y-72143253D01*
X166723223Y-72126777D01*
X166706747Y-72108599D01*
X166692132Y-72088893D01*
X166679520Y-72067850D01*
X166669030Y-72045671D01*
X166660765Y-72022572D01*
X166654804Y-71998773D01*
X166651204Y-71974505D01*
X166650000Y-71950001D01*
X166650000Y-71049999D01*
X166651204Y-71025495D01*
X166654804Y-71001227D01*
X166660765Y-70977428D01*
X166669030Y-70954329D01*
X166679520Y-70932150D01*
X166692132Y-70911107D01*
X166706747Y-70891401D01*
X166723223Y-70873223D01*
X166741401Y-70856747D01*
X166761107Y-70842132D01*
X166782150Y-70829520D01*
X166804329Y-70819030D01*
X166827428Y-70810765D01*
X166851227Y-70804804D01*
X166875495Y-70801204D01*
X166899999Y-70800000D01*
X167550001Y-70800000D01*
X167574505Y-70801204D01*
X167574505Y-70801204D01*
G37*
D12*
X167225000Y-71500000D03*
D11*
G36*
X169624505Y-70801204D02*
G01*
X169648773Y-70804804D01*
X169672572Y-70810765D01*
X169695671Y-70819030D01*
X169717850Y-70829520D01*
X169738893Y-70842132D01*
X169758599Y-70856747D01*
X169776777Y-70873223D01*
X169793253Y-70891401D01*
X169807868Y-70911107D01*
X169820480Y-70932150D01*
X169830970Y-70954329D01*
X169839235Y-70977428D01*
X169845196Y-71001227D01*
X169848796Y-71025495D01*
X169850000Y-71049999D01*
X169850000Y-71950001D01*
X169848796Y-71974505D01*
X169845196Y-71998773D01*
X169839235Y-72022572D01*
X169830970Y-72045671D01*
X169820480Y-72067850D01*
X169807868Y-72088893D01*
X169793253Y-72108599D01*
X169776777Y-72126777D01*
X169758599Y-72143253D01*
X169738893Y-72157868D01*
X169717850Y-72170480D01*
X169695671Y-72180970D01*
X169672572Y-72189235D01*
X169648773Y-72195196D01*
X169624505Y-72198796D01*
X169600001Y-72200000D01*
X168949999Y-72200000D01*
X168925495Y-72198796D01*
X168901227Y-72195196D01*
X168877428Y-72189235D01*
X168854329Y-72180970D01*
X168832150Y-72170480D01*
X168811107Y-72157868D01*
X168791401Y-72143253D01*
X168773223Y-72126777D01*
X168756747Y-72108599D01*
X168742132Y-72088893D01*
X168729520Y-72067850D01*
X168719030Y-72045671D01*
X168710765Y-72022572D01*
X168704804Y-71998773D01*
X168701204Y-71974505D01*
X168700000Y-71950001D01*
X168700000Y-71049999D01*
X168701204Y-71025495D01*
X168704804Y-71001227D01*
X168710765Y-70977428D01*
X168719030Y-70954329D01*
X168729520Y-70932150D01*
X168742132Y-70911107D01*
X168756747Y-70891401D01*
X168773223Y-70873223D01*
X168791401Y-70856747D01*
X168811107Y-70842132D01*
X168832150Y-70829520D01*
X168854329Y-70819030D01*
X168877428Y-70810765D01*
X168901227Y-70804804D01*
X168925495Y-70801204D01*
X168949999Y-70800000D01*
X169600001Y-70800000D01*
X169624505Y-70801204D01*
X169624505Y-70801204D01*
G37*
D12*
X169275000Y-71500000D03*
D14*
X150750000Y-85300000D03*
X150750000Y-87200000D03*
X152750000Y-86250000D03*
D11*
G36*
X113370505Y-84899204D02*
G01*
X113394773Y-84902804D01*
X113418572Y-84908765D01*
X113441671Y-84917030D01*
X113463850Y-84927520D01*
X113484893Y-84940132D01*
X113504599Y-84954747D01*
X113522777Y-84971223D01*
X113539253Y-84989401D01*
X113553868Y-85009107D01*
X113566480Y-85030150D01*
X113576970Y-85052329D01*
X113585235Y-85075428D01*
X113591196Y-85099227D01*
X113594796Y-85123495D01*
X113596000Y-85147999D01*
X113596000Y-86048001D01*
X113594796Y-86072505D01*
X113591196Y-86096773D01*
X113585235Y-86120572D01*
X113576970Y-86143671D01*
X113566480Y-86165850D01*
X113553868Y-86186893D01*
X113539253Y-86206599D01*
X113522777Y-86224777D01*
X113504599Y-86241253D01*
X113484893Y-86255868D01*
X113463850Y-86268480D01*
X113441671Y-86278970D01*
X113418572Y-86287235D01*
X113394773Y-86293196D01*
X113370505Y-86296796D01*
X113346001Y-86298000D01*
X112695999Y-86298000D01*
X112671495Y-86296796D01*
X112647227Y-86293196D01*
X112623428Y-86287235D01*
X112600329Y-86278970D01*
X112578150Y-86268480D01*
X112557107Y-86255868D01*
X112537401Y-86241253D01*
X112519223Y-86224777D01*
X112502747Y-86206599D01*
X112488132Y-86186893D01*
X112475520Y-86165850D01*
X112465030Y-86143671D01*
X112456765Y-86120572D01*
X112450804Y-86096773D01*
X112447204Y-86072505D01*
X112446000Y-86048001D01*
X112446000Y-85147999D01*
X112447204Y-85123495D01*
X112450804Y-85099227D01*
X112456765Y-85075428D01*
X112465030Y-85052329D01*
X112475520Y-85030150D01*
X112488132Y-85009107D01*
X112502747Y-84989401D01*
X112519223Y-84971223D01*
X112537401Y-84954747D01*
X112557107Y-84940132D01*
X112578150Y-84927520D01*
X112600329Y-84917030D01*
X112623428Y-84908765D01*
X112647227Y-84902804D01*
X112671495Y-84899204D01*
X112695999Y-84898000D01*
X113346001Y-84898000D01*
X113370505Y-84899204D01*
X113370505Y-84899204D01*
G37*
D12*
X113021000Y-85598000D03*
D11*
G36*
X115420505Y-84899204D02*
G01*
X115444773Y-84902804D01*
X115468572Y-84908765D01*
X115491671Y-84917030D01*
X115513850Y-84927520D01*
X115534893Y-84940132D01*
X115554599Y-84954747D01*
X115572777Y-84971223D01*
X115589253Y-84989401D01*
X115603868Y-85009107D01*
X115616480Y-85030150D01*
X115626970Y-85052329D01*
X115635235Y-85075428D01*
X115641196Y-85099227D01*
X115644796Y-85123495D01*
X115646000Y-85147999D01*
X115646000Y-86048001D01*
X115644796Y-86072505D01*
X115641196Y-86096773D01*
X115635235Y-86120572D01*
X115626970Y-86143671D01*
X115616480Y-86165850D01*
X115603868Y-86186893D01*
X115589253Y-86206599D01*
X115572777Y-86224777D01*
X115554599Y-86241253D01*
X115534893Y-86255868D01*
X115513850Y-86268480D01*
X115491671Y-86278970D01*
X115468572Y-86287235D01*
X115444773Y-86293196D01*
X115420505Y-86296796D01*
X115396001Y-86298000D01*
X114745999Y-86298000D01*
X114721495Y-86296796D01*
X114697227Y-86293196D01*
X114673428Y-86287235D01*
X114650329Y-86278970D01*
X114628150Y-86268480D01*
X114607107Y-86255868D01*
X114587401Y-86241253D01*
X114569223Y-86224777D01*
X114552747Y-86206599D01*
X114538132Y-86186893D01*
X114525520Y-86165850D01*
X114515030Y-86143671D01*
X114506765Y-86120572D01*
X114500804Y-86096773D01*
X114497204Y-86072505D01*
X114496000Y-86048001D01*
X114496000Y-85147999D01*
X114497204Y-85123495D01*
X114500804Y-85099227D01*
X114506765Y-85075428D01*
X114515030Y-85052329D01*
X114525520Y-85030150D01*
X114538132Y-85009107D01*
X114552747Y-84989401D01*
X114569223Y-84971223D01*
X114587401Y-84954747D01*
X114607107Y-84940132D01*
X114628150Y-84927520D01*
X114650329Y-84917030D01*
X114673428Y-84908765D01*
X114697227Y-84902804D01*
X114721495Y-84899204D01*
X114745999Y-84898000D01*
X115396001Y-84898000D01*
X115420505Y-84899204D01*
X115420505Y-84899204D01*
G37*
D12*
X115071000Y-85598000D03*
D11*
G36*
X113370505Y-82151204D02*
G01*
X113394773Y-82154804D01*
X113418572Y-82160765D01*
X113441671Y-82169030D01*
X113463850Y-82179520D01*
X113484893Y-82192132D01*
X113504599Y-82206747D01*
X113522777Y-82223223D01*
X113539253Y-82241401D01*
X113553868Y-82261107D01*
X113566480Y-82282150D01*
X113576970Y-82304329D01*
X113585235Y-82327428D01*
X113591196Y-82351227D01*
X113594796Y-82375495D01*
X113596000Y-82399999D01*
X113596000Y-83300001D01*
X113594796Y-83324505D01*
X113591196Y-83348773D01*
X113585235Y-83372572D01*
X113576970Y-83395671D01*
X113566480Y-83417850D01*
X113553868Y-83438893D01*
X113539253Y-83458599D01*
X113522777Y-83476777D01*
X113504599Y-83493253D01*
X113484893Y-83507868D01*
X113463850Y-83520480D01*
X113441671Y-83530970D01*
X113418572Y-83539235D01*
X113394773Y-83545196D01*
X113370505Y-83548796D01*
X113346001Y-83550000D01*
X112695999Y-83550000D01*
X112671495Y-83548796D01*
X112647227Y-83545196D01*
X112623428Y-83539235D01*
X112600329Y-83530970D01*
X112578150Y-83520480D01*
X112557107Y-83507868D01*
X112537401Y-83493253D01*
X112519223Y-83476777D01*
X112502747Y-83458599D01*
X112488132Y-83438893D01*
X112475520Y-83417850D01*
X112465030Y-83395671D01*
X112456765Y-83372572D01*
X112450804Y-83348773D01*
X112447204Y-83324505D01*
X112446000Y-83300001D01*
X112446000Y-82399999D01*
X112447204Y-82375495D01*
X112450804Y-82351227D01*
X112456765Y-82327428D01*
X112465030Y-82304329D01*
X112475520Y-82282150D01*
X112488132Y-82261107D01*
X112502747Y-82241401D01*
X112519223Y-82223223D01*
X112537401Y-82206747D01*
X112557107Y-82192132D01*
X112578150Y-82179520D01*
X112600329Y-82169030D01*
X112623428Y-82160765D01*
X112647227Y-82154804D01*
X112671495Y-82151204D01*
X112695999Y-82150000D01*
X113346001Y-82150000D01*
X113370505Y-82151204D01*
X113370505Y-82151204D01*
G37*
D12*
X113021000Y-82850000D03*
D11*
G36*
X115420505Y-82151204D02*
G01*
X115444773Y-82154804D01*
X115468572Y-82160765D01*
X115491671Y-82169030D01*
X115513850Y-82179520D01*
X115534893Y-82192132D01*
X115554599Y-82206747D01*
X115572777Y-82223223D01*
X115589253Y-82241401D01*
X115603868Y-82261107D01*
X115616480Y-82282150D01*
X115626970Y-82304329D01*
X115635235Y-82327428D01*
X115641196Y-82351227D01*
X115644796Y-82375495D01*
X115646000Y-82399999D01*
X115646000Y-83300001D01*
X115644796Y-83324505D01*
X115641196Y-83348773D01*
X115635235Y-83372572D01*
X115626970Y-83395671D01*
X115616480Y-83417850D01*
X115603868Y-83438893D01*
X115589253Y-83458599D01*
X115572777Y-83476777D01*
X115554599Y-83493253D01*
X115534893Y-83507868D01*
X115513850Y-83520480D01*
X115491671Y-83530970D01*
X115468572Y-83539235D01*
X115444773Y-83545196D01*
X115420505Y-83548796D01*
X115396001Y-83550000D01*
X114745999Y-83550000D01*
X114721495Y-83548796D01*
X114697227Y-83545196D01*
X114673428Y-83539235D01*
X114650329Y-83530970D01*
X114628150Y-83520480D01*
X114607107Y-83507868D01*
X114587401Y-83493253D01*
X114569223Y-83476777D01*
X114552747Y-83458599D01*
X114538132Y-83438893D01*
X114525520Y-83417850D01*
X114515030Y-83395671D01*
X114506765Y-83372572D01*
X114500804Y-83348773D01*
X114497204Y-83324505D01*
X114496000Y-83300001D01*
X114496000Y-82399999D01*
X114497204Y-82375495D01*
X114500804Y-82351227D01*
X114506765Y-82327428D01*
X114515030Y-82304329D01*
X114525520Y-82282150D01*
X114538132Y-82261107D01*
X114552747Y-82241401D01*
X114569223Y-82223223D01*
X114587401Y-82206747D01*
X114607107Y-82192132D01*
X114628150Y-82179520D01*
X114650329Y-82169030D01*
X114673428Y-82160765D01*
X114697227Y-82154804D01*
X114721495Y-82151204D01*
X114745999Y-82150000D01*
X115396001Y-82150000D01*
X115420505Y-82151204D01*
X115420505Y-82151204D01*
G37*
D12*
X115071000Y-82850000D03*
D11*
G36*
X113370505Y-71437204D02*
G01*
X113394773Y-71440804D01*
X113418572Y-71446765D01*
X113441671Y-71455030D01*
X113463850Y-71465520D01*
X113484893Y-71478132D01*
X113504599Y-71492747D01*
X113522777Y-71509223D01*
X113539253Y-71527401D01*
X113553868Y-71547107D01*
X113566480Y-71568150D01*
X113576970Y-71590329D01*
X113585235Y-71613428D01*
X113591196Y-71637227D01*
X113594796Y-71661495D01*
X113596000Y-71685999D01*
X113596000Y-72586001D01*
X113594796Y-72610505D01*
X113591196Y-72634773D01*
X113585235Y-72658572D01*
X113576970Y-72681671D01*
X113566480Y-72703850D01*
X113553868Y-72724893D01*
X113539253Y-72744599D01*
X113522777Y-72762777D01*
X113504599Y-72779253D01*
X113484893Y-72793868D01*
X113463850Y-72806480D01*
X113441671Y-72816970D01*
X113418572Y-72825235D01*
X113394773Y-72831196D01*
X113370505Y-72834796D01*
X113346001Y-72836000D01*
X112695999Y-72836000D01*
X112671495Y-72834796D01*
X112647227Y-72831196D01*
X112623428Y-72825235D01*
X112600329Y-72816970D01*
X112578150Y-72806480D01*
X112557107Y-72793868D01*
X112537401Y-72779253D01*
X112519223Y-72762777D01*
X112502747Y-72744599D01*
X112488132Y-72724893D01*
X112475520Y-72703850D01*
X112465030Y-72681671D01*
X112456765Y-72658572D01*
X112450804Y-72634773D01*
X112447204Y-72610505D01*
X112446000Y-72586001D01*
X112446000Y-71685999D01*
X112447204Y-71661495D01*
X112450804Y-71637227D01*
X112456765Y-71613428D01*
X112465030Y-71590329D01*
X112475520Y-71568150D01*
X112488132Y-71547107D01*
X112502747Y-71527401D01*
X112519223Y-71509223D01*
X112537401Y-71492747D01*
X112557107Y-71478132D01*
X112578150Y-71465520D01*
X112600329Y-71455030D01*
X112623428Y-71446765D01*
X112647227Y-71440804D01*
X112671495Y-71437204D01*
X112695999Y-71436000D01*
X113346001Y-71436000D01*
X113370505Y-71437204D01*
X113370505Y-71437204D01*
G37*
D12*
X113021000Y-72136000D03*
D11*
G36*
X115420505Y-71437204D02*
G01*
X115444773Y-71440804D01*
X115468572Y-71446765D01*
X115491671Y-71455030D01*
X115513850Y-71465520D01*
X115534893Y-71478132D01*
X115554599Y-71492747D01*
X115572777Y-71509223D01*
X115589253Y-71527401D01*
X115603868Y-71547107D01*
X115616480Y-71568150D01*
X115626970Y-71590329D01*
X115635235Y-71613428D01*
X115641196Y-71637227D01*
X115644796Y-71661495D01*
X115646000Y-71685999D01*
X115646000Y-72586001D01*
X115644796Y-72610505D01*
X115641196Y-72634773D01*
X115635235Y-72658572D01*
X115626970Y-72681671D01*
X115616480Y-72703850D01*
X115603868Y-72724893D01*
X115589253Y-72744599D01*
X115572777Y-72762777D01*
X115554599Y-72779253D01*
X115534893Y-72793868D01*
X115513850Y-72806480D01*
X115491671Y-72816970D01*
X115468572Y-72825235D01*
X115444773Y-72831196D01*
X115420505Y-72834796D01*
X115396001Y-72836000D01*
X114745999Y-72836000D01*
X114721495Y-72834796D01*
X114697227Y-72831196D01*
X114673428Y-72825235D01*
X114650329Y-72816970D01*
X114628150Y-72806480D01*
X114607107Y-72793868D01*
X114587401Y-72779253D01*
X114569223Y-72762777D01*
X114552747Y-72744599D01*
X114538132Y-72724893D01*
X114525520Y-72703850D01*
X114515030Y-72681671D01*
X114506765Y-72658572D01*
X114500804Y-72634773D01*
X114497204Y-72610505D01*
X114496000Y-72586001D01*
X114496000Y-71685999D01*
X114497204Y-71661495D01*
X114500804Y-71637227D01*
X114506765Y-71613428D01*
X114515030Y-71590329D01*
X114525520Y-71568150D01*
X114538132Y-71547107D01*
X114552747Y-71527401D01*
X114569223Y-71509223D01*
X114587401Y-71492747D01*
X114607107Y-71478132D01*
X114628150Y-71465520D01*
X114650329Y-71455030D01*
X114673428Y-71446765D01*
X114697227Y-71440804D01*
X114721495Y-71437204D01*
X114745999Y-71436000D01*
X115396001Y-71436000D01*
X115420505Y-71437204D01*
X115420505Y-71437204D01*
G37*
D12*
X115071000Y-72136000D03*
D11*
G36*
X113370505Y-79311204D02*
G01*
X113394773Y-79314804D01*
X113418572Y-79320765D01*
X113441671Y-79329030D01*
X113463850Y-79339520D01*
X113484893Y-79352132D01*
X113504599Y-79366747D01*
X113522777Y-79383223D01*
X113539253Y-79401401D01*
X113553868Y-79421107D01*
X113566480Y-79442150D01*
X113576970Y-79464329D01*
X113585235Y-79487428D01*
X113591196Y-79511227D01*
X113594796Y-79535495D01*
X113596000Y-79559999D01*
X113596000Y-80460001D01*
X113594796Y-80484505D01*
X113591196Y-80508773D01*
X113585235Y-80532572D01*
X113576970Y-80555671D01*
X113566480Y-80577850D01*
X113553868Y-80598893D01*
X113539253Y-80618599D01*
X113522777Y-80636777D01*
X113504599Y-80653253D01*
X113484893Y-80667868D01*
X113463850Y-80680480D01*
X113441671Y-80690970D01*
X113418572Y-80699235D01*
X113394773Y-80705196D01*
X113370505Y-80708796D01*
X113346001Y-80710000D01*
X112695999Y-80710000D01*
X112671495Y-80708796D01*
X112647227Y-80705196D01*
X112623428Y-80699235D01*
X112600329Y-80690970D01*
X112578150Y-80680480D01*
X112557107Y-80667868D01*
X112537401Y-80653253D01*
X112519223Y-80636777D01*
X112502747Y-80618599D01*
X112488132Y-80598893D01*
X112475520Y-80577850D01*
X112465030Y-80555671D01*
X112456765Y-80532572D01*
X112450804Y-80508773D01*
X112447204Y-80484505D01*
X112446000Y-80460001D01*
X112446000Y-79559999D01*
X112447204Y-79535495D01*
X112450804Y-79511227D01*
X112456765Y-79487428D01*
X112465030Y-79464329D01*
X112475520Y-79442150D01*
X112488132Y-79421107D01*
X112502747Y-79401401D01*
X112519223Y-79383223D01*
X112537401Y-79366747D01*
X112557107Y-79352132D01*
X112578150Y-79339520D01*
X112600329Y-79329030D01*
X112623428Y-79320765D01*
X112647227Y-79314804D01*
X112671495Y-79311204D01*
X112695999Y-79310000D01*
X113346001Y-79310000D01*
X113370505Y-79311204D01*
X113370505Y-79311204D01*
G37*
D12*
X113021000Y-80010000D03*
D11*
G36*
X115420505Y-79311204D02*
G01*
X115444773Y-79314804D01*
X115468572Y-79320765D01*
X115491671Y-79329030D01*
X115513850Y-79339520D01*
X115534893Y-79352132D01*
X115554599Y-79366747D01*
X115572777Y-79383223D01*
X115589253Y-79401401D01*
X115603868Y-79421107D01*
X115616480Y-79442150D01*
X115626970Y-79464329D01*
X115635235Y-79487428D01*
X115641196Y-79511227D01*
X115644796Y-79535495D01*
X115646000Y-79559999D01*
X115646000Y-80460001D01*
X115644796Y-80484505D01*
X115641196Y-80508773D01*
X115635235Y-80532572D01*
X115626970Y-80555671D01*
X115616480Y-80577850D01*
X115603868Y-80598893D01*
X115589253Y-80618599D01*
X115572777Y-80636777D01*
X115554599Y-80653253D01*
X115534893Y-80667868D01*
X115513850Y-80680480D01*
X115491671Y-80690970D01*
X115468572Y-80699235D01*
X115444773Y-80705196D01*
X115420505Y-80708796D01*
X115396001Y-80710000D01*
X114745999Y-80710000D01*
X114721495Y-80708796D01*
X114697227Y-80705196D01*
X114673428Y-80699235D01*
X114650329Y-80690970D01*
X114628150Y-80680480D01*
X114607107Y-80667868D01*
X114587401Y-80653253D01*
X114569223Y-80636777D01*
X114552747Y-80618599D01*
X114538132Y-80598893D01*
X114525520Y-80577850D01*
X114515030Y-80555671D01*
X114506765Y-80532572D01*
X114500804Y-80508773D01*
X114497204Y-80484505D01*
X114496000Y-80460001D01*
X114496000Y-79559999D01*
X114497204Y-79535495D01*
X114500804Y-79511227D01*
X114506765Y-79487428D01*
X114515030Y-79464329D01*
X114525520Y-79442150D01*
X114538132Y-79421107D01*
X114552747Y-79401401D01*
X114569223Y-79383223D01*
X114587401Y-79366747D01*
X114607107Y-79352132D01*
X114628150Y-79339520D01*
X114650329Y-79329030D01*
X114673428Y-79320765D01*
X114697227Y-79314804D01*
X114721495Y-79311204D01*
X114745999Y-79310000D01*
X115396001Y-79310000D01*
X115420505Y-79311204D01*
X115420505Y-79311204D01*
G37*
D12*
X115071000Y-80010000D03*
D11*
G36*
X129299505Y-85501204D02*
G01*
X129323773Y-85504804D01*
X129347572Y-85510765D01*
X129370671Y-85519030D01*
X129392850Y-85529520D01*
X129413893Y-85542132D01*
X129433599Y-85556747D01*
X129451777Y-85573223D01*
X129468253Y-85591401D01*
X129482868Y-85611107D01*
X129495480Y-85632150D01*
X129505970Y-85654329D01*
X129514235Y-85677428D01*
X129520196Y-85701227D01*
X129523796Y-85725495D01*
X129525000Y-85749999D01*
X129525000Y-86650001D01*
X129523796Y-86674505D01*
X129520196Y-86698773D01*
X129514235Y-86722572D01*
X129505970Y-86745671D01*
X129495480Y-86767850D01*
X129482868Y-86788893D01*
X129468253Y-86808599D01*
X129451777Y-86826777D01*
X129433599Y-86843253D01*
X129413893Y-86857868D01*
X129392850Y-86870480D01*
X129370671Y-86880970D01*
X129347572Y-86889235D01*
X129323773Y-86895196D01*
X129299505Y-86898796D01*
X129275001Y-86900000D01*
X128624999Y-86900000D01*
X128600495Y-86898796D01*
X128576227Y-86895196D01*
X128552428Y-86889235D01*
X128529329Y-86880970D01*
X128507150Y-86870480D01*
X128486107Y-86857868D01*
X128466401Y-86843253D01*
X128448223Y-86826777D01*
X128431747Y-86808599D01*
X128417132Y-86788893D01*
X128404520Y-86767850D01*
X128394030Y-86745671D01*
X128385765Y-86722572D01*
X128379804Y-86698773D01*
X128376204Y-86674505D01*
X128375000Y-86650001D01*
X128375000Y-85749999D01*
X128376204Y-85725495D01*
X128379804Y-85701227D01*
X128385765Y-85677428D01*
X128394030Y-85654329D01*
X128404520Y-85632150D01*
X128417132Y-85611107D01*
X128431747Y-85591401D01*
X128448223Y-85573223D01*
X128466401Y-85556747D01*
X128486107Y-85542132D01*
X128507150Y-85529520D01*
X128529329Y-85519030D01*
X128552428Y-85510765D01*
X128576227Y-85504804D01*
X128600495Y-85501204D01*
X128624999Y-85500000D01*
X129275001Y-85500000D01*
X129299505Y-85501204D01*
X129299505Y-85501204D01*
G37*
D12*
X128950000Y-86200000D03*
D11*
G36*
X131349505Y-85501204D02*
G01*
X131373773Y-85504804D01*
X131397572Y-85510765D01*
X131420671Y-85519030D01*
X131442850Y-85529520D01*
X131463893Y-85542132D01*
X131483599Y-85556747D01*
X131501777Y-85573223D01*
X131518253Y-85591401D01*
X131532868Y-85611107D01*
X131545480Y-85632150D01*
X131555970Y-85654329D01*
X131564235Y-85677428D01*
X131570196Y-85701227D01*
X131573796Y-85725495D01*
X131575000Y-85749999D01*
X131575000Y-86650001D01*
X131573796Y-86674505D01*
X131570196Y-86698773D01*
X131564235Y-86722572D01*
X131555970Y-86745671D01*
X131545480Y-86767850D01*
X131532868Y-86788893D01*
X131518253Y-86808599D01*
X131501777Y-86826777D01*
X131483599Y-86843253D01*
X131463893Y-86857868D01*
X131442850Y-86870480D01*
X131420671Y-86880970D01*
X131397572Y-86889235D01*
X131373773Y-86895196D01*
X131349505Y-86898796D01*
X131325001Y-86900000D01*
X130674999Y-86900000D01*
X130650495Y-86898796D01*
X130626227Y-86895196D01*
X130602428Y-86889235D01*
X130579329Y-86880970D01*
X130557150Y-86870480D01*
X130536107Y-86857868D01*
X130516401Y-86843253D01*
X130498223Y-86826777D01*
X130481747Y-86808599D01*
X130467132Y-86788893D01*
X130454520Y-86767850D01*
X130444030Y-86745671D01*
X130435765Y-86722572D01*
X130429804Y-86698773D01*
X130426204Y-86674505D01*
X130425000Y-86650001D01*
X130425000Y-85749999D01*
X130426204Y-85725495D01*
X130429804Y-85701227D01*
X130435765Y-85677428D01*
X130444030Y-85654329D01*
X130454520Y-85632150D01*
X130467132Y-85611107D01*
X130481747Y-85591401D01*
X130498223Y-85573223D01*
X130516401Y-85556747D01*
X130536107Y-85542132D01*
X130557150Y-85529520D01*
X130579329Y-85519030D01*
X130602428Y-85510765D01*
X130626227Y-85504804D01*
X130650495Y-85501204D01*
X130674999Y-85500000D01*
X131325001Y-85500000D01*
X131349505Y-85501204D01*
X131349505Y-85501204D01*
G37*
D12*
X131000000Y-86200000D03*
D11*
G36*
X129814505Y-79481204D02*
G01*
X129838773Y-79484804D01*
X129862572Y-79490765D01*
X129885671Y-79499030D01*
X129907850Y-79509520D01*
X129928893Y-79522132D01*
X129948599Y-79536747D01*
X129966777Y-79553223D01*
X129983253Y-79571401D01*
X129997868Y-79591107D01*
X130010480Y-79612150D01*
X130020970Y-79634329D01*
X130029235Y-79657428D01*
X130035196Y-79681227D01*
X130038796Y-79705495D01*
X130040000Y-79729999D01*
X130040000Y-80380001D01*
X130038796Y-80404505D01*
X130035196Y-80428773D01*
X130029235Y-80452572D01*
X130020970Y-80475671D01*
X130010480Y-80497850D01*
X129997868Y-80518893D01*
X129983253Y-80538599D01*
X129966777Y-80556777D01*
X129948599Y-80573253D01*
X129928893Y-80587868D01*
X129907850Y-80600480D01*
X129885671Y-80610970D01*
X129862572Y-80619235D01*
X129838773Y-80625196D01*
X129814505Y-80628796D01*
X129790001Y-80630000D01*
X128889999Y-80630000D01*
X128865495Y-80628796D01*
X128841227Y-80625196D01*
X128817428Y-80619235D01*
X128794329Y-80610970D01*
X128772150Y-80600480D01*
X128751107Y-80587868D01*
X128731401Y-80573253D01*
X128713223Y-80556777D01*
X128696747Y-80538599D01*
X128682132Y-80518893D01*
X128669520Y-80497850D01*
X128659030Y-80475671D01*
X128650765Y-80452572D01*
X128644804Y-80428773D01*
X128641204Y-80404505D01*
X128640000Y-80380001D01*
X128640000Y-79729999D01*
X128641204Y-79705495D01*
X128644804Y-79681227D01*
X128650765Y-79657428D01*
X128659030Y-79634329D01*
X128669520Y-79612150D01*
X128682132Y-79591107D01*
X128696747Y-79571401D01*
X128713223Y-79553223D01*
X128731401Y-79536747D01*
X128751107Y-79522132D01*
X128772150Y-79509520D01*
X128794329Y-79499030D01*
X128817428Y-79490765D01*
X128841227Y-79484804D01*
X128865495Y-79481204D01*
X128889999Y-79480000D01*
X129790001Y-79480000D01*
X129814505Y-79481204D01*
X129814505Y-79481204D01*
G37*
D12*
X129340000Y-80055000D03*
D11*
G36*
X129814505Y-77431204D02*
G01*
X129838773Y-77434804D01*
X129862572Y-77440765D01*
X129885671Y-77449030D01*
X129907850Y-77459520D01*
X129928893Y-77472132D01*
X129948599Y-77486747D01*
X129966777Y-77503223D01*
X129983253Y-77521401D01*
X129997868Y-77541107D01*
X130010480Y-77562150D01*
X130020970Y-77584329D01*
X130029235Y-77607428D01*
X130035196Y-77631227D01*
X130038796Y-77655495D01*
X130040000Y-77679999D01*
X130040000Y-78330001D01*
X130038796Y-78354505D01*
X130035196Y-78378773D01*
X130029235Y-78402572D01*
X130020970Y-78425671D01*
X130010480Y-78447850D01*
X129997868Y-78468893D01*
X129983253Y-78488599D01*
X129966777Y-78506777D01*
X129948599Y-78523253D01*
X129928893Y-78537868D01*
X129907850Y-78550480D01*
X129885671Y-78560970D01*
X129862572Y-78569235D01*
X129838773Y-78575196D01*
X129814505Y-78578796D01*
X129790001Y-78580000D01*
X128889999Y-78580000D01*
X128865495Y-78578796D01*
X128841227Y-78575196D01*
X128817428Y-78569235D01*
X128794329Y-78560970D01*
X128772150Y-78550480D01*
X128751107Y-78537868D01*
X128731401Y-78523253D01*
X128713223Y-78506777D01*
X128696747Y-78488599D01*
X128682132Y-78468893D01*
X128669520Y-78447850D01*
X128659030Y-78425671D01*
X128650765Y-78402572D01*
X128644804Y-78378773D01*
X128641204Y-78354505D01*
X128640000Y-78330001D01*
X128640000Y-77679999D01*
X128641204Y-77655495D01*
X128644804Y-77631227D01*
X128650765Y-77607428D01*
X128659030Y-77584329D01*
X128669520Y-77562150D01*
X128682132Y-77541107D01*
X128696747Y-77521401D01*
X128713223Y-77503223D01*
X128731401Y-77486747D01*
X128751107Y-77472132D01*
X128772150Y-77459520D01*
X128794329Y-77449030D01*
X128817428Y-77440765D01*
X128841227Y-77434804D01*
X128865495Y-77431204D01*
X128889999Y-77430000D01*
X129790001Y-77430000D01*
X129814505Y-77431204D01*
X129814505Y-77431204D01*
G37*
D12*
X129340000Y-78005000D03*
D11*
G36*
X136349505Y-70801204D02*
G01*
X136373773Y-70804804D01*
X136397572Y-70810765D01*
X136420671Y-70819030D01*
X136442850Y-70829520D01*
X136463893Y-70842132D01*
X136483599Y-70856747D01*
X136501777Y-70873223D01*
X136518253Y-70891401D01*
X136532868Y-70911107D01*
X136545480Y-70932150D01*
X136555970Y-70954329D01*
X136564235Y-70977428D01*
X136570196Y-71001227D01*
X136573796Y-71025495D01*
X136575000Y-71049999D01*
X136575000Y-71950001D01*
X136573796Y-71974505D01*
X136570196Y-71998773D01*
X136564235Y-72022572D01*
X136555970Y-72045671D01*
X136545480Y-72067850D01*
X136532868Y-72088893D01*
X136518253Y-72108599D01*
X136501777Y-72126777D01*
X136483599Y-72143253D01*
X136463893Y-72157868D01*
X136442850Y-72170480D01*
X136420671Y-72180970D01*
X136397572Y-72189235D01*
X136373773Y-72195196D01*
X136349505Y-72198796D01*
X136325001Y-72200000D01*
X135674999Y-72200000D01*
X135650495Y-72198796D01*
X135626227Y-72195196D01*
X135602428Y-72189235D01*
X135579329Y-72180970D01*
X135557150Y-72170480D01*
X135536107Y-72157868D01*
X135516401Y-72143253D01*
X135498223Y-72126777D01*
X135481747Y-72108599D01*
X135467132Y-72088893D01*
X135454520Y-72067850D01*
X135444030Y-72045671D01*
X135435765Y-72022572D01*
X135429804Y-71998773D01*
X135426204Y-71974505D01*
X135425000Y-71950001D01*
X135425000Y-71049999D01*
X135426204Y-71025495D01*
X135429804Y-71001227D01*
X135435765Y-70977428D01*
X135444030Y-70954329D01*
X135454520Y-70932150D01*
X135467132Y-70911107D01*
X135481747Y-70891401D01*
X135498223Y-70873223D01*
X135516401Y-70856747D01*
X135536107Y-70842132D01*
X135557150Y-70829520D01*
X135579329Y-70819030D01*
X135602428Y-70810765D01*
X135626227Y-70804804D01*
X135650495Y-70801204D01*
X135674999Y-70800000D01*
X136325001Y-70800000D01*
X136349505Y-70801204D01*
X136349505Y-70801204D01*
G37*
D12*
X136000000Y-71500000D03*
D11*
G36*
X134299505Y-70801204D02*
G01*
X134323773Y-70804804D01*
X134347572Y-70810765D01*
X134370671Y-70819030D01*
X134392850Y-70829520D01*
X134413893Y-70842132D01*
X134433599Y-70856747D01*
X134451777Y-70873223D01*
X134468253Y-70891401D01*
X134482868Y-70911107D01*
X134495480Y-70932150D01*
X134505970Y-70954329D01*
X134514235Y-70977428D01*
X134520196Y-71001227D01*
X134523796Y-71025495D01*
X134525000Y-71049999D01*
X134525000Y-71950001D01*
X134523796Y-71974505D01*
X134520196Y-71998773D01*
X134514235Y-72022572D01*
X134505970Y-72045671D01*
X134495480Y-72067850D01*
X134482868Y-72088893D01*
X134468253Y-72108599D01*
X134451777Y-72126777D01*
X134433599Y-72143253D01*
X134413893Y-72157868D01*
X134392850Y-72170480D01*
X134370671Y-72180970D01*
X134347572Y-72189235D01*
X134323773Y-72195196D01*
X134299505Y-72198796D01*
X134275001Y-72200000D01*
X133624999Y-72200000D01*
X133600495Y-72198796D01*
X133576227Y-72195196D01*
X133552428Y-72189235D01*
X133529329Y-72180970D01*
X133507150Y-72170480D01*
X133486107Y-72157868D01*
X133466401Y-72143253D01*
X133448223Y-72126777D01*
X133431747Y-72108599D01*
X133417132Y-72088893D01*
X133404520Y-72067850D01*
X133394030Y-72045671D01*
X133385765Y-72022572D01*
X133379804Y-71998773D01*
X133376204Y-71974505D01*
X133375000Y-71950001D01*
X133375000Y-71049999D01*
X133376204Y-71025495D01*
X133379804Y-71001227D01*
X133385765Y-70977428D01*
X133394030Y-70954329D01*
X133404520Y-70932150D01*
X133417132Y-70911107D01*
X133431747Y-70891401D01*
X133448223Y-70873223D01*
X133466401Y-70856747D01*
X133486107Y-70842132D01*
X133507150Y-70829520D01*
X133529329Y-70819030D01*
X133552428Y-70810765D01*
X133576227Y-70804804D01*
X133600495Y-70801204D01*
X133624999Y-70800000D01*
X134275001Y-70800000D01*
X134299505Y-70801204D01*
X134299505Y-70801204D01*
G37*
D12*
X133950000Y-71500000D03*
D11*
G36*
X129374505Y-73901204D02*
G01*
X129398773Y-73904804D01*
X129422572Y-73910765D01*
X129445671Y-73919030D01*
X129467850Y-73929520D01*
X129488893Y-73942132D01*
X129508599Y-73956747D01*
X129526777Y-73973223D01*
X129543253Y-73991401D01*
X129557868Y-74011107D01*
X129570480Y-74032150D01*
X129580970Y-74054329D01*
X129589235Y-74077428D01*
X129595196Y-74101227D01*
X129598796Y-74125495D01*
X129600000Y-74149999D01*
X129600000Y-75050001D01*
X129598796Y-75074505D01*
X129595196Y-75098773D01*
X129589235Y-75122572D01*
X129580970Y-75145671D01*
X129570480Y-75167850D01*
X129557868Y-75188893D01*
X129543253Y-75208599D01*
X129526777Y-75226777D01*
X129508599Y-75243253D01*
X129488893Y-75257868D01*
X129467850Y-75270480D01*
X129445671Y-75280970D01*
X129422572Y-75289235D01*
X129398773Y-75295196D01*
X129374505Y-75298796D01*
X129350001Y-75300000D01*
X128699999Y-75300000D01*
X128675495Y-75298796D01*
X128651227Y-75295196D01*
X128627428Y-75289235D01*
X128604329Y-75280970D01*
X128582150Y-75270480D01*
X128561107Y-75257868D01*
X128541401Y-75243253D01*
X128523223Y-75226777D01*
X128506747Y-75208599D01*
X128492132Y-75188893D01*
X128479520Y-75167850D01*
X128469030Y-75145671D01*
X128460765Y-75122572D01*
X128454804Y-75098773D01*
X128451204Y-75074505D01*
X128450000Y-75050001D01*
X128450000Y-74149999D01*
X128451204Y-74125495D01*
X128454804Y-74101227D01*
X128460765Y-74077428D01*
X128469030Y-74054329D01*
X128479520Y-74032150D01*
X128492132Y-74011107D01*
X128506747Y-73991401D01*
X128523223Y-73973223D01*
X128541401Y-73956747D01*
X128561107Y-73942132D01*
X128582150Y-73929520D01*
X128604329Y-73919030D01*
X128627428Y-73910765D01*
X128651227Y-73904804D01*
X128675495Y-73901204D01*
X128699999Y-73900000D01*
X129350001Y-73900000D01*
X129374505Y-73901204D01*
X129374505Y-73901204D01*
G37*
D12*
X129025000Y-74600000D03*
D11*
G36*
X131424505Y-73901204D02*
G01*
X131448773Y-73904804D01*
X131472572Y-73910765D01*
X131495671Y-73919030D01*
X131517850Y-73929520D01*
X131538893Y-73942132D01*
X131558599Y-73956747D01*
X131576777Y-73973223D01*
X131593253Y-73991401D01*
X131607868Y-74011107D01*
X131620480Y-74032150D01*
X131630970Y-74054329D01*
X131639235Y-74077428D01*
X131645196Y-74101227D01*
X131648796Y-74125495D01*
X131650000Y-74149999D01*
X131650000Y-75050001D01*
X131648796Y-75074505D01*
X131645196Y-75098773D01*
X131639235Y-75122572D01*
X131630970Y-75145671D01*
X131620480Y-75167850D01*
X131607868Y-75188893D01*
X131593253Y-75208599D01*
X131576777Y-75226777D01*
X131558599Y-75243253D01*
X131538893Y-75257868D01*
X131517850Y-75270480D01*
X131495671Y-75280970D01*
X131472572Y-75289235D01*
X131448773Y-75295196D01*
X131424505Y-75298796D01*
X131400001Y-75300000D01*
X130749999Y-75300000D01*
X130725495Y-75298796D01*
X130701227Y-75295196D01*
X130677428Y-75289235D01*
X130654329Y-75280970D01*
X130632150Y-75270480D01*
X130611107Y-75257868D01*
X130591401Y-75243253D01*
X130573223Y-75226777D01*
X130556747Y-75208599D01*
X130542132Y-75188893D01*
X130529520Y-75167850D01*
X130519030Y-75145671D01*
X130510765Y-75122572D01*
X130504804Y-75098773D01*
X130501204Y-75074505D01*
X130500000Y-75050001D01*
X130500000Y-74149999D01*
X130501204Y-74125495D01*
X130504804Y-74101227D01*
X130510765Y-74077428D01*
X130519030Y-74054329D01*
X130529520Y-74032150D01*
X130542132Y-74011107D01*
X130556747Y-73991401D01*
X130573223Y-73973223D01*
X130591401Y-73956747D01*
X130611107Y-73942132D01*
X130632150Y-73929520D01*
X130654329Y-73919030D01*
X130677428Y-73910765D01*
X130701227Y-73904804D01*
X130725495Y-73901204D01*
X130749999Y-73900000D01*
X131400001Y-73900000D01*
X131424505Y-73901204D01*
X131424505Y-73901204D01*
G37*
D12*
X131075000Y-74600000D03*
D11*
G36*
X142474505Y-81951204D02*
G01*
X142498773Y-81954804D01*
X142522572Y-81960765D01*
X142545671Y-81969030D01*
X142567850Y-81979520D01*
X142588893Y-81992132D01*
X142608599Y-82006747D01*
X142626777Y-82023223D01*
X142643253Y-82041401D01*
X142657868Y-82061107D01*
X142670480Y-82082150D01*
X142680970Y-82104329D01*
X142689235Y-82127428D01*
X142695196Y-82151227D01*
X142698796Y-82175495D01*
X142700000Y-82199999D01*
X142700000Y-82850001D01*
X142698796Y-82874505D01*
X142695196Y-82898773D01*
X142689235Y-82922572D01*
X142680970Y-82945671D01*
X142670480Y-82967850D01*
X142657868Y-82988893D01*
X142643253Y-83008599D01*
X142626777Y-83026777D01*
X142608599Y-83043253D01*
X142588893Y-83057868D01*
X142567850Y-83070480D01*
X142545671Y-83080970D01*
X142522572Y-83089235D01*
X142498773Y-83095196D01*
X142474505Y-83098796D01*
X142450001Y-83100000D01*
X141549999Y-83100000D01*
X141525495Y-83098796D01*
X141501227Y-83095196D01*
X141477428Y-83089235D01*
X141454329Y-83080970D01*
X141432150Y-83070480D01*
X141411107Y-83057868D01*
X141391401Y-83043253D01*
X141373223Y-83026777D01*
X141356747Y-83008599D01*
X141342132Y-82988893D01*
X141329520Y-82967850D01*
X141319030Y-82945671D01*
X141310765Y-82922572D01*
X141304804Y-82898773D01*
X141301204Y-82874505D01*
X141300000Y-82850001D01*
X141300000Y-82199999D01*
X141301204Y-82175495D01*
X141304804Y-82151227D01*
X141310765Y-82127428D01*
X141319030Y-82104329D01*
X141329520Y-82082150D01*
X141342132Y-82061107D01*
X141356747Y-82041401D01*
X141373223Y-82023223D01*
X141391401Y-82006747D01*
X141411107Y-81992132D01*
X141432150Y-81979520D01*
X141454329Y-81969030D01*
X141477428Y-81960765D01*
X141501227Y-81954804D01*
X141525495Y-81951204D01*
X141549999Y-81950000D01*
X142450001Y-81950000D01*
X142474505Y-81951204D01*
X142474505Y-81951204D01*
G37*
D12*
X142000000Y-82525000D03*
D11*
G36*
X142474505Y-79901204D02*
G01*
X142498773Y-79904804D01*
X142522572Y-79910765D01*
X142545671Y-79919030D01*
X142567850Y-79929520D01*
X142588893Y-79942132D01*
X142608599Y-79956747D01*
X142626777Y-79973223D01*
X142643253Y-79991401D01*
X142657868Y-80011107D01*
X142670480Y-80032150D01*
X142680970Y-80054329D01*
X142689235Y-80077428D01*
X142695196Y-80101227D01*
X142698796Y-80125495D01*
X142700000Y-80149999D01*
X142700000Y-80800001D01*
X142698796Y-80824505D01*
X142695196Y-80848773D01*
X142689235Y-80872572D01*
X142680970Y-80895671D01*
X142670480Y-80917850D01*
X142657868Y-80938893D01*
X142643253Y-80958599D01*
X142626777Y-80976777D01*
X142608599Y-80993253D01*
X142588893Y-81007868D01*
X142567850Y-81020480D01*
X142545671Y-81030970D01*
X142522572Y-81039235D01*
X142498773Y-81045196D01*
X142474505Y-81048796D01*
X142450001Y-81050000D01*
X141549999Y-81050000D01*
X141525495Y-81048796D01*
X141501227Y-81045196D01*
X141477428Y-81039235D01*
X141454329Y-81030970D01*
X141432150Y-81020480D01*
X141411107Y-81007868D01*
X141391401Y-80993253D01*
X141373223Y-80976777D01*
X141356747Y-80958599D01*
X141342132Y-80938893D01*
X141329520Y-80917850D01*
X141319030Y-80895671D01*
X141310765Y-80872572D01*
X141304804Y-80848773D01*
X141301204Y-80824505D01*
X141300000Y-80800001D01*
X141300000Y-80149999D01*
X141301204Y-80125495D01*
X141304804Y-80101227D01*
X141310765Y-80077428D01*
X141319030Y-80054329D01*
X141329520Y-80032150D01*
X141342132Y-80011107D01*
X141356747Y-79991401D01*
X141373223Y-79973223D01*
X141391401Y-79956747D01*
X141411107Y-79942132D01*
X141432150Y-79929520D01*
X141454329Y-79919030D01*
X141477428Y-79910765D01*
X141501227Y-79904804D01*
X141525495Y-79901204D01*
X141549999Y-79900000D01*
X142450001Y-79900000D01*
X142474505Y-79901204D01*
X142474505Y-79901204D01*
G37*
D12*
X142000000Y-80475000D03*
D11*
G36*
X139349505Y-86301204D02*
G01*
X139373773Y-86304804D01*
X139397572Y-86310765D01*
X139420671Y-86319030D01*
X139442850Y-86329520D01*
X139463893Y-86342132D01*
X139483599Y-86356747D01*
X139501777Y-86373223D01*
X139518253Y-86391401D01*
X139532868Y-86411107D01*
X139545480Y-86432150D01*
X139555970Y-86454329D01*
X139564235Y-86477428D01*
X139570196Y-86501227D01*
X139573796Y-86525495D01*
X139575000Y-86549999D01*
X139575000Y-87450001D01*
X139573796Y-87474505D01*
X139570196Y-87498773D01*
X139564235Y-87522572D01*
X139555970Y-87545671D01*
X139545480Y-87567850D01*
X139532868Y-87588893D01*
X139518253Y-87608599D01*
X139501777Y-87626777D01*
X139483599Y-87643253D01*
X139463893Y-87657868D01*
X139442850Y-87670480D01*
X139420671Y-87680970D01*
X139397572Y-87689235D01*
X139373773Y-87695196D01*
X139349505Y-87698796D01*
X139325001Y-87700000D01*
X138674999Y-87700000D01*
X138650495Y-87698796D01*
X138626227Y-87695196D01*
X138602428Y-87689235D01*
X138579329Y-87680970D01*
X138557150Y-87670480D01*
X138536107Y-87657868D01*
X138516401Y-87643253D01*
X138498223Y-87626777D01*
X138481747Y-87608599D01*
X138467132Y-87588893D01*
X138454520Y-87567850D01*
X138444030Y-87545671D01*
X138435765Y-87522572D01*
X138429804Y-87498773D01*
X138426204Y-87474505D01*
X138425000Y-87450001D01*
X138425000Y-86549999D01*
X138426204Y-86525495D01*
X138429804Y-86501227D01*
X138435765Y-86477428D01*
X138444030Y-86454329D01*
X138454520Y-86432150D01*
X138467132Y-86411107D01*
X138481747Y-86391401D01*
X138498223Y-86373223D01*
X138516401Y-86356747D01*
X138536107Y-86342132D01*
X138557150Y-86329520D01*
X138579329Y-86319030D01*
X138602428Y-86310765D01*
X138626227Y-86304804D01*
X138650495Y-86301204D01*
X138674999Y-86300000D01*
X139325001Y-86300000D01*
X139349505Y-86301204D01*
X139349505Y-86301204D01*
G37*
D12*
X139000000Y-87000000D03*
D11*
G36*
X137299505Y-86301204D02*
G01*
X137323773Y-86304804D01*
X137347572Y-86310765D01*
X137370671Y-86319030D01*
X137392850Y-86329520D01*
X137413893Y-86342132D01*
X137433599Y-86356747D01*
X137451777Y-86373223D01*
X137468253Y-86391401D01*
X137482868Y-86411107D01*
X137495480Y-86432150D01*
X137505970Y-86454329D01*
X137514235Y-86477428D01*
X137520196Y-86501227D01*
X137523796Y-86525495D01*
X137525000Y-86549999D01*
X137525000Y-87450001D01*
X137523796Y-87474505D01*
X137520196Y-87498773D01*
X137514235Y-87522572D01*
X137505970Y-87545671D01*
X137495480Y-87567850D01*
X137482868Y-87588893D01*
X137468253Y-87608599D01*
X137451777Y-87626777D01*
X137433599Y-87643253D01*
X137413893Y-87657868D01*
X137392850Y-87670480D01*
X137370671Y-87680970D01*
X137347572Y-87689235D01*
X137323773Y-87695196D01*
X137299505Y-87698796D01*
X137275001Y-87700000D01*
X136624999Y-87700000D01*
X136600495Y-87698796D01*
X136576227Y-87695196D01*
X136552428Y-87689235D01*
X136529329Y-87680970D01*
X136507150Y-87670480D01*
X136486107Y-87657868D01*
X136466401Y-87643253D01*
X136448223Y-87626777D01*
X136431747Y-87608599D01*
X136417132Y-87588893D01*
X136404520Y-87567850D01*
X136394030Y-87545671D01*
X136385765Y-87522572D01*
X136379804Y-87498773D01*
X136376204Y-87474505D01*
X136375000Y-87450001D01*
X136375000Y-86549999D01*
X136376204Y-86525495D01*
X136379804Y-86501227D01*
X136385765Y-86477428D01*
X136394030Y-86454329D01*
X136404520Y-86432150D01*
X136417132Y-86411107D01*
X136431747Y-86391401D01*
X136448223Y-86373223D01*
X136466401Y-86356747D01*
X136486107Y-86342132D01*
X136507150Y-86329520D01*
X136529329Y-86319030D01*
X136552428Y-86310765D01*
X136576227Y-86304804D01*
X136600495Y-86301204D01*
X136624999Y-86300000D01*
X137275001Y-86300000D01*
X137299505Y-86301204D01*
X137299505Y-86301204D01*
G37*
D12*
X136950000Y-87000000D03*
D11*
G36*
X144099505Y-86301204D02*
G01*
X144123773Y-86304804D01*
X144147572Y-86310765D01*
X144170671Y-86319030D01*
X144192850Y-86329520D01*
X144213893Y-86342132D01*
X144233599Y-86356747D01*
X144251777Y-86373223D01*
X144268253Y-86391401D01*
X144282868Y-86411107D01*
X144295480Y-86432150D01*
X144305970Y-86454329D01*
X144314235Y-86477428D01*
X144320196Y-86501227D01*
X144323796Y-86525495D01*
X144325000Y-86549999D01*
X144325000Y-87450001D01*
X144323796Y-87474505D01*
X144320196Y-87498773D01*
X144314235Y-87522572D01*
X144305970Y-87545671D01*
X144295480Y-87567850D01*
X144282868Y-87588893D01*
X144268253Y-87608599D01*
X144251777Y-87626777D01*
X144233599Y-87643253D01*
X144213893Y-87657868D01*
X144192850Y-87670480D01*
X144170671Y-87680970D01*
X144147572Y-87689235D01*
X144123773Y-87695196D01*
X144099505Y-87698796D01*
X144075001Y-87700000D01*
X143424999Y-87700000D01*
X143400495Y-87698796D01*
X143376227Y-87695196D01*
X143352428Y-87689235D01*
X143329329Y-87680970D01*
X143307150Y-87670480D01*
X143286107Y-87657868D01*
X143266401Y-87643253D01*
X143248223Y-87626777D01*
X143231747Y-87608599D01*
X143217132Y-87588893D01*
X143204520Y-87567850D01*
X143194030Y-87545671D01*
X143185765Y-87522572D01*
X143179804Y-87498773D01*
X143176204Y-87474505D01*
X143175000Y-87450001D01*
X143175000Y-86549999D01*
X143176204Y-86525495D01*
X143179804Y-86501227D01*
X143185765Y-86477428D01*
X143194030Y-86454329D01*
X143204520Y-86432150D01*
X143217132Y-86411107D01*
X143231747Y-86391401D01*
X143248223Y-86373223D01*
X143266401Y-86356747D01*
X143286107Y-86342132D01*
X143307150Y-86329520D01*
X143329329Y-86319030D01*
X143352428Y-86310765D01*
X143376227Y-86304804D01*
X143400495Y-86301204D01*
X143424999Y-86300000D01*
X144075001Y-86300000D01*
X144099505Y-86301204D01*
X144099505Y-86301204D01*
G37*
D12*
X143750000Y-87000000D03*
D11*
G36*
X142049505Y-86301204D02*
G01*
X142073773Y-86304804D01*
X142097572Y-86310765D01*
X142120671Y-86319030D01*
X142142850Y-86329520D01*
X142163893Y-86342132D01*
X142183599Y-86356747D01*
X142201777Y-86373223D01*
X142218253Y-86391401D01*
X142232868Y-86411107D01*
X142245480Y-86432150D01*
X142255970Y-86454329D01*
X142264235Y-86477428D01*
X142270196Y-86501227D01*
X142273796Y-86525495D01*
X142275000Y-86549999D01*
X142275000Y-87450001D01*
X142273796Y-87474505D01*
X142270196Y-87498773D01*
X142264235Y-87522572D01*
X142255970Y-87545671D01*
X142245480Y-87567850D01*
X142232868Y-87588893D01*
X142218253Y-87608599D01*
X142201777Y-87626777D01*
X142183599Y-87643253D01*
X142163893Y-87657868D01*
X142142850Y-87670480D01*
X142120671Y-87680970D01*
X142097572Y-87689235D01*
X142073773Y-87695196D01*
X142049505Y-87698796D01*
X142025001Y-87700000D01*
X141374999Y-87700000D01*
X141350495Y-87698796D01*
X141326227Y-87695196D01*
X141302428Y-87689235D01*
X141279329Y-87680970D01*
X141257150Y-87670480D01*
X141236107Y-87657868D01*
X141216401Y-87643253D01*
X141198223Y-87626777D01*
X141181747Y-87608599D01*
X141167132Y-87588893D01*
X141154520Y-87567850D01*
X141144030Y-87545671D01*
X141135765Y-87522572D01*
X141129804Y-87498773D01*
X141126204Y-87474505D01*
X141125000Y-87450001D01*
X141125000Y-86549999D01*
X141126204Y-86525495D01*
X141129804Y-86501227D01*
X141135765Y-86477428D01*
X141144030Y-86454329D01*
X141154520Y-86432150D01*
X141167132Y-86411107D01*
X141181747Y-86391401D01*
X141198223Y-86373223D01*
X141216401Y-86356747D01*
X141236107Y-86342132D01*
X141257150Y-86329520D01*
X141279329Y-86319030D01*
X141302428Y-86310765D01*
X141326227Y-86304804D01*
X141350495Y-86301204D01*
X141374999Y-86300000D01*
X142025001Y-86300000D01*
X142049505Y-86301204D01*
X142049505Y-86301204D01*
G37*
D12*
X141700000Y-87000000D03*
D11*
G36*
X146824505Y-86301204D02*
G01*
X146848773Y-86304804D01*
X146872572Y-86310765D01*
X146895671Y-86319030D01*
X146917850Y-86329520D01*
X146938893Y-86342132D01*
X146958599Y-86356747D01*
X146976777Y-86373223D01*
X146993253Y-86391401D01*
X147007868Y-86411107D01*
X147020480Y-86432150D01*
X147030970Y-86454329D01*
X147039235Y-86477428D01*
X147045196Y-86501227D01*
X147048796Y-86525495D01*
X147050000Y-86549999D01*
X147050000Y-87450001D01*
X147048796Y-87474505D01*
X147045196Y-87498773D01*
X147039235Y-87522572D01*
X147030970Y-87545671D01*
X147020480Y-87567850D01*
X147007868Y-87588893D01*
X146993253Y-87608599D01*
X146976777Y-87626777D01*
X146958599Y-87643253D01*
X146938893Y-87657868D01*
X146917850Y-87670480D01*
X146895671Y-87680970D01*
X146872572Y-87689235D01*
X146848773Y-87695196D01*
X146824505Y-87698796D01*
X146800001Y-87700000D01*
X146149999Y-87700000D01*
X146125495Y-87698796D01*
X146101227Y-87695196D01*
X146077428Y-87689235D01*
X146054329Y-87680970D01*
X146032150Y-87670480D01*
X146011107Y-87657868D01*
X145991401Y-87643253D01*
X145973223Y-87626777D01*
X145956747Y-87608599D01*
X145942132Y-87588893D01*
X145929520Y-87567850D01*
X145919030Y-87545671D01*
X145910765Y-87522572D01*
X145904804Y-87498773D01*
X145901204Y-87474505D01*
X145900000Y-87450001D01*
X145900000Y-86549999D01*
X145901204Y-86525495D01*
X145904804Y-86501227D01*
X145910765Y-86477428D01*
X145919030Y-86454329D01*
X145929520Y-86432150D01*
X145942132Y-86411107D01*
X145956747Y-86391401D01*
X145973223Y-86373223D01*
X145991401Y-86356747D01*
X146011107Y-86342132D01*
X146032150Y-86329520D01*
X146054329Y-86319030D01*
X146077428Y-86310765D01*
X146101227Y-86304804D01*
X146125495Y-86301204D01*
X146149999Y-86300000D01*
X146800001Y-86300000D01*
X146824505Y-86301204D01*
X146824505Y-86301204D01*
G37*
D12*
X146475000Y-87000000D03*
D11*
G36*
X148874505Y-86301204D02*
G01*
X148898773Y-86304804D01*
X148922572Y-86310765D01*
X148945671Y-86319030D01*
X148967850Y-86329520D01*
X148988893Y-86342132D01*
X149008599Y-86356747D01*
X149026777Y-86373223D01*
X149043253Y-86391401D01*
X149057868Y-86411107D01*
X149070480Y-86432150D01*
X149080970Y-86454329D01*
X149089235Y-86477428D01*
X149095196Y-86501227D01*
X149098796Y-86525495D01*
X149100000Y-86549999D01*
X149100000Y-87450001D01*
X149098796Y-87474505D01*
X149095196Y-87498773D01*
X149089235Y-87522572D01*
X149080970Y-87545671D01*
X149070480Y-87567850D01*
X149057868Y-87588893D01*
X149043253Y-87608599D01*
X149026777Y-87626777D01*
X149008599Y-87643253D01*
X148988893Y-87657868D01*
X148967850Y-87670480D01*
X148945671Y-87680970D01*
X148922572Y-87689235D01*
X148898773Y-87695196D01*
X148874505Y-87698796D01*
X148850001Y-87700000D01*
X148199999Y-87700000D01*
X148175495Y-87698796D01*
X148151227Y-87695196D01*
X148127428Y-87689235D01*
X148104329Y-87680970D01*
X148082150Y-87670480D01*
X148061107Y-87657868D01*
X148041401Y-87643253D01*
X148023223Y-87626777D01*
X148006747Y-87608599D01*
X147992132Y-87588893D01*
X147979520Y-87567850D01*
X147969030Y-87545671D01*
X147960765Y-87522572D01*
X147954804Y-87498773D01*
X147951204Y-87474505D01*
X147950000Y-87450001D01*
X147950000Y-86549999D01*
X147951204Y-86525495D01*
X147954804Y-86501227D01*
X147960765Y-86477428D01*
X147969030Y-86454329D01*
X147979520Y-86432150D01*
X147992132Y-86411107D01*
X148006747Y-86391401D01*
X148023223Y-86373223D01*
X148041401Y-86356747D01*
X148061107Y-86342132D01*
X148082150Y-86329520D01*
X148104329Y-86319030D01*
X148127428Y-86310765D01*
X148151227Y-86304804D01*
X148175495Y-86301204D01*
X148199999Y-86300000D01*
X148850001Y-86300000D01*
X148874505Y-86301204D01*
X148874505Y-86301204D01*
G37*
D12*
X148525000Y-87000000D03*
D11*
G36*
X141349505Y-73801204D02*
G01*
X141373773Y-73804804D01*
X141397572Y-73810765D01*
X141420671Y-73819030D01*
X141442850Y-73829520D01*
X141463893Y-73842132D01*
X141483599Y-73856747D01*
X141501777Y-73873223D01*
X141518253Y-73891401D01*
X141532868Y-73911107D01*
X141545480Y-73932150D01*
X141555970Y-73954329D01*
X141564235Y-73977428D01*
X141570196Y-74001227D01*
X141573796Y-74025495D01*
X141575000Y-74049999D01*
X141575000Y-74950001D01*
X141573796Y-74974505D01*
X141570196Y-74998773D01*
X141564235Y-75022572D01*
X141555970Y-75045671D01*
X141545480Y-75067850D01*
X141532868Y-75088893D01*
X141518253Y-75108599D01*
X141501777Y-75126777D01*
X141483599Y-75143253D01*
X141463893Y-75157868D01*
X141442850Y-75170480D01*
X141420671Y-75180970D01*
X141397572Y-75189235D01*
X141373773Y-75195196D01*
X141349505Y-75198796D01*
X141325001Y-75200000D01*
X140674999Y-75200000D01*
X140650495Y-75198796D01*
X140626227Y-75195196D01*
X140602428Y-75189235D01*
X140579329Y-75180970D01*
X140557150Y-75170480D01*
X140536107Y-75157868D01*
X140516401Y-75143253D01*
X140498223Y-75126777D01*
X140481747Y-75108599D01*
X140467132Y-75088893D01*
X140454520Y-75067850D01*
X140444030Y-75045671D01*
X140435765Y-75022572D01*
X140429804Y-74998773D01*
X140426204Y-74974505D01*
X140425000Y-74950001D01*
X140425000Y-74049999D01*
X140426204Y-74025495D01*
X140429804Y-74001227D01*
X140435765Y-73977428D01*
X140444030Y-73954329D01*
X140454520Y-73932150D01*
X140467132Y-73911107D01*
X140481747Y-73891401D01*
X140498223Y-73873223D01*
X140516401Y-73856747D01*
X140536107Y-73842132D01*
X140557150Y-73829520D01*
X140579329Y-73819030D01*
X140602428Y-73810765D01*
X140626227Y-73804804D01*
X140650495Y-73801204D01*
X140674999Y-73800000D01*
X141325001Y-73800000D01*
X141349505Y-73801204D01*
X141349505Y-73801204D01*
G37*
D12*
X141000000Y-74500000D03*
D11*
G36*
X139299505Y-73801204D02*
G01*
X139323773Y-73804804D01*
X139347572Y-73810765D01*
X139370671Y-73819030D01*
X139392850Y-73829520D01*
X139413893Y-73842132D01*
X139433599Y-73856747D01*
X139451777Y-73873223D01*
X139468253Y-73891401D01*
X139482868Y-73911107D01*
X139495480Y-73932150D01*
X139505970Y-73954329D01*
X139514235Y-73977428D01*
X139520196Y-74001227D01*
X139523796Y-74025495D01*
X139525000Y-74049999D01*
X139525000Y-74950001D01*
X139523796Y-74974505D01*
X139520196Y-74998773D01*
X139514235Y-75022572D01*
X139505970Y-75045671D01*
X139495480Y-75067850D01*
X139482868Y-75088893D01*
X139468253Y-75108599D01*
X139451777Y-75126777D01*
X139433599Y-75143253D01*
X139413893Y-75157868D01*
X139392850Y-75170480D01*
X139370671Y-75180970D01*
X139347572Y-75189235D01*
X139323773Y-75195196D01*
X139299505Y-75198796D01*
X139275001Y-75200000D01*
X138624999Y-75200000D01*
X138600495Y-75198796D01*
X138576227Y-75195196D01*
X138552428Y-75189235D01*
X138529329Y-75180970D01*
X138507150Y-75170480D01*
X138486107Y-75157868D01*
X138466401Y-75143253D01*
X138448223Y-75126777D01*
X138431747Y-75108599D01*
X138417132Y-75088893D01*
X138404520Y-75067850D01*
X138394030Y-75045671D01*
X138385765Y-75022572D01*
X138379804Y-74998773D01*
X138376204Y-74974505D01*
X138375000Y-74950001D01*
X138375000Y-74049999D01*
X138376204Y-74025495D01*
X138379804Y-74001227D01*
X138385765Y-73977428D01*
X138394030Y-73954329D01*
X138404520Y-73932150D01*
X138417132Y-73911107D01*
X138431747Y-73891401D01*
X138448223Y-73873223D01*
X138466401Y-73856747D01*
X138486107Y-73842132D01*
X138507150Y-73829520D01*
X138529329Y-73819030D01*
X138552428Y-73810765D01*
X138576227Y-73804804D01*
X138600495Y-73801204D01*
X138624999Y-73800000D01*
X139275001Y-73800000D01*
X139299505Y-73801204D01*
X139299505Y-73801204D01*
G37*
D12*
X138950000Y-74500000D03*
D11*
G36*
X134024505Y-73901204D02*
G01*
X134048773Y-73904804D01*
X134072572Y-73910765D01*
X134095671Y-73919030D01*
X134117850Y-73929520D01*
X134138893Y-73942132D01*
X134158599Y-73956747D01*
X134176777Y-73973223D01*
X134193253Y-73991401D01*
X134207868Y-74011107D01*
X134220480Y-74032150D01*
X134230970Y-74054329D01*
X134239235Y-74077428D01*
X134245196Y-74101227D01*
X134248796Y-74125495D01*
X134250000Y-74149999D01*
X134250000Y-75050001D01*
X134248796Y-75074505D01*
X134245196Y-75098773D01*
X134239235Y-75122572D01*
X134230970Y-75145671D01*
X134220480Y-75167850D01*
X134207868Y-75188893D01*
X134193253Y-75208599D01*
X134176777Y-75226777D01*
X134158599Y-75243253D01*
X134138893Y-75257868D01*
X134117850Y-75270480D01*
X134095671Y-75280970D01*
X134072572Y-75289235D01*
X134048773Y-75295196D01*
X134024505Y-75298796D01*
X134000001Y-75300000D01*
X133349999Y-75300000D01*
X133325495Y-75298796D01*
X133301227Y-75295196D01*
X133277428Y-75289235D01*
X133254329Y-75280970D01*
X133232150Y-75270480D01*
X133211107Y-75257868D01*
X133191401Y-75243253D01*
X133173223Y-75226777D01*
X133156747Y-75208599D01*
X133142132Y-75188893D01*
X133129520Y-75167850D01*
X133119030Y-75145671D01*
X133110765Y-75122572D01*
X133104804Y-75098773D01*
X133101204Y-75074505D01*
X133100000Y-75050001D01*
X133100000Y-74149999D01*
X133101204Y-74125495D01*
X133104804Y-74101227D01*
X133110765Y-74077428D01*
X133119030Y-74054329D01*
X133129520Y-74032150D01*
X133142132Y-74011107D01*
X133156747Y-73991401D01*
X133173223Y-73973223D01*
X133191401Y-73956747D01*
X133211107Y-73942132D01*
X133232150Y-73929520D01*
X133254329Y-73919030D01*
X133277428Y-73910765D01*
X133301227Y-73904804D01*
X133325495Y-73901204D01*
X133349999Y-73900000D01*
X134000001Y-73900000D01*
X134024505Y-73901204D01*
X134024505Y-73901204D01*
G37*
D12*
X133675000Y-74600000D03*
D11*
G36*
X136074505Y-73901204D02*
G01*
X136098773Y-73904804D01*
X136122572Y-73910765D01*
X136145671Y-73919030D01*
X136167850Y-73929520D01*
X136188893Y-73942132D01*
X136208599Y-73956747D01*
X136226777Y-73973223D01*
X136243253Y-73991401D01*
X136257868Y-74011107D01*
X136270480Y-74032150D01*
X136280970Y-74054329D01*
X136289235Y-74077428D01*
X136295196Y-74101227D01*
X136298796Y-74125495D01*
X136300000Y-74149999D01*
X136300000Y-75050001D01*
X136298796Y-75074505D01*
X136295196Y-75098773D01*
X136289235Y-75122572D01*
X136280970Y-75145671D01*
X136270480Y-75167850D01*
X136257868Y-75188893D01*
X136243253Y-75208599D01*
X136226777Y-75226777D01*
X136208599Y-75243253D01*
X136188893Y-75257868D01*
X136167850Y-75270480D01*
X136145671Y-75280970D01*
X136122572Y-75289235D01*
X136098773Y-75295196D01*
X136074505Y-75298796D01*
X136050001Y-75300000D01*
X135399999Y-75300000D01*
X135375495Y-75298796D01*
X135351227Y-75295196D01*
X135327428Y-75289235D01*
X135304329Y-75280970D01*
X135282150Y-75270480D01*
X135261107Y-75257868D01*
X135241401Y-75243253D01*
X135223223Y-75226777D01*
X135206747Y-75208599D01*
X135192132Y-75188893D01*
X135179520Y-75167850D01*
X135169030Y-75145671D01*
X135160765Y-75122572D01*
X135154804Y-75098773D01*
X135151204Y-75074505D01*
X135150000Y-75050001D01*
X135150000Y-74149999D01*
X135151204Y-74125495D01*
X135154804Y-74101227D01*
X135160765Y-74077428D01*
X135169030Y-74054329D01*
X135179520Y-74032150D01*
X135192132Y-74011107D01*
X135206747Y-73991401D01*
X135223223Y-73973223D01*
X135241401Y-73956747D01*
X135261107Y-73942132D01*
X135282150Y-73929520D01*
X135304329Y-73919030D01*
X135327428Y-73910765D01*
X135351227Y-73904804D01*
X135375495Y-73901204D01*
X135399999Y-73900000D01*
X136050001Y-73900000D01*
X136074505Y-73901204D01*
X136074505Y-73901204D01*
G37*
D12*
X135725000Y-74600000D03*
D11*
G36*
X164599505Y-70801204D02*
G01*
X164623773Y-70804804D01*
X164647572Y-70810765D01*
X164670671Y-70819030D01*
X164692850Y-70829520D01*
X164713893Y-70842132D01*
X164733599Y-70856747D01*
X164751777Y-70873223D01*
X164768253Y-70891401D01*
X164782868Y-70911107D01*
X164795480Y-70932150D01*
X164805970Y-70954329D01*
X164814235Y-70977428D01*
X164820196Y-71001227D01*
X164823796Y-71025495D01*
X164825000Y-71049999D01*
X164825000Y-71950001D01*
X164823796Y-71974505D01*
X164820196Y-71998773D01*
X164814235Y-72022572D01*
X164805970Y-72045671D01*
X164795480Y-72067850D01*
X164782868Y-72088893D01*
X164768253Y-72108599D01*
X164751777Y-72126777D01*
X164733599Y-72143253D01*
X164713893Y-72157868D01*
X164692850Y-72170480D01*
X164670671Y-72180970D01*
X164647572Y-72189235D01*
X164623773Y-72195196D01*
X164599505Y-72198796D01*
X164575001Y-72200000D01*
X163924999Y-72200000D01*
X163900495Y-72198796D01*
X163876227Y-72195196D01*
X163852428Y-72189235D01*
X163829329Y-72180970D01*
X163807150Y-72170480D01*
X163786107Y-72157868D01*
X163766401Y-72143253D01*
X163748223Y-72126777D01*
X163731747Y-72108599D01*
X163717132Y-72088893D01*
X163704520Y-72067850D01*
X163694030Y-72045671D01*
X163685765Y-72022572D01*
X163679804Y-71998773D01*
X163676204Y-71974505D01*
X163675000Y-71950001D01*
X163675000Y-71049999D01*
X163676204Y-71025495D01*
X163679804Y-71001227D01*
X163685765Y-70977428D01*
X163694030Y-70954329D01*
X163704520Y-70932150D01*
X163717132Y-70911107D01*
X163731747Y-70891401D01*
X163748223Y-70873223D01*
X163766401Y-70856747D01*
X163786107Y-70842132D01*
X163807150Y-70829520D01*
X163829329Y-70819030D01*
X163852428Y-70810765D01*
X163876227Y-70804804D01*
X163900495Y-70801204D01*
X163924999Y-70800000D01*
X164575001Y-70800000D01*
X164599505Y-70801204D01*
X164599505Y-70801204D01*
G37*
D12*
X164250000Y-71500000D03*
D11*
G36*
X162549505Y-70801204D02*
G01*
X162573773Y-70804804D01*
X162597572Y-70810765D01*
X162620671Y-70819030D01*
X162642850Y-70829520D01*
X162663893Y-70842132D01*
X162683599Y-70856747D01*
X162701777Y-70873223D01*
X162718253Y-70891401D01*
X162732868Y-70911107D01*
X162745480Y-70932150D01*
X162755970Y-70954329D01*
X162764235Y-70977428D01*
X162770196Y-71001227D01*
X162773796Y-71025495D01*
X162775000Y-71049999D01*
X162775000Y-71950001D01*
X162773796Y-71974505D01*
X162770196Y-71998773D01*
X162764235Y-72022572D01*
X162755970Y-72045671D01*
X162745480Y-72067850D01*
X162732868Y-72088893D01*
X162718253Y-72108599D01*
X162701777Y-72126777D01*
X162683599Y-72143253D01*
X162663893Y-72157868D01*
X162642850Y-72170480D01*
X162620671Y-72180970D01*
X162597572Y-72189235D01*
X162573773Y-72195196D01*
X162549505Y-72198796D01*
X162525001Y-72200000D01*
X161874999Y-72200000D01*
X161850495Y-72198796D01*
X161826227Y-72195196D01*
X161802428Y-72189235D01*
X161779329Y-72180970D01*
X161757150Y-72170480D01*
X161736107Y-72157868D01*
X161716401Y-72143253D01*
X161698223Y-72126777D01*
X161681747Y-72108599D01*
X161667132Y-72088893D01*
X161654520Y-72067850D01*
X161644030Y-72045671D01*
X161635765Y-72022572D01*
X161629804Y-71998773D01*
X161626204Y-71974505D01*
X161625000Y-71950001D01*
X161625000Y-71049999D01*
X161626204Y-71025495D01*
X161629804Y-71001227D01*
X161635765Y-70977428D01*
X161644030Y-70954329D01*
X161654520Y-70932150D01*
X161667132Y-70911107D01*
X161681747Y-70891401D01*
X161698223Y-70873223D01*
X161716401Y-70856747D01*
X161736107Y-70842132D01*
X161757150Y-70829520D01*
X161779329Y-70819030D01*
X161802428Y-70810765D01*
X161826227Y-70804804D01*
X161850495Y-70801204D01*
X161874999Y-70800000D01*
X162525001Y-70800000D01*
X162549505Y-70801204D01*
X162549505Y-70801204D01*
G37*
D12*
X162200000Y-71500000D03*
D11*
G36*
X140069703Y-82750722D02*
G01*
X140084264Y-82752882D01*
X140098543Y-82756459D01*
X140112403Y-82761418D01*
X140125710Y-82767712D01*
X140138336Y-82775280D01*
X140150159Y-82784048D01*
X140161066Y-82793934D01*
X140170952Y-82804841D01*
X140179720Y-82816664D01*
X140187288Y-82829290D01*
X140193582Y-82842597D01*
X140198541Y-82856457D01*
X140202118Y-82870736D01*
X140204278Y-82885297D01*
X140205000Y-82900000D01*
X140205000Y-84550000D01*
X140204278Y-84564703D01*
X140202118Y-84579264D01*
X140198541Y-84593543D01*
X140193582Y-84607403D01*
X140187288Y-84620710D01*
X140179720Y-84633336D01*
X140170952Y-84645159D01*
X140161066Y-84656066D01*
X140150159Y-84665952D01*
X140138336Y-84674720D01*
X140125710Y-84682288D01*
X140112403Y-84688582D01*
X140098543Y-84693541D01*
X140084264Y-84697118D01*
X140069703Y-84699278D01*
X140055000Y-84700000D01*
X139755000Y-84700000D01*
X139740297Y-84699278D01*
X139725736Y-84697118D01*
X139711457Y-84693541D01*
X139697597Y-84688582D01*
X139684290Y-84682288D01*
X139671664Y-84674720D01*
X139659841Y-84665952D01*
X139648934Y-84656066D01*
X139639048Y-84645159D01*
X139630280Y-84633336D01*
X139622712Y-84620710D01*
X139616418Y-84607403D01*
X139611459Y-84593543D01*
X139607882Y-84579264D01*
X139605722Y-84564703D01*
X139605000Y-84550000D01*
X139605000Y-82900000D01*
X139605722Y-82885297D01*
X139607882Y-82870736D01*
X139611459Y-82856457D01*
X139616418Y-82842597D01*
X139622712Y-82829290D01*
X139630280Y-82816664D01*
X139639048Y-82804841D01*
X139648934Y-82793934D01*
X139659841Y-82784048D01*
X139671664Y-82775280D01*
X139684290Y-82767712D01*
X139697597Y-82761418D01*
X139711457Y-82756459D01*
X139725736Y-82752882D01*
X139740297Y-82750722D01*
X139755000Y-82750000D01*
X140055000Y-82750000D01*
X140069703Y-82750722D01*
X140069703Y-82750722D01*
G37*
D15*
X139905000Y-83725000D03*
D11*
G36*
X138799703Y-82750722D02*
G01*
X138814264Y-82752882D01*
X138828543Y-82756459D01*
X138842403Y-82761418D01*
X138855710Y-82767712D01*
X138868336Y-82775280D01*
X138880159Y-82784048D01*
X138891066Y-82793934D01*
X138900952Y-82804841D01*
X138909720Y-82816664D01*
X138917288Y-82829290D01*
X138923582Y-82842597D01*
X138928541Y-82856457D01*
X138932118Y-82870736D01*
X138934278Y-82885297D01*
X138935000Y-82900000D01*
X138935000Y-84550000D01*
X138934278Y-84564703D01*
X138932118Y-84579264D01*
X138928541Y-84593543D01*
X138923582Y-84607403D01*
X138917288Y-84620710D01*
X138909720Y-84633336D01*
X138900952Y-84645159D01*
X138891066Y-84656066D01*
X138880159Y-84665952D01*
X138868336Y-84674720D01*
X138855710Y-84682288D01*
X138842403Y-84688582D01*
X138828543Y-84693541D01*
X138814264Y-84697118D01*
X138799703Y-84699278D01*
X138785000Y-84700000D01*
X138485000Y-84700000D01*
X138470297Y-84699278D01*
X138455736Y-84697118D01*
X138441457Y-84693541D01*
X138427597Y-84688582D01*
X138414290Y-84682288D01*
X138401664Y-84674720D01*
X138389841Y-84665952D01*
X138378934Y-84656066D01*
X138369048Y-84645159D01*
X138360280Y-84633336D01*
X138352712Y-84620710D01*
X138346418Y-84607403D01*
X138341459Y-84593543D01*
X138337882Y-84579264D01*
X138335722Y-84564703D01*
X138335000Y-84550000D01*
X138335000Y-82900000D01*
X138335722Y-82885297D01*
X138337882Y-82870736D01*
X138341459Y-82856457D01*
X138346418Y-82842597D01*
X138352712Y-82829290D01*
X138360280Y-82816664D01*
X138369048Y-82804841D01*
X138378934Y-82793934D01*
X138389841Y-82784048D01*
X138401664Y-82775280D01*
X138414290Y-82767712D01*
X138427597Y-82761418D01*
X138441457Y-82756459D01*
X138455736Y-82752882D01*
X138470297Y-82750722D01*
X138485000Y-82750000D01*
X138785000Y-82750000D01*
X138799703Y-82750722D01*
X138799703Y-82750722D01*
G37*
D15*
X138635000Y-83725000D03*
D11*
G36*
X137529703Y-82750722D02*
G01*
X137544264Y-82752882D01*
X137558543Y-82756459D01*
X137572403Y-82761418D01*
X137585710Y-82767712D01*
X137598336Y-82775280D01*
X137610159Y-82784048D01*
X137621066Y-82793934D01*
X137630952Y-82804841D01*
X137639720Y-82816664D01*
X137647288Y-82829290D01*
X137653582Y-82842597D01*
X137658541Y-82856457D01*
X137662118Y-82870736D01*
X137664278Y-82885297D01*
X137665000Y-82900000D01*
X137665000Y-84550000D01*
X137664278Y-84564703D01*
X137662118Y-84579264D01*
X137658541Y-84593543D01*
X137653582Y-84607403D01*
X137647288Y-84620710D01*
X137639720Y-84633336D01*
X137630952Y-84645159D01*
X137621066Y-84656066D01*
X137610159Y-84665952D01*
X137598336Y-84674720D01*
X137585710Y-84682288D01*
X137572403Y-84688582D01*
X137558543Y-84693541D01*
X137544264Y-84697118D01*
X137529703Y-84699278D01*
X137515000Y-84700000D01*
X137215000Y-84700000D01*
X137200297Y-84699278D01*
X137185736Y-84697118D01*
X137171457Y-84693541D01*
X137157597Y-84688582D01*
X137144290Y-84682288D01*
X137131664Y-84674720D01*
X137119841Y-84665952D01*
X137108934Y-84656066D01*
X137099048Y-84645159D01*
X137090280Y-84633336D01*
X137082712Y-84620710D01*
X137076418Y-84607403D01*
X137071459Y-84593543D01*
X137067882Y-84579264D01*
X137065722Y-84564703D01*
X137065000Y-84550000D01*
X137065000Y-82900000D01*
X137065722Y-82885297D01*
X137067882Y-82870736D01*
X137071459Y-82856457D01*
X137076418Y-82842597D01*
X137082712Y-82829290D01*
X137090280Y-82816664D01*
X137099048Y-82804841D01*
X137108934Y-82793934D01*
X137119841Y-82784048D01*
X137131664Y-82775280D01*
X137144290Y-82767712D01*
X137157597Y-82761418D01*
X137171457Y-82756459D01*
X137185736Y-82752882D01*
X137200297Y-82750722D01*
X137215000Y-82750000D01*
X137515000Y-82750000D01*
X137529703Y-82750722D01*
X137529703Y-82750722D01*
G37*
D15*
X137365000Y-83725000D03*
D11*
G36*
X136259703Y-82750722D02*
G01*
X136274264Y-82752882D01*
X136288543Y-82756459D01*
X136302403Y-82761418D01*
X136315710Y-82767712D01*
X136328336Y-82775280D01*
X136340159Y-82784048D01*
X136351066Y-82793934D01*
X136360952Y-82804841D01*
X136369720Y-82816664D01*
X136377288Y-82829290D01*
X136383582Y-82842597D01*
X136388541Y-82856457D01*
X136392118Y-82870736D01*
X136394278Y-82885297D01*
X136395000Y-82900000D01*
X136395000Y-84550000D01*
X136394278Y-84564703D01*
X136392118Y-84579264D01*
X136388541Y-84593543D01*
X136383582Y-84607403D01*
X136377288Y-84620710D01*
X136369720Y-84633336D01*
X136360952Y-84645159D01*
X136351066Y-84656066D01*
X136340159Y-84665952D01*
X136328336Y-84674720D01*
X136315710Y-84682288D01*
X136302403Y-84688582D01*
X136288543Y-84693541D01*
X136274264Y-84697118D01*
X136259703Y-84699278D01*
X136245000Y-84700000D01*
X135945000Y-84700000D01*
X135930297Y-84699278D01*
X135915736Y-84697118D01*
X135901457Y-84693541D01*
X135887597Y-84688582D01*
X135874290Y-84682288D01*
X135861664Y-84674720D01*
X135849841Y-84665952D01*
X135838934Y-84656066D01*
X135829048Y-84645159D01*
X135820280Y-84633336D01*
X135812712Y-84620710D01*
X135806418Y-84607403D01*
X135801459Y-84593543D01*
X135797882Y-84579264D01*
X135795722Y-84564703D01*
X135795000Y-84550000D01*
X135795000Y-82900000D01*
X135795722Y-82885297D01*
X135797882Y-82870736D01*
X135801459Y-82856457D01*
X135806418Y-82842597D01*
X135812712Y-82829290D01*
X135820280Y-82816664D01*
X135829048Y-82804841D01*
X135838934Y-82793934D01*
X135849841Y-82784048D01*
X135861664Y-82775280D01*
X135874290Y-82767712D01*
X135887597Y-82761418D01*
X135901457Y-82756459D01*
X135915736Y-82752882D01*
X135930297Y-82750722D01*
X135945000Y-82750000D01*
X136245000Y-82750000D01*
X136259703Y-82750722D01*
X136259703Y-82750722D01*
G37*
D15*
X136095000Y-83725000D03*
D11*
G36*
X136259703Y-77800722D02*
G01*
X136274264Y-77802882D01*
X136288543Y-77806459D01*
X136302403Y-77811418D01*
X136315710Y-77817712D01*
X136328336Y-77825280D01*
X136340159Y-77834048D01*
X136351066Y-77843934D01*
X136360952Y-77854841D01*
X136369720Y-77866664D01*
X136377288Y-77879290D01*
X136383582Y-77892597D01*
X136388541Y-77906457D01*
X136392118Y-77920736D01*
X136394278Y-77935297D01*
X136395000Y-77950000D01*
X136395000Y-79600000D01*
X136394278Y-79614703D01*
X136392118Y-79629264D01*
X136388541Y-79643543D01*
X136383582Y-79657403D01*
X136377288Y-79670710D01*
X136369720Y-79683336D01*
X136360952Y-79695159D01*
X136351066Y-79706066D01*
X136340159Y-79715952D01*
X136328336Y-79724720D01*
X136315710Y-79732288D01*
X136302403Y-79738582D01*
X136288543Y-79743541D01*
X136274264Y-79747118D01*
X136259703Y-79749278D01*
X136245000Y-79750000D01*
X135945000Y-79750000D01*
X135930297Y-79749278D01*
X135915736Y-79747118D01*
X135901457Y-79743541D01*
X135887597Y-79738582D01*
X135874290Y-79732288D01*
X135861664Y-79724720D01*
X135849841Y-79715952D01*
X135838934Y-79706066D01*
X135829048Y-79695159D01*
X135820280Y-79683336D01*
X135812712Y-79670710D01*
X135806418Y-79657403D01*
X135801459Y-79643543D01*
X135797882Y-79629264D01*
X135795722Y-79614703D01*
X135795000Y-79600000D01*
X135795000Y-77950000D01*
X135795722Y-77935297D01*
X135797882Y-77920736D01*
X135801459Y-77906457D01*
X135806418Y-77892597D01*
X135812712Y-77879290D01*
X135820280Y-77866664D01*
X135829048Y-77854841D01*
X135838934Y-77843934D01*
X135849841Y-77834048D01*
X135861664Y-77825280D01*
X135874290Y-77817712D01*
X135887597Y-77811418D01*
X135901457Y-77806459D01*
X135915736Y-77802882D01*
X135930297Y-77800722D01*
X135945000Y-77800000D01*
X136245000Y-77800000D01*
X136259703Y-77800722D01*
X136259703Y-77800722D01*
G37*
D15*
X136095000Y-78775000D03*
D11*
G36*
X137529703Y-77800722D02*
G01*
X137544264Y-77802882D01*
X137558543Y-77806459D01*
X137572403Y-77811418D01*
X137585710Y-77817712D01*
X137598336Y-77825280D01*
X137610159Y-77834048D01*
X137621066Y-77843934D01*
X137630952Y-77854841D01*
X137639720Y-77866664D01*
X137647288Y-77879290D01*
X137653582Y-77892597D01*
X137658541Y-77906457D01*
X137662118Y-77920736D01*
X137664278Y-77935297D01*
X137665000Y-77950000D01*
X137665000Y-79600000D01*
X137664278Y-79614703D01*
X137662118Y-79629264D01*
X137658541Y-79643543D01*
X137653582Y-79657403D01*
X137647288Y-79670710D01*
X137639720Y-79683336D01*
X137630952Y-79695159D01*
X137621066Y-79706066D01*
X137610159Y-79715952D01*
X137598336Y-79724720D01*
X137585710Y-79732288D01*
X137572403Y-79738582D01*
X137558543Y-79743541D01*
X137544264Y-79747118D01*
X137529703Y-79749278D01*
X137515000Y-79750000D01*
X137215000Y-79750000D01*
X137200297Y-79749278D01*
X137185736Y-79747118D01*
X137171457Y-79743541D01*
X137157597Y-79738582D01*
X137144290Y-79732288D01*
X137131664Y-79724720D01*
X137119841Y-79715952D01*
X137108934Y-79706066D01*
X137099048Y-79695159D01*
X137090280Y-79683336D01*
X137082712Y-79670710D01*
X137076418Y-79657403D01*
X137071459Y-79643543D01*
X137067882Y-79629264D01*
X137065722Y-79614703D01*
X137065000Y-79600000D01*
X137065000Y-77950000D01*
X137065722Y-77935297D01*
X137067882Y-77920736D01*
X137071459Y-77906457D01*
X137076418Y-77892597D01*
X137082712Y-77879290D01*
X137090280Y-77866664D01*
X137099048Y-77854841D01*
X137108934Y-77843934D01*
X137119841Y-77834048D01*
X137131664Y-77825280D01*
X137144290Y-77817712D01*
X137157597Y-77811418D01*
X137171457Y-77806459D01*
X137185736Y-77802882D01*
X137200297Y-77800722D01*
X137215000Y-77800000D01*
X137515000Y-77800000D01*
X137529703Y-77800722D01*
X137529703Y-77800722D01*
G37*
D15*
X137365000Y-78775000D03*
D11*
G36*
X138799703Y-77800722D02*
G01*
X138814264Y-77802882D01*
X138828543Y-77806459D01*
X138842403Y-77811418D01*
X138855710Y-77817712D01*
X138868336Y-77825280D01*
X138880159Y-77834048D01*
X138891066Y-77843934D01*
X138900952Y-77854841D01*
X138909720Y-77866664D01*
X138917288Y-77879290D01*
X138923582Y-77892597D01*
X138928541Y-77906457D01*
X138932118Y-77920736D01*
X138934278Y-77935297D01*
X138935000Y-77950000D01*
X138935000Y-79600000D01*
X138934278Y-79614703D01*
X138932118Y-79629264D01*
X138928541Y-79643543D01*
X138923582Y-79657403D01*
X138917288Y-79670710D01*
X138909720Y-79683336D01*
X138900952Y-79695159D01*
X138891066Y-79706066D01*
X138880159Y-79715952D01*
X138868336Y-79724720D01*
X138855710Y-79732288D01*
X138842403Y-79738582D01*
X138828543Y-79743541D01*
X138814264Y-79747118D01*
X138799703Y-79749278D01*
X138785000Y-79750000D01*
X138485000Y-79750000D01*
X138470297Y-79749278D01*
X138455736Y-79747118D01*
X138441457Y-79743541D01*
X138427597Y-79738582D01*
X138414290Y-79732288D01*
X138401664Y-79724720D01*
X138389841Y-79715952D01*
X138378934Y-79706066D01*
X138369048Y-79695159D01*
X138360280Y-79683336D01*
X138352712Y-79670710D01*
X138346418Y-79657403D01*
X138341459Y-79643543D01*
X138337882Y-79629264D01*
X138335722Y-79614703D01*
X138335000Y-79600000D01*
X138335000Y-77950000D01*
X138335722Y-77935297D01*
X138337882Y-77920736D01*
X138341459Y-77906457D01*
X138346418Y-77892597D01*
X138352712Y-77879290D01*
X138360280Y-77866664D01*
X138369048Y-77854841D01*
X138378934Y-77843934D01*
X138389841Y-77834048D01*
X138401664Y-77825280D01*
X138414290Y-77817712D01*
X138427597Y-77811418D01*
X138441457Y-77806459D01*
X138455736Y-77802882D01*
X138470297Y-77800722D01*
X138485000Y-77800000D01*
X138785000Y-77800000D01*
X138799703Y-77800722D01*
X138799703Y-77800722D01*
G37*
D15*
X138635000Y-78775000D03*
D11*
G36*
X140069703Y-77800722D02*
G01*
X140084264Y-77802882D01*
X140098543Y-77806459D01*
X140112403Y-77811418D01*
X140125710Y-77817712D01*
X140138336Y-77825280D01*
X140150159Y-77834048D01*
X140161066Y-77843934D01*
X140170952Y-77854841D01*
X140179720Y-77866664D01*
X140187288Y-77879290D01*
X140193582Y-77892597D01*
X140198541Y-77906457D01*
X140202118Y-77920736D01*
X140204278Y-77935297D01*
X140205000Y-77950000D01*
X140205000Y-79600000D01*
X140204278Y-79614703D01*
X140202118Y-79629264D01*
X140198541Y-79643543D01*
X140193582Y-79657403D01*
X140187288Y-79670710D01*
X140179720Y-79683336D01*
X140170952Y-79695159D01*
X140161066Y-79706066D01*
X140150159Y-79715952D01*
X140138336Y-79724720D01*
X140125710Y-79732288D01*
X140112403Y-79738582D01*
X140098543Y-79743541D01*
X140084264Y-79747118D01*
X140069703Y-79749278D01*
X140055000Y-79750000D01*
X139755000Y-79750000D01*
X139740297Y-79749278D01*
X139725736Y-79747118D01*
X139711457Y-79743541D01*
X139697597Y-79738582D01*
X139684290Y-79732288D01*
X139671664Y-79724720D01*
X139659841Y-79715952D01*
X139648934Y-79706066D01*
X139639048Y-79695159D01*
X139630280Y-79683336D01*
X139622712Y-79670710D01*
X139616418Y-79657403D01*
X139611459Y-79643543D01*
X139607882Y-79629264D01*
X139605722Y-79614703D01*
X139605000Y-79600000D01*
X139605000Y-77950000D01*
X139605722Y-77935297D01*
X139607882Y-77920736D01*
X139611459Y-77906457D01*
X139616418Y-77892597D01*
X139622712Y-77879290D01*
X139630280Y-77866664D01*
X139639048Y-77854841D01*
X139648934Y-77843934D01*
X139659841Y-77834048D01*
X139671664Y-77825280D01*
X139684290Y-77817712D01*
X139697597Y-77811418D01*
X139711457Y-77806459D01*
X139725736Y-77802882D01*
X139740297Y-77800722D01*
X139755000Y-77800000D01*
X140055000Y-77800000D01*
X140069703Y-77800722D01*
X140069703Y-77800722D01*
G37*
D15*
X139905000Y-78775000D03*
D11*
G36*
X148614703Y-71295722D02*
G01*
X148629264Y-71297882D01*
X148643543Y-71301459D01*
X148657403Y-71306418D01*
X148670710Y-71312712D01*
X148683336Y-71320280D01*
X148695159Y-71329048D01*
X148706066Y-71338934D01*
X148715952Y-71349841D01*
X148724720Y-71361664D01*
X148732288Y-71374290D01*
X148738582Y-71387597D01*
X148743541Y-71401457D01*
X148747118Y-71415736D01*
X148749278Y-71430297D01*
X148750000Y-71445000D01*
X148750000Y-71745000D01*
X148749278Y-71759703D01*
X148747118Y-71774264D01*
X148743541Y-71788543D01*
X148738582Y-71802403D01*
X148732288Y-71815710D01*
X148724720Y-71828336D01*
X148715952Y-71840159D01*
X148706066Y-71851066D01*
X148695159Y-71860952D01*
X148683336Y-71869720D01*
X148670710Y-71877288D01*
X148657403Y-71883582D01*
X148643543Y-71888541D01*
X148629264Y-71892118D01*
X148614703Y-71894278D01*
X148600000Y-71895000D01*
X146950000Y-71895000D01*
X146935297Y-71894278D01*
X146920736Y-71892118D01*
X146906457Y-71888541D01*
X146892597Y-71883582D01*
X146879290Y-71877288D01*
X146866664Y-71869720D01*
X146854841Y-71860952D01*
X146843934Y-71851066D01*
X146834048Y-71840159D01*
X146825280Y-71828336D01*
X146817712Y-71815710D01*
X146811418Y-71802403D01*
X146806459Y-71788543D01*
X146802882Y-71774264D01*
X146800722Y-71759703D01*
X146800000Y-71745000D01*
X146800000Y-71445000D01*
X146800722Y-71430297D01*
X146802882Y-71415736D01*
X146806459Y-71401457D01*
X146811418Y-71387597D01*
X146817712Y-71374290D01*
X146825280Y-71361664D01*
X146834048Y-71349841D01*
X146843934Y-71338934D01*
X146854841Y-71329048D01*
X146866664Y-71320280D01*
X146879290Y-71312712D01*
X146892597Y-71306418D01*
X146906457Y-71301459D01*
X146920736Y-71297882D01*
X146935297Y-71295722D01*
X146950000Y-71295000D01*
X148600000Y-71295000D01*
X148614703Y-71295722D01*
X148614703Y-71295722D01*
G37*
D15*
X147775000Y-71595000D03*
D11*
G36*
X148614703Y-72565722D02*
G01*
X148629264Y-72567882D01*
X148643543Y-72571459D01*
X148657403Y-72576418D01*
X148670710Y-72582712D01*
X148683336Y-72590280D01*
X148695159Y-72599048D01*
X148706066Y-72608934D01*
X148715952Y-72619841D01*
X148724720Y-72631664D01*
X148732288Y-72644290D01*
X148738582Y-72657597D01*
X148743541Y-72671457D01*
X148747118Y-72685736D01*
X148749278Y-72700297D01*
X148750000Y-72715000D01*
X148750000Y-73015000D01*
X148749278Y-73029703D01*
X148747118Y-73044264D01*
X148743541Y-73058543D01*
X148738582Y-73072403D01*
X148732288Y-73085710D01*
X148724720Y-73098336D01*
X148715952Y-73110159D01*
X148706066Y-73121066D01*
X148695159Y-73130952D01*
X148683336Y-73139720D01*
X148670710Y-73147288D01*
X148657403Y-73153582D01*
X148643543Y-73158541D01*
X148629264Y-73162118D01*
X148614703Y-73164278D01*
X148600000Y-73165000D01*
X146950000Y-73165000D01*
X146935297Y-73164278D01*
X146920736Y-73162118D01*
X146906457Y-73158541D01*
X146892597Y-73153582D01*
X146879290Y-73147288D01*
X146866664Y-73139720D01*
X146854841Y-73130952D01*
X146843934Y-73121066D01*
X146834048Y-73110159D01*
X146825280Y-73098336D01*
X146817712Y-73085710D01*
X146811418Y-73072403D01*
X146806459Y-73058543D01*
X146802882Y-73044264D01*
X146800722Y-73029703D01*
X146800000Y-73015000D01*
X146800000Y-72715000D01*
X146800722Y-72700297D01*
X146802882Y-72685736D01*
X146806459Y-72671457D01*
X146811418Y-72657597D01*
X146817712Y-72644290D01*
X146825280Y-72631664D01*
X146834048Y-72619841D01*
X146843934Y-72608934D01*
X146854841Y-72599048D01*
X146866664Y-72590280D01*
X146879290Y-72582712D01*
X146892597Y-72576418D01*
X146906457Y-72571459D01*
X146920736Y-72567882D01*
X146935297Y-72565722D01*
X146950000Y-72565000D01*
X148600000Y-72565000D01*
X148614703Y-72565722D01*
X148614703Y-72565722D01*
G37*
D15*
X147775000Y-72865000D03*
D11*
G36*
X148614703Y-73835722D02*
G01*
X148629264Y-73837882D01*
X148643543Y-73841459D01*
X148657403Y-73846418D01*
X148670710Y-73852712D01*
X148683336Y-73860280D01*
X148695159Y-73869048D01*
X148706066Y-73878934D01*
X148715952Y-73889841D01*
X148724720Y-73901664D01*
X148732288Y-73914290D01*
X148738582Y-73927597D01*
X148743541Y-73941457D01*
X148747118Y-73955736D01*
X148749278Y-73970297D01*
X148750000Y-73985000D01*
X148750000Y-74285000D01*
X148749278Y-74299703D01*
X148747118Y-74314264D01*
X148743541Y-74328543D01*
X148738582Y-74342403D01*
X148732288Y-74355710D01*
X148724720Y-74368336D01*
X148715952Y-74380159D01*
X148706066Y-74391066D01*
X148695159Y-74400952D01*
X148683336Y-74409720D01*
X148670710Y-74417288D01*
X148657403Y-74423582D01*
X148643543Y-74428541D01*
X148629264Y-74432118D01*
X148614703Y-74434278D01*
X148600000Y-74435000D01*
X146950000Y-74435000D01*
X146935297Y-74434278D01*
X146920736Y-74432118D01*
X146906457Y-74428541D01*
X146892597Y-74423582D01*
X146879290Y-74417288D01*
X146866664Y-74409720D01*
X146854841Y-74400952D01*
X146843934Y-74391066D01*
X146834048Y-74380159D01*
X146825280Y-74368336D01*
X146817712Y-74355710D01*
X146811418Y-74342403D01*
X146806459Y-74328543D01*
X146802882Y-74314264D01*
X146800722Y-74299703D01*
X146800000Y-74285000D01*
X146800000Y-73985000D01*
X146800722Y-73970297D01*
X146802882Y-73955736D01*
X146806459Y-73941457D01*
X146811418Y-73927597D01*
X146817712Y-73914290D01*
X146825280Y-73901664D01*
X146834048Y-73889841D01*
X146843934Y-73878934D01*
X146854841Y-73869048D01*
X146866664Y-73860280D01*
X146879290Y-73852712D01*
X146892597Y-73846418D01*
X146906457Y-73841459D01*
X146920736Y-73837882D01*
X146935297Y-73835722D01*
X146950000Y-73835000D01*
X148600000Y-73835000D01*
X148614703Y-73835722D01*
X148614703Y-73835722D01*
G37*
D15*
X147775000Y-74135000D03*
D11*
G36*
X148614703Y-75105722D02*
G01*
X148629264Y-75107882D01*
X148643543Y-75111459D01*
X148657403Y-75116418D01*
X148670710Y-75122712D01*
X148683336Y-75130280D01*
X148695159Y-75139048D01*
X148706066Y-75148934D01*
X148715952Y-75159841D01*
X148724720Y-75171664D01*
X148732288Y-75184290D01*
X148738582Y-75197597D01*
X148743541Y-75211457D01*
X148747118Y-75225736D01*
X148749278Y-75240297D01*
X148750000Y-75255000D01*
X148750000Y-75555000D01*
X148749278Y-75569703D01*
X148747118Y-75584264D01*
X148743541Y-75598543D01*
X148738582Y-75612403D01*
X148732288Y-75625710D01*
X148724720Y-75638336D01*
X148715952Y-75650159D01*
X148706066Y-75661066D01*
X148695159Y-75670952D01*
X148683336Y-75679720D01*
X148670710Y-75687288D01*
X148657403Y-75693582D01*
X148643543Y-75698541D01*
X148629264Y-75702118D01*
X148614703Y-75704278D01*
X148600000Y-75705000D01*
X146950000Y-75705000D01*
X146935297Y-75704278D01*
X146920736Y-75702118D01*
X146906457Y-75698541D01*
X146892597Y-75693582D01*
X146879290Y-75687288D01*
X146866664Y-75679720D01*
X146854841Y-75670952D01*
X146843934Y-75661066D01*
X146834048Y-75650159D01*
X146825280Y-75638336D01*
X146817712Y-75625710D01*
X146811418Y-75612403D01*
X146806459Y-75598543D01*
X146802882Y-75584264D01*
X146800722Y-75569703D01*
X146800000Y-75555000D01*
X146800000Y-75255000D01*
X146800722Y-75240297D01*
X146802882Y-75225736D01*
X146806459Y-75211457D01*
X146811418Y-75197597D01*
X146817712Y-75184290D01*
X146825280Y-75171664D01*
X146834048Y-75159841D01*
X146843934Y-75148934D01*
X146854841Y-75139048D01*
X146866664Y-75130280D01*
X146879290Y-75122712D01*
X146892597Y-75116418D01*
X146906457Y-75111459D01*
X146920736Y-75107882D01*
X146935297Y-75105722D01*
X146950000Y-75105000D01*
X148600000Y-75105000D01*
X148614703Y-75105722D01*
X148614703Y-75105722D01*
G37*
D15*
X147775000Y-75405000D03*
D11*
G36*
X153564703Y-75105722D02*
G01*
X153579264Y-75107882D01*
X153593543Y-75111459D01*
X153607403Y-75116418D01*
X153620710Y-75122712D01*
X153633336Y-75130280D01*
X153645159Y-75139048D01*
X153656066Y-75148934D01*
X153665952Y-75159841D01*
X153674720Y-75171664D01*
X153682288Y-75184290D01*
X153688582Y-75197597D01*
X153693541Y-75211457D01*
X153697118Y-75225736D01*
X153699278Y-75240297D01*
X153700000Y-75255000D01*
X153700000Y-75555000D01*
X153699278Y-75569703D01*
X153697118Y-75584264D01*
X153693541Y-75598543D01*
X153688582Y-75612403D01*
X153682288Y-75625710D01*
X153674720Y-75638336D01*
X153665952Y-75650159D01*
X153656066Y-75661066D01*
X153645159Y-75670952D01*
X153633336Y-75679720D01*
X153620710Y-75687288D01*
X153607403Y-75693582D01*
X153593543Y-75698541D01*
X153579264Y-75702118D01*
X153564703Y-75704278D01*
X153550000Y-75705000D01*
X151900000Y-75705000D01*
X151885297Y-75704278D01*
X151870736Y-75702118D01*
X151856457Y-75698541D01*
X151842597Y-75693582D01*
X151829290Y-75687288D01*
X151816664Y-75679720D01*
X151804841Y-75670952D01*
X151793934Y-75661066D01*
X151784048Y-75650159D01*
X151775280Y-75638336D01*
X151767712Y-75625710D01*
X151761418Y-75612403D01*
X151756459Y-75598543D01*
X151752882Y-75584264D01*
X151750722Y-75569703D01*
X151750000Y-75555000D01*
X151750000Y-75255000D01*
X151750722Y-75240297D01*
X151752882Y-75225736D01*
X151756459Y-75211457D01*
X151761418Y-75197597D01*
X151767712Y-75184290D01*
X151775280Y-75171664D01*
X151784048Y-75159841D01*
X151793934Y-75148934D01*
X151804841Y-75139048D01*
X151816664Y-75130280D01*
X151829290Y-75122712D01*
X151842597Y-75116418D01*
X151856457Y-75111459D01*
X151870736Y-75107882D01*
X151885297Y-75105722D01*
X151900000Y-75105000D01*
X153550000Y-75105000D01*
X153564703Y-75105722D01*
X153564703Y-75105722D01*
G37*
D15*
X152725000Y-75405000D03*
D11*
G36*
X153564703Y-73835722D02*
G01*
X153579264Y-73837882D01*
X153593543Y-73841459D01*
X153607403Y-73846418D01*
X153620710Y-73852712D01*
X153633336Y-73860280D01*
X153645159Y-73869048D01*
X153656066Y-73878934D01*
X153665952Y-73889841D01*
X153674720Y-73901664D01*
X153682288Y-73914290D01*
X153688582Y-73927597D01*
X153693541Y-73941457D01*
X153697118Y-73955736D01*
X153699278Y-73970297D01*
X153700000Y-73985000D01*
X153700000Y-74285000D01*
X153699278Y-74299703D01*
X153697118Y-74314264D01*
X153693541Y-74328543D01*
X153688582Y-74342403D01*
X153682288Y-74355710D01*
X153674720Y-74368336D01*
X153665952Y-74380159D01*
X153656066Y-74391066D01*
X153645159Y-74400952D01*
X153633336Y-74409720D01*
X153620710Y-74417288D01*
X153607403Y-74423582D01*
X153593543Y-74428541D01*
X153579264Y-74432118D01*
X153564703Y-74434278D01*
X153550000Y-74435000D01*
X151900000Y-74435000D01*
X151885297Y-74434278D01*
X151870736Y-74432118D01*
X151856457Y-74428541D01*
X151842597Y-74423582D01*
X151829290Y-74417288D01*
X151816664Y-74409720D01*
X151804841Y-74400952D01*
X151793934Y-74391066D01*
X151784048Y-74380159D01*
X151775280Y-74368336D01*
X151767712Y-74355710D01*
X151761418Y-74342403D01*
X151756459Y-74328543D01*
X151752882Y-74314264D01*
X151750722Y-74299703D01*
X151750000Y-74285000D01*
X151750000Y-73985000D01*
X151750722Y-73970297D01*
X151752882Y-73955736D01*
X151756459Y-73941457D01*
X151761418Y-73927597D01*
X151767712Y-73914290D01*
X151775280Y-73901664D01*
X151784048Y-73889841D01*
X151793934Y-73878934D01*
X151804841Y-73869048D01*
X151816664Y-73860280D01*
X151829290Y-73852712D01*
X151842597Y-73846418D01*
X151856457Y-73841459D01*
X151870736Y-73837882D01*
X151885297Y-73835722D01*
X151900000Y-73835000D01*
X153550000Y-73835000D01*
X153564703Y-73835722D01*
X153564703Y-73835722D01*
G37*
D15*
X152725000Y-74135000D03*
D11*
G36*
X153564703Y-72565722D02*
G01*
X153579264Y-72567882D01*
X153593543Y-72571459D01*
X153607403Y-72576418D01*
X153620710Y-72582712D01*
X153633336Y-72590280D01*
X153645159Y-72599048D01*
X153656066Y-72608934D01*
X153665952Y-72619841D01*
X153674720Y-72631664D01*
X153682288Y-72644290D01*
X153688582Y-72657597D01*
X153693541Y-72671457D01*
X153697118Y-72685736D01*
X153699278Y-72700297D01*
X153700000Y-72715000D01*
X153700000Y-73015000D01*
X153699278Y-73029703D01*
X153697118Y-73044264D01*
X153693541Y-73058543D01*
X153688582Y-73072403D01*
X153682288Y-73085710D01*
X153674720Y-73098336D01*
X153665952Y-73110159D01*
X153656066Y-73121066D01*
X153645159Y-73130952D01*
X153633336Y-73139720D01*
X153620710Y-73147288D01*
X153607403Y-73153582D01*
X153593543Y-73158541D01*
X153579264Y-73162118D01*
X153564703Y-73164278D01*
X153550000Y-73165000D01*
X151900000Y-73165000D01*
X151885297Y-73164278D01*
X151870736Y-73162118D01*
X151856457Y-73158541D01*
X151842597Y-73153582D01*
X151829290Y-73147288D01*
X151816664Y-73139720D01*
X151804841Y-73130952D01*
X151793934Y-73121066D01*
X151784048Y-73110159D01*
X151775280Y-73098336D01*
X151767712Y-73085710D01*
X151761418Y-73072403D01*
X151756459Y-73058543D01*
X151752882Y-73044264D01*
X151750722Y-73029703D01*
X151750000Y-73015000D01*
X151750000Y-72715000D01*
X151750722Y-72700297D01*
X151752882Y-72685736D01*
X151756459Y-72671457D01*
X151761418Y-72657597D01*
X151767712Y-72644290D01*
X151775280Y-72631664D01*
X151784048Y-72619841D01*
X151793934Y-72608934D01*
X151804841Y-72599048D01*
X151816664Y-72590280D01*
X151829290Y-72582712D01*
X151842597Y-72576418D01*
X151856457Y-72571459D01*
X151870736Y-72567882D01*
X151885297Y-72565722D01*
X151900000Y-72565000D01*
X153550000Y-72565000D01*
X153564703Y-72565722D01*
X153564703Y-72565722D01*
G37*
D15*
X152725000Y-72865000D03*
D11*
G36*
X153564703Y-71295722D02*
G01*
X153579264Y-71297882D01*
X153593543Y-71301459D01*
X153607403Y-71306418D01*
X153620710Y-71312712D01*
X153633336Y-71320280D01*
X153645159Y-71329048D01*
X153656066Y-71338934D01*
X153665952Y-71349841D01*
X153674720Y-71361664D01*
X153682288Y-71374290D01*
X153688582Y-71387597D01*
X153693541Y-71401457D01*
X153697118Y-71415736D01*
X153699278Y-71430297D01*
X153700000Y-71445000D01*
X153700000Y-71745000D01*
X153699278Y-71759703D01*
X153697118Y-71774264D01*
X153693541Y-71788543D01*
X153688582Y-71802403D01*
X153682288Y-71815710D01*
X153674720Y-71828336D01*
X153665952Y-71840159D01*
X153656066Y-71851066D01*
X153645159Y-71860952D01*
X153633336Y-71869720D01*
X153620710Y-71877288D01*
X153607403Y-71883582D01*
X153593543Y-71888541D01*
X153579264Y-71892118D01*
X153564703Y-71894278D01*
X153550000Y-71895000D01*
X151900000Y-71895000D01*
X151885297Y-71894278D01*
X151870736Y-71892118D01*
X151856457Y-71888541D01*
X151842597Y-71883582D01*
X151829290Y-71877288D01*
X151816664Y-71869720D01*
X151804841Y-71860952D01*
X151793934Y-71851066D01*
X151784048Y-71840159D01*
X151775280Y-71828336D01*
X151767712Y-71815710D01*
X151761418Y-71802403D01*
X151756459Y-71788543D01*
X151752882Y-71774264D01*
X151750722Y-71759703D01*
X151750000Y-71745000D01*
X151750000Y-71445000D01*
X151750722Y-71430297D01*
X151752882Y-71415736D01*
X151756459Y-71401457D01*
X151761418Y-71387597D01*
X151767712Y-71374290D01*
X151775280Y-71361664D01*
X151784048Y-71349841D01*
X151793934Y-71338934D01*
X151804841Y-71329048D01*
X151816664Y-71320280D01*
X151829290Y-71312712D01*
X151842597Y-71306418D01*
X151856457Y-71301459D01*
X151870736Y-71297882D01*
X151885297Y-71295722D01*
X151900000Y-71295000D01*
X153550000Y-71295000D01*
X153564703Y-71295722D01*
X153564703Y-71295722D01*
G37*
D15*
X152725000Y-71595000D03*
D11*
G36*
X158724505Y-70951204D02*
G01*
X158748773Y-70954804D01*
X158772572Y-70960765D01*
X158795671Y-70969030D01*
X158817850Y-70979520D01*
X158838893Y-70992132D01*
X158858599Y-71006747D01*
X158876777Y-71023223D01*
X158893253Y-71041401D01*
X158907868Y-71061107D01*
X158920480Y-71082150D01*
X158930970Y-71104329D01*
X158939235Y-71127428D01*
X158945196Y-71151227D01*
X158948796Y-71175495D01*
X158950000Y-71199999D01*
X158950000Y-71850001D01*
X158948796Y-71874505D01*
X158945196Y-71898773D01*
X158939235Y-71922572D01*
X158930970Y-71945671D01*
X158920480Y-71967850D01*
X158907868Y-71988893D01*
X158893253Y-72008599D01*
X158876777Y-72026777D01*
X158858599Y-72043253D01*
X158838893Y-72057868D01*
X158817850Y-72070480D01*
X158795671Y-72080970D01*
X158772572Y-72089235D01*
X158748773Y-72095196D01*
X158724505Y-72098796D01*
X158700001Y-72100000D01*
X157799999Y-72100000D01*
X157775495Y-72098796D01*
X157751227Y-72095196D01*
X157727428Y-72089235D01*
X157704329Y-72080970D01*
X157682150Y-72070480D01*
X157661107Y-72057868D01*
X157641401Y-72043253D01*
X157623223Y-72026777D01*
X157606747Y-72008599D01*
X157592132Y-71988893D01*
X157579520Y-71967850D01*
X157569030Y-71945671D01*
X157560765Y-71922572D01*
X157554804Y-71898773D01*
X157551204Y-71874505D01*
X157550000Y-71850001D01*
X157550000Y-71199999D01*
X157551204Y-71175495D01*
X157554804Y-71151227D01*
X157560765Y-71127428D01*
X157569030Y-71104329D01*
X157579520Y-71082150D01*
X157592132Y-71061107D01*
X157606747Y-71041401D01*
X157623223Y-71023223D01*
X157641401Y-71006747D01*
X157661107Y-70992132D01*
X157682150Y-70979520D01*
X157704329Y-70969030D01*
X157727428Y-70960765D01*
X157751227Y-70954804D01*
X157775495Y-70951204D01*
X157799999Y-70950000D01*
X158700001Y-70950000D01*
X158724505Y-70951204D01*
X158724505Y-70951204D01*
G37*
D12*
X158250000Y-71525000D03*
D11*
G36*
X158724505Y-73001204D02*
G01*
X158748773Y-73004804D01*
X158772572Y-73010765D01*
X158795671Y-73019030D01*
X158817850Y-73029520D01*
X158838893Y-73042132D01*
X158858599Y-73056747D01*
X158876777Y-73073223D01*
X158893253Y-73091401D01*
X158907868Y-73111107D01*
X158920480Y-73132150D01*
X158930970Y-73154329D01*
X158939235Y-73177428D01*
X158945196Y-73201227D01*
X158948796Y-73225495D01*
X158950000Y-73249999D01*
X158950000Y-73900001D01*
X158948796Y-73924505D01*
X158945196Y-73948773D01*
X158939235Y-73972572D01*
X158930970Y-73995671D01*
X158920480Y-74017850D01*
X158907868Y-74038893D01*
X158893253Y-74058599D01*
X158876777Y-74076777D01*
X158858599Y-74093253D01*
X158838893Y-74107868D01*
X158817850Y-74120480D01*
X158795671Y-74130970D01*
X158772572Y-74139235D01*
X158748773Y-74145196D01*
X158724505Y-74148796D01*
X158700001Y-74150000D01*
X157799999Y-74150000D01*
X157775495Y-74148796D01*
X157751227Y-74145196D01*
X157727428Y-74139235D01*
X157704329Y-74130970D01*
X157682150Y-74120480D01*
X157661107Y-74107868D01*
X157641401Y-74093253D01*
X157623223Y-74076777D01*
X157606747Y-74058599D01*
X157592132Y-74038893D01*
X157579520Y-74017850D01*
X157569030Y-73995671D01*
X157560765Y-73972572D01*
X157554804Y-73948773D01*
X157551204Y-73924505D01*
X157550000Y-73900001D01*
X157550000Y-73249999D01*
X157551204Y-73225495D01*
X157554804Y-73201227D01*
X157560765Y-73177428D01*
X157569030Y-73154329D01*
X157579520Y-73132150D01*
X157592132Y-73111107D01*
X157606747Y-73091401D01*
X157623223Y-73073223D01*
X157641401Y-73056747D01*
X157661107Y-73042132D01*
X157682150Y-73029520D01*
X157704329Y-73019030D01*
X157727428Y-73010765D01*
X157751227Y-73004804D01*
X157775495Y-73001204D01*
X157799999Y-73000000D01*
X158700001Y-73000000D01*
X158724505Y-73001204D01*
X158724505Y-73001204D01*
G37*
D12*
X158250000Y-73575000D03*
M02*
