M48
; DRILL file {KiCad 5.1.4-e60b266~84~ubuntu18.04.1} date za 19 okt 2019 15:57:40 CEST
; FORMAT={-:-/ absolute / inch / decimal}
; #@! TF.CreationDate,2019-10-19T15:57:40+02:00
; #@! TF.GenerationSoftware,Kicad,Pcbnew,5.1.4-e60b266~84~ubuntu18.04.1
; #@! TF.FileFunction,Plated,1,2,PTH
FMAT,2
INCH
T1C0.0157
T2C0.0315
T3C0.0394
T4C0.0472
%
G90
G05
T1
X5.0925Y-3.2008
X5.2126Y-2.939
X5.2244Y-3.252
X5.2913Y-3.3071
X5.3465Y-3.4252
X5.4138Y-2.937
X5.4583Y-3.1728
X5.4646Y-3.0276
X5.4803Y-2.8622
X5.7736Y-3.0114
X5.8937Y-3.4252
X6.1339Y-3.2402
X6.3287Y-2.815
T2
X4.65Y-2.84
X4.65Y-2.94
X4.65Y-3.04
X4.95Y-2.84
X4.95Y-2.94
X4.95Y-3.04
X4.65Y-3.19
X4.65Y-3.29
X4.65Y-3.39
X4.95Y-3.19
X4.95Y-3.29
X4.95Y-3.39
T3
X4.311Y-2.8622
X4.311Y-2.9622
X4.311Y-3.0622
X4.311Y-3.1622
X4.311Y-3.2622
X4.311Y-3.3622
X3.7945Y-3.36
X3.8945Y-3.36
X3.9945Y-3.36
X4.0945Y-3.36
X3.7945Y-2.86
X3.8945Y-2.86
X3.9945Y-2.86
X4.0945Y-2.86
T4
X6.5551Y-3.039
X6.5551Y-3.189
T0
M30
