M48
; DRILL file {KiCad (5.1.6)-1} date 11/13/20 23:39:32
; FORMAT={-:-/ absolute / inch / decimal}
; #@! TF.CreationDate,2020-11-13T23:39:32+01:00
; #@! TF.GenerationSoftware,Kicad,Pcbnew,(5.1.6)-1
; #@! TF.FileFunction,Plated,1,2,PTH
FMAT,2
INCH
T1C0.0079
T2C0.0157
T3C0.0354
T4C0.0472
%
G90
G05
T1
X4.2106Y-3.0689
X4.2106Y-3.1102
X4.2106Y-3.1516
X4.252Y-3.0689
X4.252Y-3.1102
X4.252Y-3.1516
X4.2933Y-3.0689
X4.2933Y-3.1102
X4.2933Y-3.1516
T2
X4.124Y-3.2382
X4.1339Y-3.0709
X4.1339Y-3.1496
X4.1732Y-3.2283
X4.252Y-3.3957
X4.2618Y-3.2283
X4.3307Y-3.3957
X4.4882Y-3.3957
X4.5965Y-3.2185
X5.0925Y-3.2008
X5.2126Y-2.939
X5.2244Y-3.252
X5.2913Y-3.3071
X5.3465Y-3.4252
X5.4138Y-2.937
X5.4583Y-3.1728
X5.561Y-3.0315
X5.6102Y-2.9429
X5.7736Y-3.0114
X5.8937Y-3.4252
X6.1339Y-3.2402
X6.3287Y-2.815
T4
X6.6339Y-3.039
X6.6339Y-3.189
T3
G00X3.8071Y-2.8858
M15
G01X3.7441Y-2.8858
M16
G05
G00X3.8071Y-3.3346
M15
G01X3.7441Y-3.3346
M16
G05
T0
M30
