G04 #@! TF.GenerationSoftware,KiCad,Pcbnew,5.1.4-e60b266~84~ubuntu18.04.1*
G04 #@! TF.CreationDate,2019-08-12T17:35:48+02:00*
G04 #@! TF.ProjectId,ebuzzz-adapter,6562757a-7a7a-42d6-9164-61707465722e,rev?*
G04 #@! TF.SameCoordinates,Original*
G04 #@! TF.FileFunction,Soldermask,Top*
G04 #@! TF.FilePolarity,Negative*
%FSLAX46Y46*%
G04 Gerber Fmt 4.6, Leading zero omitted, Abs format (unit mm)*
G04 Created by KiCad (PCBNEW 5.1.4-e60b266~84~ubuntu18.04.1) date 2019-08-12 17:35:48*
%MOMM*%
%LPD*%
G04 APERTURE LIST*
%ADD10C,0.100000*%
G04 APERTURE END LIST*
D10*
G36*
X144213674Y-86253465D02*
G01*
X144251367Y-86264899D01*
X144286103Y-86283466D01*
X144316548Y-86308452D01*
X144341534Y-86338897D01*
X144360101Y-86373633D01*
X144371535Y-86411326D01*
X144376000Y-86456661D01*
X144376000Y-87543339D01*
X144371535Y-87588674D01*
X144360101Y-87626367D01*
X144341534Y-87661103D01*
X144316548Y-87691548D01*
X144286103Y-87716534D01*
X144251367Y-87735101D01*
X144213674Y-87746535D01*
X144168339Y-87751000D01*
X143331661Y-87751000D01*
X143286326Y-87746535D01*
X143248633Y-87735101D01*
X143213897Y-87716534D01*
X143183452Y-87691548D01*
X143158466Y-87661103D01*
X143139899Y-87626367D01*
X143128465Y-87588674D01*
X143124000Y-87543339D01*
X143124000Y-86456661D01*
X143128465Y-86411326D01*
X143139899Y-86373633D01*
X143158466Y-86338897D01*
X143183452Y-86308452D01*
X143213897Y-86283466D01*
X143248633Y-86264899D01*
X143286326Y-86253465D01*
X143331661Y-86249000D01*
X144168339Y-86249000D01*
X144213674Y-86253465D01*
X144213674Y-86253465D01*
G37*
G36*
X146938674Y-86253465D02*
G01*
X146976367Y-86264899D01*
X147011103Y-86283466D01*
X147041548Y-86308452D01*
X147066534Y-86338897D01*
X147085101Y-86373633D01*
X147096535Y-86411326D01*
X147101000Y-86456661D01*
X147101000Y-87543339D01*
X147096535Y-87588674D01*
X147085101Y-87626367D01*
X147066534Y-87661103D01*
X147041548Y-87691548D01*
X147011103Y-87716534D01*
X146976367Y-87735101D01*
X146938674Y-87746535D01*
X146893339Y-87751000D01*
X146056661Y-87751000D01*
X146011326Y-87746535D01*
X145973633Y-87735101D01*
X145938897Y-87716534D01*
X145908452Y-87691548D01*
X145883466Y-87661103D01*
X145864899Y-87626367D01*
X145853465Y-87588674D01*
X145849000Y-87543339D01*
X145849000Y-86456661D01*
X145853465Y-86411326D01*
X145864899Y-86373633D01*
X145883466Y-86338897D01*
X145908452Y-86308452D01*
X145938897Y-86283466D01*
X145973633Y-86264899D01*
X146011326Y-86253465D01*
X146056661Y-86249000D01*
X146893339Y-86249000D01*
X146938674Y-86253465D01*
X146938674Y-86253465D01*
G37*
G36*
X148988674Y-86253465D02*
G01*
X149026367Y-86264899D01*
X149061103Y-86283466D01*
X149091548Y-86308452D01*
X149116534Y-86338897D01*
X149135101Y-86373633D01*
X149146535Y-86411326D01*
X149151000Y-86456661D01*
X149151000Y-87543339D01*
X149146535Y-87588674D01*
X149135101Y-87626367D01*
X149116534Y-87661103D01*
X149091548Y-87691548D01*
X149061103Y-87716534D01*
X149026367Y-87735101D01*
X148988674Y-87746535D01*
X148943339Y-87751000D01*
X148106661Y-87751000D01*
X148061326Y-87746535D01*
X148023633Y-87735101D01*
X147988897Y-87716534D01*
X147958452Y-87691548D01*
X147933466Y-87661103D01*
X147914899Y-87626367D01*
X147903465Y-87588674D01*
X147899000Y-87543339D01*
X147899000Y-86456661D01*
X147903465Y-86411326D01*
X147914899Y-86373633D01*
X147933466Y-86338897D01*
X147958452Y-86308452D01*
X147988897Y-86283466D01*
X148023633Y-86264899D01*
X148061326Y-86253465D01*
X148106661Y-86249000D01*
X148943339Y-86249000D01*
X148988674Y-86253465D01*
X148988674Y-86253465D01*
G37*
G36*
X137413674Y-86253465D02*
G01*
X137451367Y-86264899D01*
X137486103Y-86283466D01*
X137516548Y-86308452D01*
X137541534Y-86338897D01*
X137560101Y-86373633D01*
X137571535Y-86411326D01*
X137576000Y-86456661D01*
X137576000Y-87543339D01*
X137571535Y-87588674D01*
X137560101Y-87626367D01*
X137541534Y-87661103D01*
X137516548Y-87691548D01*
X137486103Y-87716534D01*
X137451367Y-87735101D01*
X137413674Y-87746535D01*
X137368339Y-87751000D01*
X136531661Y-87751000D01*
X136486326Y-87746535D01*
X136448633Y-87735101D01*
X136413897Y-87716534D01*
X136383452Y-87691548D01*
X136358466Y-87661103D01*
X136339899Y-87626367D01*
X136328465Y-87588674D01*
X136324000Y-87543339D01*
X136324000Y-86456661D01*
X136328465Y-86411326D01*
X136339899Y-86373633D01*
X136358466Y-86338897D01*
X136383452Y-86308452D01*
X136413897Y-86283466D01*
X136448633Y-86264899D01*
X136486326Y-86253465D01*
X136531661Y-86249000D01*
X137368339Y-86249000D01*
X137413674Y-86253465D01*
X137413674Y-86253465D01*
G37*
G36*
X142163674Y-86253465D02*
G01*
X142201367Y-86264899D01*
X142236103Y-86283466D01*
X142266548Y-86308452D01*
X142291534Y-86338897D01*
X142310101Y-86373633D01*
X142321535Y-86411326D01*
X142326000Y-86456661D01*
X142326000Y-87543339D01*
X142321535Y-87588674D01*
X142310101Y-87626367D01*
X142291534Y-87661103D01*
X142266548Y-87691548D01*
X142236103Y-87716534D01*
X142201367Y-87735101D01*
X142163674Y-87746535D01*
X142118339Y-87751000D01*
X141281661Y-87751000D01*
X141236326Y-87746535D01*
X141198633Y-87735101D01*
X141163897Y-87716534D01*
X141133452Y-87691548D01*
X141108466Y-87661103D01*
X141089899Y-87626367D01*
X141078465Y-87588674D01*
X141074000Y-87543339D01*
X141074000Y-86456661D01*
X141078465Y-86411326D01*
X141089899Y-86373633D01*
X141108466Y-86338897D01*
X141133452Y-86308452D01*
X141163897Y-86283466D01*
X141198633Y-86264899D01*
X141236326Y-86253465D01*
X141281661Y-86249000D01*
X142118339Y-86249000D01*
X142163674Y-86253465D01*
X142163674Y-86253465D01*
G37*
G36*
X139463674Y-86253465D02*
G01*
X139501367Y-86264899D01*
X139536103Y-86283466D01*
X139566548Y-86308452D01*
X139591534Y-86338897D01*
X139610101Y-86373633D01*
X139621535Y-86411326D01*
X139626000Y-86456661D01*
X139626000Y-87543339D01*
X139621535Y-87588674D01*
X139610101Y-87626367D01*
X139591534Y-87661103D01*
X139566548Y-87691548D01*
X139536103Y-87716534D01*
X139501367Y-87735101D01*
X139463674Y-87746535D01*
X139418339Y-87751000D01*
X138581661Y-87751000D01*
X138536326Y-87746535D01*
X138498633Y-87735101D01*
X138463897Y-87716534D01*
X138433452Y-87691548D01*
X138408466Y-87661103D01*
X138389899Y-87626367D01*
X138378465Y-87588674D01*
X138374000Y-87543339D01*
X138374000Y-86456661D01*
X138378465Y-86411326D01*
X138389899Y-86373633D01*
X138408466Y-86338897D01*
X138433452Y-86308452D01*
X138463897Y-86283466D01*
X138498633Y-86264899D01*
X138536326Y-86253465D01*
X138581661Y-86249000D01*
X139418339Y-86249000D01*
X139463674Y-86253465D01*
X139463674Y-86253465D01*
G37*
G36*
X151251000Y-87651000D02*
G01*
X150249000Y-87651000D01*
X150249000Y-86749000D01*
X151251000Y-86749000D01*
X151251000Y-87651000D01*
X151251000Y-87651000D01*
G37*
G36*
X126581000Y-86957000D02*
G01*
X124879000Y-86957000D01*
X124879000Y-85255000D01*
X126581000Y-85255000D01*
X126581000Y-86957000D01*
X126581000Y-86957000D01*
G37*
G36*
X118276823Y-85267313D02*
G01*
X118437242Y-85315976D01*
X118569906Y-85386886D01*
X118585078Y-85394996D01*
X118714659Y-85501341D01*
X118821004Y-85630922D01*
X118821005Y-85630924D01*
X118900024Y-85778758D01*
X118948687Y-85939177D01*
X118965117Y-86106000D01*
X118948687Y-86272823D01*
X118900024Y-86433242D01*
X118887506Y-86456661D01*
X118821004Y-86581078D01*
X118714659Y-86710659D01*
X118585078Y-86817004D01*
X118585076Y-86817005D01*
X118437242Y-86896024D01*
X118276823Y-86944687D01*
X118151804Y-86957000D01*
X118068196Y-86957000D01*
X117943177Y-86944687D01*
X117782758Y-86896024D01*
X117634924Y-86817005D01*
X117634922Y-86817004D01*
X117505341Y-86710659D01*
X117398996Y-86581078D01*
X117332494Y-86456661D01*
X117319976Y-86433242D01*
X117271313Y-86272823D01*
X117254883Y-86106000D01*
X117271313Y-85939177D01*
X117319976Y-85778758D01*
X117398995Y-85630924D01*
X117398996Y-85630922D01*
X117505341Y-85501341D01*
X117634922Y-85394996D01*
X117650094Y-85386886D01*
X117782758Y-85315976D01*
X117943177Y-85267313D01*
X118068196Y-85255000D01*
X118151804Y-85255000D01*
X118276823Y-85267313D01*
X118276823Y-85267313D01*
G37*
G36*
X129413674Y-85453465D02*
G01*
X129451367Y-85464899D01*
X129486103Y-85483466D01*
X129516548Y-85508452D01*
X129541534Y-85538897D01*
X129560101Y-85573633D01*
X129571535Y-85611326D01*
X129576000Y-85656661D01*
X129576000Y-86743339D01*
X129571535Y-86788674D01*
X129560101Y-86826367D01*
X129541534Y-86861103D01*
X129516548Y-86891548D01*
X129486103Y-86916534D01*
X129451367Y-86935101D01*
X129413674Y-86946535D01*
X129368339Y-86951000D01*
X128531661Y-86951000D01*
X128486326Y-86946535D01*
X128448633Y-86935101D01*
X128413897Y-86916534D01*
X128383452Y-86891548D01*
X128358466Y-86861103D01*
X128339899Y-86826367D01*
X128328465Y-86788674D01*
X128324000Y-86743339D01*
X128324000Y-85656661D01*
X128328465Y-85611326D01*
X128339899Y-85573633D01*
X128358466Y-85538897D01*
X128383452Y-85508452D01*
X128413897Y-85483466D01*
X128448633Y-85464899D01*
X128486326Y-85453465D01*
X128531661Y-85449000D01*
X129368339Y-85449000D01*
X129413674Y-85453465D01*
X129413674Y-85453465D01*
G37*
G36*
X131463674Y-85453465D02*
G01*
X131501367Y-85464899D01*
X131536103Y-85483466D01*
X131566548Y-85508452D01*
X131591534Y-85538897D01*
X131610101Y-85573633D01*
X131621535Y-85611326D01*
X131626000Y-85656661D01*
X131626000Y-86743339D01*
X131621535Y-86788674D01*
X131610101Y-86826367D01*
X131591534Y-86861103D01*
X131566548Y-86891548D01*
X131536103Y-86916534D01*
X131501367Y-86935101D01*
X131463674Y-86946535D01*
X131418339Y-86951000D01*
X130581661Y-86951000D01*
X130536326Y-86946535D01*
X130498633Y-86935101D01*
X130463897Y-86916534D01*
X130433452Y-86891548D01*
X130408466Y-86861103D01*
X130389899Y-86826367D01*
X130378465Y-86788674D01*
X130374000Y-86743339D01*
X130374000Y-85656661D01*
X130378465Y-85611326D01*
X130389899Y-85573633D01*
X130408466Y-85538897D01*
X130433452Y-85508452D01*
X130463897Y-85483466D01*
X130498633Y-85464899D01*
X130536326Y-85453465D01*
X130581661Y-85449000D01*
X131418339Y-85449000D01*
X131463674Y-85453465D01*
X131463674Y-85453465D01*
G37*
G36*
X153251000Y-86701000D02*
G01*
X152249000Y-86701000D01*
X152249000Y-85799000D01*
X153251000Y-85799000D01*
X153251000Y-86701000D01*
X153251000Y-86701000D01*
G37*
G36*
X113484674Y-84851465D02*
G01*
X113522367Y-84862899D01*
X113557103Y-84881466D01*
X113587548Y-84906452D01*
X113612534Y-84936897D01*
X113631101Y-84971633D01*
X113642535Y-85009326D01*
X113647000Y-85054661D01*
X113647000Y-86141339D01*
X113642535Y-86186674D01*
X113631101Y-86224367D01*
X113612534Y-86259103D01*
X113587548Y-86289548D01*
X113557103Y-86314534D01*
X113522367Y-86333101D01*
X113484674Y-86344535D01*
X113439339Y-86349000D01*
X112602661Y-86349000D01*
X112557326Y-86344535D01*
X112519633Y-86333101D01*
X112484897Y-86314534D01*
X112454452Y-86289548D01*
X112429466Y-86259103D01*
X112410899Y-86224367D01*
X112399465Y-86186674D01*
X112395000Y-86141339D01*
X112395000Y-85054661D01*
X112399465Y-85009326D01*
X112410899Y-84971633D01*
X112429466Y-84936897D01*
X112454452Y-84906452D01*
X112484897Y-84881466D01*
X112519633Y-84862899D01*
X112557326Y-84851465D01*
X112602661Y-84847000D01*
X113439339Y-84847000D01*
X113484674Y-84851465D01*
X113484674Y-84851465D01*
G37*
G36*
X115534674Y-84851465D02*
G01*
X115572367Y-84862899D01*
X115607103Y-84881466D01*
X115637548Y-84906452D01*
X115662534Y-84936897D01*
X115681101Y-84971633D01*
X115692535Y-85009326D01*
X115697000Y-85054661D01*
X115697000Y-86141339D01*
X115692535Y-86186674D01*
X115681101Y-86224367D01*
X115662534Y-86259103D01*
X115637548Y-86289548D01*
X115607103Y-86314534D01*
X115572367Y-86333101D01*
X115534674Y-86344535D01*
X115489339Y-86349000D01*
X114652661Y-86349000D01*
X114607326Y-86344535D01*
X114569633Y-86333101D01*
X114534897Y-86314534D01*
X114504452Y-86289548D01*
X114479466Y-86259103D01*
X114460899Y-86224367D01*
X114449465Y-86186674D01*
X114445000Y-86141339D01*
X114445000Y-85054661D01*
X114449465Y-85009326D01*
X114460899Y-84971633D01*
X114479466Y-84936897D01*
X114504452Y-84906452D01*
X114534897Y-84881466D01*
X114569633Y-84862899D01*
X114607326Y-84851465D01*
X114652661Y-84847000D01*
X115489339Y-84847000D01*
X115534674Y-84851465D01*
X115534674Y-84851465D01*
G37*
G36*
X99030442Y-84449518D02*
G01*
X99096627Y-84456037D01*
X99266466Y-84507557D01*
X99422991Y-84591222D01*
X99458729Y-84620552D01*
X99560186Y-84703814D01*
X99643448Y-84805271D01*
X99672778Y-84841009D01*
X99756443Y-84997534D01*
X99807963Y-85167373D01*
X99825359Y-85344000D01*
X99807963Y-85520627D01*
X99756443Y-85690466D01*
X99672778Y-85846991D01*
X99643448Y-85882729D01*
X99560186Y-85984186D01*
X99458729Y-86067448D01*
X99422991Y-86096778D01*
X99266466Y-86180443D01*
X99096627Y-86231963D01*
X99030442Y-86238482D01*
X98964260Y-86245000D01*
X98875740Y-86245000D01*
X98809558Y-86238482D01*
X98743373Y-86231963D01*
X98573534Y-86180443D01*
X98417009Y-86096778D01*
X98381271Y-86067448D01*
X98279814Y-85984186D01*
X98196552Y-85882729D01*
X98167222Y-85846991D01*
X98083557Y-85690466D01*
X98032037Y-85520627D01*
X98014641Y-85344000D01*
X98032037Y-85167373D01*
X98083557Y-84997534D01*
X98167222Y-84841009D01*
X98196552Y-84805271D01*
X98279814Y-84703814D01*
X98381271Y-84620552D01*
X98417009Y-84591222D01*
X98573534Y-84507557D01*
X98743373Y-84456037D01*
X98809558Y-84449518D01*
X98875740Y-84443000D01*
X98964260Y-84443000D01*
X99030442Y-84449518D01*
X99030442Y-84449518D01*
G37*
G36*
X101570442Y-84449518D02*
G01*
X101636627Y-84456037D01*
X101806466Y-84507557D01*
X101962991Y-84591222D01*
X101998729Y-84620552D01*
X102100186Y-84703814D01*
X102183448Y-84805271D01*
X102212778Y-84841009D01*
X102296443Y-84997534D01*
X102347963Y-85167373D01*
X102365359Y-85344000D01*
X102347963Y-85520627D01*
X102296443Y-85690466D01*
X102212778Y-85846991D01*
X102183448Y-85882729D01*
X102100186Y-85984186D01*
X101998729Y-86067448D01*
X101962991Y-86096778D01*
X101806466Y-86180443D01*
X101636627Y-86231963D01*
X101570442Y-86238482D01*
X101504260Y-86245000D01*
X101415740Y-86245000D01*
X101349558Y-86238482D01*
X101283373Y-86231963D01*
X101113534Y-86180443D01*
X100957009Y-86096778D01*
X100921271Y-86067448D01*
X100819814Y-85984186D01*
X100736552Y-85882729D01*
X100707222Y-85846991D01*
X100623557Y-85690466D01*
X100572037Y-85520627D01*
X100554641Y-85344000D01*
X100572037Y-85167373D01*
X100623557Y-84997534D01*
X100707222Y-84841009D01*
X100736552Y-84805271D01*
X100819814Y-84703814D01*
X100921271Y-84620552D01*
X100957009Y-84591222D01*
X101113534Y-84507557D01*
X101283373Y-84456037D01*
X101349558Y-84449518D01*
X101415740Y-84443000D01*
X101504260Y-84443000D01*
X101570442Y-84449518D01*
X101570442Y-84449518D01*
G37*
G36*
X109610442Y-84449518D02*
G01*
X109676627Y-84456037D01*
X109846466Y-84507557D01*
X110002991Y-84591222D01*
X110038729Y-84620552D01*
X110140186Y-84703814D01*
X110223448Y-84805271D01*
X110252778Y-84841009D01*
X110336443Y-84997534D01*
X110387963Y-85167373D01*
X110405359Y-85344000D01*
X110387963Y-85520627D01*
X110336443Y-85690466D01*
X110252778Y-85846991D01*
X110223448Y-85882729D01*
X110140186Y-85984186D01*
X110038729Y-86067448D01*
X110002991Y-86096778D01*
X109846466Y-86180443D01*
X109676627Y-86231963D01*
X109610442Y-86238482D01*
X109544260Y-86245000D01*
X109455740Y-86245000D01*
X109389558Y-86238482D01*
X109323373Y-86231963D01*
X109153534Y-86180443D01*
X108997009Y-86096778D01*
X108961271Y-86067448D01*
X108859814Y-85984186D01*
X108776552Y-85882729D01*
X108747222Y-85846991D01*
X108663557Y-85690466D01*
X108612037Y-85520627D01*
X108594641Y-85344000D01*
X108612037Y-85167373D01*
X108663557Y-84997534D01*
X108747222Y-84841009D01*
X108776552Y-84805271D01*
X108859814Y-84703814D01*
X108961271Y-84620552D01*
X108997009Y-84591222D01*
X109153534Y-84507557D01*
X109323373Y-84456037D01*
X109389558Y-84449518D01*
X109455740Y-84443000D01*
X109544260Y-84443000D01*
X109610442Y-84449518D01*
X109610442Y-84449518D01*
G37*
G36*
X104901000Y-86245000D02*
G01*
X103099000Y-86245000D01*
X103099000Y-84443000D01*
X104901000Y-84443000D01*
X104901000Y-86245000D01*
X104901000Y-86245000D01*
G37*
G36*
X96490442Y-84449518D02*
G01*
X96556627Y-84456037D01*
X96726466Y-84507557D01*
X96882991Y-84591222D01*
X96918729Y-84620552D01*
X97020186Y-84703814D01*
X97103448Y-84805271D01*
X97132778Y-84841009D01*
X97216443Y-84997534D01*
X97267963Y-85167373D01*
X97285359Y-85344000D01*
X97267963Y-85520627D01*
X97216443Y-85690466D01*
X97132778Y-85846991D01*
X97103448Y-85882729D01*
X97020186Y-85984186D01*
X96918729Y-86067448D01*
X96882991Y-86096778D01*
X96726466Y-86180443D01*
X96556627Y-86231963D01*
X96490442Y-86238482D01*
X96424260Y-86245000D01*
X96335740Y-86245000D01*
X96269558Y-86238482D01*
X96203373Y-86231963D01*
X96033534Y-86180443D01*
X95877009Y-86096778D01*
X95841271Y-86067448D01*
X95739814Y-85984186D01*
X95656552Y-85882729D01*
X95627222Y-85846991D01*
X95543557Y-85690466D01*
X95492037Y-85520627D01*
X95474641Y-85344000D01*
X95492037Y-85167373D01*
X95543557Y-84997534D01*
X95627222Y-84841009D01*
X95656552Y-84805271D01*
X95739814Y-84703814D01*
X95841271Y-84620552D01*
X95877009Y-84591222D01*
X96033534Y-84507557D01*
X96203373Y-84456037D01*
X96269558Y-84449518D01*
X96335740Y-84443000D01*
X96424260Y-84443000D01*
X96490442Y-84449518D01*
X96490442Y-84449518D01*
G37*
G36*
X151251000Y-85751000D02*
G01*
X150249000Y-85751000D01*
X150249000Y-84849000D01*
X151251000Y-84849000D01*
X151251000Y-85751000D01*
X151251000Y-85751000D01*
G37*
G36*
X136354928Y-82701764D02*
G01*
X136376009Y-82708160D01*
X136395445Y-82718548D01*
X136412476Y-82732524D01*
X136426452Y-82749555D01*
X136436840Y-82768991D01*
X136443236Y-82790072D01*
X136446000Y-82818140D01*
X136446000Y-84631860D01*
X136443236Y-84659928D01*
X136436840Y-84681009D01*
X136426452Y-84700445D01*
X136412476Y-84717476D01*
X136395445Y-84731452D01*
X136376009Y-84741840D01*
X136354928Y-84748236D01*
X136326860Y-84751000D01*
X135863140Y-84751000D01*
X135835072Y-84748236D01*
X135813991Y-84741840D01*
X135794555Y-84731452D01*
X135777524Y-84717476D01*
X135763548Y-84700445D01*
X135753160Y-84681009D01*
X135746764Y-84659928D01*
X135744000Y-84631860D01*
X135744000Y-82818140D01*
X135746764Y-82790072D01*
X135753160Y-82768991D01*
X135763548Y-82749555D01*
X135777524Y-82732524D01*
X135794555Y-82718548D01*
X135813991Y-82708160D01*
X135835072Y-82701764D01*
X135863140Y-82699000D01*
X136326860Y-82699000D01*
X136354928Y-82701764D01*
X136354928Y-82701764D01*
G37*
G36*
X137624928Y-82701764D02*
G01*
X137646009Y-82708160D01*
X137665445Y-82718548D01*
X137682476Y-82732524D01*
X137696452Y-82749555D01*
X137706840Y-82768991D01*
X137713236Y-82790072D01*
X137716000Y-82818140D01*
X137716000Y-84631860D01*
X137713236Y-84659928D01*
X137706840Y-84681009D01*
X137696452Y-84700445D01*
X137682476Y-84717476D01*
X137665445Y-84731452D01*
X137646009Y-84741840D01*
X137624928Y-84748236D01*
X137596860Y-84751000D01*
X137133140Y-84751000D01*
X137105072Y-84748236D01*
X137083991Y-84741840D01*
X137064555Y-84731452D01*
X137047524Y-84717476D01*
X137033548Y-84700445D01*
X137023160Y-84681009D01*
X137016764Y-84659928D01*
X137014000Y-84631860D01*
X137014000Y-82818140D01*
X137016764Y-82790072D01*
X137023160Y-82768991D01*
X137033548Y-82749555D01*
X137047524Y-82732524D01*
X137064555Y-82718548D01*
X137083991Y-82708160D01*
X137105072Y-82701764D01*
X137133140Y-82699000D01*
X137596860Y-82699000D01*
X137624928Y-82701764D01*
X137624928Y-82701764D01*
G37*
G36*
X138894928Y-82701764D02*
G01*
X138916009Y-82708160D01*
X138935445Y-82718548D01*
X138952476Y-82732524D01*
X138966452Y-82749555D01*
X138976840Y-82768991D01*
X138983236Y-82790072D01*
X138986000Y-82818140D01*
X138986000Y-84631860D01*
X138983236Y-84659928D01*
X138976840Y-84681009D01*
X138966452Y-84700445D01*
X138952476Y-84717476D01*
X138935445Y-84731452D01*
X138916009Y-84741840D01*
X138894928Y-84748236D01*
X138866860Y-84751000D01*
X138403140Y-84751000D01*
X138375072Y-84748236D01*
X138353991Y-84741840D01*
X138334555Y-84731452D01*
X138317524Y-84717476D01*
X138303548Y-84700445D01*
X138293160Y-84681009D01*
X138286764Y-84659928D01*
X138284000Y-84631860D01*
X138284000Y-82818140D01*
X138286764Y-82790072D01*
X138293160Y-82768991D01*
X138303548Y-82749555D01*
X138317524Y-82732524D01*
X138334555Y-82718548D01*
X138353991Y-82708160D01*
X138375072Y-82701764D01*
X138403140Y-82699000D01*
X138866860Y-82699000D01*
X138894928Y-82701764D01*
X138894928Y-82701764D01*
G37*
G36*
X140164928Y-82701764D02*
G01*
X140186009Y-82708160D01*
X140205445Y-82718548D01*
X140222476Y-82732524D01*
X140236452Y-82749555D01*
X140246840Y-82768991D01*
X140253236Y-82790072D01*
X140256000Y-82818140D01*
X140256000Y-84631860D01*
X140253236Y-84659928D01*
X140246840Y-84681009D01*
X140236452Y-84700445D01*
X140222476Y-84717476D01*
X140205445Y-84731452D01*
X140186009Y-84741840D01*
X140164928Y-84748236D01*
X140136860Y-84751000D01*
X139673140Y-84751000D01*
X139645072Y-84748236D01*
X139623991Y-84741840D01*
X139604555Y-84731452D01*
X139587524Y-84717476D01*
X139573548Y-84700445D01*
X139563160Y-84681009D01*
X139556764Y-84659928D01*
X139554000Y-84631860D01*
X139554000Y-82818140D01*
X139556764Y-82790072D01*
X139563160Y-82768991D01*
X139573548Y-82749555D01*
X139587524Y-82732524D01*
X139604555Y-82718548D01*
X139623991Y-82708160D01*
X139645072Y-82701764D01*
X139673140Y-82699000D01*
X140136860Y-82699000D01*
X140164928Y-82701764D01*
X140164928Y-82701764D01*
G37*
G36*
X125896823Y-82727313D02*
G01*
X126057242Y-82775976D01*
X126183269Y-82843339D01*
X126205078Y-82854996D01*
X126334659Y-82961341D01*
X126441004Y-83090922D01*
X126441005Y-83090924D01*
X126520024Y-83238758D01*
X126568687Y-83399177D01*
X126585117Y-83566000D01*
X126568687Y-83732823D01*
X126520024Y-83893242D01*
X126449114Y-84025906D01*
X126441004Y-84041078D01*
X126334659Y-84170659D01*
X126205078Y-84277004D01*
X126205076Y-84277005D01*
X126057242Y-84356024D01*
X125896823Y-84404687D01*
X125771804Y-84417000D01*
X125688196Y-84417000D01*
X125563177Y-84404687D01*
X125402758Y-84356024D01*
X125254924Y-84277005D01*
X125254922Y-84277004D01*
X125125341Y-84170659D01*
X125018996Y-84041078D01*
X125010886Y-84025906D01*
X124939976Y-83893242D01*
X124891313Y-83732823D01*
X124874883Y-83566000D01*
X124891313Y-83399177D01*
X124939976Y-83238758D01*
X125018995Y-83090924D01*
X125018996Y-83090922D01*
X125125341Y-82961341D01*
X125254922Y-82854996D01*
X125276731Y-82843339D01*
X125402758Y-82775976D01*
X125563177Y-82727313D01*
X125688196Y-82715000D01*
X125771804Y-82715000D01*
X125896823Y-82727313D01*
X125896823Y-82727313D01*
G37*
G36*
X118276823Y-82727313D02*
G01*
X118437242Y-82775976D01*
X118563269Y-82843339D01*
X118585078Y-82854996D01*
X118714659Y-82961341D01*
X118821004Y-83090922D01*
X118821005Y-83090924D01*
X118900024Y-83238758D01*
X118948687Y-83399177D01*
X118965117Y-83566000D01*
X118948687Y-83732823D01*
X118900024Y-83893242D01*
X118829114Y-84025906D01*
X118821004Y-84041078D01*
X118714659Y-84170659D01*
X118585078Y-84277004D01*
X118585076Y-84277005D01*
X118437242Y-84356024D01*
X118276823Y-84404687D01*
X118151804Y-84417000D01*
X118068196Y-84417000D01*
X117943177Y-84404687D01*
X117782758Y-84356024D01*
X117634924Y-84277005D01*
X117634922Y-84277004D01*
X117505341Y-84170659D01*
X117398996Y-84041078D01*
X117390886Y-84025906D01*
X117319976Y-83893242D01*
X117271313Y-83732823D01*
X117254883Y-83566000D01*
X117271313Y-83399177D01*
X117319976Y-83238758D01*
X117398995Y-83090924D01*
X117398996Y-83090922D01*
X117505341Y-82961341D01*
X117634922Y-82854996D01*
X117656731Y-82843339D01*
X117782758Y-82775976D01*
X117943177Y-82727313D01*
X118068196Y-82715000D01*
X118151804Y-82715000D01*
X118276823Y-82727313D01*
X118276823Y-82727313D01*
G37*
G36*
X109610442Y-81909518D02*
G01*
X109676627Y-81916037D01*
X109846466Y-81967557D01*
X110002991Y-82051222D01*
X110022237Y-82067017D01*
X110140186Y-82163814D01*
X110189277Y-82223633D01*
X110252778Y-82301009D01*
X110336443Y-82457534D01*
X110387963Y-82627373D01*
X110405359Y-82804000D01*
X110387963Y-82980627D01*
X110336443Y-83150466D01*
X110252778Y-83306991D01*
X110223448Y-83342729D01*
X110140186Y-83444186D01*
X110058646Y-83511103D01*
X110002991Y-83556778D01*
X109846466Y-83640443D01*
X109676627Y-83691963D01*
X109610442Y-83698482D01*
X109544260Y-83705000D01*
X109455740Y-83705000D01*
X109389558Y-83698482D01*
X109323373Y-83691963D01*
X109153534Y-83640443D01*
X108997009Y-83556778D01*
X108941354Y-83511103D01*
X108859814Y-83444186D01*
X108776552Y-83342729D01*
X108747222Y-83306991D01*
X108663557Y-83150466D01*
X108612037Y-82980627D01*
X108594641Y-82804000D01*
X108612037Y-82627373D01*
X108663557Y-82457534D01*
X108747222Y-82301009D01*
X108810723Y-82223633D01*
X108859814Y-82163814D01*
X108977763Y-82067017D01*
X108997009Y-82051222D01*
X109153534Y-81967557D01*
X109323373Y-81916037D01*
X109389558Y-81909518D01*
X109455740Y-81903000D01*
X109544260Y-81903000D01*
X109610442Y-81909518D01*
X109610442Y-81909518D01*
G37*
G36*
X115534674Y-82103465D02*
G01*
X115572367Y-82114899D01*
X115607103Y-82133466D01*
X115637548Y-82158452D01*
X115662534Y-82188897D01*
X115681101Y-82223633D01*
X115692535Y-82261326D01*
X115697000Y-82306661D01*
X115697000Y-83393339D01*
X115692535Y-83438674D01*
X115681101Y-83476367D01*
X115662534Y-83511103D01*
X115637548Y-83541548D01*
X115607103Y-83566534D01*
X115572367Y-83585101D01*
X115534674Y-83596535D01*
X115489339Y-83601000D01*
X114652661Y-83601000D01*
X114607326Y-83596535D01*
X114569633Y-83585101D01*
X114534897Y-83566534D01*
X114504452Y-83541548D01*
X114479466Y-83511103D01*
X114460899Y-83476367D01*
X114449465Y-83438674D01*
X114445000Y-83393339D01*
X114445000Y-82306661D01*
X114449465Y-82261326D01*
X114460899Y-82223633D01*
X114479466Y-82188897D01*
X114504452Y-82158452D01*
X114534897Y-82133466D01*
X114569633Y-82114899D01*
X114607326Y-82103465D01*
X114652661Y-82099000D01*
X115489339Y-82099000D01*
X115534674Y-82103465D01*
X115534674Y-82103465D01*
G37*
G36*
X113484674Y-82103465D02*
G01*
X113522367Y-82114899D01*
X113557103Y-82133466D01*
X113587548Y-82158452D01*
X113612534Y-82188897D01*
X113631101Y-82223633D01*
X113642535Y-82261326D01*
X113647000Y-82306661D01*
X113647000Y-83393339D01*
X113642535Y-83438674D01*
X113631101Y-83476367D01*
X113612534Y-83511103D01*
X113587548Y-83541548D01*
X113557103Y-83566534D01*
X113522367Y-83585101D01*
X113484674Y-83596535D01*
X113439339Y-83601000D01*
X112602661Y-83601000D01*
X112557326Y-83596535D01*
X112519633Y-83585101D01*
X112484897Y-83566534D01*
X112454452Y-83541548D01*
X112429466Y-83511103D01*
X112410899Y-83476367D01*
X112399465Y-83438674D01*
X112395000Y-83393339D01*
X112395000Y-82306661D01*
X112399465Y-82261326D01*
X112410899Y-82223633D01*
X112429466Y-82188897D01*
X112454452Y-82158452D01*
X112484897Y-82133466D01*
X112519633Y-82114899D01*
X112557326Y-82103465D01*
X112602661Y-82099000D01*
X113439339Y-82099000D01*
X113484674Y-82103465D01*
X113484674Y-82103465D01*
G37*
G36*
X142588674Y-81903465D02*
G01*
X142626367Y-81914899D01*
X142661103Y-81933466D01*
X142691548Y-81958452D01*
X142716534Y-81988897D01*
X142735101Y-82023633D01*
X142746535Y-82061326D01*
X142751000Y-82106661D01*
X142751000Y-82943339D01*
X142746535Y-82988674D01*
X142735101Y-83026367D01*
X142716534Y-83061103D01*
X142691548Y-83091548D01*
X142661103Y-83116534D01*
X142626367Y-83135101D01*
X142588674Y-83146535D01*
X142543339Y-83151000D01*
X141456661Y-83151000D01*
X141411326Y-83146535D01*
X141373633Y-83135101D01*
X141338897Y-83116534D01*
X141308452Y-83091548D01*
X141283466Y-83061103D01*
X141264899Y-83026367D01*
X141253465Y-82988674D01*
X141249000Y-82943339D01*
X141249000Y-82106661D01*
X141253465Y-82061326D01*
X141264899Y-82023633D01*
X141283466Y-81988897D01*
X141308452Y-81958452D01*
X141338897Y-81933466D01*
X141373633Y-81914899D01*
X141411326Y-81903465D01*
X141456661Y-81899000D01*
X142543339Y-81899000D01*
X142588674Y-81903465D01*
X142588674Y-81903465D01*
G37*
G36*
X134088674Y-81803465D02*
G01*
X134126367Y-81814899D01*
X134161103Y-81833466D01*
X134191548Y-81858452D01*
X134216534Y-81888897D01*
X134235101Y-81923633D01*
X134246535Y-81961326D01*
X134251000Y-82006661D01*
X134251000Y-82843339D01*
X134246535Y-82888674D01*
X134235101Y-82926367D01*
X134216534Y-82961103D01*
X134191548Y-82991548D01*
X134161103Y-83016534D01*
X134126367Y-83035101D01*
X134088674Y-83046535D01*
X134043339Y-83051000D01*
X132956661Y-83051000D01*
X132911326Y-83046535D01*
X132873633Y-83035101D01*
X132838897Y-83016534D01*
X132808452Y-82991548D01*
X132783466Y-82961103D01*
X132764899Y-82926367D01*
X132753465Y-82888674D01*
X132749000Y-82843339D01*
X132749000Y-82006661D01*
X132753465Y-81961326D01*
X132764899Y-81923633D01*
X132783466Y-81888897D01*
X132808452Y-81858452D01*
X132838897Y-81833466D01*
X132873633Y-81814899D01*
X132911326Y-81803465D01*
X132956661Y-81799000D01*
X134043339Y-81799000D01*
X134088674Y-81803465D01*
X134088674Y-81803465D01*
G37*
G36*
X168210915Y-80052934D02*
G01*
X168243424Y-80062795D01*
X168273382Y-80078809D01*
X168299641Y-80100359D01*
X168321191Y-80126618D01*
X168337205Y-80156576D01*
X168347066Y-80189085D01*
X168351000Y-80229029D01*
X168351000Y-81770971D01*
X168347066Y-81810915D01*
X168337205Y-81843424D01*
X168321191Y-81873382D01*
X168299641Y-81899641D01*
X168273382Y-81921191D01*
X168243424Y-81937205D01*
X168210915Y-81947066D01*
X168170971Y-81951000D01*
X164829029Y-81951000D01*
X164789085Y-81947066D01*
X164756576Y-81937205D01*
X164726618Y-81921191D01*
X164700359Y-81899641D01*
X164678809Y-81873382D01*
X164662795Y-81843424D01*
X164652934Y-81810915D01*
X164649000Y-81770971D01*
X164649000Y-80229029D01*
X164652934Y-80189085D01*
X164662795Y-80156576D01*
X164678809Y-80126618D01*
X164700359Y-80100359D01*
X164726618Y-80078809D01*
X164756576Y-80062795D01*
X164789085Y-80052934D01*
X164829029Y-80049000D01*
X168170971Y-80049000D01*
X168210915Y-80052934D01*
X168210915Y-80052934D01*
G37*
G36*
X153301000Y-81951000D02*
G01*
X150699000Y-81951000D01*
X150699000Y-80049000D01*
X153301000Y-80049000D01*
X153301000Y-81951000D01*
X153301000Y-81951000D01*
G37*
G36*
X149301000Y-81951000D02*
G01*
X146699000Y-81951000D01*
X146699000Y-80049000D01*
X149301000Y-80049000D01*
X149301000Y-81951000D01*
X149301000Y-81951000D01*
G37*
G36*
X125896823Y-80187313D02*
G01*
X126057242Y-80235976D01*
X126189906Y-80306886D01*
X126205078Y-80314996D01*
X126334659Y-80421341D01*
X126441004Y-80550922D01*
X126441005Y-80550924D01*
X126520024Y-80698758D01*
X126568687Y-80859177D01*
X126585117Y-81026000D01*
X126568687Y-81192823D01*
X126520024Y-81353242D01*
X126449114Y-81485906D01*
X126441004Y-81501078D01*
X126334659Y-81630659D01*
X126205078Y-81737004D01*
X126205076Y-81737005D01*
X126057242Y-81816024D01*
X125896823Y-81864687D01*
X125771804Y-81877000D01*
X125688196Y-81877000D01*
X125563177Y-81864687D01*
X125402758Y-81816024D01*
X125254924Y-81737005D01*
X125254922Y-81737004D01*
X125125341Y-81630659D01*
X125018996Y-81501078D01*
X125010886Y-81485906D01*
X124939976Y-81353242D01*
X124891313Y-81192823D01*
X124874883Y-81026000D01*
X124891313Y-80859177D01*
X124939976Y-80698758D01*
X125018995Y-80550924D01*
X125018996Y-80550922D01*
X125125341Y-80421341D01*
X125254922Y-80314996D01*
X125270094Y-80306886D01*
X125402758Y-80235976D01*
X125563177Y-80187313D01*
X125688196Y-80175000D01*
X125771804Y-80175000D01*
X125896823Y-80187313D01*
X125896823Y-80187313D01*
G37*
G36*
X118276823Y-80187313D02*
G01*
X118437242Y-80235976D01*
X118569906Y-80306886D01*
X118585078Y-80314996D01*
X118714659Y-80421341D01*
X118821004Y-80550922D01*
X118821005Y-80550924D01*
X118900024Y-80698758D01*
X118948687Y-80859177D01*
X118965117Y-81026000D01*
X118948687Y-81192823D01*
X118900024Y-81353242D01*
X118829114Y-81485906D01*
X118821004Y-81501078D01*
X118714659Y-81630659D01*
X118585078Y-81737004D01*
X118585076Y-81737005D01*
X118437242Y-81816024D01*
X118276823Y-81864687D01*
X118151804Y-81877000D01*
X118068196Y-81877000D01*
X117943177Y-81864687D01*
X117782758Y-81816024D01*
X117634924Y-81737005D01*
X117634922Y-81737004D01*
X117505341Y-81630659D01*
X117398996Y-81501078D01*
X117390886Y-81485906D01*
X117319976Y-81353242D01*
X117271313Y-81192823D01*
X117254883Y-81026000D01*
X117271313Y-80859177D01*
X117319976Y-80698758D01*
X117398995Y-80550924D01*
X117398996Y-80550922D01*
X117505341Y-80421341D01*
X117634922Y-80314996D01*
X117650094Y-80306886D01*
X117782758Y-80235976D01*
X117943177Y-80187313D01*
X118068196Y-80175000D01*
X118151804Y-80175000D01*
X118276823Y-80187313D01*
X118276823Y-80187313D01*
G37*
G36*
X162376000Y-81501000D02*
G01*
X161274000Y-81501000D01*
X161274000Y-80699000D01*
X162376000Y-80699000D01*
X162376000Y-81501000D01*
X162376000Y-81501000D01*
G37*
G36*
X156426000Y-81501000D02*
G01*
X155324000Y-81501000D01*
X155324000Y-80699000D01*
X156426000Y-80699000D01*
X156426000Y-81501000D01*
X156426000Y-81501000D01*
G37*
G36*
X109610442Y-79369518D02*
G01*
X109676627Y-79376037D01*
X109846466Y-79427557D01*
X109846468Y-79427558D01*
X109919624Y-79466661D01*
X110002991Y-79511222D01*
X110027301Y-79531173D01*
X110140186Y-79623814D01*
X110187822Y-79681860D01*
X110252778Y-79761009D01*
X110336443Y-79917534D01*
X110387963Y-80087373D01*
X110405359Y-80264000D01*
X110387963Y-80440627D01*
X110336443Y-80610466D01*
X110252778Y-80766991D01*
X110223448Y-80802729D01*
X110140186Y-80904186D01*
X110052232Y-80976367D01*
X110002991Y-81016778D01*
X109846466Y-81100443D01*
X109676627Y-81151963D01*
X109610443Y-81158481D01*
X109544260Y-81165000D01*
X109455740Y-81165000D01*
X109389557Y-81158481D01*
X109323373Y-81151963D01*
X109153534Y-81100443D01*
X108997009Y-81016778D01*
X108947768Y-80976367D01*
X108859814Y-80904186D01*
X108776552Y-80802729D01*
X108747222Y-80766991D01*
X108663557Y-80610466D01*
X108612037Y-80440627D01*
X108594641Y-80264000D01*
X108612037Y-80087373D01*
X108663557Y-79917534D01*
X108747222Y-79761009D01*
X108812178Y-79681860D01*
X108859814Y-79623814D01*
X108972699Y-79531173D01*
X108997009Y-79511222D01*
X109080376Y-79466661D01*
X109153532Y-79427558D01*
X109153534Y-79427557D01*
X109323373Y-79376037D01*
X109389558Y-79369518D01*
X109455740Y-79363000D01*
X109544260Y-79363000D01*
X109610442Y-79369518D01*
X109610442Y-79369518D01*
G37*
G36*
X142588674Y-79853465D02*
G01*
X142626367Y-79864899D01*
X142661103Y-79883466D01*
X142691548Y-79908452D01*
X142716534Y-79938897D01*
X142735101Y-79973633D01*
X142746535Y-80011326D01*
X142751000Y-80056661D01*
X142751000Y-80893339D01*
X142746535Y-80938674D01*
X142735101Y-80976367D01*
X142716534Y-81011103D01*
X142691548Y-81041548D01*
X142661103Y-81066534D01*
X142626367Y-81085101D01*
X142588674Y-81096535D01*
X142543339Y-81101000D01*
X141456661Y-81101000D01*
X141411326Y-81096535D01*
X141373633Y-81085101D01*
X141338897Y-81066534D01*
X141308452Y-81041548D01*
X141283466Y-81011103D01*
X141264899Y-80976367D01*
X141253465Y-80938674D01*
X141249000Y-80893339D01*
X141249000Y-80056661D01*
X141253465Y-80011326D01*
X141264899Y-79973633D01*
X141283466Y-79938897D01*
X141308452Y-79908452D01*
X141338897Y-79883466D01*
X141373633Y-79864899D01*
X141411326Y-79853465D01*
X141456661Y-79849000D01*
X142543339Y-79849000D01*
X142588674Y-79853465D01*
X142588674Y-79853465D01*
G37*
G36*
X134088674Y-79753465D02*
G01*
X134126367Y-79764899D01*
X134161103Y-79783466D01*
X134191548Y-79808452D01*
X134216534Y-79838897D01*
X134235101Y-79873633D01*
X134246535Y-79911326D01*
X134251000Y-79956661D01*
X134251000Y-80793339D01*
X134246535Y-80838674D01*
X134235101Y-80876367D01*
X134216534Y-80911103D01*
X134191548Y-80941548D01*
X134161103Y-80966534D01*
X134126367Y-80985101D01*
X134088674Y-80996535D01*
X134043339Y-81001000D01*
X132956661Y-81001000D01*
X132911326Y-80996535D01*
X132873633Y-80985101D01*
X132838897Y-80966534D01*
X132808452Y-80941548D01*
X132783466Y-80911103D01*
X132764899Y-80876367D01*
X132753465Y-80838674D01*
X132749000Y-80793339D01*
X132749000Y-79956661D01*
X132753465Y-79911326D01*
X132764899Y-79873633D01*
X132783466Y-79838897D01*
X132808452Y-79808452D01*
X132838897Y-79783466D01*
X132873633Y-79764899D01*
X132911326Y-79753465D01*
X132956661Y-79749000D01*
X134043339Y-79749000D01*
X134088674Y-79753465D01*
X134088674Y-79753465D01*
G37*
G36*
X115534674Y-79263465D02*
G01*
X115572367Y-79274899D01*
X115607103Y-79293466D01*
X115637548Y-79318452D01*
X115662534Y-79348897D01*
X115681101Y-79383633D01*
X115692535Y-79421326D01*
X115697000Y-79466661D01*
X115697000Y-80553339D01*
X115692535Y-80598674D01*
X115681101Y-80636367D01*
X115662534Y-80671103D01*
X115637548Y-80701548D01*
X115607103Y-80726534D01*
X115572367Y-80745101D01*
X115534674Y-80756535D01*
X115489339Y-80761000D01*
X114652661Y-80761000D01*
X114607326Y-80756535D01*
X114569633Y-80745101D01*
X114534897Y-80726534D01*
X114504452Y-80701548D01*
X114479466Y-80671103D01*
X114460899Y-80636367D01*
X114449465Y-80598674D01*
X114445000Y-80553339D01*
X114445000Y-79466661D01*
X114449465Y-79421326D01*
X114460899Y-79383633D01*
X114479466Y-79348897D01*
X114504452Y-79318452D01*
X114534897Y-79293466D01*
X114569633Y-79274899D01*
X114607326Y-79263465D01*
X114652661Y-79259000D01*
X115489339Y-79259000D01*
X115534674Y-79263465D01*
X115534674Y-79263465D01*
G37*
G36*
X113484674Y-79263465D02*
G01*
X113522367Y-79274899D01*
X113557103Y-79293466D01*
X113587548Y-79318452D01*
X113612534Y-79348897D01*
X113631101Y-79383633D01*
X113642535Y-79421326D01*
X113647000Y-79466661D01*
X113647000Y-80553339D01*
X113642535Y-80598674D01*
X113631101Y-80636367D01*
X113612534Y-80671103D01*
X113587548Y-80701548D01*
X113557103Y-80726534D01*
X113522367Y-80745101D01*
X113484674Y-80756535D01*
X113439339Y-80761000D01*
X112602661Y-80761000D01*
X112557326Y-80756535D01*
X112519633Y-80745101D01*
X112484897Y-80726534D01*
X112454452Y-80701548D01*
X112429466Y-80671103D01*
X112410899Y-80636367D01*
X112399465Y-80598674D01*
X112395000Y-80553339D01*
X112395000Y-79466661D01*
X112399465Y-79421326D01*
X112410899Y-79383633D01*
X112429466Y-79348897D01*
X112454452Y-79318452D01*
X112484897Y-79293466D01*
X112519633Y-79274899D01*
X112557326Y-79263465D01*
X112602661Y-79259000D01*
X113439339Y-79259000D01*
X113484674Y-79263465D01*
X113484674Y-79263465D01*
G37*
G36*
X129928674Y-79433465D02*
G01*
X129966367Y-79444899D01*
X130001103Y-79463466D01*
X130031548Y-79488452D01*
X130056534Y-79518897D01*
X130075101Y-79553633D01*
X130086535Y-79591326D01*
X130091000Y-79636661D01*
X130091000Y-80473339D01*
X130086535Y-80518674D01*
X130075101Y-80556367D01*
X130056534Y-80591103D01*
X130031548Y-80621548D01*
X130001103Y-80646534D01*
X129966367Y-80665101D01*
X129928674Y-80676535D01*
X129883339Y-80681000D01*
X128796661Y-80681000D01*
X128751326Y-80676535D01*
X128713633Y-80665101D01*
X128678897Y-80646534D01*
X128648452Y-80621548D01*
X128623466Y-80591103D01*
X128604899Y-80556367D01*
X128593465Y-80518674D01*
X128589000Y-80473339D01*
X128589000Y-79636661D01*
X128593465Y-79591326D01*
X128604899Y-79553633D01*
X128623466Y-79518897D01*
X128648452Y-79488452D01*
X128678897Y-79463466D01*
X128713633Y-79444899D01*
X128751326Y-79433465D01*
X128796661Y-79429000D01*
X129883339Y-79429000D01*
X129928674Y-79433465D01*
X129928674Y-79433465D01*
G37*
G36*
X140164928Y-77751764D02*
G01*
X140186009Y-77758160D01*
X140205445Y-77768548D01*
X140222476Y-77782524D01*
X140236452Y-77799555D01*
X140246840Y-77818991D01*
X140253236Y-77840072D01*
X140256000Y-77868140D01*
X140256000Y-79681860D01*
X140253236Y-79709928D01*
X140246840Y-79731009D01*
X140236452Y-79750445D01*
X140222476Y-79767476D01*
X140205445Y-79781452D01*
X140186009Y-79791840D01*
X140164928Y-79798236D01*
X140136860Y-79801000D01*
X139673140Y-79801000D01*
X139645072Y-79798236D01*
X139623991Y-79791840D01*
X139604555Y-79781452D01*
X139587524Y-79767476D01*
X139573548Y-79750445D01*
X139563160Y-79731009D01*
X139556764Y-79709928D01*
X139554000Y-79681860D01*
X139554000Y-77868140D01*
X139556764Y-77840072D01*
X139563160Y-77818991D01*
X139573548Y-77799555D01*
X139587524Y-77782524D01*
X139604555Y-77768548D01*
X139623991Y-77758160D01*
X139645072Y-77751764D01*
X139673140Y-77749000D01*
X140136860Y-77749000D01*
X140164928Y-77751764D01*
X140164928Y-77751764D01*
G37*
G36*
X138894928Y-77751764D02*
G01*
X138916009Y-77758160D01*
X138935445Y-77768548D01*
X138952476Y-77782524D01*
X138966452Y-77799555D01*
X138976840Y-77818991D01*
X138983236Y-77840072D01*
X138986000Y-77868140D01*
X138986000Y-79681860D01*
X138983236Y-79709928D01*
X138976840Y-79731009D01*
X138966452Y-79750445D01*
X138952476Y-79767476D01*
X138935445Y-79781452D01*
X138916009Y-79791840D01*
X138894928Y-79798236D01*
X138866860Y-79801000D01*
X138403140Y-79801000D01*
X138375072Y-79798236D01*
X138353991Y-79791840D01*
X138334555Y-79781452D01*
X138317524Y-79767476D01*
X138303548Y-79750445D01*
X138293160Y-79731009D01*
X138286764Y-79709928D01*
X138284000Y-79681860D01*
X138284000Y-77868140D01*
X138286764Y-77840072D01*
X138293160Y-77818991D01*
X138303548Y-77799555D01*
X138317524Y-77782524D01*
X138334555Y-77768548D01*
X138353991Y-77758160D01*
X138375072Y-77751764D01*
X138403140Y-77749000D01*
X138866860Y-77749000D01*
X138894928Y-77751764D01*
X138894928Y-77751764D01*
G37*
G36*
X137624928Y-77751764D02*
G01*
X137646009Y-77758160D01*
X137665445Y-77768548D01*
X137682476Y-77782524D01*
X137696452Y-77799555D01*
X137706840Y-77818991D01*
X137713236Y-77840072D01*
X137716000Y-77868140D01*
X137716000Y-79681860D01*
X137713236Y-79709928D01*
X137706840Y-79731009D01*
X137696452Y-79750445D01*
X137682476Y-79767476D01*
X137665445Y-79781452D01*
X137646009Y-79791840D01*
X137624928Y-79798236D01*
X137596860Y-79801000D01*
X137133140Y-79801000D01*
X137105072Y-79798236D01*
X137083991Y-79791840D01*
X137064555Y-79781452D01*
X137047524Y-79767476D01*
X137033548Y-79750445D01*
X137023160Y-79731009D01*
X137016764Y-79709928D01*
X137014000Y-79681860D01*
X137014000Y-77868140D01*
X137016764Y-77840072D01*
X137023160Y-77818991D01*
X137033548Y-77799555D01*
X137047524Y-77782524D01*
X137064555Y-77768548D01*
X137083991Y-77758160D01*
X137105072Y-77751764D01*
X137133140Y-77749000D01*
X137596860Y-77749000D01*
X137624928Y-77751764D01*
X137624928Y-77751764D01*
G37*
G36*
X136354928Y-77751764D02*
G01*
X136376009Y-77758160D01*
X136395445Y-77768548D01*
X136412476Y-77782524D01*
X136426452Y-77799555D01*
X136436840Y-77818991D01*
X136443236Y-77840072D01*
X136446000Y-77868140D01*
X136446000Y-79681860D01*
X136443236Y-79709928D01*
X136436840Y-79731009D01*
X136426452Y-79750445D01*
X136412476Y-79767476D01*
X136395445Y-79781452D01*
X136376009Y-79791840D01*
X136354928Y-79798236D01*
X136326860Y-79801000D01*
X135863140Y-79801000D01*
X135835072Y-79798236D01*
X135813991Y-79791840D01*
X135794555Y-79781452D01*
X135777524Y-79767476D01*
X135763548Y-79750445D01*
X135753160Y-79731009D01*
X135746764Y-79709928D01*
X135744000Y-79681860D01*
X135744000Y-77868140D01*
X135746764Y-77840072D01*
X135753160Y-77818991D01*
X135763548Y-77799555D01*
X135777524Y-77782524D01*
X135794555Y-77768548D01*
X135813991Y-77758160D01*
X135835072Y-77751764D01*
X135863140Y-77749000D01*
X136326860Y-77749000D01*
X136354928Y-77751764D01*
X136354928Y-77751764D01*
G37*
G36*
X129928674Y-77383465D02*
G01*
X129966367Y-77394899D01*
X130001103Y-77413466D01*
X130031548Y-77438452D01*
X130056534Y-77468897D01*
X130075101Y-77503633D01*
X130086535Y-77541326D01*
X130091000Y-77586661D01*
X130091000Y-78423339D01*
X130086535Y-78468674D01*
X130075101Y-78506367D01*
X130056534Y-78541103D01*
X130031548Y-78571548D01*
X130001103Y-78596534D01*
X129966367Y-78615101D01*
X129928674Y-78626535D01*
X129883339Y-78631000D01*
X128796661Y-78631000D01*
X128751326Y-78626535D01*
X128713633Y-78615101D01*
X128678897Y-78596534D01*
X128648452Y-78571548D01*
X128623466Y-78541103D01*
X128604899Y-78506367D01*
X128593465Y-78468674D01*
X128589000Y-78423339D01*
X128589000Y-77586661D01*
X128593465Y-77541326D01*
X128604899Y-77503633D01*
X128623466Y-77468897D01*
X128648452Y-77438452D01*
X128678897Y-77413466D01*
X128713633Y-77394899D01*
X128751326Y-77383465D01*
X128796661Y-77379000D01*
X129883339Y-77379000D01*
X129928674Y-77383465D01*
X129928674Y-77383465D01*
G37*
G36*
X109602315Y-76828718D02*
G01*
X109676627Y-76836037D01*
X109846466Y-76887557D01*
X109846468Y-76887558D01*
X109890934Y-76911326D01*
X110002991Y-76971222D01*
X110038729Y-77000552D01*
X110140186Y-77083814D01*
X110223448Y-77185271D01*
X110252778Y-77221009D01*
X110336443Y-77377534D01*
X110387963Y-77547373D01*
X110405359Y-77724000D01*
X110387963Y-77900627D01*
X110341229Y-78054687D01*
X110336442Y-78070468D01*
X110326711Y-78088674D01*
X110252778Y-78226991D01*
X110233074Y-78251000D01*
X110140186Y-78364186D01*
X110038729Y-78447448D01*
X110002991Y-78476778D01*
X109846466Y-78560443D01*
X109676627Y-78611963D01*
X109610442Y-78618482D01*
X109544260Y-78625000D01*
X109455740Y-78625000D01*
X109389558Y-78618482D01*
X109323373Y-78611963D01*
X109153534Y-78560443D01*
X108997009Y-78476778D01*
X108961271Y-78447448D01*
X108859814Y-78364186D01*
X108766926Y-78251000D01*
X108747222Y-78226991D01*
X108673289Y-78088674D01*
X108663558Y-78070468D01*
X108658771Y-78054687D01*
X108612037Y-77900627D01*
X108594641Y-77724000D01*
X108612037Y-77547373D01*
X108663557Y-77377534D01*
X108747222Y-77221009D01*
X108776552Y-77185271D01*
X108859814Y-77083814D01*
X108961271Y-77000552D01*
X108997009Y-76971222D01*
X109109066Y-76911326D01*
X109153532Y-76887558D01*
X109153534Y-76887557D01*
X109323373Y-76836037D01*
X109397685Y-76828718D01*
X109455740Y-76823000D01*
X109544260Y-76823000D01*
X109602315Y-76828718D01*
X109602315Y-76828718D01*
G37*
G36*
X113484674Y-76853465D02*
G01*
X113522367Y-76864899D01*
X113557103Y-76883466D01*
X113587548Y-76908452D01*
X113612534Y-76938897D01*
X113631101Y-76973633D01*
X113642535Y-77011326D01*
X113647000Y-77056661D01*
X113647000Y-78143339D01*
X113642535Y-78188674D01*
X113631101Y-78226367D01*
X113612534Y-78261103D01*
X113587548Y-78291548D01*
X113557103Y-78316534D01*
X113522367Y-78335101D01*
X113484674Y-78346535D01*
X113439339Y-78351000D01*
X112602661Y-78351000D01*
X112557326Y-78346535D01*
X112519633Y-78335101D01*
X112484897Y-78316534D01*
X112454452Y-78291548D01*
X112429466Y-78261103D01*
X112410899Y-78226367D01*
X112399465Y-78188674D01*
X112395000Y-78143339D01*
X112395000Y-77056661D01*
X112399465Y-77011326D01*
X112410899Y-76973633D01*
X112429466Y-76938897D01*
X112454452Y-76908452D01*
X112484897Y-76883466D01*
X112519633Y-76864899D01*
X112557326Y-76853465D01*
X112602661Y-76849000D01*
X113439339Y-76849000D01*
X113484674Y-76853465D01*
X113484674Y-76853465D01*
G37*
G36*
X115534674Y-76853465D02*
G01*
X115572367Y-76864899D01*
X115607103Y-76883466D01*
X115637548Y-76908452D01*
X115662534Y-76938897D01*
X115681101Y-76973633D01*
X115692535Y-77011326D01*
X115697000Y-77056661D01*
X115697000Y-78143339D01*
X115692535Y-78188674D01*
X115681101Y-78226367D01*
X115662534Y-78261103D01*
X115637548Y-78291548D01*
X115607103Y-78316534D01*
X115572367Y-78335101D01*
X115534674Y-78346535D01*
X115489339Y-78351000D01*
X114652661Y-78351000D01*
X114607326Y-78346535D01*
X114569633Y-78335101D01*
X114534897Y-78316534D01*
X114504452Y-78291548D01*
X114479466Y-78261103D01*
X114460899Y-78226367D01*
X114449465Y-78188674D01*
X114445000Y-78143339D01*
X114445000Y-77056661D01*
X114449465Y-77011326D01*
X114460899Y-76973633D01*
X114479466Y-76938897D01*
X114504452Y-76908452D01*
X114534897Y-76883466D01*
X114569633Y-76864899D01*
X114607326Y-76853465D01*
X114652661Y-76849000D01*
X115489339Y-76849000D01*
X115534674Y-76853465D01*
X115534674Y-76853465D01*
G37*
G36*
X149438674Y-76753465D02*
G01*
X149476367Y-76764899D01*
X149511103Y-76783466D01*
X149541548Y-76808452D01*
X149566534Y-76838897D01*
X149585101Y-76873633D01*
X149596535Y-76911326D01*
X149601000Y-76956661D01*
X149601000Y-78043339D01*
X149596535Y-78088674D01*
X149585101Y-78126367D01*
X149566534Y-78161103D01*
X149541548Y-78191548D01*
X149511103Y-78216534D01*
X149476367Y-78235101D01*
X149438674Y-78246535D01*
X149393339Y-78251000D01*
X148556661Y-78251000D01*
X148511326Y-78246535D01*
X148473633Y-78235101D01*
X148438897Y-78216534D01*
X148408452Y-78191548D01*
X148383466Y-78161103D01*
X148364899Y-78126367D01*
X148353465Y-78088674D01*
X148349000Y-78043339D01*
X148349000Y-76956661D01*
X148353465Y-76911326D01*
X148364899Y-76873633D01*
X148383466Y-76838897D01*
X148408452Y-76808452D01*
X148438897Y-76783466D01*
X148473633Y-76764899D01*
X148511326Y-76753465D01*
X148556661Y-76749000D01*
X149393339Y-76749000D01*
X149438674Y-76753465D01*
X149438674Y-76753465D01*
G37*
G36*
X151488674Y-76753465D02*
G01*
X151526367Y-76764899D01*
X151561103Y-76783466D01*
X151591548Y-76808452D01*
X151616534Y-76838897D01*
X151635101Y-76873633D01*
X151646535Y-76911326D01*
X151651000Y-76956661D01*
X151651000Y-78043339D01*
X151646535Y-78088674D01*
X151635101Y-78126367D01*
X151616534Y-78161103D01*
X151591548Y-78191548D01*
X151561103Y-78216534D01*
X151526367Y-78235101D01*
X151488674Y-78246535D01*
X151443339Y-78251000D01*
X150606661Y-78251000D01*
X150561326Y-78246535D01*
X150523633Y-78235101D01*
X150488897Y-78216534D01*
X150458452Y-78191548D01*
X150433466Y-78161103D01*
X150414899Y-78126367D01*
X150403465Y-78088674D01*
X150399000Y-78043339D01*
X150399000Y-76956661D01*
X150403465Y-76911326D01*
X150414899Y-76873633D01*
X150433466Y-76838897D01*
X150458452Y-76808452D01*
X150488897Y-76783466D01*
X150523633Y-76764899D01*
X150561326Y-76753465D01*
X150606661Y-76749000D01*
X151443339Y-76749000D01*
X151488674Y-76753465D01*
X151488674Y-76753465D01*
G37*
G36*
X167586425Y-76252760D02*
G01*
X167586428Y-76252761D01*
X167586429Y-76252761D01*
X167765693Y-76307140D01*
X167765696Y-76307142D01*
X167765697Y-76307142D01*
X167930903Y-76395446D01*
X168075712Y-76514288D01*
X168194554Y-76659097D01*
X168282858Y-76824303D01*
X168282860Y-76824307D01*
X168327426Y-76971222D01*
X168337240Y-77003575D01*
X168355601Y-77190000D01*
X168337240Y-77376425D01*
X168337239Y-77376428D01*
X168337239Y-77376429D01*
X168282860Y-77555693D01*
X168282858Y-77555696D01*
X168282858Y-77555697D01*
X168194554Y-77720903D01*
X168075712Y-77865712D01*
X167930903Y-77984554D01*
X167770172Y-78070466D01*
X167765693Y-78072860D01*
X167586429Y-78127239D01*
X167586428Y-78127239D01*
X167586425Y-78127240D01*
X167446718Y-78141000D01*
X165553282Y-78141000D01*
X165413575Y-78127240D01*
X165413572Y-78127239D01*
X165413571Y-78127239D01*
X165234307Y-78072860D01*
X165229828Y-78070466D01*
X165069097Y-77984554D01*
X164924288Y-77865712D01*
X164805446Y-77720903D01*
X164717142Y-77555697D01*
X164717142Y-77555696D01*
X164717140Y-77555693D01*
X164662761Y-77376429D01*
X164662761Y-77376428D01*
X164662760Y-77376425D01*
X164644399Y-77190000D01*
X164662760Y-77003575D01*
X164672574Y-76971222D01*
X164717140Y-76824307D01*
X164717142Y-76824303D01*
X164805446Y-76659097D01*
X164924288Y-76514288D01*
X165069097Y-76395446D01*
X165234303Y-76307142D01*
X165234304Y-76307142D01*
X165234307Y-76307140D01*
X165413571Y-76252761D01*
X165413572Y-76252761D01*
X165413575Y-76252760D01*
X165553282Y-76239000D01*
X167446718Y-76239000D01*
X167586425Y-76252760D01*
X167586425Y-76252760D01*
G37*
G36*
X118276823Y-76377313D02*
G01*
X118437242Y-76425976D01*
X118569906Y-76496886D01*
X118585078Y-76504996D01*
X118714659Y-76611341D01*
X118821004Y-76740922D01*
X118821005Y-76740924D01*
X118900024Y-76888758D01*
X118948687Y-77049177D01*
X118965117Y-77216000D01*
X118948687Y-77382823D01*
X118900024Y-77543242D01*
X118876816Y-77586661D01*
X118821004Y-77691078D01*
X118714659Y-77820659D01*
X118585078Y-77927004D01*
X118585076Y-77927005D01*
X118437242Y-78006024D01*
X118276823Y-78054687D01*
X118151804Y-78067000D01*
X118068196Y-78067000D01*
X117943177Y-78054687D01*
X117782758Y-78006024D01*
X117634924Y-77927005D01*
X117634922Y-77927004D01*
X117505341Y-77820659D01*
X117398996Y-77691078D01*
X117343184Y-77586661D01*
X117319976Y-77543242D01*
X117271313Y-77382823D01*
X117254883Y-77216000D01*
X117271313Y-77049177D01*
X117319976Y-76888758D01*
X117398995Y-76740924D01*
X117398996Y-76740922D01*
X117505341Y-76611341D01*
X117634922Y-76504996D01*
X117650094Y-76496886D01*
X117782758Y-76425976D01*
X117943177Y-76377313D01*
X118068196Y-76365000D01*
X118151804Y-76365000D01*
X118276823Y-76377313D01*
X118276823Y-76377313D01*
G37*
G36*
X125896823Y-76377313D02*
G01*
X126057242Y-76425976D01*
X126189906Y-76496886D01*
X126205078Y-76504996D01*
X126334659Y-76611341D01*
X126441004Y-76740922D01*
X126441005Y-76740924D01*
X126520024Y-76888758D01*
X126568687Y-77049177D01*
X126585117Y-77216000D01*
X126568687Y-77382823D01*
X126520024Y-77543242D01*
X126496816Y-77586661D01*
X126441004Y-77691078D01*
X126334659Y-77820659D01*
X126205078Y-77927004D01*
X126205076Y-77927005D01*
X126057242Y-78006024D01*
X125896823Y-78054687D01*
X125771804Y-78067000D01*
X125688196Y-78067000D01*
X125563177Y-78054687D01*
X125402758Y-78006024D01*
X125254924Y-77927005D01*
X125254922Y-77927004D01*
X125125341Y-77820659D01*
X125018996Y-77691078D01*
X124963184Y-77586661D01*
X124939976Y-77543242D01*
X124891313Y-77382823D01*
X124874883Y-77216000D01*
X124891313Y-77049177D01*
X124939976Y-76888758D01*
X125018995Y-76740924D01*
X125018996Y-76740922D01*
X125125341Y-76611341D01*
X125254922Y-76504996D01*
X125270094Y-76496886D01*
X125402758Y-76425976D01*
X125563177Y-76377313D01*
X125688196Y-76365000D01*
X125771804Y-76365000D01*
X125896823Y-76377313D01*
X125896823Y-76377313D01*
G37*
G36*
X156426000Y-77501000D02*
G01*
X155324000Y-77501000D01*
X155324000Y-76699000D01*
X156426000Y-76699000D01*
X156426000Y-77501000D01*
X156426000Y-77501000D01*
G37*
G36*
X162376000Y-77501000D02*
G01*
X161274000Y-77501000D01*
X161274000Y-76699000D01*
X162376000Y-76699000D01*
X162376000Y-77501000D01*
X162376000Y-77501000D01*
G37*
G36*
X109610442Y-74289518D02*
G01*
X109676627Y-74296037D01*
X109846466Y-74347557D01*
X110002991Y-74431222D01*
X110028889Y-74452476D01*
X110140186Y-74543814D01*
X110223448Y-74645271D01*
X110252778Y-74681009D01*
X110336443Y-74837534D01*
X110387963Y-75007373D01*
X110405359Y-75184000D01*
X110387963Y-75360627D01*
X110336443Y-75530466D01*
X110252778Y-75686991D01*
X110238329Y-75704597D01*
X110140186Y-75824186D01*
X110038729Y-75907448D01*
X110002991Y-75936778D01*
X109846466Y-76020443D01*
X109676627Y-76071963D01*
X109610443Y-76078481D01*
X109544260Y-76085000D01*
X109455740Y-76085000D01*
X109389557Y-76078481D01*
X109323373Y-76071963D01*
X109153534Y-76020443D01*
X108997009Y-75936778D01*
X108961271Y-75907448D01*
X108859814Y-75824186D01*
X108761671Y-75704597D01*
X108747222Y-75686991D01*
X108663557Y-75530466D01*
X108612037Y-75360627D01*
X108594641Y-75184000D01*
X108612037Y-75007373D01*
X108663557Y-74837534D01*
X108747222Y-74681009D01*
X108776552Y-74645271D01*
X108859814Y-74543814D01*
X108971111Y-74452476D01*
X108997009Y-74431222D01*
X109153534Y-74347557D01*
X109323373Y-74296037D01*
X109389558Y-74289518D01*
X109455740Y-74283000D01*
X109544260Y-74283000D01*
X109610442Y-74289518D01*
X109610442Y-74289518D01*
G37*
G36*
X153659928Y-75056764D02*
G01*
X153681009Y-75063160D01*
X153700445Y-75073548D01*
X153717476Y-75087524D01*
X153731452Y-75104555D01*
X153741840Y-75123991D01*
X153748236Y-75145072D01*
X153751000Y-75173140D01*
X153751000Y-75636860D01*
X153748236Y-75664928D01*
X153741840Y-75686009D01*
X153731452Y-75705445D01*
X153717476Y-75722476D01*
X153700445Y-75736452D01*
X153681009Y-75746840D01*
X153659928Y-75753236D01*
X153631860Y-75756000D01*
X151818140Y-75756000D01*
X151790072Y-75753236D01*
X151768991Y-75746840D01*
X151749555Y-75736452D01*
X151732524Y-75722476D01*
X151718548Y-75705445D01*
X151708160Y-75686009D01*
X151701764Y-75664928D01*
X151699000Y-75636860D01*
X151699000Y-75173140D01*
X151701764Y-75145072D01*
X151708160Y-75123991D01*
X151718548Y-75104555D01*
X151732524Y-75087524D01*
X151749555Y-75073548D01*
X151768991Y-75063160D01*
X151790072Y-75056764D01*
X151818140Y-75054000D01*
X153631860Y-75054000D01*
X153659928Y-75056764D01*
X153659928Y-75056764D01*
G37*
G36*
X148709928Y-75056764D02*
G01*
X148731009Y-75063160D01*
X148750445Y-75073548D01*
X148767476Y-75087524D01*
X148781452Y-75104555D01*
X148791840Y-75123991D01*
X148798236Y-75145072D01*
X148801000Y-75173140D01*
X148801000Y-75636860D01*
X148798236Y-75664928D01*
X148791840Y-75686009D01*
X148781452Y-75705445D01*
X148767476Y-75722476D01*
X148750445Y-75736452D01*
X148731009Y-75746840D01*
X148709928Y-75753236D01*
X148681860Y-75756000D01*
X146868140Y-75756000D01*
X146840072Y-75753236D01*
X146818991Y-75746840D01*
X146799555Y-75736452D01*
X146782524Y-75722476D01*
X146768548Y-75705445D01*
X146758160Y-75686009D01*
X146751764Y-75664928D01*
X146749000Y-75636860D01*
X146749000Y-75173140D01*
X146751764Y-75145072D01*
X146758160Y-75123991D01*
X146768548Y-75104555D01*
X146782524Y-75087524D01*
X146799555Y-75073548D01*
X146818991Y-75063160D01*
X146840072Y-75056764D01*
X146868140Y-75054000D01*
X148681860Y-75054000D01*
X148709928Y-75056764D01*
X148709928Y-75056764D01*
G37*
G36*
X145088674Y-74403465D02*
G01*
X145126367Y-74414899D01*
X145161103Y-74433466D01*
X145191548Y-74458452D01*
X145216534Y-74488897D01*
X145235101Y-74523633D01*
X145246535Y-74561326D01*
X145251000Y-74606661D01*
X145251000Y-75443339D01*
X145246535Y-75488674D01*
X145235101Y-75526367D01*
X145216534Y-75561103D01*
X145191548Y-75591548D01*
X145161103Y-75616534D01*
X145126367Y-75635101D01*
X145088674Y-75646535D01*
X145043339Y-75651000D01*
X143956661Y-75651000D01*
X143911326Y-75646535D01*
X143873633Y-75635101D01*
X143838897Y-75616534D01*
X143808452Y-75591548D01*
X143783466Y-75561103D01*
X143764899Y-75526367D01*
X143753465Y-75488674D01*
X143749000Y-75443339D01*
X143749000Y-74606661D01*
X143753465Y-74561326D01*
X143764899Y-74523633D01*
X143783466Y-74488897D01*
X143808452Y-74458452D01*
X143838897Y-74433466D01*
X143873633Y-74414899D01*
X143911326Y-74403465D01*
X143956661Y-74399000D01*
X145043339Y-74399000D01*
X145088674Y-74403465D01*
X145088674Y-74403465D01*
G37*
G36*
X118276823Y-73837313D02*
G01*
X118437242Y-73885976D01*
X118536250Y-73938897D01*
X118585078Y-73964996D01*
X118714659Y-74071341D01*
X118821004Y-74200922D01*
X118821005Y-74200924D01*
X118900024Y-74348758D01*
X118948687Y-74509177D01*
X118965117Y-74676000D01*
X118948687Y-74842823D01*
X118900024Y-75003242D01*
X118845871Y-75104555D01*
X118821004Y-75151078D01*
X118714659Y-75280659D01*
X118585078Y-75387004D01*
X118585076Y-75387005D01*
X118437242Y-75466024D01*
X118276823Y-75514687D01*
X118151804Y-75527000D01*
X118068196Y-75527000D01*
X117943177Y-75514687D01*
X117782758Y-75466024D01*
X117634924Y-75387005D01*
X117634922Y-75387004D01*
X117505341Y-75280659D01*
X117398996Y-75151078D01*
X117374129Y-75104555D01*
X117319976Y-75003242D01*
X117271313Y-74842823D01*
X117254883Y-74676000D01*
X117271313Y-74509177D01*
X117319976Y-74348758D01*
X117398995Y-74200924D01*
X117398996Y-74200922D01*
X117505341Y-74071341D01*
X117634922Y-73964996D01*
X117683750Y-73938897D01*
X117782758Y-73885976D01*
X117943177Y-73837313D01*
X118068196Y-73825000D01*
X118151804Y-73825000D01*
X118276823Y-73837313D01*
X118276823Y-73837313D01*
G37*
G36*
X125896823Y-73837313D02*
G01*
X126057242Y-73885976D01*
X126156250Y-73938897D01*
X126205078Y-73964996D01*
X126334659Y-74071341D01*
X126441004Y-74200922D01*
X126441005Y-74200924D01*
X126520024Y-74348758D01*
X126568687Y-74509177D01*
X126585117Y-74676000D01*
X126568687Y-74842823D01*
X126520024Y-75003242D01*
X126465871Y-75104555D01*
X126441004Y-75151078D01*
X126334659Y-75280659D01*
X126205078Y-75387004D01*
X126205076Y-75387005D01*
X126057242Y-75466024D01*
X125896823Y-75514687D01*
X125771804Y-75527000D01*
X125688196Y-75527000D01*
X125563177Y-75514687D01*
X125402758Y-75466024D01*
X125254924Y-75387005D01*
X125254922Y-75387004D01*
X125125341Y-75280659D01*
X125018996Y-75151078D01*
X124994129Y-75104555D01*
X124939976Y-75003242D01*
X124891313Y-74842823D01*
X124874883Y-74676000D01*
X124891313Y-74509177D01*
X124939976Y-74348758D01*
X125018995Y-74200924D01*
X125018996Y-74200922D01*
X125125341Y-74071341D01*
X125254922Y-73964996D01*
X125303750Y-73938897D01*
X125402758Y-73885976D01*
X125563177Y-73837313D01*
X125688196Y-73825000D01*
X125771804Y-73825000D01*
X125896823Y-73837313D01*
X125896823Y-73837313D01*
G37*
G36*
X129488674Y-73853465D02*
G01*
X129526367Y-73864899D01*
X129561103Y-73883466D01*
X129591548Y-73908452D01*
X129616534Y-73938897D01*
X129635101Y-73973633D01*
X129646535Y-74011326D01*
X129651000Y-74056661D01*
X129651000Y-75143339D01*
X129646535Y-75188674D01*
X129635101Y-75226367D01*
X129616534Y-75261103D01*
X129591548Y-75291548D01*
X129561103Y-75316534D01*
X129526367Y-75335101D01*
X129488674Y-75346535D01*
X129443339Y-75351000D01*
X128606661Y-75351000D01*
X128561326Y-75346535D01*
X128523633Y-75335101D01*
X128488897Y-75316534D01*
X128458452Y-75291548D01*
X128433466Y-75261103D01*
X128414899Y-75226367D01*
X128403465Y-75188674D01*
X128399000Y-75143339D01*
X128399000Y-74056661D01*
X128403465Y-74011326D01*
X128414899Y-73973633D01*
X128433466Y-73938897D01*
X128458452Y-73908452D01*
X128488897Y-73883466D01*
X128523633Y-73864899D01*
X128561326Y-73853465D01*
X128606661Y-73849000D01*
X129443339Y-73849000D01*
X129488674Y-73853465D01*
X129488674Y-73853465D01*
G37*
G36*
X131538674Y-73853465D02*
G01*
X131576367Y-73864899D01*
X131611103Y-73883466D01*
X131641548Y-73908452D01*
X131666534Y-73938897D01*
X131685101Y-73973633D01*
X131696535Y-74011326D01*
X131701000Y-74056661D01*
X131701000Y-75143339D01*
X131696535Y-75188674D01*
X131685101Y-75226367D01*
X131666534Y-75261103D01*
X131641548Y-75291548D01*
X131611103Y-75316534D01*
X131576367Y-75335101D01*
X131538674Y-75346535D01*
X131493339Y-75351000D01*
X130656661Y-75351000D01*
X130611326Y-75346535D01*
X130573633Y-75335101D01*
X130538897Y-75316534D01*
X130508452Y-75291548D01*
X130483466Y-75261103D01*
X130464899Y-75226367D01*
X130453465Y-75188674D01*
X130449000Y-75143339D01*
X130449000Y-74056661D01*
X130453465Y-74011326D01*
X130464899Y-73973633D01*
X130483466Y-73938897D01*
X130508452Y-73908452D01*
X130538897Y-73883466D01*
X130573633Y-73864899D01*
X130611326Y-73853465D01*
X130656661Y-73849000D01*
X131493339Y-73849000D01*
X131538674Y-73853465D01*
X131538674Y-73853465D01*
G37*
G36*
X136188674Y-73853465D02*
G01*
X136226367Y-73864899D01*
X136261103Y-73883466D01*
X136291548Y-73908452D01*
X136316534Y-73938897D01*
X136335101Y-73973633D01*
X136346535Y-74011326D01*
X136351000Y-74056661D01*
X136351000Y-75143339D01*
X136346535Y-75188674D01*
X136335101Y-75226367D01*
X136316534Y-75261103D01*
X136291548Y-75291548D01*
X136261103Y-75316534D01*
X136226367Y-75335101D01*
X136188674Y-75346535D01*
X136143339Y-75351000D01*
X135306661Y-75351000D01*
X135261326Y-75346535D01*
X135223633Y-75335101D01*
X135188897Y-75316534D01*
X135158452Y-75291548D01*
X135133466Y-75261103D01*
X135114899Y-75226367D01*
X135103465Y-75188674D01*
X135099000Y-75143339D01*
X135099000Y-74056661D01*
X135103465Y-74011326D01*
X135114899Y-73973633D01*
X135133466Y-73938897D01*
X135158452Y-73908452D01*
X135188897Y-73883466D01*
X135223633Y-73864899D01*
X135261326Y-73853465D01*
X135306661Y-73849000D01*
X136143339Y-73849000D01*
X136188674Y-73853465D01*
X136188674Y-73853465D01*
G37*
G36*
X134138674Y-73853465D02*
G01*
X134176367Y-73864899D01*
X134211103Y-73883466D01*
X134241548Y-73908452D01*
X134266534Y-73938897D01*
X134285101Y-73973633D01*
X134296535Y-74011326D01*
X134301000Y-74056661D01*
X134301000Y-75143339D01*
X134296535Y-75188674D01*
X134285101Y-75226367D01*
X134266534Y-75261103D01*
X134241548Y-75291548D01*
X134211103Y-75316534D01*
X134176367Y-75335101D01*
X134138674Y-75346535D01*
X134093339Y-75351000D01*
X133256661Y-75351000D01*
X133211326Y-75346535D01*
X133173633Y-75335101D01*
X133138897Y-75316534D01*
X133108452Y-75291548D01*
X133083466Y-75261103D01*
X133064899Y-75226367D01*
X133053465Y-75188674D01*
X133049000Y-75143339D01*
X133049000Y-74056661D01*
X133053465Y-74011326D01*
X133064899Y-73973633D01*
X133083466Y-73938897D01*
X133108452Y-73908452D01*
X133138897Y-73883466D01*
X133173633Y-73864899D01*
X133211326Y-73853465D01*
X133256661Y-73849000D01*
X134093339Y-73849000D01*
X134138674Y-73853465D01*
X134138674Y-73853465D01*
G37*
G36*
X141463674Y-73753465D02*
G01*
X141501367Y-73764899D01*
X141536103Y-73783466D01*
X141566548Y-73808452D01*
X141591534Y-73838897D01*
X141610101Y-73873633D01*
X141621535Y-73911326D01*
X141626000Y-73956661D01*
X141626000Y-75043339D01*
X141621535Y-75088674D01*
X141610101Y-75126367D01*
X141591534Y-75161103D01*
X141566548Y-75191548D01*
X141536103Y-75216534D01*
X141501367Y-75235101D01*
X141463674Y-75246535D01*
X141418339Y-75251000D01*
X140581661Y-75251000D01*
X140536326Y-75246535D01*
X140498633Y-75235101D01*
X140463897Y-75216534D01*
X140433452Y-75191548D01*
X140408466Y-75161103D01*
X140389899Y-75126367D01*
X140378465Y-75088674D01*
X140374000Y-75043339D01*
X140374000Y-73956661D01*
X140378465Y-73911326D01*
X140389899Y-73873633D01*
X140408466Y-73838897D01*
X140433452Y-73808452D01*
X140463897Y-73783466D01*
X140498633Y-73764899D01*
X140536326Y-73753465D01*
X140581661Y-73749000D01*
X141418339Y-73749000D01*
X141463674Y-73753465D01*
X141463674Y-73753465D01*
G37*
G36*
X139413674Y-73753465D02*
G01*
X139451367Y-73764899D01*
X139486103Y-73783466D01*
X139516548Y-73808452D01*
X139541534Y-73838897D01*
X139560101Y-73873633D01*
X139571535Y-73911326D01*
X139576000Y-73956661D01*
X139576000Y-75043339D01*
X139571535Y-75088674D01*
X139560101Y-75126367D01*
X139541534Y-75161103D01*
X139516548Y-75191548D01*
X139486103Y-75216534D01*
X139451367Y-75235101D01*
X139413674Y-75246535D01*
X139368339Y-75251000D01*
X138531661Y-75251000D01*
X138486326Y-75246535D01*
X138448633Y-75235101D01*
X138413897Y-75216534D01*
X138383452Y-75191548D01*
X138358466Y-75161103D01*
X138339899Y-75126367D01*
X138328465Y-75088674D01*
X138324000Y-75043339D01*
X138324000Y-73956661D01*
X138328465Y-73911326D01*
X138339899Y-73873633D01*
X138358466Y-73838897D01*
X138383452Y-73808452D01*
X138413897Y-73783466D01*
X138448633Y-73764899D01*
X138486326Y-73753465D01*
X138531661Y-73749000D01*
X139368339Y-73749000D01*
X139413674Y-73753465D01*
X139413674Y-73753465D01*
G37*
G36*
X153659928Y-73786764D02*
G01*
X153681009Y-73793160D01*
X153700445Y-73803548D01*
X153717476Y-73817524D01*
X153731452Y-73834555D01*
X153741840Y-73853991D01*
X153748236Y-73875072D01*
X153751000Y-73903140D01*
X153751000Y-74366860D01*
X153748236Y-74394928D01*
X153741840Y-74416009D01*
X153731452Y-74435445D01*
X153717476Y-74452476D01*
X153700445Y-74466452D01*
X153681009Y-74476840D01*
X153659928Y-74483236D01*
X153631860Y-74486000D01*
X151818140Y-74486000D01*
X151790072Y-74483236D01*
X151768991Y-74476840D01*
X151749555Y-74466452D01*
X151732524Y-74452476D01*
X151718548Y-74435445D01*
X151708160Y-74416009D01*
X151701764Y-74394928D01*
X151699000Y-74366860D01*
X151699000Y-73903140D01*
X151701764Y-73875072D01*
X151708160Y-73853991D01*
X151718548Y-73834555D01*
X151732524Y-73817524D01*
X151749555Y-73803548D01*
X151768991Y-73793160D01*
X151790072Y-73786764D01*
X151818140Y-73784000D01*
X153631860Y-73784000D01*
X153659928Y-73786764D01*
X153659928Y-73786764D01*
G37*
G36*
X148709928Y-73786764D02*
G01*
X148731009Y-73793160D01*
X148750445Y-73803548D01*
X148767476Y-73817524D01*
X148781452Y-73834555D01*
X148791840Y-73853991D01*
X148798236Y-73875072D01*
X148801000Y-73903140D01*
X148801000Y-74366860D01*
X148798236Y-74394928D01*
X148791840Y-74416009D01*
X148781452Y-74435445D01*
X148767476Y-74452476D01*
X148750445Y-74466452D01*
X148731009Y-74476840D01*
X148709928Y-74483236D01*
X148681860Y-74486000D01*
X146868140Y-74486000D01*
X146840072Y-74483236D01*
X146818991Y-74476840D01*
X146799555Y-74466452D01*
X146782524Y-74452476D01*
X146768548Y-74435445D01*
X146758160Y-74416009D01*
X146751764Y-74394928D01*
X146749000Y-74366860D01*
X146749000Y-73903140D01*
X146751764Y-73875072D01*
X146758160Y-73853991D01*
X146768548Y-73834555D01*
X146782524Y-73817524D01*
X146799555Y-73803548D01*
X146818991Y-73793160D01*
X146840072Y-73786764D01*
X146868140Y-73784000D01*
X148681860Y-73784000D01*
X148709928Y-73786764D01*
X148709928Y-73786764D01*
G37*
G36*
X158838674Y-72953465D02*
G01*
X158876367Y-72964899D01*
X158911103Y-72983466D01*
X158941548Y-73008452D01*
X158966534Y-73038897D01*
X158985101Y-73073633D01*
X158996535Y-73111326D01*
X159001000Y-73156661D01*
X159001000Y-73993339D01*
X158996535Y-74038674D01*
X158985101Y-74076367D01*
X158966534Y-74111103D01*
X158941548Y-74141548D01*
X158911103Y-74166534D01*
X158876367Y-74185101D01*
X158838674Y-74196535D01*
X158793339Y-74201000D01*
X157706661Y-74201000D01*
X157661326Y-74196535D01*
X157623633Y-74185101D01*
X157588897Y-74166534D01*
X157558452Y-74141548D01*
X157533466Y-74111103D01*
X157514899Y-74076367D01*
X157503465Y-74038674D01*
X157499000Y-73993339D01*
X157499000Y-73156661D01*
X157503465Y-73111326D01*
X157514899Y-73073633D01*
X157533466Y-73038897D01*
X157558452Y-73008452D01*
X157588897Y-72983466D01*
X157623633Y-72964899D01*
X157661326Y-72953465D01*
X157706661Y-72949000D01*
X158793339Y-72949000D01*
X158838674Y-72953465D01*
X158838674Y-72953465D01*
G37*
G36*
X145088674Y-72353465D02*
G01*
X145126367Y-72364899D01*
X145161103Y-72383466D01*
X145191548Y-72408452D01*
X145216534Y-72438897D01*
X145235101Y-72473633D01*
X145246535Y-72511326D01*
X145251000Y-72556661D01*
X145251000Y-73393339D01*
X145246535Y-73438674D01*
X145235101Y-73476367D01*
X145216534Y-73511103D01*
X145191548Y-73541548D01*
X145161103Y-73566534D01*
X145126367Y-73585101D01*
X145088674Y-73596535D01*
X145043339Y-73601000D01*
X143956661Y-73601000D01*
X143911326Y-73596535D01*
X143873633Y-73585101D01*
X143838897Y-73566534D01*
X143808452Y-73541548D01*
X143783466Y-73511103D01*
X143764899Y-73476367D01*
X143753465Y-73438674D01*
X143749000Y-73393339D01*
X143749000Y-72556661D01*
X143753465Y-72511326D01*
X143764899Y-72473633D01*
X143783466Y-72438897D01*
X143808452Y-72408452D01*
X143838897Y-72383466D01*
X143873633Y-72364899D01*
X143911326Y-72353465D01*
X143956661Y-72349000D01*
X145043339Y-72349000D01*
X145088674Y-72353465D01*
X145088674Y-72353465D01*
G37*
G36*
X104901000Y-73545000D02*
G01*
X103099000Y-73545000D01*
X103099000Y-71743000D01*
X104901000Y-71743000D01*
X104901000Y-73545000D01*
X104901000Y-73545000D01*
G37*
G36*
X110401000Y-73545000D02*
G01*
X108599000Y-73545000D01*
X108599000Y-71743000D01*
X110401000Y-71743000D01*
X110401000Y-73545000D01*
X110401000Y-73545000D01*
G37*
G36*
X99030442Y-71749518D02*
G01*
X99096627Y-71756037D01*
X99266466Y-71807557D01*
X99422991Y-71891222D01*
X99448889Y-71912476D01*
X99560186Y-72003814D01*
X99632186Y-72091548D01*
X99672778Y-72141009D01*
X99756443Y-72297534D01*
X99807963Y-72467373D01*
X99825359Y-72644000D01*
X99807963Y-72820627D01*
X99756443Y-72990466D01*
X99672778Y-73146991D01*
X99643656Y-73182476D01*
X99560186Y-73284186D01*
X99458729Y-73367448D01*
X99422991Y-73396778D01*
X99266466Y-73480443D01*
X99096627Y-73531963D01*
X99030442Y-73538482D01*
X98964260Y-73545000D01*
X98875740Y-73545000D01*
X98809558Y-73538482D01*
X98743373Y-73531963D01*
X98573534Y-73480443D01*
X98417009Y-73396778D01*
X98381271Y-73367448D01*
X98279814Y-73284186D01*
X98196344Y-73182476D01*
X98167222Y-73146991D01*
X98083557Y-72990466D01*
X98032037Y-72820627D01*
X98014641Y-72644000D01*
X98032037Y-72467373D01*
X98083557Y-72297534D01*
X98167222Y-72141009D01*
X98207814Y-72091548D01*
X98279814Y-72003814D01*
X98391111Y-71912476D01*
X98417009Y-71891222D01*
X98573534Y-71807557D01*
X98743373Y-71756037D01*
X98809558Y-71749518D01*
X98875740Y-71743000D01*
X98964260Y-71743000D01*
X99030442Y-71749518D01*
X99030442Y-71749518D01*
G37*
G36*
X101570442Y-71749518D02*
G01*
X101636627Y-71756037D01*
X101806466Y-71807557D01*
X101962991Y-71891222D01*
X101988889Y-71912476D01*
X102100186Y-72003814D01*
X102172186Y-72091548D01*
X102212778Y-72141009D01*
X102296443Y-72297534D01*
X102347963Y-72467373D01*
X102365359Y-72644000D01*
X102347963Y-72820627D01*
X102296443Y-72990466D01*
X102212778Y-73146991D01*
X102183656Y-73182476D01*
X102100186Y-73284186D01*
X101998729Y-73367448D01*
X101962991Y-73396778D01*
X101806466Y-73480443D01*
X101636627Y-73531963D01*
X101570442Y-73538482D01*
X101504260Y-73545000D01*
X101415740Y-73545000D01*
X101349558Y-73538482D01*
X101283373Y-73531963D01*
X101113534Y-73480443D01*
X100957009Y-73396778D01*
X100921271Y-73367448D01*
X100819814Y-73284186D01*
X100736344Y-73182476D01*
X100707222Y-73146991D01*
X100623557Y-72990466D01*
X100572037Y-72820627D01*
X100554641Y-72644000D01*
X100572037Y-72467373D01*
X100623557Y-72297534D01*
X100707222Y-72141009D01*
X100747814Y-72091548D01*
X100819814Y-72003814D01*
X100931111Y-71912476D01*
X100957009Y-71891222D01*
X101113534Y-71807557D01*
X101283373Y-71756037D01*
X101349558Y-71749518D01*
X101415740Y-71743000D01*
X101504260Y-71743000D01*
X101570442Y-71749518D01*
X101570442Y-71749518D01*
G37*
G36*
X96490442Y-71749518D02*
G01*
X96556627Y-71756037D01*
X96726466Y-71807557D01*
X96882991Y-71891222D01*
X96908889Y-71912476D01*
X97020186Y-72003814D01*
X97092186Y-72091548D01*
X97132778Y-72141009D01*
X97216443Y-72297534D01*
X97267963Y-72467373D01*
X97285359Y-72644000D01*
X97267963Y-72820627D01*
X97216443Y-72990466D01*
X97132778Y-73146991D01*
X97103656Y-73182476D01*
X97020186Y-73284186D01*
X96918729Y-73367448D01*
X96882991Y-73396778D01*
X96726466Y-73480443D01*
X96556627Y-73531963D01*
X96490442Y-73538482D01*
X96424260Y-73545000D01*
X96335740Y-73545000D01*
X96269558Y-73538482D01*
X96203373Y-73531963D01*
X96033534Y-73480443D01*
X95877009Y-73396778D01*
X95841271Y-73367448D01*
X95739814Y-73284186D01*
X95656344Y-73182476D01*
X95627222Y-73146991D01*
X95543557Y-72990466D01*
X95492037Y-72820627D01*
X95474641Y-72644000D01*
X95492037Y-72467373D01*
X95543557Y-72297534D01*
X95627222Y-72141009D01*
X95667814Y-72091548D01*
X95739814Y-72003814D01*
X95851111Y-71912476D01*
X95877009Y-71891222D01*
X96033534Y-71807557D01*
X96203373Y-71756037D01*
X96269558Y-71749518D01*
X96335740Y-71743000D01*
X96424260Y-71743000D01*
X96490442Y-71749518D01*
X96490442Y-71749518D01*
G37*
G36*
X148709928Y-72516764D02*
G01*
X148731009Y-72523160D01*
X148750445Y-72533548D01*
X148767476Y-72547524D01*
X148781452Y-72564555D01*
X148791840Y-72583991D01*
X148798236Y-72605072D01*
X148801000Y-72633140D01*
X148801000Y-73096860D01*
X148798236Y-73124928D01*
X148791840Y-73146009D01*
X148781452Y-73165445D01*
X148767476Y-73182476D01*
X148750445Y-73196452D01*
X148731009Y-73206840D01*
X148709928Y-73213236D01*
X148681860Y-73216000D01*
X146868140Y-73216000D01*
X146840072Y-73213236D01*
X146818991Y-73206840D01*
X146799555Y-73196452D01*
X146782524Y-73182476D01*
X146768548Y-73165445D01*
X146758160Y-73146009D01*
X146751764Y-73124928D01*
X146749000Y-73096860D01*
X146749000Y-72633140D01*
X146751764Y-72605072D01*
X146758160Y-72583991D01*
X146768548Y-72564555D01*
X146782524Y-72547524D01*
X146799555Y-72533548D01*
X146818991Y-72523160D01*
X146840072Y-72516764D01*
X146868140Y-72514000D01*
X148681860Y-72514000D01*
X148709928Y-72516764D01*
X148709928Y-72516764D01*
G37*
G36*
X153659928Y-72516764D02*
G01*
X153681009Y-72523160D01*
X153700445Y-72533548D01*
X153717476Y-72547524D01*
X153731452Y-72564555D01*
X153741840Y-72583991D01*
X153748236Y-72605072D01*
X153751000Y-72633140D01*
X153751000Y-73096860D01*
X153748236Y-73124928D01*
X153741840Y-73146009D01*
X153731452Y-73165445D01*
X153717476Y-73182476D01*
X153700445Y-73196452D01*
X153681009Y-73206840D01*
X153659928Y-73213236D01*
X153631860Y-73216000D01*
X151818140Y-73216000D01*
X151790072Y-73213236D01*
X151768991Y-73206840D01*
X151749555Y-73196452D01*
X151732524Y-73182476D01*
X151718548Y-73165445D01*
X151708160Y-73146009D01*
X151701764Y-73124928D01*
X151699000Y-73096860D01*
X151699000Y-72633140D01*
X151701764Y-72605072D01*
X151708160Y-72583991D01*
X151718548Y-72564555D01*
X151732524Y-72547524D01*
X151749555Y-72533548D01*
X151768991Y-72523160D01*
X151790072Y-72516764D01*
X151818140Y-72514000D01*
X153631860Y-72514000D01*
X153659928Y-72516764D01*
X153659928Y-72516764D01*
G37*
G36*
X118961000Y-72987000D02*
G01*
X117259000Y-72987000D01*
X117259000Y-71285000D01*
X118961000Y-71285000D01*
X118961000Y-72987000D01*
X118961000Y-72987000D01*
G37*
G36*
X125896823Y-71297313D02*
G01*
X126057242Y-71345976D01*
X126169011Y-71405718D01*
X126205078Y-71424996D01*
X126334659Y-71531341D01*
X126441004Y-71660922D01*
X126441005Y-71660924D01*
X126520024Y-71808758D01*
X126568687Y-71969177D01*
X126585117Y-72136000D01*
X126568687Y-72302823D01*
X126520024Y-72463242D01*
X126455482Y-72583991D01*
X126441004Y-72611078D01*
X126334659Y-72740659D01*
X126205078Y-72847004D01*
X126205076Y-72847005D01*
X126057242Y-72926024D01*
X125896823Y-72974687D01*
X125771804Y-72987000D01*
X125688196Y-72987000D01*
X125563177Y-72974687D01*
X125402758Y-72926024D01*
X125254924Y-72847005D01*
X125254922Y-72847004D01*
X125125341Y-72740659D01*
X125018996Y-72611078D01*
X125004518Y-72583991D01*
X124939976Y-72463242D01*
X124891313Y-72302823D01*
X124874883Y-72136000D01*
X124891313Y-71969177D01*
X124939976Y-71808758D01*
X125018995Y-71660924D01*
X125018996Y-71660922D01*
X125125341Y-71531341D01*
X125254922Y-71424996D01*
X125290989Y-71405718D01*
X125402758Y-71345976D01*
X125563177Y-71297313D01*
X125688196Y-71285000D01*
X125771804Y-71285000D01*
X125896823Y-71297313D01*
X125896823Y-71297313D01*
G37*
G36*
X113484674Y-71389465D02*
G01*
X113522367Y-71400899D01*
X113557103Y-71419466D01*
X113587548Y-71444452D01*
X113612534Y-71474897D01*
X113631101Y-71509633D01*
X113642535Y-71547326D01*
X113647000Y-71592661D01*
X113647000Y-72679339D01*
X113642535Y-72724674D01*
X113631101Y-72762367D01*
X113612534Y-72797103D01*
X113587548Y-72827548D01*
X113557103Y-72852534D01*
X113522367Y-72871101D01*
X113484674Y-72882535D01*
X113439339Y-72887000D01*
X112602661Y-72887000D01*
X112557326Y-72882535D01*
X112519633Y-72871101D01*
X112484897Y-72852534D01*
X112454452Y-72827548D01*
X112429466Y-72797103D01*
X112410899Y-72762367D01*
X112399465Y-72724674D01*
X112395000Y-72679339D01*
X112395000Y-71592661D01*
X112399465Y-71547326D01*
X112410899Y-71509633D01*
X112429466Y-71474897D01*
X112454452Y-71444452D01*
X112484897Y-71419466D01*
X112519633Y-71400899D01*
X112557326Y-71389465D01*
X112602661Y-71385000D01*
X113439339Y-71385000D01*
X113484674Y-71389465D01*
X113484674Y-71389465D01*
G37*
G36*
X115534674Y-71389465D02*
G01*
X115572367Y-71400899D01*
X115607103Y-71419466D01*
X115637548Y-71444452D01*
X115662534Y-71474897D01*
X115681101Y-71509633D01*
X115692535Y-71547326D01*
X115697000Y-71592661D01*
X115697000Y-72679339D01*
X115692535Y-72724674D01*
X115681101Y-72762367D01*
X115662534Y-72797103D01*
X115637548Y-72827548D01*
X115607103Y-72852534D01*
X115572367Y-72871101D01*
X115534674Y-72882535D01*
X115489339Y-72887000D01*
X114652661Y-72887000D01*
X114607326Y-72882535D01*
X114569633Y-72871101D01*
X114534897Y-72852534D01*
X114504452Y-72827548D01*
X114479466Y-72797103D01*
X114460899Y-72762367D01*
X114449465Y-72724674D01*
X114445000Y-72679339D01*
X114445000Y-71592661D01*
X114449465Y-71547326D01*
X114460899Y-71509633D01*
X114479466Y-71474897D01*
X114504452Y-71444452D01*
X114534897Y-71419466D01*
X114569633Y-71400899D01*
X114607326Y-71389465D01*
X114652661Y-71385000D01*
X115489339Y-71385000D01*
X115534674Y-71389465D01*
X115534674Y-71389465D01*
G37*
G36*
X136463674Y-70753465D02*
G01*
X136501367Y-70764899D01*
X136536103Y-70783466D01*
X136566548Y-70808452D01*
X136591534Y-70838897D01*
X136610101Y-70873633D01*
X136621535Y-70911326D01*
X136626000Y-70956661D01*
X136626000Y-72043339D01*
X136621535Y-72088674D01*
X136610101Y-72126367D01*
X136591534Y-72161103D01*
X136566548Y-72191548D01*
X136536103Y-72216534D01*
X136501367Y-72235101D01*
X136463674Y-72246535D01*
X136418339Y-72251000D01*
X135581661Y-72251000D01*
X135536326Y-72246535D01*
X135498633Y-72235101D01*
X135463897Y-72216534D01*
X135433452Y-72191548D01*
X135408466Y-72161103D01*
X135389899Y-72126367D01*
X135378465Y-72088674D01*
X135374000Y-72043339D01*
X135374000Y-70956661D01*
X135378465Y-70911326D01*
X135389899Y-70873633D01*
X135408466Y-70838897D01*
X135433452Y-70808452D01*
X135463897Y-70783466D01*
X135498633Y-70764899D01*
X135536326Y-70753465D01*
X135581661Y-70749000D01*
X136418339Y-70749000D01*
X136463674Y-70753465D01*
X136463674Y-70753465D01*
G37*
G36*
X164713674Y-70753465D02*
G01*
X164751367Y-70764899D01*
X164786103Y-70783466D01*
X164816548Y-70808452D01*
X164841534Y-70838897D01*
X164860101Y-70873633D01*
X164871535Y-70911326D01*
X164876000Y-70956661D01*
X164876000Y-72043339D01*
X164871535Y-72088674D01*
X164860101Y-72126367D01*
X164841534Y-72161103D01*
X164816548Y-72191548D01*
X164786103Y-72216534D01*
X164751367Y-72235101D01*
X164713674Y-72246535D01*
X164668339Y-72251000D01*
X163831661Y-72251000D01*
X163786326Y-72246535D01*
X163748633Y-72235101D01*
X163713897Y-72216534D01*
X163683452Y-72191548D01*
X163658466Y-72161103D01*
X163639899Y-72126367D01*
X163628465Y-72088674D01*
X163624000Y-72043339D01*
X163624000Y-70956661D01*
X163628465Y-70911326D01*
X163639899Y-70873633D01*
X163658466Y-70838897D01*
X163683452Y-70808452D01*
X163713897Y-70783466D01*
X163748633Y-70764899D01*
X163786326Y-70753465D01*
X163831661Y-70749000D01*
X164668339Y-70749000D01*
X164713674Y-70753465D01*
X164713674Y-70753465D01*
G37*
G36*
X169738674Y-70753465D02*
G01*
X169776367Y-70764899D01*
X169811103Y-70783466D01*
X169841548Y-70808452D01*
X169866534Y-70838897D01*
X169885101Y-70873633D01*
X169896535Y-70911326D01*
X169901000Y-70956661D01*
X169901000Y-72043339D01*
X169896535Y-72088674D01*
X169885101Y-72126367D01*
X169866534Y-72161103D01*
X169841548Y-72191548D01*
X169811103Y-72216534D01*
X169776367Y-72235101D01*
X169738674Y-72246535D01*
X169693339Y-72251000D01*
X168856661Y-72251000D01*
X168811326Y-72246535D01*
X168773633Y-72235101D01*
X168738897Y-72216534D01*
X168708452Y-72191548D01*
X168683466Y-72161103D01*
X168664899Y-72126367D01*
X168653465Y-72088674D01*
X168649000Y-72043339D01*
X168649000Y-70956661D01*
X168653465Y-70911326D01*
X168664899Y-70873633D01*
X168683466Y-70838897D01*
X168708452Y-70808452D01*
X168738897Y-70783466D01*
X168773633Y-70764899D01*
X168811326Y-70753465D01*
X168856661Y-70749000D01*
X169693339Y-70749000D01*
X169738674Y-70753465D01*
X169738674Y-70753465D01*
G37*
G36*
X167688674Y-70753465D02*
G01*
X167726367Y-70764899D01*
X167761103Y-70783466D01*
X167791548Y-70808452D01*
X167816534Y-70838897D01*
X167835101Y-70873633D01*
X167846535Y-70911326D01*
X167851000Y-70956661D01*
X167851000Y-72043339D01*
X167846535Y-72088674D01*
X167835101Y-72126367D01*
X167816534Y-72161103D01*
X167791548Y-72191548D01*
X167761103Y-72216534D01*
X167726367Y-72235101D01*
X167688674Y-72246535D01*
X167643339Y-72251000D01*
X166806661Y-72251000D01*
X166761326Y-72246535D01*
X166723633Y-72235101D01*
X166688897Y-72216534D01*
X166658452Y-72191548D01*
X166633466Y-72161103D01*
X166614899Y-72126367D01*
X166603465Y-72088674D01*
X166599000Y-72043339D01*
X166599000Y-70956661D01*
X166603465Y-70911326D01*
X166614899Y-70873633D01*
X166633466Y-70838897D01*
X166658452Y-70808452D01*
X166688897Y-70783466D01*
X166723633Y-70764899D01*
X166761326Y-70753465D01*
X166806661Y-70749000D01*
X167643339Y-70749000D01*
X167688674Y-70753465D01*
X167688674Y-70753465D01*
G37*
G36*
X162663674Y-70753465D02*
G01*
X162701367Y-70764899D01*
X162736103Y-70783466D01*
X162766548Y-70808452D01*
X162791534Y-70838897D01*
X162810101Y-70873633D01*
X162821535Y-70911326D01*
X162826000Y-70956661D01*
X162826000Y-72043339D01*
X162821535Y-72088674D01*
X162810101Y-72126367D01*
X162791534Y-72161103D01*
X162766548Y-72191548D01*
X162736103Y-72216534D01*
X162701367Y-72235101D01*
X162663674Y-72246535D01*
X162618339Y-72251000D01*
X161781661Y-72251000D01*
X161736326Y-72246535D01*
X161698633Y-72235101D01*
X161663897Y-72216534D01*
X161633452Y-72191548D01*
X161608466Y-72161103D01*
X161589899Y-72126367D01*
X161578465Y-72088674D01*
X161574000Y-72043339D01*
X161574000Y-70956661D01*
X161578465Y-70911326D01*
X161589899Y-70873633D01*
X161608466Y-70838897D01*
X161633452Y-70808452D01*
X161663897Y-70783466D01*
X161698633Y-70764899D01*
X161736326Y-70753465D01*
X161781661Y-70749000D01*
X162618339Y-70749000D01*
X162663674Y-70753465D01*
X162663674Y-70753465D01*
G37*
G36*
X129413674Y-70753465D02*
G01*
X129451367Y-70764899D01*
X129486103Y-70783466D01*
X129516548Y-70808452D01*
X129541534Y-70838897D01*
X129560101Y-70873633D01*
X129571535Y-70911326D01*
X129576000Y-70956661D01*
X129576000Y-72043339D01*
X129571535Y-72088674D01*
X129560101Y-72126367D01*
X129541534Y-72161103D01*
X129516548Y-72191548D01*
X129486103Y-72216534D01*
X129451367Y-72235101D01*
X129413674Y-72246535D01*
X129368339Y-72251000D01*
X128531661Y-72251000D01*
X128486326Y-72246535D01*
X128448633Y-72235101D01*
X128413897Y-72216534D01*
X128383452Y-72191548D01*
X128358466Y-72161103D01*
X128339899Y-72126367D01*
X128328465Y-72088674D01*
X128324000Y-72043339D01*
X128324000Y-70956661D01*
X128328465Y-70911326D01*
X128339899Y-70873633D01*
X128358466Y-70838897D01*
X128383452Y-70808452D01*
X128413897Y-70783466D01*
X128448633Y-70764899D01*
X128486326Y-70753465D01*
X128531661Y-70749000D01*
X129368339Y-70749000D01*
X129413674Y-70753465D01*
X129413674Y-70753465D01*
G37*
G36*
X131463674Y-70753465D02*
G01*
X131501367Y-70764899D01*
X131536103Y-70783466D01*
X131566548Y-70808452D01*
X131591534Y-70838897D01*
X131610101Y-70873633D01*
X131621535Y-70911326D01*
X131626000Y-70956661D01*
X131626000Y-72043339D01*
X131621535Y-72088674D01*
X131610101Y-72126367D01*
X131591534Y-72161103D01*
X131566548Y-72191548D01*
X131536103Y-72216534D01*
X131501367Y-72235101D01*
X131463674Y-72246535D01*
X131418339Y-72251000D01*
X130581661Y-72251000D01*
X130536326Y-72246535D01*
X130498633Y-72235101D01*
X130463897Y-72216534D01*
X130433452Y-72191548D01*
X130408466Y-72161103D01*
X130389899Y-72126367D01*
X130378465Y-72088674D01*
X130374000Y-72043339D01*
X130374000Y-70956661D01*
X130378465Y-70911326D01*
X130389899Y-70873633D01*
X130408466Y-70838897D01*
X130433452Y-70808452D01*
X130463897Y-70783466D01*
X130498633Y-70764899D01*
X130536326Y-70753465D01*
X130581661Y-70749000D01*
X131418339Y-70749000D01*
X131463674Y-70753465D01*
X131463674Y-70753465D01*
G37*
G36*
X134413674Y-70753465D02*
G01*
X134451367Y-70764899D01*
X134486103Y-70783466D01*
X134516548Y-70808452D01*
X134541534Y-70838897D01*
X134560101Y-70873633D01*
X134571535Y-70911326D01*
X134576000Y-70956661D01*
X134576000Y-72043339D01*
X134571535Y-72088674D01*
X134560101Y-72126367D01*
X134541534Y-72161103D01*
X134516548Y-72191548D01*
X134486103Y-72216534D01*
X134451367Y-72235101D01*
X134413674Y-72246535D01*
X134368339Y-72251000D01*
X133531661Y-72251000D01*
X133486326Y-72246535D01*
X133448633Y-72235101D01*
X133413897Y-72216534D01*
X133383452Y-72191548D01*
X133358466Y-72161103D01*
X133339899Y-72126367D01*
X133328465Y-72088674D01*
X133324000Y-72043339D01*
X133324000Y-70956661D01*
X133328465Y-70911326D01*
X133339899Y-70873633D01*
X133358466Y-70838897D01*
X133383452Y-70808452D01*
X133413897Y-70783466D01*
X133448633Y-70764899D01*
X133486326Y-70753465D01*
X133531661Y-70749000D01*
X134368339Y-70749000D01*
X134413674Y-70753465D01*
X134413674Y-70753465D01*
G37*
G36*
X158838674Y-70903465D02*
G01*
X158876367Y-70914899D01*
X158911103Y-70933466D01*
X158941548Y-70958452D01*
X158966534Y-70988897D01*
X158985101Y-71023633D01*
X158996535Y-71061326D01*
X159001000Y-71106661D01*
X159001000Y-71943339D01*
X158996535Y-71988674D01*
X158985101Y-72026367D01*
X158966534Y-72061103D01*
X158941548Y-72091548D01*
X158911103Y-72116534D01*
X158876367Y-72135101D01*
X158838674Y-72146535D01*
X158793339Y-72151000D01*
X157706661Y-72151000D01*
X157661326Y-72146535D01*
X157623633Y-72135101D01*
X157588897Y-72116534D01*
X157558452Y-72091548D01*
X157533466Y-72061103D01*
X157514899Y-72026367D01*
X157503465Y-71988674D01*
X157499000Y-71943339D01*
X157499000Y-71106661D01*
X157503465Y-71061326D01*
X157514899Y-71023633D01*
X157533466Y-70988897D01*
X157558452Y-70958452D01*
X157588897Y-70933466D01*
X157623633Y-70914899D01*
X157661326Y-70903465D01*
X157706661Y-70899000D01*
X158793339Y-70899000D01*
X158838674Y-70903465D01*
X158838674Y-70903465D01*
G37*
G36*
X148709928Y-71246764D02*
G01*
X148731009Y-71253160D01*
X148750445Y-71263548D01*
X148767476Y-71277524D01*
X148781452Y-71294555D01*
X148791840Y-71313991D01*
X148798236Y-71335072D01*
X148801000Y-71363140D01*
X148801000Y-71826860D01*
X148798236Y-71854928D01*
X148791840Y-71876009D01*
X148781452Y-71895445D01*
X148767476Y-71912476D01*
X148750445Y-71926452D01*
X148731009Y-71936840D01*
X148709928Y-71943236D01*
X148681860Y-71946000D01*
X146868140Y-71946000D01*
X146840072Y-71943236D01*
X146818991Y-71936840D01*
X146799555Y-71926452D01*
X146782524Y-71912476D01*
X146768548Y-71895445D01*
X146758160Y-71876009D01*
X146751764Y-71854928D01*
X146749000Y-71826860D01*
X146749000Y-71363140D01*
X146751764Y-71335072D01*
X146758160Y-71313991D01*
X146768548Y-71294555D01*
X146782524Y-71277524D01*
X146799555Y-71263548D01*
X146818991Y-71253160D01*
X146840072Y-71246764D01*
X146868140Y-71244000D01*
X148681860Y-71244000D01*
X148709928Y-71246764D01*
X148709928Y-71246764D01*
G37*
G36*
X153659928Y-71246764D02*
G01*
X153681009Y-71253160D01*
X153700445Y-71263548D01*
X153717476Y-71277524D01*
X153731452Y-71294555D01*
X153741840Y-71313991D01*
X153748236Y-71335072D01*
X153751000Y-71363140D01*
X153751000Y-71826860D01*
X153748236Y-71854928D01*
X153741840Y-71876009D01*
X153731452Y-71895445D01*
X153717476Y-71912476D01*
X153700445Y-71926452D01*
X153681009Y-71936840D01*
X153659928Y-71943236D01*
X153631860Y-71946000D01*
X151818140Y-71946000D01*
X151790072Y-71943236D01*
X151768991Y-71936840D01*
X151749555Y-71926452D01*
X151732524Y-71912476D01*
X151718548Y-71895445D01*
X151708160Y-71876009D01*
X151701764Y-71854928D01*
X151699000Y-71826860D01*
X151699000Y-71363140D01*
X151701764Y-71335072D01*
X151708160Y-71313991D01*
X151718548Y-71294555D01*
X151732524Y-71277524D01*
X151749555Y-71263548D01*
X151768991Y-71253160D01*
X151790072Y-71246764D01*
X151818140Y-71244000D01*
X153631860Y-71244000D01*
X153659928Y-71246764D01*
X153659928Y-71246764D01*
G37*
M02*
