G04 #@! TF.GenerationSoftware,KiCad,Pcbnew,(5.1.6)-1*
G04 #@! TF.CreationDate,2020-11-13T23:39:30+01:00*
G04 #@! TF.ProjectId,ebuzzz-adapter,6562757a-7a7a-42d6-9164-61707465722e,rev?*
G04 #@! TF.SameCoordinates,Original*
G04 #@! TF.FileFunction,Soldermask,Bot*
G04 #@! TF.FilePolarity,Negative*
%FSLAX46Y46*%
G04 Gerber Fmt 4.6, Leading zero omitted, Abs format (unit mm)*
G04 Created by KiCad (PCBNEW (5.1.6)-1) date 2020-11-13 23:39:30*
%MOMM*%
%LPD*%
G01*
G04 APERTURE LIST*
%ADD10C,0.100000*%
G04 APERTURE END LIST*
D10*
G36*
X96896228Y-83713483D02*
G01*
X97084922Y-83770723D01*
X97258815Y-83863671D01*
X97411239Y-83988761D01*
X97536329Y-84141185D01*
X97629277Y-84315078D01*
X97686517Y-84503772D01*
X97705843Y-84700000D01*
X97686517Y-84896228D01*
X97629277Y-85084922D01*
X97536329Y-85258815D01*
X97411239Y-85411239D01*
X97258815Y-85536329D01*
X97084922Y-85629277D01*
X96896228Y-85686517D01*
X96749175Y-85701000D01*
X95050825Y-85701000D01*
X94903772Y-85686517D01*
X94715078Y-85629277D01*
X94541185Y-85536329D01*
X94388761Y-85411239D01*
X94263671Y-85258815D01*
X94170723Y-85084922D01*
X94113483Y-84896228D01*
X94094157Y-84700000D01*
X94113483Y-84503772D01*
X94170723Y-84315078D01*
X94263671Y-84141185D01*
X94388761Y-83988761D01*
X94541185Y-83863671D01*
X94715078Y-83770723D01*
X94903772Y-83713483D01*
X95050825Y-83699000D01*
X96749175Y-83699000D01*
X96896228Y-83713483D01*
G37*
G36*
X170210915Y-80052934D02*
G01*
X170243424Y-80062795D01*
X170273382Y-80078809D01*
X170299641Y-80100359D01*
X170321191Y-80126618D01*
X170337205Y-80156576D01*
X170347066Y-80189085D01*
X170351000Y-80229029D01*
X170351000Y-81770971D01*
X170347066Y-81810915D01*
X170337205Y-81843424D01*
X170321191Y-81873382D01*
X170299641Y-81899641D01*
X170273382Y-81921191D01*
X170243424Y-81937205D01*
X170210915Y-81947066D01*
X170170971Y-81951000D01*
X166829029Y-81951000D01*
X166789085Y-81947066D01*
X166756576Y-81937205D01*
X166726618Y-81921191D01*
X166700359Y-81899641D01*
X166678809Y-81873382D01*
X166662795Y-81843424D01*
X166652934Y-81810915D01*
X166649000Y-81770971D01*
X166649000Y-80229029D01*
X166652934Y-80189085D01*
X166662795Y-80156576D01*
X166678809Y-80126618D01*
X166700359Y-80100359D01*
X166726618Y-80078809D01*
X166756576Y-80062795D01*
X166789085Y-80052934D01*
X166829029Y-80049000D01*
X170170971Y-80049000D01*
X170210915Y-80052934D01*
G37*
G36*
X96036601Y-80714397D02*
G01*
X96075305Y-80722096D01*
X96107340Y-80735365D01*
X96184680Y-80767400D01*
X96283115Y-80833173D01*
X96366827Y-80916885D01*
X96432600Y-81015320D01*
X96477904Y-81124696D01*
X96501000Y-81240805D01*
X96501000Y-81359195D01*
X96477904Y-81475304D01*
X96432600Y-81584680D01*
X96366827Y-81683115D01*
X96283115Y-81766827D01*
X96184680Y-81832600D01*
X96107340Y-81864635D01*
X96075305Y-81877904D01*
X96036601Y-81885603D01*
X95959195Y-81901000D01*
X95840805Y-81901000D01*
X95763399Y-81885603D01*
X95724695Y-81877904D01*
X95692660Y-81864635D01*
X95615320Y-81832600D01*
X95516885Y-81766827D01*
X95433173Y-81683115D01*
X95367400Y-81584680D01*
X95322096Y-81475304D01*
X95299000Y-81359195D01*
X95299000Y-81240805D01*
X95322096Y-81124696D01*
X95367400Y-81015320D01*
X95433173Y-80916885D01*
X95516885Y-80833173D01*
X95615320Y-80767400D01*
X95692660Y-80735365D01*
X95724695Y-80722096D01*
X95763399Y-80714397D01*
X95840805Y-80699000D01*
X95959195Y-80699000D01*
X96036601Y-80714397D01*
G37*
G36*
X169586425Y-76252760D02*
G01*
X169586428Y-76252761D01*
X169586429Y-76252761D01*
X169765693Y-76307140D01*
X169765696Y-76307142D01*
X169765697Y-76307142D01*
X169930903Y-76395446D01*
X170075712Y-76514288D01*
X170194554Y-76659097D01*
X170248056Y-76759193D01*
X170282860Y-76824307D01*
X170331508Y-76984680D01*
X170337240Y-77003575D01*
X170355601Y-77190000D01*
X170337240Y-77376425D01*
X170337239Y-77376428D01*
X170337239Y-77376429D01*
X170282860Y-77555693D01*
X170282858Y-77555696D01*
X170282858Y-77555697D01*
X170194554Y-77720903D01*
X170075712Y-77865712D01*
X169930903Y-77984554D01*
X169765697Y-78072858D01*
X169765693Y-78072860D01*
X169586429Y-78127239D01*
X169586428Y-78127239D01*
X169586425Y-78127240D01*
X169446718Y-78141000D01*
X167553282Y-78141000D01*
X167413575Y-78127240D01*
X167413572Y-78127239D01*
X167413571Y-78127239D01*
X167234307Y-78072860D01*
X167234303Y-78072858D01*
X167069097Y-77984554D01*
X166924288Y-77865712D01*
X166805446Y-77720903D01*
X166717142Y-77555697D01*
X166717142Y-77555696D01*
X166717140Y-77555693D01*
X166662761Y-77376429D01*
X166662761Y-77376428D01*
X166662760Y-77376425D01*
X166644399Y-77190000D01*
X166662760Y-77003575D01*
X166668492Y-76984680D01*
X166717140Y-76824307D01*
X166751944Y-76759193D01*
X166805446Y-76659097D01*
X166924288Y-76514288D01*
X167069097Y-76395446D01*
X167234303Y-76307142D01*
X167234304Y-76307142D01*
X167234307Y-76307140D01*
X167413571Y-76252761D01*
X167413572Y-76252761D01*
X167413575Y-76252760D01*
X167553282Y-76239000D01*
X169446718Y-76239000D01*
X169586425Y-76252760D01*
G37*
G36*
X96036601Y-76114397D02*
G01*
X96075305Y-76122096D01*
X96107340Y-76135365D01*
X96184680Y-76167400D01*
X96283115Y-76233173D01*
X96366827Y-76316885D01*
X96432600Y-76415320D01*
X96477904Y-76524696D01*
X96501000Y-76640805D01*
X96501000Y-76759195D01*
X96477904Y-76875304D01*
X96432600Y-76984680D01*
X96366827Y-77083115D01*
X96283115Y-77166827D01*
X96184680Y-77232600D01*
X96107340Y-77264635D01*
X96075305Y-77277904D01*
X96036601Y-77285603D01*
X95959195Y-77301000D01*
X95840805Y-77301000D01*
X95763399Y-77285603D01*
X95724695Y-77277904D01*
X95692660Y-77264635D01*
X95615320Y-77232600D01*
X95516885Y-77166827D01*
X95433173Y-77083115D01*
X95367400Y-76984680D01*
X95322096Y-76875304D01*
X95299000Y-76759195D01*
X95299000Y-76640805D01*
X95322096Y-76524696D01*
X95367400Y-76415320D01*
X95433173Y-76316885D01*
X95516885Y-76233173D01*
X95615320Y-76167400D01*
X95692660Y-76135365D01*
X95724695Y-76122096D01*
X95763399Y-76114397D01*
X95840805Y-76099000D01*
X95959195Y-76099000D01*
X96036601Y-76114397D01*
G37*
G36*
X96896228Y-72313483D02*
G01*
X97084922Y-72370723D01*
X97258815Y-72463671D01*
X97411239Y-72588761D01*
X97536329Y-72741185D01*
X97629277Y-72915078D01*
X97686517Y-73103772D01*
X97705843Y-73300000D01*
X97686517Y-73496228D01*
X97629277Y-73684922D01*
X97536329Y-73858815D01*
X97411239Y-74011239D01*
X97258815Y-74136329D01*
X97084922Y-74229277D01*
X96896228Y-74286517D01*
X96749175Y-74301000D01*
X95050825Y-74301000D01*
X94903772Y-74286517D01*
X94715078Y-74229277D01*
X94541185Y-74136329D01*
X94388761Y-74011239D01*
X94263671Y-73858815D01*
X94170723Y-73684922D01*
X94113483Y-73496228D01*
X94094157Y-73300000D01*
X94113483Y-73103772D01*
X94170723Y-72915078D01*
X94263671Y-72741185D01*
X94388761Y-72588761D01*
X94541185Y-72463671D01*
X94715078Y-72370723D01*
X94903772Y-72313483D01*
X95050825Y-72299000D01*
X96749175Y-72299000D01*
X96896228Y-72313483D01*
G37*
M02*
