G04 #@! TF.GenerationSoftware,KiCad,Pcbnew,5.1.4-e60b266~84~ubuntu18.04.1*
G04 #@! TF.CreationDate,2019-10-19T15:57:42+02:00*
G04 #@! TF.ProjectId,ebuzzz-adapter,6562757a-7a7a-42d6-9164-61707465722e,rev?*
G04 #@! TF.SameCoordinates,Original*
G04 #@! TF.FileFunction,Soldermask,Top*
G04 #@! TF.FilePolarity,Negative*
%FSLAX46Y46*%
G04 Gerber Fmt 4.6, Leading zero omitted, Abs format (unit mm)*
G04 Created by KiCad (PCBNEW 5.1.4-e60b266~84~ubuntu18.04.1) date 2019-10-19 15:57:42*
%MOMM*%
%LPD*%
G04 APERTURE LIST*
%ADD10C,0.100000*%
G04 APERTURE END LIST*
D10*
G36*
X148988674Y-86253465D02*
G01*
X149026367Y-86264899D01*
X149061103Y-86283466D01*
X149091548Y-86308452D01*
X149116534Y-86338897D01*
X149135101Y-86373633D01*
X149146535Y-86411326D01*
X149151000Y-86456661D01*
X149151000Y-87543339D01*
X149146535Y-87588674D01*
X149135101Y-87626367D01*
X149116534Y-87661103D01*
X149091548Y-87691548D01*
X149061103Y-87716534D01*
X149026367Y-87735101D01*
X148988674Y-87746535D01*
X148943339Y-87751000D01*
X148106661Y-87751000D01*
X148061326Y-87746535D01*
X148023633Y-87735101D01*
X147988897Y-87716534D01*
X147958452Y-87691548D01*
X147933466Y-87661103D01*
X147914899Y-87626367D01*
X147903465Y-87588674D01*
X147899000Y-87543339D01*
X147899000Y-86456661D01*
X147903465Y-86411326D01*
X147914899Y-86373633D01*
X147933466Y-86338897D01*
X147958452Y-86308452D01*
X147988897Y-86283466D01*
X148023633Y-86264899D01*
X148061326Y-86253465D01*
X148106661Y-86249000D01*
X148943339Y-86249000D01*
X148988674Y-86253465D01*
X148988674Y-86253465D01*
G37*
G36*
X146938674Y-86253465D02*
G01*
X146976367Y-86264899D01*
X147011103Y-86283466D01*
X147041548Y-86308452D01*
X147066534Y-86338897D01*
X147085101Y-86373633D01*
X147096535Y-86411326D01*
X147101000Y-86456661D01*
X147101000Y-87543339D01*
X147096535Y-87588674D01*
X147085101Y-87626367D01*
X147066534Y-87661103D01*
X147041548Y-87691548D01*
X147011103Y-87716534D01*
X146976367Y-87735101D01*
X146938674Y-87746535D01*
X146893339Y-87751000D01*
X146056661Y-87751000D01*
X146011326Y-87746535D01*
X145973633Y-87735101D01*
X145938897Y-87716534D01*
X145908452Y-87691548D01*
X145883466Y-87661103D01*
X145864899Y-87626367D01*
X145853465Y-87588674D01*
X145849000Y-87543339D01*
X145849000Y-86456661D01*
X145853465Y-86411326D01*
X145864899Y-86373633D01*
X145883466Y-86338897D01*
X145908452Y-86308452D01*
X145938897Y-86283466D01*
X145973633Y-86264899D01*
X146011326Y-86253465D01*
X146056661Y-86249000D01*
X146893339Y-86249000D01*
X146938674Y-86253465D01*
X146938674Y-86253465D01*
G37*
G36*
X144888674Y-86253465D02*
G01*
X144926367Y-86264899D01*
X144961103Y-86283466D01*
X144991548Y-86308452D01*
X145016534Y-86338897D01*
X145035101Y-86373633D01*
X145046535Y-86411326D01*
X145051000Y-86456661D01*
X145051000Y-87543339D01*
X145046535Y-87588674D01*
X145035101Y-87626367D01*
X145016534Y-87661103D01*
X144991548Y-87691548D01*
X144961103Y-87716534D01*
X144926367Y-87735101D01*
X144888674Y-87746535D01*
X144843339Y-87751000D01*
X144006661Y-87751000D01*
X143961326Y-87746535D01*
X143923633Y-87735101D01*
X143888897Y-87716534D01*
X143858452Y-87691548D01*
X143833466Y-87661103D01*
X143814899Y-87626367D01*
X143803465Y-87588674D01*
X143799000Y-87543339D01*
X143799000Y-86456661D01*
X143803465Y-86411326D01*
X143814899Y-86373633D01*
X143833466Y-86338897D01*
X143858452Y-86308452D01*
X143888897Y-86283466D01*
X143923633Y-86264899D01*
X143961326Y-86253465D01*
X144006661Y-86249000D01*
X144843339Y-86249000D01*
X144888674Y-86253465D01*
X144888674Y-86253465D01*
G37*
G36*
X142838674Y-86253465D02*
G01*
X142876367Y-86264899D01*
X142911103Y-86283466D01*
X142941548Y-86308452D01*
X142966534Y-86338897D01*
X142985101Y-86373633D01*
X142996535Y-86411326D01*
X143001000Y-86456661D01*
X143001000Y-87543339D01*
X142996535Y-87588674D01*
X142985101Y-87626367D01*
X142966534Y-87661103D01*
X142941548Y-87691548D01*
X142911103Y-87716534D01*
X142876367Y-87735101D01*
X142838674Y-87746535D01*
X142793339Y-87751000D01*
X141956661Y-87751000D01*
X141911326Y-87746535D01*
X141873633Y-87735101D01*
X141838897Y-87716534D01*
X141808452Y-87691548D01*
X141783466Y-87661103D01*
X141764899Y-87626367D01*
X141753465Y-87588674D01*
X141749000Y-87543339D01*
X141749000Y-86456661D01*
X141753465Y-86411326D01*
X141764899Y-86373633D01*
X141783466Y-86338897D01*
X141808452Y-86308452D01*
X141838897Y-86283466D01*
X141873633Y-86264899D01*
X141911326Y-86253465D01*
X141956661Y-86249000D01*
X142793339Y-86249000D01*
X142838674Y-86253465D01*
X142838674Y-86253465D01*
G37*
G36*
X151251000Y-87651000D02*
G01*
X150249000Y-87651000D01*
X150249000Y-86749000D01*
X151251000Y-86749000D01*
X151251000Y-87651000D01*
X151251000Y-87651000D01*
G37*
G36*
X126581000Y-86957000D02*
G01*
X124879000Y-86957000D01*
X124879000Y-85255000D01*
X126581000Y-85255000D01*
X126581000Y-86957000D01*
X126581000Y-86957000D01*
G37*
G36*
X118276823Y-85267313D02*
G01*
X118437242Y-85315976D01*
X118554828Y-85378827D01*
X118585078Y-85394996D01*
X118714659Y-85501341D01*
X118821004Y-85630922D01*
X118821005Y-85630924D01*
X118900024Y-85778758D01*
X118948687Y-85939177D01*
X118965117Y-86106000D01*
X118948687Y-86272823D01*
X118900024Y-86433242D01*
X118887506Y-86456661D01*
X118821004Y-86581078D01*
X118714659Y-86710659D01*
X118585078Y-86817004D01*
X118585076Y-86817005D01*
X118437242Y-86896024D01*
X118276823Y-86944687D01*
X118151804Y-86957000D01*
X118068196Y-86957000D01*
X117943177Y-86944687D01*
X117782758Y-86896024D01*
X117634924Y-86817005D01*
X117634922Y-86817004D01*
X117505341Y-86710659D01*
X117398996Y-86581078D01*
X117332494Y-86456661D01*
X117319976Y-86433242D01*
X117271313Y-86272823D01*
X117254883Y-86106000D01*
X117271313Y-85939177D01*
X117319976Y-85778758D01*
X117398995Y-85630924D01*
X117398996Y-85630922D01*
X117505341Y-85501341D01*
X117634922Y-85394996D01*
X117665172Y-85378827D01*
X117782758Y-85315976D01*
X117943177Y-85267313D01*
X118068196Y-85255000D01*
X118151804Y-85255000D01*
X118276823Y-85267313D01*
X118276823Y-85267313D01*
G37*
G36*
X131288674Y-85453465D02*
G01*
X131326367Y-85464899D01*
X131361103Y-85483466D01*
X131391548Y-85508452D01*
X131416534Y-85538897D01*
X131435101Y-85573633D01*
X131446535Y-85611326D01*
X131451000Y-85656661D01*
X131451000Y-86743339D01*
X131446535Y-86788674D01*
X131435101Y-86826367D01*
X131416534Y-86861103D01*
X131391548Y-86891548D01*
X131361103Y-86916534D01*
X131326367Y-86935101D01*
X131288674Y-86946535D01*
X131243339Y-86951000D01*
X130406661Y-86951000D01*
X130361326Y-86946535D01*
X130323633Y-86935101D01*
X130288897Y-86916534D01*
X130258452Y-86891548D01*
X130233466Y-86861103D01*
X130214899Y-86826367D01*
X130203465Y-86788674D01*
X130199000Y-86743339D01*
X130199000Y-85656661D01*
X130203465Y-85611326D01*
X130214899Y-85573633D01*
X130233466Y-85538897D01*
X130258452Y-85508452D01*
X130288897Y-85483466D01*
X130323633Y-85464899D01*
X130361326Y-85453465D01*
X130406661Y-85449000D01*
X131243339Y-85449000D01*
X131288674Y-85453465D01*
X131288674Y-85453465D01*
G37*
G36*
X129238674Y-85453465D02*
G01*
X129276367Y-85464899D01*
X129311103Y-85483466D01*
X129341548Y-85508452D01*
X129366534Y-85538897D01*
X129385101Y-85573633D01*
X129396535Y-85611326D01*
X129401000Y-85656661D01*
X129401000Y-86743339D01*
X129396535Y-86788674D01*
X129385101Y-86826367D01*
X129366534Y-86861103D01*
X129341548Y-86891548D01*
X129311103Y-86916534D01*
X129276367Y-86935101D01*
X129238674Y-86946535D01*
X129193339Y-86951000D01*
X128356661Y-86951000D01*
X128311326Y-86946535D01*
X128273633Y-86935101D01*
X128238897Y-86916534D01*
X128208452Y-86891548D01*
X128183466Y-86861103D01*
X128164899Y-86826367D01*
X128153465Y-86788674D01*
X128149000Y-86743339D01*
X128149000Y-85656661D01*
X128153465Y-85611326D01*
X128164899Y-85573633D01*
X128183466Y-85538897D01*
X128208452Y-85508452D01*
X128238897Y-85483466D01*
X128273633Y-85464899D01*
X128311326Y-85453465D01*
X128356661Y-85449000D01*
X129193339Y-85449000D01*
X129238674Y-85453465D01*
X129238674Y-85453465D01*
G37*
G36*
X153251000Y-86701000D02*
G01*
X152249000Y-86701000D01*
X152249000Y-85799000D01*
X153251000Y-85799000D01*
X153251000Y-86701000D01*
X153251000Y-86701000D01*
G37*
G36*
X133288674Y-85328465D02*
G01*
X133326367Y-85339899D01*
X133361103Y-85358466D01*
X133391548Y-85383452D01*
X133416534Y-85413897D01*
X133435101Y-85448633D01*
X133446535Y-85486326D01*
X133451000Y-85531661D01*
X133451000Y-86368339D01*
X133446535Y-86413674D01*
X133435101Y-86451367D01*
X133416534Y-86486103D01*
X133391548Y-86516548D01*
X133361103Y-86541534D01*
X133326367Y-86560101D01*
X133288674Y-86571535D01*
X133243339Y-86576000D01*
X132156661Y-86576000D01*
X132111326Y-86571535D01*
X132073633Y-86560101D01*
X132038897Y-86541534D01*
X132008452Y-86516548D01*
X131983466Y-86486103D01*
X131964899Y-86451367D01*
X131953465Y-86413674D01*
X131949000Y-86368339D01*
X131949000Y-85531661D01*
X131953465Y-85486326D01*
X131964899Y-85448633D01*
X131983466Y-85413897D01*
X132008452Y-85383452D01*
X132038897Y-85358466D01*
X132073633Y-85339899D01*
X132111326Y-85328465D01*
X132156661Y-85324000D01*
X133243339Y-85324000D01*
X133288674Y-85328465D01*
X133288674Y-85328465D01*
G37*
G36*
X110401000Y-86301000D02*
G01*
X108599000Y-86301000D01*
X108599000Y-84499000D01*
X110401000Y-84499000D01*
X110401000Y-86301000D01*
X110401000Y-86301000D01*
G37*
G36*
X96490442Y-84449518D02*
G01*
X96556627Y-84456037D01*
X96726466Y-84507557D01*
X96726468Y-84507558D01*
X96749674Y-84519962D01*
X96882991Y-84591222D01*
X96915711Y-84618075D01*
X97020186Y-84703814D01*
X97103448Y-84805271D01*
X97132778Y-84841009D01*
X97216443Y-84997534D01*
X97267963Y-85167373D01*
X97285359Y-85344000D01*
X97267963Y-85520627D01*
X97216443Y-85690466D01*
X97132778Y-85846991D01*
X97103448Y-85882729D01*
X97020186Y-85984186D01*
X96918729Y-86067448D01*
X96882991Y-86096778D01*
X96726466Y-86180443D01*
X96556627Y-86231963D01*
X96490442Y-86238482D01*
X96424260Y-86245000D01*
X96335740Y-86245000D01*
X96269558Y-86238482D01*
X96203373Y-86231963D01*
X96033534Y-86180443D01*
X95877009Y-86096778D01*
X95841271Y-86067448D01*
X95739814Y-85984186D01*
X95656552Y-85882729D01*
X95627222Y-85846991D01*
X95543557Y-85690466D01*
X95492037Y-85520627D01*
X95474641Y-85344000D01*
X95492037Y-85167373D01*
X95543557Y-84997534D01*
X95627222Y-84841009D01*
X95656552Y-84805271D01*
X95739814Y-84703814D01*
X95844289Y-84618075D01*
X95877009Y-84591222D01*
X96010326Y-84519962D01*
X96033532Y-84507558D01*
X96033534Y-84507557D01*
X96203373Y-84456037D01*
X96269558Y-84449518D01*
X96335740Y-84443000D01*
X96424260Y-84443000D01*
X96490442Y-84449518D01*
X96490442Y-84449518D01*
G37*
G36*
X104901000Y-86245000D02*
G01*
X103099000Y-86245000D01*
X103099000Y-84443000D01*
X104901000Y-84443000D01*
X104901000Y-86245000D01*
X104901000Y-86245000D01*
G37*
G36*
X101570442Y-84449518D02*
G01*
X101636627Y-84456037D01*
X101806466Y-84507557D01*
X101806468Y-84507558D01*
X101829674Y-84519962D01*
X101962991Y-84591222D01*
X101995711Y-84618075D01*
X102100186Y-84703814D01*
X102183448Y-84805271D01*
X102212778Y-84841009D01*
X102296443Y-84997534D01*
X102347963Y-85167373D01*
X102365359Y-85344000D01*
X102347963Y-85520627D01*
X102296443Y-85690466D01*
X102212778Y-85846991D01*
X102183448Y-85882729D01*
X102100186Y-85984186D01*
X101998729Y-86067448D01*
X101962991Y-86096778D01*
X101806466Y-86180443D01*
X101636627Y-86231963D01*
X101570442Y-86238482D01*
X101504260Y-86245000D01*
X101415740Y-86245000D01*
X101349558Y-86238482D01*
X101283373Y-86231963D01*
X101113534Y-86180443D01*
X100957009Y-86096778D01*
X100921271Y-86067448D01*
X100819814Y-85984186D01*
X100736552Y-85882729D01*
X100707222Y-85846991D01*
X100623557Y-85690466D01*
X100572037Y-85520627D01*
X100554641Y-85344000D01*
X100572037Y-85167373D01*
X100623557Y-84997534D01*
X100707222Y-84841009D01*
X100736552Y-84805271D01*
X100819814Y-84703814D01*
X100924289Y-84618075D01*
X100957009Y-84591222D01*
X101090326Y-84519962D01*
X101113532Y-84507558D01*
X101113534Y-84507557D01*
X101283373Y-84456037D01*
X101349558Y-84449518D01*
X101415740Y-84443000D01*
X101504260Y-84443000D01*
X101570442Y-84449518D01*
X101570442Y-84449518D01*
G37*
G36*
X99030442Y-84449518D02*
G01*
X99096627Y-84456037D01*
X99266466Y-84507557D01*
X99266468Y-84507558D01*
X99289674Y-84519962D01*
X99422991Y-84591222D01*
X99455711Y-84618075D01*
X99560186Y-84703814D01*
X99643448Y-84805271D01*
X99672778Y-84841009D01*
X99756443Y-84997534D01*
X99807963Y-85167373D01*
X99825359Y-85344000D01*
X99807963Y-85520627D01*
X99756443Y-85690466D01*
X99672778Y-85846991D01*
X99643448Y-85882729D01*
X99560186Y-85984186D01*
X99458729Y-86067448D01*
X99422991Y-86096778D01*
X99266466Y-86180443D01*
X99096627Y-86231963D01*
X99030442Y-86238482D01*
X98964260Y-86245000D01*
X98875740Y-86245000D01*
X98809558Y-86238482D01*
X98743373Y-86231963D01*
X98573534Y-86180443D01*
X98417009Y-86096778D01*
X98381271Y-86067448D01*
X98279814Y-85984186D01*
X98196552Y-85882729D01*
X98167222Y-85846991D01*
X98083557Y-85690466D01*
X98032037Y-85520627D01*
X98014641Y-85344000D01*
X98032037Y-85167373D01*
X98083557Y-84997534D01*
X98167222Y-84841009D01*
X98196552Y-84805271D01*
X98279814Y-84703814D01*
X98384289Y-84618075D01*
X98417009Y-84591222D01*
X98550326Y-84519962D01*
X98573532Y-84507558D01*
X98573534Y-84507557D01*
X98743373Y-84456037D01*
X98809558Y-84449518D01*
X98875740Y-84443000D01*
X98964260Y-84443000D01*
X99030442Y-84449518D01*
X99030442Y-84449518D01*
G37*
G36*
X151251000Y-85751000D02*
G01*
X150249000Y-85751000D01*
X150249000Y-84849000D01*
X151251000Y-84849000D01*
X151251000Y-85751000D01*
X151251000Y-85751000D01*
G37*
G36*
X144988674Y-84403465D02*
G01*
X145026367Y-84414899D01*
X145061103Y-84433466D01*
X145091548Y-84458452D01*
X145116534Y-84488897D01*
X145135101Y-84523633D01*
X145146535Y-84561326D01*
X145151000Y-84606661D01*
X145151000Y-85443339D01*
X145146535Y-85488674D01*
X145135101Y-85526367D01*
X145116534Y-85561103D01*
X145091548Y-85591548D01*
X145061103Y-85616534D01*
X145026367Y-85635101D01*
X144988674Y-85646535D01*
X144943339Y-85651000D01*
X143856661Y-85651000D01*
X143811326Y-85646535D01*
X143773633Y-85635101D01*
X143738897Y-85616534D01*
X143708452Y-85591548D01*
X143683466Y-85561103D01*
X143664899Y-85526367D01*
X143653465Y-85488674D01*
X143649000Y-85443339D01*
X143649000Y-84606661D01*
X143653465Y-84561326D01*
X143664899Y-84523633D01*
X143683466Y-84488897D01*
X143708452Y-84458452D01*
X143738897Y-84433466D01*
X143773633Y-84414899D01*
X143811326Y-84403465D01*
X143856661Y-84399000D01*
X144943339Y-84399000D01*
X144988674Y-84403465D01*
X144988674Y-84403465D01*
G37*
G36*
X142788674Y-84403465D02*
G01*
X142826367Y-84414899D01*
X142861103Y-84433466D01*
X142891548Y-84458452D01*
X142916534Y-84488897D01*
X142935101Y-84523633D01*
X142946535Y-84561326D01*
X142951000Y-84606661D01*
X142951000Y-85443339D01*
X142946535Y-85488674D01*
X142935101Y-85526367D01*
X142916534Y-85561103D01*
X142891548Y-85591548D01*
X142861103Y-85616534D01*
X142826367Y-85635101D01*
X142788674Y-85646535D01*
X142743339Y-85651000D01*
X141656661Y-85651000D01*
X141611326Y-85646535D01*
X141573633Y-85635101D01*
X141538897Y-85616534D01*
X141508452Y-85591548D01*
X141483466Y-85561103D01*
X141464899Y-85526367D01*
X141453465Y-85488674D01*
X141449000Y-85443339D01*
X141449000Y-84606661D01*
X141453465Y-84561326D01*
X141464899Y-84523633D01*
X141483466Y-84488897D01*
X141508452Y-84458452D01*
X141538897Y-84433466D01*
X141573633Y-84414899D01*
X141611326Y-84403465D01*
X141656661Y-84399000D01*
X142743339Y-84399000D01*
X142788674Y-84403465D01*
X142788674Y-84403465D01*
G37*
G36*
X140164928Y-82701764D02*
G01*
X140186009Y-82708160D01*
X140205445Y-82718548D01*
X140222476Y-82732524D01*
X140236452Y-82749555D01*
X140246840Y-82768991D01*
X140253236Y-82790072D01*
X140256000Y-82818140D01*
X140256000Y-84631860D01*
X140253236Y-84659928D01*
X140246840Y-84681009D01*
X140236452Y-84700445D01*
X140222476Y-84717476D01*
X140205445Y-84731452D01*
X140186009Y-84741840D01*
X140164928Y-84748236D01*
X140136860Y-84751000D01*
X139673140Y-84751000D01*
X139645072Y-84748236D01*
X139623991Y-84741840D01*
X139604555Y-84731452D01*
X139587524Y-84717476D01*
X139573548Y-84700445D01*
X139563160Y-84681009D01*
X139556764Y-84659928D01*
X139554000Y-84631860D01*
X139554000Y-82818140D01*
X139556764Y-82790072D01*
X139563160Y-82768991D01*
X139573548Y-82749555D01*
X139587524Y-82732524D01*
X139604555Y-82718548D01*
X139623991Y-82708160D01*
X139645072Y-82701764D01*
X139673140Y-82699000D01*
X140136860Y-82699000D01*
X140164928Y-82701764D01*
X140164928Y-82701764D01*
G37*
G36*
X138894928Y-82701764D02*
G01*
X138916009Y-82708160D01*
X138935445Y-82718548D01*
X138952476Y-82732524D01*
X138966452Y-82749555D01*
X138976840Y-82768991D01*
X138983236Y-82790072D01*
X138986000Y-82818140D01*
X138986000Y-84631860D01*
X138983236Y-84659928D01*
X138976840Y-84681009D01*
X138966452Y-84700445D01*
X138952476Y-84717476D01*
X138935445Y-84731452D01*
X138916009Y-84741840D01*
X138894928Y-84748236D01*
X138866860Y-84751000D01*
X138403140Y-84751000D01*
X138375072Y-84748236D01*
X138353991Y-84741840D01*
X138334555Y-84731452D01*
X138317524Y-84717476D01*
X138303548Y-84700445D01*
X138293160Y-84681009D01*
X138286764Y-84659928D01*
X138284000Y-84631860D01*
X138284000Y-82818140D01*
X138286764Y-82790072D01*
X138293160Y-82768991D01*
X138303548Y-82749555D01*
X138317524Y-82732524D01*
X138334555Y-82718548D01*
X138353991Y-82708160D01*
X138375072Y-82701764D01*
X138403140Y-82699000D01*
X138866860Y-82699000D01*
X138894928Y-82701764D01*
X138894928Y-82701764D01*
G37*
G36*
X137624928Y-82701764D02*
G01*
X137646009Y-82708160D01*
X137665445Y-82718548D01*
X137682476Y-82732524D01*
X137696452Y-82749555D01*
X137706840Y-82768991D01*
X137713236Y-82790072D01*
X137716000Y-82818140D01*
X137716000Y-84631860D01*
X137713236Y-84659928D01*
X137706840Y-84681009D01*
X137696452Y-84700445D01*
X137682476Y-84717476D01*
X137665445Y-84731452D01*
X137646009Y-84741840D01*
X137624928Y-84748236D01*
X137596860Y-84751000D01*
X137133140Y-84751000D01*
X137105072Y-84748236D01*
X137083991Y-84741840D01*
X137064555Y-84731452D01*
X137047524Y-84717476D01*
X137033548Y-84700445D01*
X137023160Y-84681009D01*
X137016764Y-84659928D01*
X137014000Y-84631860D01*
X137014000Y-82818140D01*
X137016764Y-82790072D01*
X137023160Y-82768991D01*
X137033548Y-82749555D01*
X137047524Y-82732524D01*
X137064555Y-82718548D01*
X137083991Y-82708160D01*
X137105072Y-82701764D01*
X137133140Y-82699000D01*
X137596860Y-82699000D01*
X137624928Y-82701764D01*
X137624928Y-82701764D01*
G37*
G36*
X136354928Y-82701764D02*
G01*
X136376009Y-82708160D01*
X136395445Y-82718548D01*
X136412476Y-82732524D01*
X136426452Y-82749555D01*
X136436840Y-82768991D01*
X136443236Y-82790072D01*
X136446000Y-82818140D01*
X136446000Y-84631860D01*
X136443236Y-84659928D01*
X136436840Y-84681009D01*
X136426452Y-84700445D01*
X136412476Y-84717476D01*
X136395445Y-84731452D01*
X136376009Y-84741840D01*
X136354928Y-84748236D01*
X136326860Y-84751000D01*
X135863140Y-84751000D01*
X135835072Y-84748236D01*
X135813991Y-84741840D01*
X135794555Y-84731452D01*
X135777524Y-84717476D01*
X135763548Y-84700445D01*
X135753160Y-84681009D01*
X135746764Y-84659928D01*
X135744000Y-84631860D01*
X135744000Y-82818140D01*
X135746764Y-82790072D01*
X135753160Y-82768991D01*
X135763548Y-82749555D01*
X135777524Y-82732524D01*
X135794555Y-82718548D01*
X135813991Y-82708160D01*
X135835072Y-82701764D01*
X135863140Y-82699000D01*
X136326860Y-82699000D01*
X136354928Y-82701764D01*
X136354928Y-82701764D01*
G37*
G36*
X133288674Y-83278465D02*
G01*
X133326367Y-83289899D01*
X133361103Y-83308466D01*
X133391548Y-83333452D01*
X133416534Y-83363897D01*
X133435101Y-83398633D01*
X133446535Y-83436326D01*
X133451000Y-83481661D01*
X133451000Y-84318339D01*
X133446535Y-84363674D01*
X133435101Y-84401367D01*
X133416534Y-84436103D01*
X133391548Y-84466548D01*
X133361103Y-84491534D01*
X133326367Y-84510101D01*
X133288674Y-84521535D01*
X133243339Y-84526000D01*
X132156661Y-84526000D01*
X132111326Y-84521535D01*
X132073633Y-84510101D01*
X132038897Y-84491534D01*
X132008452Y-84466548D01*
X131983466Y-84436103D01*
X131964899Y-84401367D01*
X131953465Y-84363674D01*
X131949000Y-84318339D01*
X131949000Y-83481661D01*
X131953465Y-83436326D01*
X131964899Y-83398633D01*
X131983466Y-83363897D01*
X132008452Y-83333452D01*
X132038897Y-83308466D01*
X132073633Y-83289899D01*
X132111326Y-83278465D01*
X132156661Y-83274000D01*
X133243339Y-83274000D01*
X133288674Y-83278465D01*
X133288674Y-83278465D01*
G37*
G36*
X118276823Y-82727313D02*
G01*
X118437242Y-82775976D01*
X118569906Y-82846886D01*
X118585078Y-82854996D01*
X118714659Y-82961341D01*
X118821004Y-83090922D01*
X118821005Y-83090924D01*
X118900024Y-83238758D01*
X118948687Y-83399177D01*
X118965117Y-83566000D01*
X118948687Y-83732823D01*
X118900024Y-83893242D01*
X118829114Y-84025906D01*
X118821004Y-84041078D01*
X118714659Y-84170659D01*
X118585078Y-84277004D01*
X118585076Y-84277005D01*
X118437242Y-84356024D01*
X118276823Y-84404687D01*
X118151804Y-84417000D01*
X118068196Y-84417000D01*
X117943177Y-84404687D01*
X117782758Y-84356024D01*
X117634924Y-84277005D01*
X117634922Y-84277004D01*
X117505341Y-84170659D01*
X117398996Y-84041078D01*
X117390886Y-84025906D01*
X117319976Y-83893242D01*
X117271313Y-83732823D01*
X117254883Y-83566000D01*
X117271313Y-83399177D01*
X117319976Y-83238758D01*
X117398995Y-83090924D01*
X117398996Y-83090922D01*
X117505341Y-82961341D01*
X117634922Y-82854996D01*
X117650094Y-82846886D01*
X117782758Y-82775976D01*
X117943177Y-82727313D01*
X118068196Y-82715000D01*
X118151804Y-82715000D01*
X118276823Y-82727313D01*
X118276823Y-82727313D01*
G37*
G36*
X125896823Y-82727313D02*
G01*
X126057242Y-82775976D01*
X126189906Y-82846886D01*
X126205078Y-82854996D01*
X126334659Y-82961341D01*
X126441004Y-83090922D01*
X126441005Y-83090924D01*
X126520024Y-83238758D01*
X126568687Y-83399177D01*
X126585117Y-83566000D01*
X126568687Y-83732823D01*
X126520024Y-83893242D01*
X126449114Y-84025906D01*
X126441004Y-84041078D01*
X126334659Y-84170659D01*
X126205078Y-84277004D01*
X126205076Y-84277005D01*
X126057242Y-84356024D01*
X125896823Y-84404687D01*
X125771804Y-84417000D01*
X125688196Y-84417000D01*
X125563177Y-84404687D01*
X125402758Y-84356024D01*
X125254924Y-84277005D01*
X125254922Y-84277004D01*
X125125341Y-84170659D01*
X125018996Y-84041078D01*
X125010886Y-84025906D01*
X124939976Y-83893242D01*
X124891313Y-83732823D01*
X124874883Y-83566000D01*
X124891313Y-83399177D01*
X124939976Y-83238758D01*
X125018995Y-83090924D01*
X125018996Y-83090922D01*
X125125341Y-82961341D01*
X125254922Y-82854996D01*
X125270094Y-82846886D01*
X125402758Y-82775976D01*
X125563177Y-82727313D01*
X125688196Y-82715000D01*
X125771804Y-82715000D01*
X125896823Y-82727313D01*
X125896823Y-82727313D01*
G37*
G36*
X109610442Y-81965518D02*
G01*
X109676627Y-81972037D01*
X109846466Y-82023557D01*
X110002991Y-82107222D01*
X110029184Y-82128718D01*
X110140186Y-82219814D01*
X110223368Y-82321173D01*
X110252778Y-82357009D01*
X110336443Y-82513534D01*
X110387963Y-82683373D01*
X110405359Y-82860000D01*
X110387963Y-83036627D01*
X110336443Y-83206466D01*
X110252778Y-83362991D01*
X110252034Y-83363897D01*
X110140186Y-83500186D01*
X110042587Y-83580282D01*
X110002991Y-83612778D01*
X109846466Y-83696443D01*
X109676627Y-83747963D01*
X109610443Y-83754481D01*
X109544260Y-83761000D01*
X109455740Y-83761000D01*
X109389557Y-83754481D01*
X109323373Y-83747963D01*
X109153534Y-83696443D01*
X108997009Y-83612778D01*
X108957413Y-83580282D01*
X108859814Y-83500186D01*
X108747966Y-83363897D01*
X108747222Y-83362991D01*
X108663557Y-83206466D01*
X108612037Y-83036627D01*
X108594641Y-82860000D01*
X108612037Y-82683373D01*
X108663557Y-82513534D01*
X108747222Y-82357009D01*
X108776632Y-82321173D01*
X108859814Y-82219814D01*
X108970816Y-82128718D01*
X108997009Y-82107222D01*
X109153534Y-82023557D01*
X109323373Y-81972037D01*
X109389558Y-81965518D01*
X109455740Y-81959000D01*
X109544260Y-81959000D01*
X109610442Y-81965518D01*
X109610442Y-81965518D01*
G37*
G36*
X142788674Y-82353465D02*
G01*
X142826367Y-82364899D01*
X142861103Y-82383466D01*
X142891548Y-82408452D01*
X142916534Y-82438897D01*
X142935101Y-82473633D01*
X142946535Y-82511326D01*
X142951000Y-82556661D01*
X142951000Y-83393339D01*
X142946535Y-83438674D01*
X142935101Y-83476367D01*
X142916534Y-83511103D01*
X142891548Y-83541548D01*
X142861103Y-83566534D01*
X142826367Y-83585101D01*
X142788674Y-83596535D01*
X142743339Y-83601000D01*
X141656661Y-83601000D01*
X141611326Y-83596535D01*
X141573633Y-83585101D01*
X141538897Y-83566534D01*
X141508452Y-83541548D01*
X141483466Y-83511103D01*
X141464899Y-83476367D01*
X141453465Y-83438674D01*
X141449000Y-83393339D01*
X141449000Y-82556661D01*
X141453465Y-82511326D01*
X141464899Y-82473633D01*
X141483466Y-82438897D01*
X141508452Y-82408452D01*
X141538897Y-82383466D01*
X141573633Y-82364899D01*
X141611326Y-82353465D01*
X141656661Y-82349000D01*
X142743339Y-82349000D01*
X142788674Y-82353465D01*
X142788674Y-82353465D01*
G37*
G36*
X144988674Y-82353465D02*
G01*
X145026367Y-82364899D01*
X145061103Y-82383466D01*
X145091548Y-82408452D01*
X145116534Y-82438897D01*
X145135101Y-82473633D01*
X145146535Y-82511326D01*
X145151000Y-82556661D01*
X145151000Y-83393339D01*
X145146535Y-83438674D01*
X145135101Y-83476367D01*
X145116534Y-83511103D01*
X145091548Y-83541548D01*
X145061103Y-83566534D01*
X145026367Y-83585101D01*
X144988674Y-83596535D01*
X144943339Y-83601000D01*
X143856661Y-83601000D01*
X143811326Y-83596535D01*
X143773633Y-83585101D01*
X143738897Y-83566534D01*
X143708452Y-83541548D01*
X143683466Y-83511103D01*
X143664899Y-83476367D01*
X143653465Y-83438674D01*
X143649000Y-83393339D01*
X143649000Y-82556661D01*
X143653465Y-82511326D01*
X143664899Y-82473633D01*
X143683466Y-82438897D01*
X143708452Y-82408452D01*
X143738897Y-82383466D01*
X143773633Y-82364899D01*
X143811326Y-82353465D01*
X143856661Y-82349000D01*
X144943339Y-82349000D01*
X144988674Y-82353465D01*
X144988674Y-82353465D01*
G37*
G36*
X113213674Y-82053465D02*
G01*
X113251367Y-82064899D01*
X113286103Y-82083466D01*
X113316548Y-82108452D01*
X113341534Y-82138897D01*
X113360101Y-82173633D01*
X113371535Y-82211326D01*
X113376000Y-82256661D01*
X113376000Y-83343339D01*
X113371535Y-83388674D01*
X113360101Y-83426367D01*
X113341534Y-83461103D01*
X113316548Y-83491548D01*
X113286103Y-83516534D01*
X113251367Y-83535101D01*
X113213674Y-83546535D01*
X113168339Y-83551000D01*
X112331661Y-83551000D01*
X112286326Y-83546535D01*
X112248633Y-83535101D01*
X112213897Y-83516534D01*
X112183452Y-83491548D01*
X112158466Y-83461103D01*
X112139899Y-83426367D01*
X112128465Y-83388674D01*
X112124000Y-83343339D01*
X112124000Y-82256661D01*
X112128465Y-82211326D01*
X112139899Y-82173633D01*
X112158466Y-82138897D01*
X112183452Y-82108452D01*
X112213897Y-82083466D01*
X112248633Y-82064899D01*
X112286326Y-82053465D01*
X112331661Y-82049000D01*
X113168339Y-82049000D01*
X113213674Y-82053465D01*
X113213674Y-82053465D01*
G37*
G36*
X115263674Y-82053465D02*
G01*
X115301367Y-82064899D01*
X115336103Y-82083466D01*
X115366548Y-82108452D01*
X115391534Y-82138897D01*
X115410101Y-82173633D01*
X115421535Y-82211326D01*
X115426000Y-82256661D01*
X115426000Y-83343339D01*
X115421535Y-83388674D01*
X115410101Y-83426367D01*
X115391534Y-83461103D01*
X115366548Y-83491548D01*
X115336103Y-83516534D01*
X115301367Y-83535101D01*
X115263674Y-83546535D01*
X115218339Y-83551000D01*
X114381661Y-83551000D01*
X114336326Y-83546535D01*
X114298633Y-83535101D01*
X114263897Y-83516534D01*
X114233452Y-83491548D01*
X114208466Y-83461103D01*
X114189899Y-83426367D01*
X114178465Y-83388674D01*
X114174000Y-83343339D01*
X114174000Y-82256661D01*
X114178465Y-82211326D01*
X114189899Y-82173633D01*
X114208466Y-82138897D01*
X114233452Y-82108452D01*
X114263897Y-82083466D01*
X114298633Y-82064899D01*
X114336326Y-82053465D01*
X114381661Y-82049000D01*
X115218339Y-82049000D01*
X115263674Y-82053465D01*
X115263674Y-82053465D01*
G37*
G36*
X168210915Y-80052934D02*
G01*
X168243424Y-80062795D01*
X168273382Y-80078809D01*
X168299641Y-80100359D01*
X168321191Y-80126618D01*
X168337205Y-80156576D01*
X168347066Y-80189085D01*
X168351000Y-80229029D01*
X168351000Y-81770971D01*
X168347066Y-81810915D01*
X168337205Y-81843424D01*
X168321191Y-81873382D01*
X168299641Y-81899641D01*
X168273382Y-81921191D01*
X168243424Y-81937205D01*
X168210915Y-81947066D01*
X168170971Y-81951000D01*
X164829029Y-81951000D01*
X164789085Y-81947066D01*
X164756576Y-81937205D01*
X164726618Y-81921191D01*
X164700359Y-81899641D01*
X164678809Y-81873382D01*
X164662795Y-81843424D01*
X164652934Y-81810915D01*
X164649000Y-81770971D01*
X164649000Y-80229029D01*
X164652934Y-80189085D01*
X164662795Y-80156576D01*
X164678809Y-80126618D01*
X164700359Y-80100359D01*
X164726618Y-80078809D01*
X164756576Y-80062795D01*
X164789085Y-80052934D01*
X164829029Y-80049000D01*
X168170971Y-80049000D01*
X168210915Y-80052934D01*
X168210915Y-80052934D01*
G37*
G36*
X149301000Y-81951000D02*
G01*
X146699000Y-81951000D01*
X146699000Y-80049000D01*
X149301000Y-80049000D01*
X149301000Y-81951000D01*
X149301000Y-81951000D01*
G37*
G36*
X153301000Y-81951000D02*
G01*
X150699000Y-81951000D01*
X150699000Y-80049000D01*
X153301000Y-80049000D01*
X153301000Y-81951000D01*
X153301000Y-81951000D01*
G37*
G36*
X118276823Y-80187313D02*
G01*
X118437242Y-80235976D01*
X118569906Y-80306886D01*
X118585078Y-80314996D01*
X118714659Y-80421341D01*
X118821004Y-80550922D01*
X118821005Y-80550924D01*
X118900024Y-80698758D01*
X118948687Y-80859177D01*
X118965117Y-81026000D01*
X118948687Y-81192823D01*
X118900024Y-81353242D01*
X118829114Y-81485906D01*
X118821004Y-81501078D01*
X118714659Y-81630659D01*
X118585078Y-81737004D01*
X118585076Y-81737005D01*
X118437242Y-81816024D01*
X118276823Y-81864687D01*
X118151804Y-81877000D01*
X118068196Y-81877000D01*
X117943177Y-81864687D01*
X117782758Y-81816024D01*
X117634924Y-81737005D01*
X117634922Y-81737004D01*
X117505341Y-81630659D01*
X117398996Y-81501078D01*
X117390886Y-81485906D01*
X117319976Y-81353242D01*
X117271313Y-81192823D01*
X117254883Y-81026000D01*
X117271313Y-80859177D01*
X117319976Y-80698758D01*
X117398995Y-80550924D01*
X117398996Y-80550922D01*
X117505341Y-80421341D01*
X117634922Y-80314996D01*
X117650094Y-80306886D01*
X117782758Y-80235976D01*
X117943177Y-80187313D01*
X118068196Y-80175000D01*
X118151804Y-80175000D01*
X118276823Y-80187313D01*
X118276823Y-80187313D01*
G37*
G36*
X125896823Y-80187313D02*
G01*
X126057242Y-80235976D01*
X126189906Y-80306886D01*
X126205078Y-80314996D01*
X126334659Y-80421341D01*
X126441004Y-80550922D01*
X126441005Y-80550924D01*
X126520024Y-80698758D01*
X126568687Y-80859177D01*
X126585117Y-81026000D01*
X126568687Y-81192823D01*
X126520024Y-81353242D01*
X126449114Y-81485906D01*
X126441004Y-81501078D01*
X126334659Y-81630659D01*
X126205078Y-81737004D01*
X126205076Y-81737005D01*
X126057242Y-81816024D01*
X125896823Y-81864687D01*
X125771804Y-81877000D01*
X125688196Y-81877000D01*
X125563177Y-81864687D01*
X125402758Y-81816024D01*
X125254924Y-81737005D01*
X125254922Y-81737004D01*
X125125341Y-81630659D01*
X125018996Y-81501078D01*
X125010886Y-81485906D01*
X124939976Y-81353242D01*
X124891313Y-81192823D01*
X124874883Y-81026000D01*
X124891313Y-80859177D01*
X124939976Y-80698758D01*
X125018995Y-80550924D01*
X125018996Y-80550922D01*
X125125341Y-80421341D01*
X125254922Y-80314996D01*
X125270094Y-80306886D01*
X125402758Y-80235976D01*
X125563177Y-80187313D01*
X125688196Y-80175000D01*
X125771804Y-80175000D01*
X125896823Y-80187313D01*
X125896823Y-80187313D01*
G37*
G36*
X162376000Y-81501000D02*
G01*
X161274000Y-81501000D01*
X161274000Y-80699000D01*
X162376000Y-80699000D01*
X162376000Y-81501000D01*
X162376000Y-81501000D01*
G37*
G36*
X156426000Y-81501000D02*
G01*
X155324000Y-81501000D01*
X155324000Y-80699000D01*
X156426000Y-80699000D01*
X156426000Y-81501000D01*
X156426000Y-81501000D01*
G37*
G36*
X115288674Y-79853465D02*
G01*
X115326367Y-79864899D01*
X115361103Y-79883466D01*
X115391548Y-79908452D01*
X115416534Y-79938897D01*
X115435101Y-79973633D01*
X115446535Y-80011326D01*
X115451000Y-80056661D01*
X115451000Y-81143339D01*
X115446535Y-81188674D01*
X115435101Y-81226367D01*
X115416534Y-81261103D01*
X115391548Y-81291548D01*
X115361103Y-81316534D01*
X115326367Y-81335101D01*
X115288674Y-81346535D01*
X115243339Y-81351000D01*
X114406661Y-81351000D01*
X114361326Y-81346535D01*
X114323633Y-81335101D01*
X114288897Y-81316534D01*
X114258452Y-81291548D01*
X114233466Y-81261103D01*
X114214899Y-81226367D01*
X114203465Y-81188674D01*
X114199000Y-81143339D01*
X114199000Y-80056661D01*
X114203465Y-80011326D01*
X114214899Y-79973633D01*
X114233466Y-79938897D01*
X114258452Y-79908452D01*
X114288897Y-79883466D01*
X114323633Y-79864899D01*
X114361326Y-79853465D01*
X114406661Y-79849000D01*
X115243339Y-79849000D01*
X115288674Y-79853465D01*
X115288674Y-79853465D01*
G37*
G36*
X113238674Y-79853465D02*
G01*
X113276367Y-79864899D01*
X113311103Y-79883466D01*
X113341548Y-79908452D01*
X113366534Y-79938897D01*
X113385101Y-79973633D01*
X113396535Y-80011326D01*
X113401000Y-80056661D01*
X113401000Y-81143339D01*
X113396535Y-81188674D01*
X113385101Y-81226367D01*
X113366534Y-81261103D01*
X113341548Y-81291548D01*
X113311103Y-81316534D01*
X113276367Y-81335101D01*
X113238674Y-81346535D01*
X113193339Y-81351000D01*
X112356661Y-81351000D01*
X112311326Y-81346535D01*
X112273633Y-81335101D01*
X112238897Y-81316534D01*
X112208452Y-81291548D01*
X112183466Y-81261103D01*
X112164899Y-81226367D01*
X112153465Y-81188674D01*
X112149000Y-81143339D01*
X112149000Y-80056661D01*
X112153465Y-80011326D01*
X112164899Y-79973633D01*
X112183466Y-79938897D01*
X112208452Y-79908452D01*
X112238897Y-79883466D01*
X112273633Y-79864899D01*
X112311326Y-79853465D01*
X112356661Y-79849000D01*
X113193339Y-79849000D01*
X113238674Y-79853465D01*
X113238674Y-79853465D01*
G37*
G36*
X109610442Y-79425518D02*
G01*
X109676627Y-79432037D01*
X109846466Y-79483557D01*
X110002991Y-79567222D01*
X110038729Y-79596552D01*
X110140186Y-79679814D01*
X110212127Y-79767476D01*
X110252778Y-79817009D01*
X110336443Y-79973534D01*
X110387963Y-80143373D01*
X110405359Y-80320000D01*
X110387963Y-80496627D01*
X110336443Y-80666466D01*
X110252778Y-80822991D01*
X110223448Y-80858729D01*
X110140186Y-80960186D01*
X110059990Y-81026000D01*
X110002991Y-81072778D01*
X109846466Y-81156443D01*
X109676627Y-81207963D01*
X109610442Y-81214482D01*
X109544260Y-81221000D01*
X109455740Y-81221000D01*
X109389558Y-81214482D01*
X109323373Y-81207963D01*
X109153534Y-81156443D01*
X108997009Y-81072778D01*
X108940010Y-81026000D01*
X108859814Y-80960186D01*
X108776552Y-80858729D01*
X108747222Y-80822991D01*
X108663557Y-80666466D01*
X108612037Y-80496627D01*
X108594641Y-80320000D01*
X108612037Y-80143373D01*
X108663557Y-79973534D01*
X108747222Y-79817009D01*
X108787873Y-79767476D01*
X108859814Y-79679814D01*
X108961271Y-79596552D01*
X108997009Y-79567222D01*
X109153534Y-79483557D01*
X109323373Y-79432037D01*
X109389558Y-79425518D01*
X109455740Y-79419000D01*
X109544260Y-79419000D01*
X109610442Y-79425518D01*
X109610442Y-79425518D01*
G37*
G36*
X129928674Y-79433465D02*
G01*
X129966367Y-79444899D01*
X130001103Y-79463466D01*
X130031548Y-79488452D01*
X130056534Y-79518897D01*
X130075101Y-79553633D01*
X130086535Y-79591326D01*
X130091000Y-79636661D01*
X130091000Y-80473339D01*
X130086535Y-80518674D01*
X130075101Y-80556367D01*
X130056534Y-80591103D01*
X130031548Y-80621548D01*
X130001103Y-80646534D01*
X129966367Y-80665101D01*
X129928674Y-80676535D01*
X129883339Y-80681000D01*
X128796661Y-80681000D01*
X128751326Y-80676535D01*
X128713633Y-80665101D01*
X128678897Y-80646534D01*
X128648452Y-80621548D01*
X128623466Y-80591103D01*
X128604899Y-80556367D01*
X128593465Y-80518674D01*
X128589000Y-80473339D01*
X128589000Y-79636661D01*
X128593465Y-79591326D01*
X128604899Y-79553633D01*
X128623466Y-79518897D01*
X128648452Y-79488452D01*
X128678897Y-79463466D01*
X128713633Y-79444899D01*
X128751326Y-79433465D01*
X128796661Y-79429000D01*
X129883339Y-79429000D01*
X129928674Y-79433465D01*
X129928674Y-79433465D01*
G37*
G36*
X138894928Y-77751764D02*
G01*
X138916009Y-77758160D01*
X138935445Y-77768548D01*
X138952476Y-77782524D01*
X138966452Y-77799555D01*
X138976840Y-77818991D01*
X138983236Y-77840072D01*
X138986000Y-77868140D01*
X138986000Y-79681860D01*
X138983236Y-79709928D01*
X138976840Y-79731009D01*
X138966452Y-79750445D01*
X138952476Y-79767476D01*
X138935445Y-79781452D01*
X138916009Y-79791840D01*
X138894928Y-79798236D01*
X138866860Y-79801000D01*
X138403140Y-79801000D01*
X138375072Y-79798236D01*
X138353991Y-79791840D01*
X138334555Y-79781452D01*
X138317524Y-79767476D01*
X138303548Y-79750445D01*
X138293160Y-79731009D01*
X138286764Y-79709928D01*
X138284000Y-79681860D01*
X138284000Y-77868140D01*
X138286764Y-77840072D01*
X138293160Y-77818991D01*
X138303548Y-77799555D01*
X138317524Y-77782524D01*
X138334555Y-77768548D01*
X138353991Y-77758160D01*
X138375072Y-77751764D01*
X138403140Y-77749000D01*
X138866860Y-77749000D01*
X138894928Y-77751764D01*
X138894928Y-77751764D01*
G37*
G36*
X140164928Y-77751764D02*
G01*
X140186009Y-77758160D01*
X140205445Y-77768548D01*
X140222476Y-77782524D01*
X140236452Y-77799555D01*
X140246840Y-77818991D01*
X140253236Y-77840072D01*
X140256000Y-77868140D01*
X140256000Y-79681860D01*
X140253236Y-79709928D01*
X140246840Y-79731009D01*
X140236452Y-79750445D01*
X140222476Y-79767476D01*
X140205445Y-79781452D01*
X140186009Y-79791840D01*
X140164928Y-79798236D01*
X140136860Y-79801000D01*
X139673140Y-79801000D01*
X139645072Y-79798236D01*
X139623991Y-79791840D01*
X139604555Y-79781452D01*
X139587524Y-79767476D01*
X139573548Y-79750445D01*
X139563160Y-79731009D01*
X139556764Y-79709928D01*
X139554000Y-79681860D01*
X139554000Y-77868140D01*
X139556764Y-77840072D01*
X139563160Y-77818991D01*
X139573548Y-77799555D01*
X139587524Y-77782524D01*
X139604555Y-77768548D01*
X139623991Y-77758160D01*
X139645072Y-77751764D01*
X139673140Y-77749000D01*
X140136860Y-77749000D01*
X140164928Y-77751764D01*
X140164928Y-77751764D01*
G37*
G36*
X137624928Y-77751764D02*
G01*
X137646009Y-77758160D01*
X137665445Y-77768548D01*
X137682476Y-77782524D01*
X137696452Y-77799555D01*
X137706840Y-77818991D01*
X137713236Y-77840072D01*
X137716000Y-77868140D01*
X137716000Y-79681860D01*
X137713236Y-79709928D01*
X137706840Y-79731009D01*
X137696452Y-79750445D01*
X137682476Y-79767476D01*
X137665445Y-79781452D01*
X137646009Y-79791840D01*
X137624928Y-79798236D01*
X137596860Y-79801000D01*
X137133140Y-79801000D01*
X137105072Y-79798236D01*
X137083991Y-79791840D01*
X137064555Y-79781452D01*
X137047524Y-79767476D01*
X137033548Y-79750445D01*
X137023160Y-79731009D01*
X137016764Y-79709928D01*
X137014000Y-79681860D01*
X137014000Y-77868140D01*
X137016764Y-77840072D01*
X137023160Y-77818991D01*
X137033548Y-77799555D01*
X137047524Y-77782524D01*
X137064555Y-77768548D01*
X137083991Y-77758160D01*
X137105072Y-77751764D01*
X137133140Y-77749000D01*
X137596860Y-77749000D01*
X137624928Y-77751764D01*
X137624928Y-77751764D01*
G37*
G36*
X136354928Y-77751764D02*
G01*
X136376009Y-77758160D01*
X136395445Y-77768548D01*
X136412476Y-77782524D01*
X136426452Y-77799555D01*
X136436840Y-77818991D01*
X136443236Y-77840072D01*
X136446000Y-77868140D01*
X136446000Y-79681860D01*
X136443236Y-79709928D01*
X136436840Y-79731009D01*
X136426452Y-79750445D01*
X136412476Y-79767476D01*
X136395445Y-79781452D01*
X136376009Y-79791840D01*
X136354928Y-79798236D01*
X136326860Y-79801000D01*
X135863140Y-79801000D01*
X135835072Y-79798236D01*
X135813991Y-79791840D01*
X135794555Y-79781452D01*
X135777524Y-79767476D01*
X135763548Y-79750445D01*
X135753160Y-79731009D01*
X135746764Y-79709928D01*
X135744000Y-79681860D01*
X135744000Y-77868140D01*
X135746764Y-77840072D01*
X135753160Y-77818991D01*
X135763548Y-77799555D01*
X135777524Y-77782524D01*
X135794555Y-77768548D01*
X135813991Y-77758160D01*
X135835072Y-77751764D01*
X135863140Y-77749000D01*
X136326860Y-77749000D01*
X136354928Y-77751764D01*
X136354928Y-77751764D01*
G37*
G36*
X115288674Y-77653465D02*
G01*
X115326367Y-77664899D01*
X115361103Y-77683466D01*
X115391548Y-77708452D01*
X115416534Y-77738897D01*
X115435101Y-77773633D01*
X115446535Y-77811326D01*
X115451000Y-77856661D01*
X115451000Y-78943339D01*
X115446535Y-78988674D01*
X115435101Y-79026367D01*
X115416534Y-79061103D01*
X115391548Y-79091548D01*
X115361103Y-79116534D01*
X115326367Y-79135101D01*
X115288674Y-79146535D01*
X115243339Y-79151000D01*
X114406661Y-79151000D01*
X114361326Y-79146535D01*
X114323633Y-79135101D01*
X114288897Y-79116534D01*
X114258452Y-79091548D01*
X114233466Y-79061103D01*
X114214899Y-79026367D01*
X114203465Y-78988674D01*
X114199000Y-78943339D01*
X114199000Y-77856661D01*
X114203465Y-77811326D01*
X114214899Y-77773633D01*
X114233466Y-77738897D01*
X114258452Y-77708452D01*
X114288897Y-77683466D01*
X114323633Y-77664899D01*
X114361326Y-77653465D01*
X114406661Y-77649000D01*
X115243339Y-77649000D01*
X115288674Y-77653465D01*
X115288674Y-77653465D01*
G37*
G36*
X113238674Y-77653465D02*
G01*
X113276367Y-77664899D01*
X113311103Y-77683466D01*
X113341548Y-77708452D01*
X113366534Y-77738897D01*
X113385101Y-77773633D01*
X113396535Y-77811326D01*
X113401000Y-77856661D01*
X113401000Y-78943339D01*
X113396535Y-78988674D01*
X113385101Y-79026367D01*
X113366534Y-79061103D01*
X113341548Y-79091548D01*
X113311103Y-79116534D01*
X113276367Y-79135101D01*
X113238674Y-79146535D01*
X113193339Y-79151000D01*
X112356661Y-79151000D01*
X112311326Y-79146535D01*
X112273633Y-79135101D01*
X112238897Y-79116534D01*
X112208452Y-79091548D01*
X112183466Y-79061103D01*
X112164899Y-79026367D01*
X112153465Y-78988674D01*
X112149000Y-78943339D01*
X112149000Y-77856661D01*
X112153465Y-77811326D01*
X112164899Y-77773633D01*
X112183466Y-77738897D01*
X112208452Y-77708452D01*
X112238897Y-77683466D01*
X112273633Y-77664899D01*
X112311326Y-77653465D01*
X112356661Y-77649000D01*
X113193339Y-77649000D01*
X113238674Y-77653465D01*
X113238674Y-77653465D01*
G37*
G36*
X109610442Y-76885518D02*
G01*
X109676627Y-76892037D01*
X109846466Y-76943557D01*
X109846468Y-76943558D01*
X109860391Y-76951000D01*
X110002991Y-77027222D01*
X110029743Y-77049177D01*
X110140186Y-77139814D01*
X110202709Y-77216000D01*
X110252778Y-77277009D01*
X110336443Y-77433534D01*
X110387963Y-77603373D01*
X110405359Y-77780000D01*
X110387963Y-77956627D01*
X110336443Y-78126466D01*
X110252778Y-78282991D01*
X110223448Y-78318729D01*
X110140186Y-78420186D01*
X110038729Y-78503448D01*
X110002991Y-78532778D01*
X109846466Y-78616443D01*
X109676627Y-78667963D01*
X109610442Y-78674482D01*
X109544260Y-78681000D01*
X109455740Y-78681000D01*
X109389558Y-78674482D01*
X109323373Y-78667963D01*
X109153534Y-78616443D01*
X108997009Y-78532778D01*
X108961271Y-78503448D01*
X108859814Y-78420186D01*
X108776552Y-78318729D01*
X108747222Y-78282991D01*
X108663557Y-78126466D01*
X108612037Y-77956627D01*
X108594641Y-77780000D01*
X108612037Y-77603373D01*
X108663557Y-77433534D01*
X108747222Y-77277009D01*
X108797291Y-77216000D01*
X108859814Y-77139814D01*
X108970257Y-77049177D01*
X108997009Y-77027222D01*
X109139609Y-76951000D01*
X109153532Y-76943558D01*
X109153534Y-76943557D01*
X109323373Y-76892037D01*
X109389558Y-76885518D01*
X109455740Y-76879000D01*
X109544260Y-76879000D01*
X109610442Y-76885518D01*
X109610442Y-76885518D01*
G37*
G36*
X129928674Y-77383465D02*
G01*
X129966367Y-77394899D01*
X130001103Y-77413466D01*
X130031548Y-77438452D01*
X130056534Y-77468897D01*
X130075101Y-77503633D01*
X130086535Y-77541326D01*
X130091000Y-77586661D01*
X130091000Y-78423339D01*
X130086535Y-78468674D01*
X130075101Y-78506367D01*
X130056534Y-78541103D01*
X130031548Y-78571548D01*
X130001103Y-78596534D01*
X129966367Y-78615101D01*
X129928674Y-78626535D01*
X129883339Y-78631000D01*
X128796661Y-78631000D01*
X128751326Y-78626535D01*
X128713633Y-78615101D01*
X128678897Y-78596534D01*
X128648452Y-78571548D01*
X128623466Y-78541103D01*
X128604899Y-78506367D01*
X128593465Y-78468674D01*
X128589000Y-78423339D01*
X128589000Y-77586661D01*
X128593465Y-77541326D01*
X128604899Y-77503633D01*
X128623466Y-77468897D01*
X128648452Y-77438452D01*
X128678897Y-77413466D01*
X128713633Y-77394899D01*
X128751326Y-77383465D01*
X128796661Y-77379000D01*
X129883339Y-77379000D01*
X129928674Y-77383465D01*
X129928674Y-77383465D01*
G37*
G36*
X151488674Y-76753465D02*
G01*
X151526367Y-76764899D01*
X151561103Y-76783466D01*
X151591548Y-76808452D01*
X151616534Y-76838897D01*
X151635101Y-76873633D01*
X151646535Y-76911326D01*
X151651000Y-76956661D01*
X151651000Y-78043339D01*
X151646535Y-78088674D01*
X151635101Y-78126367D01*
X151616534Y-78161103D01*
X151591548Y-78191548D01*
X151561103Y-78216534D01*
X151526367Y-78235101D01*
X151488674Y-78246535D01*
X151443339Y-78251000D01*
X150606661Y-78251000D01*
X150561326Y-78246535D01*
X150523633Y-78235101D01*
X150488897Y-78216534D01*
X150458452Y-78191548D01*
X150433466Y-78161103D01*
X150414899Y-78126367D01*
X150403465Y-78088674D01*
X150399000Y-78043339D01*
X150399000Y-76956661D01*
X150403465Y-76911326D01*
X150414899Y-76873633D01*
X150433466Y-76838897D01*
X150458452Y-76808452D01*
X150488897Y-76783466D01*
X150523633Y-76764899D01*
X150561326Y-76753465D01*
X150606661Y-76749000D01*
X151443339Y-76749000D01*
X151488674Y-76753465D01*
X151488674Y-76753465D01*
G37*
G36*
X149438674Y-76753465D02*
G01*
X149476367Y-76764899D01*
X149511103Y-76783466D01*
X149541548Y-76808452D01*
X149566534Y-76838897D01*
X149585101Y-76873633D01*
X149596535Y-76911326D01*
X149601000Y-76956661D01*
X149601000Y-78043339D01*
X149596535Y-78088674D01*
X149585101Y-78126367D01*
X149566534Y-78161103D01*
X149541548Y-78191548D01*
X149511103Y-78216534D01*
X149476367Y-78235101D01*
X149438674Y-78246535D01*
X149393339Y-78251000D01*
X148556661Y-78251000D01*
X148511326Y-78246535D01*
X148473633Y-78235101D01*
X148438897Y-78216534D01*
X148408452Y-78191548D01*
X148383466Y-78161103D01*
X148364899Y-78126367D01*
X148353465Y-78088674D01*
X148349000Y-78043339D01*
X148349000Y-76956661D01*
X148353465Y-76911326D01*
X148364899Y-76873633D01*
X148383466Y-76838897D01*
X148408452Y-76808452D01*
X148438897Y-76783466D01*
X148473633Y-76764899D01*
X148511326Y-76753465D01*
X148556661Y-76749000D01*
X149393339Y-76749000D01*
X149438674Y-76753465D01*
X149438674Y-76753465D01*
G37*
G36*
X167586425Y-76252760D02*
G01*
X167586428Y-76252761D01*
X167586429Y-76252761D01*
X167765693Y-76307140D01*
X167765696Y-76307142D01*
X167765697Y-76307142D01*
X167930903Y-76395446D01*
X168075712Y-76514288D01*
X168194554Y-76659097D01*
X168282858Y-76824303D01*
X168282860Y-76824307D01*
X168323009Y-76956661D01*
X168337240Y-77003575D01*
X168355601Y-77190000D01*
X168337240Y-77376425D01*
X168337239Y-77376428D01*
X168337239Y-77376429D01*
X168282860Y-77555693D01*
X168282858Y-77555696D01*
X168282858Y-77555697D01*
X168194554Y-77720903D01*
X168075712Y-77865712D01*
X167930903Y-77984554D01*
X167765697Y-78072858D01*
X167765693Y-78072860D01*
X167586429Y-78127239D01*
X167586428Y-78127239D01*
X167586425Y-78127240D01*
X167446718Y-78141000D01*
X165553282Y-78141000D01*
X165413575Y-78127240D01*
X165413572Y-78127239D01*
X165413571Y-78127239D01*
X165234307Y-78072860D01*
X165234303Y-78072858D01*
X165069097Y-77984554D01*
X164924288Y-77865712D01*
X164805446Y-77720903D01*
X164717142Y-77555697D01*
X164717142Y-77555696D01*
X164717140Y-77555693D01*
X164662761Y-77376429D01*
X164662761Y-77376428D01*
X164662760Y-77376425D01*
X164644399Y-77190000D01*
X164662760Y-77003575D01*
X164676991Y-76956661D01*
X164717140Y-76824307D01*
X164717142Y-76824303D01*
X164805446Y-76659097D01*
X164924288Y-76514288D01*
X165069097Y-76395446D01*
X165234303Y-76307142D01*
X165234304Y-76307142D01*
X165234307Y-76307140D01*
X165413571Y-76252761D01*
X165413572Y-76252761D01*
X165413575Y-76252760D01*
X165553282Y-76239000D01*
X167446718Y-76239000D01*
X167586425Y-76252760D01*
X167586425Y-76252760D01*
G37*
G36*
X125896823Y-76377313D02*
G01*
X126057242Y-76425976D01*
X126189906Y-76496886D01*
X126205078Y-76504996D01*
X126334659Y-76611341D01*
X126441004Y-76740922D01*
X126441005Y-76740924D01*
X126520024Y-76888758D01*
X126568687Y-77049177D01*
X126585117Y-77216000D01*
X126568687Y-77382823D01*
X126520024Y-77543242D01*
X126460700Y-77654230D01*
X126441004Y-77691078D01*
X126334659Y-77820659D01*
X126205078Y-77927004D01*
X126205076Y-77927005D01*
X126057242Y-78006024D01*
X125896823Y-78054687D01*
X125771804Y-78067000D01*
X125688196Y-78067000D01*
X125563177Y-78054687D01*
X125402758Y-78006024D01*
X125254924Y-77927005D01*
X125254922Y-77927004D01*
X125125341Y-77820659D01*
X125018996Y-77691078D01*
X124999300Y-77654230D01*
X124939976Y-77543242D01*
X124891313Y-77382823D01*
X124874883Y-77216000D01*
X124891313Y-77049177D01*
X124939976Y-76888758D01*
X125018995Y-76740924D01*
X125018996Y-76740922D01*
X125125341Y-76611341D01*
X125254922Y-76504996D01*
X125270094Y-76496886D01*
X125402758Y-76425976D01*
X125563177Y-76377313D01*
X125688196Y-76365000D01*
X125771804Y-76365000D01*
X125896823Y-76377313D01*
X125896823Y-76377313D01*
G37*
G36*
X118276823Y-76377313D02*
G01*
X118437242Y-76425976D01*
X118569906Y-76496886D01*
X118585078Y-76504996D01*
X118714659Y-76611341D01*
X118821004Y-76740922D01*
X118821005Y-76740924D01*
X118900024Y-76888758D01*
X118948687Y-77049177D01*
X118965117Y-77216000D01*
X118948687Y-77382823D01*
X118900024Y-77543242D01*
X118840700Y-77654230D01*
X118821004Y-77691078D01*
X118714659Y-77820659D01*
X118585078Y-77927004D01*
X118585076Y-77927005D01*
X118437242Y-78006024D01*
X118276823Y-78054687D01*
X118151804Y-78067000D01*
X118068196Y-78067000D01*
X117943177Y-78054687D01*
X117782758Y-78006024D01*
X117634924Y-77927005D01*
X117634922Y-77927004D01*
X117505341Y-77820659D01*
X117398996Y-77691078D01*
X117379300Y-77654230D01*
X117319976Y-77543242D01*
X117271313Y-77382823D01*
X117254883Y-77216000D01*
X117271313Y-77049177D01*
X117319976Y-76888758D01*
X117398995Y-76740924D01*
X117398996Y-76740922D01*
X117505341Y-76611341D01*
X117634922Y-76504996D01*
X117650094Y-76496886D01*
X117782758Y-76425976D01*
X117943177Y-76377313D01*
X118068196Y-76365000D01*
X118151804Y-76365000D01*
X118276823Y-76377313D01*
X118276823Y-76377313D01*
G37*
G36*
X156426000Y-77501000D02*
G01*
X155324000Y-77501000D01*
X155324000Y-76699000D01*
X156426000Y-76699000D01*
X156426000Y-77501000D01*
X156426000Y-77501000D01*
G37*
G36*
X162376000Y-77501000D02*
G01*
X161274000Y-77501000D01*
X161274000Y-76699000D01*
X162376000Y-76699000D01*
X162376000Y-77501000D01*
X162376000Y-77501000D01*
G37*
G36*
X113238674Y-75453465D02*
G01*
X113276367Y-75464899D01*
X113311103Y-75483466D01*
X113341548Y-75508452D01*
X113366534Y-75538897D01*
X113385101Y-75573633D01*
X113396535Y-75611326D01*
X113401000Y-75656661D01*
X113401000Y-76743339D01*
X113396535Y-76788674D01*
X113385101Y-76826367D01*
X113366534Y-76861103D01*
X113341548Y-76891548D01*
X113311103Y-76916534D01*
X113276367Y-76935101D01*
X113238674Y-76946535D01*
X113193339Y-76951000D01*
X112356661Y-76951000D01*
X112311326Y-76946535D01*
X112273633Y-76935101D01*
X112238897Y-76916534D01*
X112208452Y-76891548D01*
X112183466Y-76861103D01*
X112164899Y-76826367D01*
X112153465Y-76788674D01*
X112149000Y-76743339D01*
X112149000Y-75656661D01*
X112153465Y-75611326D01*
X112164899Y-75573633D01*
X112183466Y-75538897D01*
X112208452Y-75508452D01*
X112238897Y-75483466D01*
X112273633Y-75464899D01*
X112311326Y-75453465D01*
X112356661Y-75449000D01*
X113193339Y-75449000D01*
X113238674Y-75453465D01*
X113238674Y-75453465D01*
G37*
G36*
X115288674Y-75453465D02*
G01*
X115326367Y-75464899D01*
X115361103Y-75483466D01*
X115391548Y-75508452D01*
X115416534Y-75538897D01*
X115435101Y-75573633D01*
X115446535Y-75611326D01*
X115451000Y-75656661D01*
X115451000Y-76743339D01*
X115446535Y-76788674D01*
X115435101Y-76826367D01*
X115416534Y-76861103D01*
X115391548Y-76891548D01*
X115361103Y-76916534D01*
X115326367Y-76935101D01*
X115288674Y-76946535D01*
X115243339Y-76951000D01*
X114406661Y-76951000D01*
X114361326Y-76946535D01*
X114323633Y-76935101D01*
X114288897Y-76916534D01*
X114258452Y-76891548D01*
X114233466Y-76861103D01*
X114214899Y-76826367D01*
X114203465Y-76788674D01*
X114199000Y-76743339D01*
X114199000Y-75656661D01*
X114203465Y-75611326D01*
X114214899Y-75573633D01*
X114233466Y-75538897D01*
X114258452Y-75508452D01*
X114288897Y-75483466D01*
X114323633Y-75464899D01*
X114361326Y-75453465D01*
X114406661Y-75449000D01*
X115243339Y-75449000D01*
X115288674Y-75453465D01*
X115288674Y-75453465D01*
G37*
G36*
X109602518Y-74344738D02*
G01*
X109676627Y-74352037D01*
X109846466Y-74403557D01*
X110002991Y-74487222D01*
X110029743Y-74509177D01*
X110140186Y-74599814D01*
X110202709Y-74676000D01*
X110252778Y-74737009D01*
X110336443Y-74893534D01*
X110387963Y-75063373D01*
X110405359Y-75240000D01*
X110387963Y-75416627D01*
X110336443Y-75586466D01*
X110252778Y-75742991D01*
X110223448Y-75778729D01*
X110140186Y-75880186D01*
X110038729Y-75963448D01*
X110002991Y-75992778D01*
X109846466Y-76076443D01*
X109676627Y-76127963D01*
X109610443Y-76134481D01*
X109544260Y-76141000D01*
X109455740Y-76141000D01*
X109389557Y-76134481D01*
X109323373Y-76127963D01*
X109153534Y-76076443D01*
X108997009Y-75992778D01*
X108961271Y-75963448D01*
X108859814Y-75880186D01*
X108776552Y-75778729D01*
X108747222Y-75742991D01*
X108663557Y-75586466D01*
X108612037Y-75416627D01*
X108594641Y-75240000D01*
X108612037Y-75063373D01*
X108663557Y-74893534D01*
X108747222Y-74737009D01*
X108797291Y-74676000D01*
X108859814Y-74599814D01*
X108970257Y-74509177D01*
X108997009Y-74487222D01*
X109153534Y-74403557D01*
X109323373Y-74352037D01*
X109397482Y-74344738D01*
X109455740Y-74339000D01*
X109544260Y-74339000D01*
X109602518Y-74344738D01*
X109602518Y-74344738D01*
G37*
G36*
X157276000Y-75801000D02*
G01*
X156724000Y-75801000D01*
X156724000Y-75099000D01*
X157276000Y-75099000D01*
X157276000Y-75801000D01*
X157276000Y-75801000D01*
G37*
G36*
X148709928Y-75056764D02*
G01*
X148731009Y-75063160D01*
X148750445Y-75073548D01*
X148767476Y-75087524D01*
X148781452Y-75104555D01*
X148791840Y-75123991D01*
X148798236Y-75145072D01*
X148801000Y-75173140D01*
X148801000Y-75636860D01*
X148798236Y-75664928D01*
X148791840Y-75686009D01*
X148781452Y-75705445D01*
X148767476Y-75722476D01*
X148750445Y-75736452D01*
X148731009Y-75746840D01*
X148709928Y-75753236D01*
X148681860Y-75756000D01*
X146868140Y-75756000D01*
X146840072Y-75753236D01*
X146818991Y-75746840D01*
X146799555Y-75736452D01*
X146782524Y-75722476D01*
X146768548Y-75705445D01*
X146758160Y-75686009D01*
X146751764Y-75664928D01*
X146749000Y-75636860D01*
X146749000Y-75173140D01*
X146751764Y-75145072D01*
X146758160Y-75123991D01*
X146768548Y-75104555D01*
X146782524Y-75087524D01*
X146799555Y-75073548D01*
X146818991Y-75063160D01*
X146840072Y-75056764D01*
X146868140Y-75054000D01*
X148681860Y-75054000D01*
X148709928Y-75056764D01*
X148709928Y-75056764D01*
G37*
G36*
X153659928Y-75056764D02*
G01*
X153681009Y-75063160D01*
X153700445Y-75073548D01*
X153717476Y-75087524D01*
X153731452Y-75104555D01*
X153741840Y-75123991D01*
X153748236Y-75145072D01*
X153751000Y-75173140D01*
X153751000Y-75636860D01*
X153748236Y-75664928D01*
X153741840Y-75686009D01*
X153731452Y-75705445D01*
X153717476Y-75722476D01*
X153700445Y-75736452D01*
X153681009Y-75746840D01*
X153659928Y-75753236D01*
X153631860Y-75756000D01*
X151818140Y-75756000D01*
X151790072Y-75753236D01*
X151768991Y-75746840D01*
X151749555Y-75736452D01*
X151732524Y-75722476D01*
X151718548Y-75705445D01*
X151708160Y-75686009D01*
X151701764Y-75664928D01*
X151699000Y-75636860D01*
X151699000Y-75173140D01*
X151701764Y-75145072D01*
X151708160Y-75123991D01*
X151718548Y-75104555D01*
X151732524Y-75087524D01*
X151749555Y-75073548D01*
X151768991Y-75063160D01*
X151790072Y-75056764D01*
X151818140Y-75054000D01*
X153631860Y-75054000D01*
X153659928Y-75056764D01*
X153659928Y-75056764D01*
G37*
G36*
X145088674Y-74403465D02*
G01*
X145126367Y-74414899D01*
X145161103Y-74433466D01*
X145191548Y-74458452D01*
X145216534Y-74488897D01*
X145235101Y-74523633D01*
X145246535Y-74561326D01*
X145251000Y-74606661D01*
X145251000Y-75443339D01*
X145246535Y-75488674D01*
X145235101Y-75526367D01*
X145216534Y-75561103D01*
X145191548Y-75591548D01*
X145161103Y-75616534D01*
X145126367Y-75635101D01*
X145088674Y-75646535D01*
X145043339Y-75651000D01*
X143956661Y-75651000D01*
X143911326Y-75646535D01*
X143873633Y-75635101D01*
X143838897Y-75616534D01*
X143808452Y-75591548D01*
X143783466Y-75561103D01*
X143764899Y-75526367D01*
X143753465Y-75488674D01*
X143749000Y-75443339D01*
X143749000Y-74606661D01*
X143753465Y-74561326D01*
X143764899Y-74523633D01*
X143783466Y-74488897D01*
X143808452Y-74458452D01*
X143838897Y-74433466D01*
X143873633Y-74414899D01*
X143911326Y-74403465D01*
X143956661Y-74399000D01*
X145043339Y-74399000D01*
X145088674Y-74403465D01*
X145088674Y-74403465D01*
G37*
G36*
X125896823Y-73837313D02*
G01*
X126057242Y-73885976D01*
X126156250Y-73938897D01*
X126205078Y-73964996D01*
X126334659Y-74071341D01*
X126441004Y-74200922D01*
X126441005Y-74200924D01*
X126520024Y-74348758D01*
X126568687Y-74509177D01*
X126585117Y-74676000D01*
X126568687Y-74842823D01*
X126520024Y-75003242D01*
X126468840Y-75099000D01*
X126441004Y-75151078D01*
X126334659Y-75280659D01*
X126205078Y-75387004D01*
X126205076Y-75387005D01*
X126057242Y-75466024D01*
X125896823Y-75514687D01*
X125771804Y-75527000D01*
X125688196Y-75527000D01*
X125563177Y-75514687D01*
X125402758Y-75466024D01*
X125254924Y-75387005D01*
X125254922Y-75387004D01*
X125125341Y-75280659D01*
X125018996Y-75151078D01*
X124991160Y-75099000D01*
X124939976Y-75003242D01*
X124891313Y-74842823D01*
X124874883Y-74676000D01*
X124891313Y-74509177D01*
X124939976Y-74348758D01*
X125018995Y-74200924D01*
X125018996Y-74200922D01*
X125125341Y-74071341D01*
X125254922Y-73964996D01*
X125303750Y-73938897D01*
X125402758Y-73885976D01*
X125563177Y-73837313D01*
X125688196Y-73825000D01*
X125771804Y-73825000D01*
X125896823Y-73837313D01*
X125896823Y-73837313D01*
G37*
G36*
X118276823Y-73837313D02*
G01*
X118437242Y-73885976D01*
X118536250Y-73938897D01*
X118585078Y-73964996D01*
X118714659Y-74071341D01*
X118821004Y-74200922D01*
X118821005Y-74200924D01*
X118900024Y-74348758D01*
X118948687Y-74509177D01*
X118965117Y-74676000D01*
X118948687Y-74842823D01*
X118900024Y-75003242D01*
X118848840Y-75099000D01*
X118821004Y-75151078D01*
X118714659Y-75280659D01*
X118585078Y-75387004D01*
X118585076Y-75387005D01*
X118437242Y-75466024D01*
X118276823Y-75514687D01*
X118151804Y-75527000D01*
X118068196Y-75527000D01*
X117943177Y-75514687D01*
X117782758Y-75466024D01*
X117634924Y-75387005D01*
X117634922Y-75387004D01*
X117505341Y-75280659D01*
X117398996Y-75151078D01*
X117371160Y-75099000D01*
X117319976Y-75003242D01*
X117271313Y-74842823D01*
X117254883Y-74676000D01*
X117271313Y-74509177D01*
X117319976Y-74348758D01*
X117398995Y-74200924D01*
X117398996Y-74200922D01*
X117505341Y-74071341D01*
X117634922Y-73964996D01*
X117683750Y-73938897D01*
X117782758Y-73885976D01*
X117943177Y-73837313D01*
X118068196Y-73825000D01*
X118151804Y-73825000D01*
X118276823Y-73837313D01*
X118276823Y-73837313D01*
G37*
G36*
X131538674Y-73853465D02*
G01*
X131576367Y-73864899D01*
X131611103Y-73883466D01*
X131641548Y-73908452D01*
X131666534Y-73938897D01*
X131685101Y-73973633D01*
X131696535Y-74011326D01*
X131701000Y-74056661D01*
X131701000Y-75143339D01*
X131696535Y-75188674D01*
X131685101Y-75226367D01*
X131666534Y-75261103D01*
X131641548Y-75291548D01*
X131611103Y-75316534D01*
X131576367Y-75335101D01*
X131538674Y-75346535D01*
X131493339Y-75351000D01*
X130656661Y-75351000D01*
X130611326Y-75346535D01*
X130573633Y-75335101D01*
X130538897Y-75316534D01*
X130508452Y-75291548D01*
X130483466Y-75261103D01*
X130464899Y-75226367D01*
X130453465Y-75188674D01*
X130449000Y-75143339D01*
X130449000Y-74056661D01*
X130453465Y-74011326D01*
X130464899Y-73973633D01*
X130483466Y-73938897D01*
X130508452Y-73908452D01*
X130538897Y-73883466D01*
X130573633Y-73864899D01*
X130611326Y-73853465D01*
X130656661Y-73849000D01*
X131493339Y-73849000D01*
X131538674Y-73853465D01*
X131538674Y-73853465D01*
G37*
G36*
X136188674Y-73853465D02*
G01*
X136226367Y-73864899D01*
X136261103Y-73883466D01*
X136291548Y-73908452D01*
X136316534Y-73938897D01*
X136335101Y-73973633D01*
X136346535Y-74011326D01*
X136351000Y-74056661D01*
X136351000Y-75143339D01*
X136346535Y-75188674D01*
X136335101Y-75226367D01*
X136316534Y-75261103D01*
X136291548Y-75291548D01*
X136261103Y-75316534D01*
X136226367Y-75335101D01*
X136188674Y-75346535D01*
X136143339Y-75351000D01*
X135306661Y-75351000D01*
X135261326Y-75346535D01*
X135223633Y-75335101D01*
X135188897Y-75316534D01*
X135158452Y-75291548D01*
X135133466Y-75261103D01*
X135114899Y-75226367D01*
X135103465Y-75188674D01*
X135099000Y-75143339D01*
X135099000Y-74056661D01*
X135103465Y-74011326D01*
X135114899Y-73973633D01*
X135133466Y-73938897D01*
X135158452Y-73908452D01*
X135188897Y-73883466D01*
X135223633Y-73864899D01*
X135261326Y-73853465D01*
X135306661Y-73849000D01*
X136143339Y-73849000D01*
X136188674Y-73853465D01*
X136188674Y-73853465D01*
G37*
G36*
X134138674Y-73853465D02*
G01*
X134176367Y-73864899D01*
X134211103Y-73883466D01*
X134241548Y-73908452D01*
X134266534Y-73938897D01*
X134285101Y-73973633D01*
X134296535Y-74011326D01*
X134301000Y-74056661D01*
X134301000Y-75143339D01*
X134296535Y-75188674D01*
X134285101Y-75226367D01*
X134266534Y-75261103D01*
X134241548Y-75291548D01*
X134211103Y-75316534D01*
X134176367Y-75335101D01*
X134138674Y-75346535D01*
X134093339Y-75351000D01*
X133256661Y-75351000D01*
X133211326Y-75346535D01*
X133173633Y-75335101D01*
X133138897Y-75316534D01*
X133108452Y-75291548D01*
X133083466Y-75261103D01*
X133064899Y-75226367D01*
X133053465Y-75188674D01*
X133049000Y-75143339D01*
X133049000Y-74056661D01*
X133053465Y-74011326D01*
X133064899Y-73973633D01*
X133083466Y-73938897D01*
X133108452Y-73908452D01*
X133138897Y-73883466D01*
X133173633Y-73864899D01*
X133211326Y-73853465D01*
X133256661Y-73849000D01*
X134093339Y-73849000D01*
X134138674Y-73853465D01*
X134138674Y-73853465D01*
G37*
G36*
X129488674Y-73853465D02*
G01*
X129526367Y-73864899D01*
X129561103Y-73883466D01*
X129591548Y-73908452D01*
X129616534Y-73938897D01*
X129635101Y-73973633D01*
X129646535Y-74011326D01*
X129651000Y-74056661D01*
X129651000Y-75143339D01*
X129646535Y-75188674D01*
X129635101Y-75226367D01*
X129616534Y-75261103D01*
X129591548Y-75291548D01*
X129561103Y-75316534D01*
X129526367Y-75335101D01*
X129488674Y-75346535D01*
X129443339Y-75351000D01*
X128606661Y-75351000D01*
X128561326Y-75346535D01*
X128523633Y-75335101D01*
X128488897Y-75316534D01*
X128458452Y-75291548D01*
X128433466Y-75261103D01*
X128414899Y-75226367D01*
X128403465Y-75188674D01*
X128399000Y-75143339D01*
X128399000Y-74056661D01*
X128403465Y-74011326D01*
X128414899Y-73973633D01*
X128433466Y-73938897D01*
X128458452Y-73908452D01*
X128488897Y-73883466D01*
X128523633Y-73864899D01*
X128561326Y-73853465D01*
X128606661Y-73849000D01*
X129443339Y-73849000D01*
X129488674Y-73853465D01*
X129488674Y-73853465D01*
G37*
G36*
X141463674Y-73753465D02*
G01*
X141501367Y-73764899D01*
X141536103Y-73783466D01*
X141566548Y-73808452D01*
X141591534Y-73838897D01*
X141610101Y-73873633D01*
X141621535Y-73911326D01*
X141626000Y-73956661D01*
X141626000Y-75043339D01*
X141621535Y-75088674D01*
X141610101Y-75126367D01*
X141591534Y-75161103D01*
X141566548Y-75191548D01*
X141536103Y-75216534D01*
X141501367Y-75235101D01*
X141463674Y-75246535D01*
X141418339Y-75251000D01*
X140581661Y-75251000D01*
X140536326Y-75246535D01*
X140498633Y-75235101D01*
X140463897Y-75216534D01*
X140433452Y-75191548D01*
X140408466Y-75161103D01*
X140389899Y-75126367D01*
X140378465Y-75088674D01*
X140374000Y-75043339D01*
X140374000Y-73956661D01*
X140378465Y-73911326D01*
X140389899Y-73873633D01*
X140408466Y-73838897D01*
X140433452Y-73808452D01*
X140463897Y-73783466D01*
X140498633Y-73764899D01*
X140536326Y-73753465D01*
X140581661Y-73749000D01*
X141418339Y-73749000D01*
X141463674Y-73753465D01*
X141463674Y-73753465D01*
G37*
G36*
X139413674Y-73753465D02*
G01*
X139451367Y-73764899D01*
X139486103Y-73783466D01*
X139516548Y-73808452D01*
X139541534Y-73838897D01*
X139560101Y-73873633D01*
X139571535Y-73911326D01*
X139576000Y-73956661D01*
X139576000Y-75043339D01*
X139571535Y-75088674D01*
X139560101Y-75126367D01*
X139541534Y-75161103D01*
X139516548Y-75191548D01*
X139486103Y-75216534D01*
X139451367Y-75235101D01*
X139413674Y-75246535D01*
X139368339Y-75251000D01*
X138531661Y-75251000D01*
X138486326Y-75246535D01*
X138448633Y-75235101D01*
X138413897Y-75216534D01*
X138383452Y-75191548D01*
X138358466Y-75161103D01*
X138339899Y-75126367D01*
X138328465Y-75088674D01*
X138324000Y-75043339D01*
X138324000Y-73956661D01*
X138328465Y-73911326D01*
X138339899Y-73873633D01*
X138358466Y-73838897D01*
X138383452Y-73808452D01*
X138413897Y-73783466D01*
X138448633Y-73764899D01*
X138486326Y-73753465D01*
X138531661Y-73749000D01*
X139368339Y-73749000D01*
X139413674Y-73753465D01*
X139413674Y-73753465D01*
G37*
G36*
X153659928Y-73786764D02*
G01*
X153681009Y-73793160D01*
X153700445Y-73803548D01*
X153717476Y-73817524D01*
X153731452Y-73834555D01*
X153741840Y-73853991D01*
X153748236Y-73875072D01*
X153751000Y-73903140D01*
X153751000Y-74366860D01*
X153748236Y-74394928D01*
X153741840Y-74416009D01*
X153731452Y-74435445D01*
X153717476Y-74452476D01*
X153700445Y-74466452D01*
X153681009Y-74476840D01*
X153659928Y-74483236D01*
X153631860Y-74486000D01*
X151818140Y-74486000D01*
X151790072Y-74483236D01*
X151768991Y-74476840D01*
X151749555Y-74466452D01*
X151732524Y-74452476D01*
X151718548Y-74435445D01*
X151708160Y-74416009D01*
X151701764Y-74394928D01*
X151699000Y-74366860D01*
X151699000Y-73903140D01*
X151701764Y-73875072D01*
X151708160Y-73853991D01*
X151718548Y-73834555D01*
X151732524Y-73817524D01*
X151749555Y-73803548D01*
X151768991Y-73793160D01*
X151790072Y-73786764D01*
X151818140Y-73784000D01*
X153631860Y-73784000D01*
X153659928Y-73786764D01*
X153659928Y-73786764D01*
G37*
G36*
X148709928Y-73786764D02*
G01*
X148731009Y-73793160D01*
X148750445Y-73803548D01*
X148767476Y-73817524D01*
X148781452Y-73834555D01*
X148791840Y-73853991D01*
X148798236Y-73875072D01*
X148801000Y-73903140D01*
X148801000Y-74366860D01*
X148798236Y-74394928D01*
X148791840Y-74416009D01*
X148781452Y-74435445D01*
X148767476Y-74452476D01*
X148750445Y-74466452D01*
X148731009Y-74476840D01*
X148709928Y-74483236D01*
X148681860Y-74486000D01*
X146868140Y-74486000D01*
X146840072Y-74483236D01*
X146818991Y-74476840D01*
X146799555Y-74466452D01*
X146782524Y-74452476D01*
X146768548Y-74435445D01*
X146758160Y-74416009D01*
X146751764Y-74394928D01*
X146749000Y-74366860D01*
X146749000Y-73903140D01*
X146751764Y-73875072D01*
X146758160Y-73853991D01*
X146768548Y-73834555D01*
X146782524Y-73817524D01*
X146799555Y-73803548D01*
X146818991Y-73793160D01*
X146840072Y-73786764D01*
X146868140Y-73784000D01*
X148681860Y-73784000D01*
X148709928Y-73786764D01*
X148709928Y-73786764D01*
G37*
G36*
X157276000Y-73701000D02*
G01*
X156724000Y-73701000D01*
X156724000Y-72999000D01*
X157276000Y-72999000D01*
X157276000Y-73701000D01*
X157276000Y-73701000D01*
G37*
G36*
X109602518Y-71804738D02*
G01*
X109676627Y-71812037D01*
X109846466Y-71863557D01*
X110002991Y-71947222D01*
X110029743Y-71969177D01*
X110140186Y-72059814D01*
X110223448Y-72161271D01*
X110252778Y-72197009D01*
X110336443Y-72353534D01*
X110387963Y-72523373D01*
X110405359Y-72700000D01*
X110387963Y-72876627D01*
X110336443Y-73046466D01*
X110252778Y-73202991D01*
X110223448Y-73238729D01*
X110140186Y-73340186D01*
X110038729Y-73423448D01*
X110002991Y-73452778D01*
X109951236Y-73480442D01*
X109854848Y-73531963D01*
X109846466Y-73536443D01*
X109676627Y-73587963D01*
X109610443Y-73594481D01*
X109544260Y-73601000D01*
X109455740Y-73601000D01*
X109389557Y-73594481D01*
X109323373Y-73587963D01*
X109153534Y-73536443D01*
X109145153Y-73531963D01*
X109048764Y-73480442D01*
X108997009Y-73452778D01*
X108961271Y-73423448D01*
X108859814Y-73340186D01*
X108776552Y-73238729D01*
X108747222Y-73202991D01*
X108663557Y-73046466D01*
X108612037Y-72876627D01*
X108594641Y-72700000D01*
X108612037Y-72523373D01*
X108663557Y-72353534D01*
X108747222Y-72197009D01*
X108776552Y-72161271D01*
X108859814Y-72059814D01*
X108970257Y-71969177D01*
X108997009Y-71947222D01*
X109153534Y-71863557D01*
X109323373Y-71812037D01*
X109397482Y-71804738D01*
X109455740Y-71799000D01*
X109544260Y-71799000D01*
X109602518Y-71804738D01*
X109602518Y-71804738D01*
G37*
G36*
X145088674Y-72353465D02*
G01*
X145126367Y-72364899D01*
X145161103Y-72383466D01*
X145191548Y-72408452D01*
X145216534Y-72438897D01*
X145235101Y-72473633D01*
X145246535Y-72511326D01*
X145251000Y-72556661D01*
X145251000Y-73393339D01*
X145246535Y-73438674D01*
X145235101Y-73476367D01*
X145216534Y-73511103D01*
X145191548Y-73541548D01*
X145161103Y-73566534D01*
X145126367Y-73585101D01*
X145088674Y-73596535D01*
X145043339Y-73601000D01*
X143956661Y-73601000D01*
X143911326Y-73596535D01*
X143873633Y-73585101D01*
X143838897Y-73566534D01*
X143808452Y-73541548D01*
X143783466Y-73511103D01*
X143764899Y-73476367D01*
X143753465Y-73438674D01*
X143749000Y-73393339D01*
X143749000Y-72556661D01*
X143753465Y-72511326D01*
X143764899Y-72473633D01*
X143783466Y-72438897D01*
X143808452Y-72408452D01*
X143838897Y-72383466D01*
X143873633Y-72364899D01*
X143911326Y-72353465D01*
X143956661Y-72349000D01*
X145043339Y-72349000D01*
X145088674Y-72353465D01*
X145088674Y-72353465D01*
G37*
G36*
X99030442Y-71749518D02*
G01*
X99096627Y-71756037D01*
X99266466Y-71807557D01*
X99266468Y-71807558D01*
X99302579Y-71826860D01*
X99422991Y-71891222D01*
X99448889Y-71912476D01*
X99560186Y-72003814D01*
X99643448Y-72105271D01*
X99672778Y-72141009D01*
X99688959Y-72171282D01*
X99736435Y-72260101D01*
X99756443Y-72297534D01*
X99807963Y-72467373D01*
X99825359Y-72644000D01*
X99807963Y-72820627D01*
X99761229Y-72974687D01*
X99756442Y-72990468D01*
X99729699Y-73040500D01*
X99672778Y-73146991D01*
X99658329Y-73164597D01*
X99560186Y-73284186D01*
X99458729Y-73367448D01*
X99422991Y-73396778D01*
X99266466Y-73480443D01*
X99096627Y-73531963D01*
X99030442Y-73538482D01*
X98964260Y-73545000D01*
X98875740Y-73545000D01*
X98809558Y-73538482D01*
X98743373Y-73531963D01*
X98573534Y-73480443D01*
X98417009Y-73396778D01*
X98381271Y-73367448D01*
X98279814Y-73284186D01*
X98181671Y-73164597D01*
X98167222Y-73146991D01*
X98110301Y-73040500D01*
X98083558Y-72990468D01*
X98078771Y-72974687D01*
X98032037Y-72820627D01*
X98014641Y-72644000D01*
X98032037Y-72467373D01*
X98083557Y-72297534D01*
X98103566Y-72260101D01*
X98151041Y-72171282D01*
X98167222Y-72141009D01*
X98196552Y-72105271D01*
X98279814Y-72003814D01*
X98391111Y-71912476D01*
X98417009Y-71891222D01*
X98537421Y-71826860D01*
X98573532Y-71807558D01*
X98573534Y-71807557D01*
X98743373Y-71756037D01*
X98809558Y-71749518D01*
X98875740Y-71743000D01*
X98964260Y-71743000D01*
X99030442Y-71749518D01*
X99030442Y-71749518D01*
G37*
G36*
X96490442Y-71749518D02*
G01*
X96556627Y-71756037D01*
X96726466Y-71807557D01*
X96726468Y-71807558D01*
X96762579Y-71826860D01*
X96882991Y-71891222D01*
X96908889Y-71912476D01*
X97020186Y-72003814D01*
X97103448Y-72105271D01*
X97132778Y-72141009D01*
X97148959Y-72171282D01*
X97196435Y-72260101D01*
X97216443Y-72297534D01*
X97267963Y-72467373D01*
X97285359Y-72644000D01*
X97267963Y-72820627D01*
X97221229Y-72974687D01*
X97216442Y-72990468D01*
X97189699Y-73040500D01*
X97132778Y-73146991D01*
X97118329Y-73164597D01*
X97020186Y-73284186D01*
X96918729Y-73367448D01*
X96882991Y-73396778D01*
X96726466Y-73480443D01*
X96556627Y-73531963D01*
X96490442Y-73538482D01*
X96424260Y-73545000D01*
X96335740Y-73545000D01*
X96269558Y-73538482D01*
X96203373Y-73531963D01*
X96033534Y-73480443D01*
X95877009Y-73396778D01*
X95841271Y-73367448D01*
X95739814Y-73284186D01*
X95641671Y-73164597D01*
X95627222Y-73146991D01*
X95570301Y-73040500D01*
X95543558Y-72990468D01*
X95538771Y-72974687D01*
X95492037Y-72820627D01*
X95474641Y-72644000D01*
X95492037Y-72467373D01*
X95543557Y-72297534D01*
X95563566Y-72260101D01*
X95611041Y-72171282D01*
X95627222Y-72141009D01*
X95656552Y-72105271D01*
X95739814Y-72003814D01*
X95851111Y-71912476D01*
X95877009Y-71891222D01*
X95997421Y-71826860D01*
X96033532Y-71807558D01*
X96033534Y-71807557D01*
X96203373Y-71756037D01*
X96269558Y-71749518D01*
X96335740Y-71743000D01*
X96424260Y-71743000D01*
X96490442Y-71749518D01*
X96490442Y-71749518D01*
G37*
G36*
X101570442Y-71749518D02*
G01*
X101636627Y-71756037D01*
X101806466Y-71807557D01*
X101806468Y-71807558D01*
X101842579Y-71826860D01*
X101962991Y-71891222D01*
X101988889Y-71912476D01*
X102100186Y-72003814D01*
X102183448Y-72105271D01*
X102212778Y-72141009D01*
X102228959Y-72171282D01*
X102276435Y-72260101D01*
X102296443Y-72297534D01*
X102347963Y-72467373D01*
X102365359Y-72644000D01*
X102347963Y-72820627D01*
X102301229Y-72974687D01*
X102296442Y-72990468D01*
X102269699Y-73040500D01*
X102212778Y-73146991D01*
X102198329Y-73164597D01*
X102100186Y-73284186D01*
X101998729Y-73367448D01*
X101962991Y-73396778D01*
X101806466Y-73480443D01*
X101636627Y-73531963D01*
X101570442Y-73538482D01*
X101504260Y-73545000D01*
X101415740Y-73545000D01*
X101349558Y-73538482D01*
X101283373Y-73531963D01*
X101113534Y-73480443D01*
X100957009Y-73396778D01*
X100921271Y-73367448D01*
X100819814Y-73284186D01*
X100721671Y-73164597D01*
X100707222Y-73146991D01*
X100650301Y-73040500D01*
X100623558Y-72990468D01*
X100618771Y-72974687D01*
X100572037Y-72820627D01*
X100554641Y-72644000D01*
X100572037Y-72467373D01*
X100623557Y-72297534D01*
X100643566Y-72260101D01*
X100691041Y-72171282D01*
X100707222Y-72141009D01*
X100736552Y-72105271D01*
X100819814Y-72003814D01*
X100931111Y-71912476D01*
X100957009Y-71891222D01*
X101077421Y-71826860D01*
X101113532Y-71807558D01*
X101113534Y-71807557D01*
X101283373Y-71756037D01*
X101349558Y-71749518D01*
X101415740Y-71743000D01*
X101504260Y-71743000D01*
X101570442Y-71749518D01*
X101570442Y-71749518D01*
G37*
G36*
X104901000Y-73545000D02*
G01*
X103099000Y-73545000D01*
X103099000Y-71743000D01*
X104901000Y-71743000D01*
X104901000Y-73545000D01*
X104901000Y-73545000D01*
G37*
G36*
X153659928Y-72516764D02*
G01*
X153681009Y-72523160D01*
X153700445Y-72533548D01*
X153717476Y-72547524D01*
X153731452Y-72564555D01*
X153741840Y-72583991D01*
X153748236Y-72605072D01*
X153751000Y-72633140D01*
X153751000Y-73096860D01*
X153748236Y-73124928D01*
X153741840Y-73146009D01*
X153731452Y-73165445D01*
X153717476Y-73182476D01*
X153700445Y-73196452D01*
X153681009Y-73206840D01*
X153659928Y-73213236D01*
X153631860Y-73216000D01*
X151818140Y-73216000D01*
X151790072Y-73213236D01*
X151768991Y-73206840D01*
X151749555Y-73196452D01*
X151732524Y-73182476D01*
X151718548Y-73165445D01*
X151708160Y-73146009D01*
X151701764Y-73124928D01*
X151699000Y-73096860D01*
X151699000Y-72633140D01*
X151701764Y-72605072D01*
X151708160Y-72583991D01*
X151718548Y-72564555D01*
X151732524Y-72547524D01*
X151749555Y-72533548D01*
X151768991Y-72523160D01*
X151790072Y-72516764D01*
X151818140Y-72514000D01*
X153631860Y-72514000D01*
X153659928Y-72516764D01*
X153659928Y-72516764D01*
G37*
G36*
X148709928Y-72516764D02*
G01*
X148731009Y-72523160D01*
X148750445Y-72533548D01*
X148767476Y-72547524D01*
X148781452Y-72564555D01*
X148791840Y-72583991D01*
X148798236Y-72605072D01*
X148801000Y-72633140D01*
X148801000Y-73096860D01*
X148798236Y-73124928D01*
X148791840Y-73146009D01*
X148781452Y-73165445D01*
X148767476Y-73182476D01*
X148750445Y-73196452D01*
X148731009Y-73206840D01*
X148709928Y-73213236D01*
X148681860Y-73216000D01*
X146868140Y-73216000D01*
X146840072Y-73213236D01*
X146818991Y-73206840D01*
X146799555Y-73196452D01*
X146782524Y-73182476D01*
X146768548Y-73165445D01*
X146758160Y-73146009D01*
X146751764Y-73124928D01*
X146749000Y-73096860D01*
X146749000Y-72633140D01*
X146751764Y-72605072D01*
X146758160Y-72583991D01*
X146768548Y-72564555D01*
X146782524Y-72547524D01*
X146799555Y-72533548D01*
X146818991Y-72523160D01*
X146840072Y-72516764D01*
X146868140Y-72514000D01*
X148681860Y-72514000D01*
X148709928Y-72516764D01*
X148709928Y-72516764D01*
G37*
G36*
X125896823Y-71297313D02*
G01*
X126057242Y-71345976D01*
X126169011Y-71405718D01*
X126205078Y-71424996D01*
X126334659Y-71531341D01*
X126441004Y-71660922D01*
X126441005Y-71660924D01*
X126520024Y-71808758D01*
X126568687Y-71969177D01*
X126585117Y-72136000D01*
X126568687Y-72302823D01*
X126520024Y-72463242D01*
X126455482Y-72583991D01*
X126441004Y-72611078D01*
X126334659Y-72740659D01*
X126205078Y-72847004D01*
X126205076Y-72847005D01*
X126057242Y-72926024D01*
X125896823Y-72974687D01*
X125771804Y-72987000D01*
X125688196Y-72987000D01*
X125563177Y-72974687D01*
X125402758Y-72926024D01*
X125254924Y-72847005D01*
X125254922Y-72847004D01*
X125125341Y-72740659D01*
X125018996Y-72611078D01*
X125004518Y-72583991D01*
X124939976Y-72463242D01*
X124891313Y-72302823D01*
X124874883Y-72136000D01*
X124891313Y-71969177D01*
X124939976Y-71808758D01*
X125018995Y-71660924D01*
X125018996Y-71660922D01*
X125125341Y-71531341D01*
X125254922Y-71424996D01*
X125290989Y-71405718D01*
X125402758Y-71345976D01*
X125563177Y-71297313D01*
X125688196Y-71285000D01*
X125771804Y-71285000D01*
X125896823Y-71297313D01*
X125896823Y-71297313D01*
G37*
G36*
X118961000Y-72987000D02*
G01*
X117259000Y-72987000D01*
X117259000Y-71285000D01*
X118961000Y-71285000D01*
X118961000Y-72987000D01*
X118961000Y-72987000D01*
G37*
G36*
X113484674Y-71389465D02*
G01*
X113522367Y-71400899D01*
X113557103Y-71419466D01*
X113587548Y-71444452D01*
X113612534Y-71474897D01*
X113631101Y-71509633D01*
X113642535Y-71547326D01*
X113647000Y-71592661D01*
X113647000Y-72679339D01*
X113642535Y-72724674D01*
X113631101Y-72762367D01*
X113612534Y-72797103D01*
X113587548Y-72827548D01*
X113557103Y-72852534D01*
X113522367Y-72871101D01*
X113484674Y-72882535D01*
X113439339Y-72887000D01*
X112602661Y-72887000D01*
X112557326Y-72882535D01*
X112519633Y-72871101D01*
X112484897Y-72852534D01*
X112454452Y-72827548D01*
X112429466Y-72797103D01*
X112410899Y-72762367D01*
X112399465Y-72724674D01*
X112395000Y-72679339D01*
X112395000Y-71592661D01*
X112399465Y-71547326D01*
X112410899Y-71509633D01*
X112429466Y-71474897D01*
X112454452Y-71444452D01*
X112484897Y-71419466D01*
X112519633Y-71400899D01*
X112557326Y-71389465D01*
X112602661Y-71385000D01*
X113439339Y-71385000D01*
X113484674Y-71389465D01*
X113484674Y-71389465D01*
G37*
G36*
X115534674Y-71389465D02*
G01*
X115572367Y-71400899D01*
X115607103Y-71419466D01*
X115637548Y-71444452D01*
X115662534Y-71474897D01*
X115681101Y-71509633D01*
X115692535Y-71547326D01*
X115697000Y-71592661D01*
X115697000Y-72679339D01*
X115692535Y-72724674D01*
X115681101Y-72762367D01*
X115662534Y-72797103D01*
X115637548Y-72827548D01*
X115607103Y-72852534D01*
X115572367Y-72871101D01*
X115534674Y-72882535D01*
X115489339Y-72887000D01*
X114652661Y-72887000D01*
X114607326Y-72882535D01*
X114569633Y-72871101D01*
X114534897Y-72852534D01*
X114504452Y-72827548D01*
X114479466Y-72797103D01*
X114460899Y-72762367D01*
X114449465Y-72724674D01*
X114445000Y-72679339D01*
X114445000Y-71592661D01*
X114449465Y-71547326D01*
X114460899Y-71509633D01*
X114479466Y-71474897D01*
X114504452Y-71444452D01*
X114534897Y-71419466D01*
X114569633Y-71400899D01*
X114607326Y-71389465D01*
X114652661Y-71385000D01*
X115489339Y-71385000D01*
X115534674Y-71389465D01*
X115534674Y-71389465D01*
G37*
G36*
X158313674Y-70778465D02*
G01*
X158351367Y-70789899D01*
X158386103Y-70808466D01*
X158416548Y-70833452D01*
X158441534Y-70863897D01*
X158460101Y-70898633D01*
X158471535Y-70936326D01*
X158476000Y-70981661D01*
X158476000Y-72068339D01*
X158471535Y-72113674D01*
X158460101Y-72151367D01*
X158441534Y-72186103D01*
X158416548Y-72216548D01*
X158386103Y-72241534D01*
X158351367Y-72260101D01*
X158313674Y-72271535D01*
X158268339Y-72276000D01*
X157431661Y-72276000D01*
X157386326Y-72271535D01*
X157348633Y-72260101D01*
X157313897Y-72241534D01*
X157283452Y-72216548D01*
X157258466Y-72186103D01*
X157239899Y-72151367D01*
X157228465Y-72113674D01*
X157224000Y-72068339D01*
X157224000Y-70981661D01*
X157228465Y-70936326D01*
X157239899Y-70898633D01*
X157258466Y-70863897D01*
X157283452Y-70833452D01*
X157313897Y-70808466D01*
X157348633Y-70789899D01*
X157386326Y-70778465D01*
X157431661Y-70774000D01*
X158268339Y-70774000D01*
X158313674Y-70778465D01*
X158313674Y-70778465D01*
G37*
G36*
X156263674Y-70778465D02*
G01*
X156301367Y-70789899D01*
X156336103Y-70808466D01*
X156366548Y-70833452D01*
X156391534Y-70863897D01*
X156410101Y-70898633D01*
X156421535Y-70936326D01*
X156426000Y-70981661D01*
X156426000Y-72068339D01*
X156421535Y-72113674D01*
X156410101Y-72151367D01*
X156391534Y-72186103D01*
X156366548Y-72216548D01*
X156336103Y-72241534D01*
X156301367Y-72260101D01*
X156263674Y-72271535D01*
X156218339Y-72276000D01*
X155381661Y-72276000D01*
X155336326Y-72271535D01*
X155298633Y-72260101D01*
X155263897Y-72241534D01*
X155233452Y-72216548D01*
X155208466Y-72186103D01*
X155189899Y-72151367D01*
X155178465Y-72113674D01*
X155174000Y-72068339D01*
X155174000Y-70981661D01*
X155178465Y-70936326D01*
X155189899Y-70898633D01*
X155208466Y-70863897D01*
X155233452Y-70833452D01*
X155263897Y-70808466D01*
X155298633Y-70789899D01*
X155336326Y-70778465D01*
X155381661Y-70774000D01*
X156218339Y-70774000D01*
X156263674Y-70778465D01*
X156263674Y-70778465D01*
G37*
G36*
X129413674Y-70753465D02*
G01*
X129451367Y-70764899D01*
X129486103Y-70783466D01*
X129516548Y-70808452D01*
X129541534Y-70838897D01*
X129560101Y-70873633D01*
X129571535Y-70911326D01*
X129576000Y-70956661D01*
X129576000Y-72043339D01*
X129571535Y-72088674D01*
X129560101Y-72126367D01*
X129541534Y-72161103D01*
X129516548Y-72191548D01*
X129486103Y-72216534D01*
X129451367Y-72235101D01*
X129413674Y-72246535D01*
X129368339Y-72251000D01*
X128531661Y-72251000D01*
X128486326Y-72246535D01*
X128448633Y-72235101D01*
X128413897Y-72216534D01*
X128383452Y-72191548D01*
X128358466Y-72161103D01*
X128339899Y-72126367D01*
X128328465Y-72088674D01*
X128324000Y-72043339D01*
X128324000Y-70956661D01*
X128328465Y-70911326D01*
X128339899Y-70873633D01*
X128358466Y-70838897D01*
X128383452Y-70808452D01*
X128413897Y-70783466D01*
X128448633Y-70764899D01*
X128486326Y-70753465D01*
X128531661Y-70749000D01*
X129368339Y-70749000D01*
X129413674Y-70753465D01*
X129413674Y-70753465D01*
G37*
G36*
X131463674Y-70753465D02*
G01*
X131501367Y-70764899D01*
X131536103Y-70783466D01*
X131566548Y-70808452D01*
X131591534Y-70838897D01*
X131610101Y-70873633D01*
X131621535Y-70911326D01*
X131626000Y-70956661D01*
X131626000Y-72043339D01*
X131621535Y-72088674D01*
X131610101Y-72126367D01*
X131591534Y-72161103D01*
X131566548Y-72191548D01*
X131536103Y-72216534D01*
X131501367Y-72235101D01*
X131463674Y-72246535D01*
X131418339Y-72251000D01*
X130581661Y-72251000D01*
X130536326Y-72246535D01*
X130498633Y-72235101D01*
X130463897Y-72216534D01*
X130433452Y-72191548D01*
X130408466Y-72161103D01*
X130389899Y-72126367D01*
X130378465Y-72088674D01*
X130374000Y-72043339D01*
X130374000Y-70956661D01*
X130378465Y-70911326D01*
X130389899Y-70873633D01*
X130408466Y-70838897D01*
X130433452Y-70808452D01*
X130463897Y-70783466D01*
X130498633Y-70764899D01*
X130536326Y-70753465D01*
X130581661Y-70749000D01*
X131418339Y-70749000D01*
X131463674Y-70753465D01*
X131463674Y-70753465D01*
G37*
G36*
X169738674Y-70753465D02*
G01*
X169776367Y-70764899D01*
X169811103Y-70783466D01*
X169841548Y-70808452D01*
X169866534Y-70838897D01*
X169885101Y-70873633D01*
X169896535Y-70911326D01*
X169901000Y-70956661D01*
X169901000Y-72043339D01*
X169896535Y-72088674D01*
X169885101Y-72126367D01*
X169866534Y-72161103D01*
X169841548Y-72191548D01*
X169811103Y-72216534D01*
X169776367Y-72235101D01*
X169738674Y-72246535D01*
X169693339Y-72251000D01*
X168856661Y-72251000D01*
X168811326Y-72246535D01*
X168773633Y-72235101D01*
X168738897Y-72216534D01*
X168708452Y-72191548D01*
X168683466Y-72161103D01*
X168664899Y-72126367D01*
X168653465Y-72088674D01*
X168649000Y-72043339D01*
X168649000Y-70956661D01*
X168653465Y-70911326D01*
X168664899Y-70873633D01*
X168683466Y-70838897D01*
X168708452Y-70808452D01*
X168738897Y-70783466D01*
X168773633Y-70764899D01*
X168811326Y-70753465D01*
X168856661Y-70749000D01*
X169693339Y-70749000D01*
X169738674Y-70753465D01*
X169738674Y-70753465D01*
G37*
G36*
X164713674Y-70753465D02*
G01*
X164751367Y-70764899D01*
X164786103Y-70783466D01*
X164816548Y-70808452D01*
X164841534Y-70838897D01*
X164860101Y-70873633D01*
X164871535Y-70911326D01*
X164876000Y-70956661D01*
X164876000Y-72043339D01*
X164871535Y-72088674D01*
X164860101Y-72126367D01*
X164841534Y-72161103D01*
X164816548Y-72191548D01*
X164786103Y-72216534D01*
X164751367Y-72235101D01*
X164713674Y-72246535D01*
X164668339Y-72251000D01*
X163831661Y-72251000D01*
X163786326Y-72246535D01*
X163748633Y-72235101D01*
X163713897Y-72216534D01*
X163683452Y-72191548D01*
X163658466Y-72161103D01*
X163639899Y-72126367D01*
X163628465Y-72088674D01*
X163624000Y-72043339D01*
X163624000Y-70956661D01*
X163628465Y-70911326D01*
X163639899Y-70873633D01*
X163658466Y-70838897D01*
X163683452Y-70808452D01*
X163713897Y-70783466D01*
X163748633Y-70764899D01*
X163786326Y-70753465D01*
X163831661Y-70749000D01*
X164668339Y-70749000D01*
X164713674Y-70753465D01*
X164713674Y-70753465D01*
G37*
G36*
X167688674Y-70753465D02*
G01*
X167726367Y-70764899D01*
X167761103Y-70783466D01*
X167791548Y-70808452D01*
X167816534Y-70838897D01*
X167835101Y-70873633D01*
X167846535Y-70911326D01*
X167851000Y-70956661D01*
X167851000Y-72043339D01*
X167846535Y-72088674D01*
X167835101Y-72126367D01*
X167816534Y-72161103D01*
X167791548Y-72191548D01*
X167761103Y-72216534D01*
X167726367Y-72235101D01*
X167688674Y-72246535D01*
X167643339Y-72251000D01*
X166806661Y-72251000D01*
X166761326Y-72246535D01*
X166723633Y-72235101D01*
X166688897Y-72216534D01*
X166658452Y-72191548D01*
X166633466Y-72161103D01*
X166614899Y-72126367D01*
X166603465Y-72088674D01*
X166599000Y-72043339D01*
X166599000Y-70956661D01*
X166603465Y-70911326D01*
X166614899Y-70873633D01*
X166633466Y-70838897D01*
X166658452Y-70808452D01*
X166688897Y-70783466D01*
X166723633Y-70764899D01*
X166761326Y-70753465D01*
X166806661Y-70749000D01*
X167643339Y-70749000D01*
X167688674Y-70753465D01*
X167688674Y-70753465D01*
G37*
G36*
X134413674Y-70753465D02*
G01*
X134451367Y-70764899D01*
X134486103Y-70783466D01*
X134516548Y-70808452D01*
X134541534Y-70838897D01*
X134560101Y-70873633D01*
X134571535Y-70911326D01*
X134576000Y-70956661D01*
X134576000Y-72043339D01*
X134571535Y-72088674D01*
X134560101Y-72126367D01*
X134541534Y-72161103D01*
X134516548Y-72191548D01*
X134486103Y-72216534D01*
X134451367Y-72235101D01*
X134413674Y-72246535D01*
X134368339Y-72251000D01*
X133531661Y-72251000D01*
X133486326Y-72246535D01*
X133448633Y-72235101D01*
X133413897Y-72216534D01*
X133383452Y-72191548D01*
X133358466Y-72161103D01*
X133339899Y-72126367D01*
X133328465Y-72088674D01*
X133324000Y-72043339D01*
X133324000Y-70956661D01*
X133328465Y-70911326D01*
X133339899Y-70873633D01*
X133358466Y-70838897D01*
X133383452Y-70808452D01*
X133413897Y-70783466D01*
X133448633Y-70764899D01*
X133486326Y-70753465D01*
X133531661Y-70749000D01*
X134368339Y-70749000D01*
X134413674Y-70753465D01*
X134413674Y-70753465D01*
G37*
G36*
X136463674Y-70753465D02*
G01*
X136501367Y-70764899D01*
X136536103Y-70783466D01*
X136566548Y-70808452D01*
X136591534Y-70838897D01*
X136610101Y-70873633D01*
X136621535Y-70911326D01*
X136626000Y-70956661D01*
X136626000Y-72043339D01*
X136621535Y-72088674D01*
X136610101Y-72126367D01*
X136591534Y-72161103D01*
X136566548Y-72191548D01*
X136536103Y-72216534D01*
X136501367Y-72235101D01*
X136463674Y-72246535D01*
X136418339Y-72251000D01*
X135581661Y-72251000D01*
X135536326Y-72246535D01*
X135498633Y-72235101D01*
X135463897Y-72216534D01*
X135433452Y-72191548D01*
X135408466Y-72161103D01*
X135389899Y-72126367D01*
X135378465Y-72088674D01*
X135374000Y-72043339D01*
X135374000Y-70956661D01*
X135378465Y-70911326D01*
X135389899Y-70873633D01*
X135408466Y-70838897D01*
X135433452Y-70808452D01*
X135463897Y-70783466D01*
X135498633Y-70764899D01*
X135536326Y-70753465D01*
X135581661Y-70749000D01*
X136418339Y-70749000D01*
X136463674Y-70753465D01*
X136463674Y-70753465D01*
G37*
G36*
X162663674Y-70753465D02*
G01*
X162701367Y-70764899D01*
X162736103Y-70783466D01*
X162766548Y-70808452D01*
X162791534Y-70838897D01*
X162810101Y-70873633D01*
X162821535Y-70911326D01*
X162826000Y-70956661D01*
X162826000Y-72043339D01*
X162821535Y-72088674D01*
X162810101Y-72126367D01*
X162791534Y-72161103D01*
X162766548Y-72191548D01*
X162736103Y-72216534D01*
X162701367Y-72235101D01*
X162663674Y-72246535D01*
X162618339Y-72251000D01*
X161781661Y-72251000D01*
X161736326Y-72246535D01*
X161698633Y-72235101D01*
X161663897Y-72216534D01*
X161633452Y-72191548D01*
X161608466Y-72161103D01*
X161589899Y-72126367D01*
X161578465Y-72088674D01*
X161574000Y-72043339D01*
X161574000Y-70956661D01*
X161578465Y-70911326D01*
X161589899Y-70873633D01*
X161608466Y-70838897D01*
X161633452Y-70808452D01*
X161663897Y-70783466D01*
X161698633Y-70764899D01*
X161736326Y-70753465D01*
X161781661Y-70749000D01*
X162618339Y-70749000D01*
X162663674Y-70753465D01*
X162663674Y-70753465D01*
G37*
G36*
X148709928Y-71246764D02*
G01*
X148731009Y-71253160D01*
X148750445Y-71263548D01*
X148767476Y-71277524D01*
X148781452Y-71294555D01*
X148791840Y-71313991D01*
X148798236Y-71335072D01*
X148801000Y-71363140D01*
X148801000Y-71826860D01*
X148798236Y-71854928D01*
X148791840Y-71876009D01*
X148781452Y-71895445D01*
X148767476Y-71912476D01*
X148750445Y-71926452D01*
X148731009Y-71936840D01*
X148709928Y-71943236D01*
X148681860Y-71946000D01*
X146868140Y-71946000D01*
X146840072Y-71943236D01*
X146818991Y-71936840D01*
X146799555Y-71926452D01*
X146782524Y-71912476D01*
X146768548Y-71895445D01*
X146758160Y-71876009D01*
X146751764Y-71854928D01*
X146749000Y-71826860D01*
X146749000Y-71363140D01*
X146751764Y-71335072D01*
X146758160Y-71313991D01*
X146768548Y-71294555D01*
X146782524Y-71277524D01*
X146799555Y-71263548D01*
X146818991Y-71253160D01*
X146840072Y-71246764D01*
X146868140Y-71244000D01*
X148681860Y-71244000D01*
X148709928Y-71246764D01*
X148709928Y-71246764D01*
G37*
G36*
X153659928Y-71246764D02*
G01*
X153681009Y-71253160D01*
X153700445Y-71263548D01*
X153717476Y-71277524D01*
X153731452Y-71294555D01*
X153741840Y-71313991D01*
X153748236Y-71335072D01*
X153751000Y-71363140D01*
X153751000Y-71826860D01*
X153748236Y-71854928D01*
X153741840Y-71876009D01*
X153731452Y-71895445D01*
X153717476Y-71912476D01*
X153700445Y-71926452D01*
X153681009Y-71936840D01*
X153659928Y-71943236D01*
X153631860Y-71946000D01*
X151818140Y-71946000D01*
X151790072Y-71943236D01*
X151768991Y-71936840D01*
X151749555Y-71926452D01*
X151732524Y-71912476D01*
X151718548Y-71895445D01*
X151708160Y-71876009D01*
X151701764Y-71854928D01*
X151699000Y-71826860D01*
X151699000Y-71363140D01*
X151701764Y-71335072D01*
X151708160Y-71313991D01*
X151718548Y-71294555D01*
X151732524Y-71277524D01*
X151749555Y-71263548D01*
X151768991Y-71253160D01*
X151790072Y-71246764D01*
X151818140Y-71244000D01*
X153631860Y-71244000D01*
X153659928Y-71246764D01*
X153659928Y-71246764D01*
G37*
M02*
