G04 #@! TF.GenerationSoftware,KiCad,Pcbnew,5.1.4-e60b266~84~ubuntu18.04.1*
G04 #@! TF.CreationDate,2019-10-19T15:57:42+02:00*
G04 #@! TF.ProjectId,ebuzzz-adapter,6562757a-7a7a-42d6-9164-61707465722e,rev?*
G04 #@! TF.SameCoordinates,Original*
G04 #@! TF.FileFunction,Soldermask,Bot*
G04 #@! TF.FilePolarity,Negative*
%FSLAX46Y46*%
G04 Gerber Fmt 4.6, Leading zero omitted, Abs format (unit mm)*
G04 Created by KiCad (PCBNEW 5.1.4-e60b266~84~ubuntu18.04.1) date 2019-10-19 15:57:42*
%MOMM*%
%LPD*%
G04 APERTURE LIST*
%ADD10C,0.100000*%
G04 APERTURE END LIST*
D10*
G36*
X126581000Y-86957000D02*
G01*
X124879000Y-86957000D01*
X124879000Y-85255000D01*
X126581000Y-85255000D01*
X126581000Y-86957000D01*
X126581000Y-86957000D01*
G37*
G36*
X118276823Y-85267313D02*
G01*
X118437242Y-85315976D01*
X118569906Y-85386886D01*
X118585078Y-85394996D01*
X118714659Y-85501341D01*
X118821004Y-85630922D01*
X118821005Y-85630924D01*
X118900024Y-85778758D01*
X118948687Y-85939177D01*
X118965117Y-86106000D01*
X118948687Y-86272823D01*
X118900024Y-86433242D01*
X118829114Y-86565906D01*
X118821004Y-86581078D01*
X118714659Y-86710659D01*
X118585078Y-86817004D01*
X118585076Y-86817005D01*
X118437242Y-86896024D01*
X118276823Y-86944687D01*
X118151804Y-86957000D01*
X118068196Y-86957000D01*
X117943177Y-86944687D01*
X117782758Y-86896024D01*
X117634924Y-86817005D01*
X117634922Y-86817004D01*
X117505341Y-86710659D01*
X117398996Y-86581078D01*
X117390886Y-86565906D01*
X117319976Y-86433242D01*
X117271313Y-86272823D01*
X117254883Y-86106000D01*
X117271313Y-85939177D01*
X117319976Y-85778758D01*
X117398995Y-85630924D01*
X117398996Y-85630922D01*
X117505341Y-85501341D01*
X117634922Y-85394996D01*
X117650094Y-85386886D01*
X117782758Y-85315976D01*
X117943177Y-85267313D01*
X118068196Y-85255000D01*
X118151804Y-85255000D01*
X118276823Y-85267313D01*
X118276823Y-85267313D01*
G37*
G36*
X110401000Y-86301000D02*
G01*
X108599000Y-86301000D01*
X108599000Y-84499000D01*
X110401000Y-84499000D01*
X110401000Y-86301000D01*
X110401000Y-86301000D01*
G37*
G36*
X101570442Y-84449518D02*
G01*
X101636627Y-84456037D01*
X101806466Y-84507557D01*
X101962991Y-84591222D01*
X101998729Y-84620552D01*
X102100186Y-84703814D01*
X102183448Y-84805271D01*
X102212778Y-84841009D01*
X102296443Y-84997534D01*
X102347963Y-85167373D01*
X102365359Y-85344000D01*
X102347963Y-85520627D01*
X102296443Y-85690466D01*
X102212778Y-85846991D01*
X102183448Y-85882729D01*
X102100186Y-85984186D01*
X101998729Y-86067448D01*
X101962991Y-86096778D01*
X101806466Y-86180443D01*
X101636627Y-86231963D01*
X101570442Y-86238482D01*
X101504260Y-86245000D01*
X101415740Y-86245000D01*
X101349558Y-86238482D01*
X101283373Y-86231963D01*
X101113534Y-86180443D01*
X100957009Y-86096778D01*
X100921271Y-86067448D01*
X100819814Y-85984186D01*
X100736552Y-85882729D01*
X100707222Y-85846991D01*
X100623557Y-85690466D01*
X100572037Y-85520627D01*
X100554641Y-85344000D01*
X100572037Y-85167373D01*
X100623557Y-84997534D01*
X100707222Y-84841009D01*
X100736552Y-84805271D01*
X100819814Y-84703814D01*
X100921271Y-84620552D01*
X100957009Y-84591222D01*
X101113534Y-84507557D01*
X101283373Y-84456037D01*
X101349558Y-84449518D01*
X101415740Y-84443000D01*
X101504260Y-84443000D01*
X101570442Y-84449518D01*
X101570442Y-84449518D01*
G37*
G36*
X104901000Y-86245000D02*
G01*
X103099000Y-86245000D01*
X103099000Y-84443000D01*
X104901000Y-84443000D01*
X104901000Y-86245000D01*
X104901000Y-86245000D01*
G37*
G36*
X99030442Y-84449518D02*
G01*
X99096627Y-84456037D01*
X99266466Y-84507557D01*
X99422991Y-84591222D01*
X99458729Y-84620552D01*
X99560186Y-84703814D01*
X99643448Y-84805271D01*
X99672778Y-84841009D01*
X99756443Y-84997534D01*
X99807963Y-85167373D01*
X99825359Y-85344000D01*
X99807963Y-85520627D01*
X99756443Y-85690466D01*
X99672778Y-85846991D01*
X99643448Y-85882729D01*
X99560186Y-85984186D01*
X99458729Y-86067448D01*
X99422991Y-86096778D01*
X99266466Y-86180443D01*
X99096627Y-86231963D01*
X99030442Y-86238482D01*
X98964260Y-86245000D01*
X98875740Y-86245000D01*
X98809558Y-86238482D01*
X98743373Y-86231963D01*
X98573534Y-86180443D01*
X98417009Y-86096778D01*
X98381271Y-86067448D01*
X98279814Y-85984186D01*
X98196552Y-85882729D01*
X98167222Y-85846991D01*
X98083557Y-85690466D01*
X98032037Y-85520627D01*
X98014641Y-85344000D01*
X98032037Y-85167373D01*
X98083557Y-84997534D01*
X98167222Y-84841009D01*
X98196552Y-84805271D01*
X98279814Y-84703814D01*
X98381271Y-84620552D01*
X98417009Y-84591222D01*
X98573534Y-84507557D01*
X98743373Y-84456037D01*
X98809558Y-84449518D01*
X98875740Y-84443000D01*
X98964260Y-84443000D01*
X99030442Y-84449518D01*
X99030442Y-84449518D01*
G37*
G36*
X96490442Y-84449518D02*
G01*
X96556627Y-84456037D01*
X96726466Y-84507557D01*
X96882991Y-84591222D01*
X96918729Y-84620552D01*
X97020186Y-84703814D01*
X97103448Y-84805271D01*
X97132778Y-84841009D01*
X97216443Y-84997534D01*
X97267963Y-85167373D01*
X97285359Y-85344000D01*
X97267963Y-85520627D01*
X97216443Y-85690466D01*
X97132778Y-85846991D01*
X97103448Y-85882729D01*
X97020186Y-85984186D01*
X96918729Y-86067448D01*
X96882991Y-86096778D01*
X96726466Y-86180443D01*
X96556627Y-86231963D01*
X96490442Y-86238482D01*
X96424260Y-86245000D01*
X96335740Y-86245000D01*
X96269558Y-86238482D01*
X96203373Y-86231963D01*
X96033534Y-86180443D01*
X95877009Y-86096778D01*
X95841271Y-86067448D01*
X95739814Y-85984186D01*
X95656552Y-85882729D01*
X95627222Y-85846991D01*
X95543557Y-85690466D01*
X95492037Y-85520627D01*
X95474641Y-85344000D01*
X95492037Y-85167373D01*
X95543557Y-84997534D01*
X95627222Y-84841009D01*
X95656552Y-84805271D01*
X95739814Y-84703814D01*
X95841271Y-84620552D01*
X95877009Y-84591222D01*
X96033534Y-84507557D01*
X96203373Y-84456037D01*
X96269558Y-84449518D01*
X96335740Y-84443000D01*
X96424260Y-84443000D01*
X96490442Y-84449518D01*
X96490442Y-84449518D01*
G37*
G36*
X125896823Y-82727313D02*
G01*
X126057242Y-82775976D01*
X126189906Y-82846886D01*
X126205078Y-82854996D01*
X126334659Y-82961341D01*
X126441004Y-83090922D01*
X126441005Y-83090924D01*
X126520024Y-83238758D01*
X126568687Y-83399177D01*
X126585117Y-83566000D01*
X126568687Y-83732823D01*
X126520024Y-83893242D01*
X126449114Y-84025906D01*
X126441004Y-84041078D01*
X126334659Y-84170659D01*
X126205078Y-84277004D01*
X126205076Y-84277005D01*
X126057242Y-84356024D01*
X125896823Y-84404687D01*
X125771804Y-84417000D01*
X125688196Y-84417000D01*
X125563177Y-84404687D01*
X125402758Y-84356024D01*
X125254924Y-84277005D01*
X125254922Y-84277004D01*
X125125341Y-84170659D01*
X125018996Y-84041078D01*
X125010886Y-84025906D01*
X124939976Y-83893242D01*
X124891313Y-83732823D01*
X124874883Y-83566000D01*
X124891313Y-83399177D01*
X124939976Y-83238758D01*
X125018995Y-83090924D01*
X125018996Y-83090922D01*
X125125341Y-82961341D01*
X125254922Y-82854996D01*
X125270094Y-82846886D01*
X125402758Y-82775976D01*
X125563177Y-82727313D01*
X125688196Y-82715000D01*
X125771804Y-82715000D01*
X125896823Y-82727313D01*
X125896823Y-82727313D01*
G37*
G36*
X118276823Y-82727313D02*
G01*
X118437242Y-82775976D01*
X118569906Y-82846886D01*
X118585078Y-82854996D01*
X118714659Y-82961341D01*
X118821004Y-83090922D01*
X118821005Y-83090924D01*
X118900024Y-83238758D01*
X118948687Y-83399177D01*
X118965117Y-83566000D01*
X118948687Y-83732823D01*
X118900024Y-83893242D01*
X118829114Y-84025906D01*
X118821004Y-84041078D01*
X118714659Y-84170659D01*
X118585078Y-84277004D01*
X118585076Y-84277005D01*
X118437242Y-84356024D01*
X118276823Y-84404687D01*
X118151804Y-84417000D01*
X118068196Y-84417000D01*
X117943177Y-84404687D01*
X117782758Y-84356024D01*
X117634924Y-84277005D01*
X117634922Y-84277004D01*
X117505341Y-84170659D01*
X117398996Y-84041078D01*
X117390886Y-84025906D01*
X117319976Y-83893242D01*
X117271313Y-83732823D01*
X117254883Y-83566000D01*
X117271313Y-83399177D01*
X117319976Y-83238758D01*
X117398995Y-83090924D01*
X117398996Y-83090922D01*
X117505341Y-82961341D01*
X117634922Y-82854996D01*
X117650094Y-82846886D01*
X117782758Y-82775976D01*
X117943177Y-82727313D01*
X118068196Y-82715000D01*
X118151804Y-82715000D01*
X118276823Y-82727313D01*
X118276823Y-82727313D01*
G37*
G36*
X109610442Y-81965518D02*
G01*
X109676627Y-81972037D01*
X109846466Y-82023557D01*
X110002991Y-82107222D01*
X110038729Y-82136552D01*
X110140186Y-82219814D01*
X110223448Y-82321271D01*
X110252778Y-82357009D01*
X110336443Y-82513534D01*
X110387963Y-82683373D01*
X110405359Y-82860000D01*
X110387963Y-83036627D01*
X110336443Y-83206466D01*
X110252778Y-83362991D01*
X110223448Y-83398729D01*
X110140186Y-83500186D01*
X110059990Y-83566000D01*
X110002991Y-83612778D01*
X109846466Y-83696443D01*
X109676627Y-83747963D01*
X109610443Y-83754481D01*
X109544260Y-83761000D01*
X109455740Y-83761000D01*
X109389557Y-83754481D01*
X109323373Y-83747963D01*
X109153534Y-83696443D01*
X108997009Y-83612778D01*
X108940010Y-83566000D01*
X108859814Y-83500186D01*
X108776552Y-83398729D01*
X108747222Y-83362991D01*
X108663557Y-83206466D01*
X108612037Y-83036627D01*
X108594641Y-82860000D01*
X108612037Y-82683373D01*
X108663557Y-82513534D01*
X108747222Y-82357009D01*
X108776552Y-82321271D01*
X108859814Y-82219814D01*
X108961271Y-82136552D01*
X108997009Y-82107222D01*
X109153534Y-82023557D01*
X109323373Y-81972037D01*
X109389558Y-81965518D01*
X109455740Y-81959000D01*
X109544260Y-81959000D01*
X109610442Y-81965518D01*
X109610442Y-81965518D01*
G37*
G36*
X168210915Y-80052934D02*
G01*
X168243424Y-80062795D01*
X168273382Y-80078809D01*
X168299641Y-80100359D01*
X168321191Y-80126618D01*
X168337205Y-80156576D01*
X168347066Y-80189085D01*
X168351000Y-80229029D01*
X168351000Y-81770971D01*
X168347066Y-81810915D01*
X168337205Y-81843424D01*
X168321191Y-81873382D01*
X168299641Y-81899641D01*
X168273382Y-81921191D01*
X168243424Y-81937205D01*
X168210915Y-81947066D01*
X168170971Y-81951000D01*
X164829029Y-81951000D01*
X164789085Y-81947066D01*
X164756576Y-81937205D01*
X164726618Y-81921191D01*
X164700359Y-81899641D01*
X164678809Y-81873382D01*
X164662795Y-81843424D01*
X164652934Y-81810915D01*
X164649000Y-81770971D01*
X164649000Y-80229029D01*
X164652934Y-80189085D01*
X164662795Y-80156576D01*
X164678809Y-80126618D01*
X164700359Y-80100359D01*
X164726618Y-80078809D01*
X164756576Y-80062795D01*
X164789085Y-80052934D01*
X164829029Y-80049000D01*
X168170971Y-80049000D01*
X168210915Y-80052934D01*
X168210915Y-80052934D01*
G37*
G36*
X118276823Y-80187313D02*
G01*
X118437242Y-80235976D01*
X118569906Y-80306886D01*
X118585078Y-80314996D01*
X118714659Y-80421341D01*
X118821004Y-80550922D01*
X118821005Y-80550924D01*
X118900024Y-80698758D01*
X118948687Y-80859177D01*
X118965117Y-81026000D01*
X118948687Y-81192823D01*
X118900024Y-81353242D01*
X118829114Y-81485906D01*
X118821004Y-81501078D01*
X118714659Y-81630659D01*
X118585078Y-81737004D01*
X118585076Y-81737005D01*
X118437242Y-81816024D01*
X118276823Y-81864687D01*
X118151804Y-81877000D01*
X118068196Y-81877000D01*
X117943177Y-81864687D01*
X117782758Y-81816024D01*
X117634924Y-81737005D01*
X117634922Y-81737004D01*
X117505341Y-81630659D01*
X117398996Y-81501078D01*
X117390886Y-81485906D01*
X117319976Y-81353242D01*
X117271313Y-81192823D01*
X117254883Y-81026000D01*
X117271313Y-80859177D01*
X117319976Y-80698758D01*
X117398995Y-80550924D01*
X117398996Y-80550922D01*
X117505341Y-80421341D01*
X117634922Y-80314996D01*
X117650094Y-80306886D01*
X117782758Y-80235976D01*
X117943177Y-80187313D01*
X118068196Y-80175000D01*
X118151804Y-80175000D01*
X118276823Y-80187313D01*
X118276823Y-80187313D01*
G37*
G36*
X125896823Y-80187313D02*
G01*
X126057242Y-80235976D01*
X126189906Y-80306886D01*
X126205078Y-80314996D01*
X126334659Y-80421341D01*
X126441004Y-80550922D01*
X126441005Y-80550924D01*
X126520024Y-80698758D01*
X126568687Y-80859177D01*
X126585117Y-81026000D01*
X126568687Y-81192823D01*
X126520024Y-81353242D01*
X126449114Y-81485906D01*
X126441004Y-81501078D01*
X126334659Y-81630659D01*
X126205078Y-81737004D01*
X126205076Y-81737005D01*
X126057242Y-81816024D01*
X125896823Y-81864687D01*
X125771804Y-81877000D01*
X125688196Y-81877000D01*
X125563177Y-81864687D01*
X125402758Y-81816024D01*
X125254924Y-81737005D01*
X125254922Y-81737004D01*
X125125341Y-81630659D01*
X125018996Y-81501078D01*
X125010886Y-81485906D01*
X124939976Y-81353242D01*
X124891313Y-81192823D01*
X124874883Y-81026000D01*
X124891313Y-80859177D01*
X124939976Y-80698758D01*
X125018995Y-80550924D01*
X125018996Y-80550922D01*
X125125341Y-80421341D01*
X125254922Y-80314996D01*
X125270094Y-80306886D01*
X125402758Y-80235976D01*
X125563177Y-80187313D01*
X125688196Y-80175000D01*
X125771804Y-80175000D01*
X125896823Y-80187313D01*
X125896823Y-80187313D01*
G37*
G36*
X109610442Y-79425518D02*
G01*
X109676627Y-79432037D01*
X109846466Y-79483557D01*
X110002991Y-79567222D01*
X110038729Y-79596552D01*
X110140186Y-79679814D01*
X110223448Y-79781271D01*
X110252778Y-79817009D01*
X110336443Y-79973534D01*
X110387963Y-80143373D01*
X110405359Y-80320000D01*
X110387963Y-80496627D01*
X110336443Y-80666466D01*
X110252778Y-80822991D01*
X110223448Y-80858729D01*
X110140186Y-80960186D01*
X110059990Y-81026000D01*
X110002991Y-81072778D01*
X109846466Y-81156443D01*
X109676627Y-81207963D01*
X109610442Y-81214482D01*
X109544260Y-81221000D01*
X109455740Y-81221000D01*
X109389558Y-81214482D01*
X109323373Y-81207963D01*
X109153534Y-81156443D01*
X108997009Y-81072778D01*
X108940010Y-81026000D01*
X108859814Y-80960186D01*
X108776552Y-80858729D01*
X108747222Y-80822991D01*
X108663557Y-80666466D01*
X108612037Y-80496627D01*
X108594641Y-80320000D01*
X108612037Y-80143373D01*
X108663557Y-79973534D01*
X108747222Y-79817009D01*
X108776552Y-79781271D01*
X108859814Y-79679814D01*
X108961271Y-79596552D01*
X108997009Y-79567222D01*
X109153534Y-79483557D01*
X109323373Y-79432037D01*
X109389558Y-79425518D01*
X109455740Y-79419000D01*
X109544260Y-79419000D01*
X109610442Y-79425518D01*
X109610442Y-79425518D01*
G37*
G36*
X109610442Y-76885518D02*
G01*
X109676627Y-76892037D01*
X109846466Y-76943557D01*
X110002991Y-77027222D01*
X110029743Y-77049177D01*
X110140186Y-77139814D01*
X110202709Y-77216000D01*
X110252778Y-77277009D01*
X110336443Y-77433534D01*
X110387963Y-77603373D01*
X110405359Y-77780000D01*
X110387963Y-77956627D01*
X110336443Y-78126466D01*
X110252778Y-78282991D01*
X110223448Y-78318729D01*
X110140186Y-78420186D01*
X110038729Y-78503448D01*
X110002991Y-78532778D01*
X109846466Y-78616443D01*
X109676627Y-78667963D01*
X109610442Y-78674482D01*
X109544260Y-78681000D01*
X109455740Y-78681000D01*
X109389558Y-78674482D01*
X109323373Y-78667963D01*
X109153534Y-78616443D01*
X108997009Y-78532778D01*
X108961271Y-78503448D01*
X108859814Y-78420186D01*
X108776552Y-78318729D01*
X108747222Y-78282991D01*
X108663557Y-78126466D01*
X108612037Y-77956627D01*
X108594641Y-77780000D01*
X108612037Y-77603373D01*
X108663557Y-77433534D01*
X108747222Y-77277009D01*
X108797291Y-77216000D01*
X108859814Y-77139814D01*
X108970257Y-77049177D01*
X108997009Y-77027222D01*
X109153534Y-76943557D01*
X109323373Y-76892037D01*
X109389558Y-76885518D01*
X109455740Y-76879000D01*
X109544260Y-76879000D01*
X109610442Y-76885518D01*
X109610442Y-76885518D01*
G37*
G36*
X167586425Y-76252760D02*
G01*
X167586428Y-76252761D01*
X167586429Y-76252761D01*
X167765693Y-76307140D01*
X167765696Y-76307142D01*
X167765697Y-76307142D01*
X167930903Y-76395446D01*
X168075712Y-76514288D01*
X168194554Y-76659097D01*
X168238290Y-76740922D01*
X168282860Y-76824307D01*
X168319034Y-76943557D01*
X168337240Y-77003575D01*
X168355601Y-77190000D01*
X168337240Y-77376425D01*
X168337239Y-77376428D01*
X168337239Y-77376429D01*
X168282860Y-77555693D01*
X168282858Y-77555696D01*
X168282858Y-77555697D01*
X168194554Y-77720903D01*
X168075712Y-77865712D01*
X167930903Y-77984554D01*
X167765697Y-78072858D01*
X167765693Y-78072860D01*
X167586429Y-78127239D01*
X167586428Y-78127239D01*
X167586425Y-78127240D01*
X167446718Y-78141000D01*
X165553282Y-78141000D01*
X165413575Y-78127240D01*
X165413572Y-78127239D01*
X165413571Y-78127239D01*
X165234307Y-78072860D01*
X165234303Y-78072858D01*
X165069097Y-77984554D01*
X164924288Y-77865712D01*
X164805446Y-77720903D01*
X164717142Y-77555697D01*
X164717142Y-77555696D01*
X164717140Y-77555693D01*
X164662761Y-77376429D01*
X164662761Y-77376428D01*
X164662760Y-77376425D01*
X164644399Y-77190000D01*
X164662760Y-77003575D01*
X164680966Y-76943557D01*
X164717140Y-76824307D01*
X164761710Y-76740922D01*
X164805446Y-76659097D01*
X164924288Y-76514288D01*
X165069097Y-76395446D01*
X165234303Y-76307142D01*
X165234304Y-76307142D01*
X165234307Y-76307140D01*
X165413571Y-76252761D01*
X165413572Y-76252761D01*
X165413575Y-76252760D01*
X165553282Y-76239000D01*
X167446718Y-76239000D01*
X167586425Y-76252760D01*
X167586425Y-76252760D01*
G37*
G36*
X125896823Y-76377313D02*
G01*
X126057242Y-76425976D01*
X126189906Y-76496886D01*
X126205078Y-76504996D01*
X126334659Y-76611341D01*
X126441004Y-76740922D01*
X126441005Y-76740924D01*
X126520024Y-76888758D01*
X126568687Y-77049177D01*
X126585117Y-77216000D01*
X126568687Y-77382823D01*
X126520024Y-77543242D01*
X126487883Y-77603373D01*
X126441004Y-77691078D01*
X126334659Y-77820659D01*
X126205078Y-77927004D01*
X126205076Y-77927005D01*
X126057242Y-78006024D01*
X125896823Y-78054687D01*
X125771804Y-78067000D01*
X125688196Y-78067000D01*
X125563177Y-78054687D01*
X125402758Y-78006024D01*
X125254924Y-77927005D01*
X125254922Y-77927004D01*
X125125341Y-77820659D01*
X125018996Y-77691078D01*
X124972117Y-77603373D01*
X124939976Y-77543242D01*
X124891313Y-77382823D01*
X124874883Y-77216000D01*
X124891313Y-77049177D01*
X124939976Y-76888758D01*
X125018995Y-76740924D01*
X125018996Y-76740922D01*
X125125341Y-76611341D01*
X125254922Y-76504996D01*
X125270094Y-76496886D01*
X125402758Y-76425976D01*
X125563177Y-76377313D01*
X125688196Y-76365000D01*
X125771804Y-76365000D01*
X125896823Y-76377313D01*
X125896823Y-76377313D01*
G37*
G36*
X118276823Y-76377313D02*
G01*
X118437242Y-76425976D01*
X118569906Y-76496886D01*
X118585078Y-76504996D01*
X118714659Y-76611341D01*
X118821004Y-76740922D01*
X118821005Y-76740924D01*
X118900024Y-76888758D01*
X118948687Y-77049177D01*
X118965117Y-77216000D01*
X118948687Y-77382823D01*
X118900024Y-77543242D01*
X118867883Y-77603373D01*
X118821004Y-77691078D01*
X118714659Y-77820659D01*
X118585078Y-77927004D01*
X118585076Y-77927005D01*
X118437242Y-78006024D01*
X118276823Y-78054687D01*
X118151804Y-78067000D01*
X118068196Y-78067000D01*
X117943177Y-78054687D01*
X117782758Y-78006024D01*
X117634924Y-77927005D01*
X117634922Y-77927004D01*
X117505341Y-77820659D01*
X117398996Y-77691078D01*
X117352117Y-77603373D01*
X117319976Y-77543242D01*
X117271313Y-77382823D01*
X117254883Y-77216000D01*
X117271313Y-77049177D01*
X117319976Y-76888758D01*
X117398995Y-76740924D01*
X117398996Y-76740922D01*
X117505341Y-76611341D01*
X117634922Y-76504996D01*
X117650094Y-76496886D01*
X117782758Y-76425976D01*
X117943177Y-76377313D01*
X118068196Y-76365000D01*
X118151804Y-76365000D01*
X118276823Y-76377313D01*
X118276823Y-76377313D01*
G37*
G36*
X109610443Y-74345519D02*
G01*
X109676627Y-74352037D01*
X109846466Y-74403557D01*
X110002991Y-74487222D01*
X110029743Y-74509177D01*
X110140186Y-74599814D01*
X110202709Y-74676000D01*
X110252778Y-74737009D01*
X110336443Y-74893534D01*
X110387963Y-75063373D01*
X110405359Y-75240000D01*
X110387963Y-75416627D01*
X110336443Y-75586466D01*
X110252778Y-75742991D01*
X110223448Y-75778729D01*
X110140186Y-75880186D01*
X110038729Y-75963448D01*
X110002991Y-75992778D01*
X109846466Y-76076443D01*
X109676627Y-76127963D01*
X109610443Y-76134481D01*
X109544260Y-76141000D01*
X109455740Y-76141000D01*
X109389557Y-76134481D01*
X109323373Y-76127963D01*
X109153534Y-76076443D01*
X108997009Y-75992778D01*
X108961271Y-75963448D01*
X108859814Y-75880186D01*
X108776552Y-75778729D01*
X108747222Y-75742991D01*
X108663557Y-75586466D01*
X108612037Y-75416627D01*
X108594641Y-75240000D01*
X108612037Y-75063373D01*
X108663557Y-74893534D01*
X108747222Y-74737009D01*
X108797291Y-74676000D01*
X108859814Y-74599814D01*
X108970257Y-74509177D01*
X108997009Y-74487222D01*
X109153534Y-74403557D01*
X109323373Y-74352037D01*
X109389557Y-74345519D01*
X109455740Y-74339000D01*
X109544260Y-74339000D01*
X109610443Y-74345519D01*
X109610443Y-74345519D01*
G37*
G36*
X118276823Y-73837313D02*
G01*
X118437242Y-73885976D01*
X118569906Y-73956886D01*
X118585078Y-73964996D01*
X118714659Y-74071341D01*
X118821004Y-74200922D01*
X118821005Y-74200924D01*
X118900024Y-74348758D01*
X118948687Y-74509177D01*
X118965117Y-74676000D01*
X118948687Y-74842823D01*
X118900024Y-75003242D01*
X118867883Y-75063373D01*
X118821004Y-75151078D01*
X118714659Y-75280659D01*
X118585078Y-75387004D01*
X118585076Y-75387005D01*
X118437242Y-75466024D01*
X118276823Y-75514687D01*
X118151804Y-75527000D01*
X118068196Y-75527000D01*
X117943177Y-75514687D01*
X117782758Y-75466024D01*
X117634924Y-75387005D01*
X117634922Y-75387004D01*
X117505341Y-75280659D01*
X117398996Y-75151078D01*
X117352117Y-75063373D01*
X117319976Y-75003242D01*
X117271313Y-74842823D01*
X117254883Y-74676000D01*
X117271313Y-74509177D01*
X117319976Y-74348758D01*
X117398995Y-74200924D01*
X117398996Y-74200922D01*
X117505341Y-74071341D01*
X117634922Y-73964996D01*
X117650094Y-73956886D01*
X117782758Y-73885976D01*
X117943177Y-73837313D01*
X118068196Y-73825000D01*
X118151804Y-73825000D01*
X118276823Y-73837313D01*
X118276823Y-73837313D01*
G37*
G36*
X125896823Y-73837313D02*
G01*
X126057242Y-73885976D01*
X126189906Y-73956886D01*
X126205078Y-73964996D01*
X126334659Y-74071341D01*
X126441004Y-74200922D01*
X126441005Y-74200924D01*
X126520024Y-74348758D01*
X126568687Y-74509177D01*
X126585117Y-74676000D01*
X126568687Y-74842823D01*
X126520024Y-75003242D01*
X126487883Y-75063373D01*
X126441004Y-75151078D01*
X126334659Y-75280659D01*
X126205078Y-75387004D01*
X126205076Y-75387005D01*
X126057242Y-75466024D01*
X125896823Y-75514687D01*
X125771804Y-75527000D01*
X125688196Y-75527000D01*
X125563177Y-75514687D01*
X125402758Y-75466024D01*
X125254924Y-75387005D01*
X125254922Y-75387004D01*
X125125341Y-75280659D01*
X125018996Y-75151078D01*
X124972117Y-75063373D01*
X124939976Y-75003242D01*
X124891313Y-74842823D01*
X124874883Y-74676000D01*
X124891313Y-74509177D01*
X124939976Y-74348758D01*
X125018995Y-74200924D01*
X125018996Y-74200922D01*
X125125341Y-74071341D01*
X125254922Y-73964996D01*
X125270094Y-73956886D01*
X125402758Y-73885976D01*
X125563177Y-73837313D01*
X125688196Y-73825000D01*
X125771804Y-73825000D01*
X125896823Y-73837313D01*
X125896823Y-73837313D01*
G37*
G36*
X109610442Y-71805518D02*
G01*
X109676627Y-71812037D01*
X109846466Y-71863557D01*
X110002991Y-71947222D01*
X110029743Y-71969177D01*
X110140186Y-72059814D01*
X110223448Y-72161271D01*
X110252778Y-72197009D01*
X110336443Y-72353534D01*
X110387963Y-72523373D01*
X110405359Y-72700000D01*
X110387963Y-72876627D01*
X110336443Y-73046466D01*
X110252778Y-73202991D01*
X110223448Y-73238729D01*
X110140186Y-73340186D01*
X110038729Y-73423448D01*
X110002991Y-73452778D01*
X110002989Y-73452779D01*
X109854848Y-73531963D01*
X109846466Y-73536443D01*
X109676627Y-73587963D01*
X109610443Y-73594481D01*
X109544260Y-73601000D01*
X109455740Y-73601000D01*
X109389557Y-73594481D01*
X109323373Y-73587963D01*
X109153534Y-73536443D01*
X109145153Y-73531963D01*
X108997011Y-73452779D01*
X108997009Y-73452778D01*
X108961271Y-73423448D01*
X108859814Y-73340186D01*
X108776552Y-73238729D01*
X108747222Y-73202991D01*
X108663557Y-73046466D01*
X108612037Y-72876627D01*
X108594641Y-72700000D01*
X108612037Y-72523373D01*
X108663557Y-72353534D01*
X108747222Y-72197009D01*
X108776552Y-72161271D01*
X108859814Y-72059814D01*
X108970257Y-71969177D01*
X108997009Y-71947222D01*
X109153534Y-71863557D01*
X109323373Y-71812037D01*
X109389558Y-71805518D01*
X109455740Y-71799000D01*
X109544260Y-71799000D01*
X109610442Y-71805518D01*
X109610442Y-71805518D01*
G37*
G36*
X96490442Y-71749518D02*
G01*
X96556627Y-71756037D01*
X96726466Y-71807557D01*
X96726468Y-71807558D01*
X96804728Y-71849389D01*
X96882991Y-71891222D01*
X96918729Y-71920552D01*
X97020186Y-72003814D01*
X97103448Y-72105271D01*
X97132778Y-72141009D01*
X97216443Y-72297534D01*
X97267963Y-72467373D01*
X97285359Y-72644000D01*
X97267963Y-72820627D01*
X97216443Y-72990466D01*
X97132778Y-73146991D01*
X97103448Y-73182729D01*
X97020186Y-73284186D01*
X96918729Y-73367448D01*
X96882991Y-73396778D01*
X96726466Y-73480443D01*
X96556627Y-73531963D01*
X96490442Y-73538482D01*
X96424260Y-73545000D01*
X96335740Y-73545000D01*
X96269558Y-73538482D01*
X96203373Y-73531963D01*
X96033534Y-73480443D01*
X95877009Y-73396778D01*
X95841271Y-73367448D01*
X95739814Y-73284186D01*
X95656552Y-73182729D01*
X95627222Y-73146991D01*
X95543557Y-72990466D01*
X95492037Y-72820627D01*
X95474641Y-72644000D01*
X95492037Y-72467373D01*
X95543557Y-72297534D01*
X95627222Y-72141009D01*
X95656552Y-72105271D01*
X95739814Y-72003814D01*
X95841271Y-71920552D01*
X95877009Y-71891222D01*
X95955272Y-71849389D01*
X96033532Y-71807558D01*
X96033534Y-71807557D01*
X96203373Y-71756037D01*
X96269558Y-71749518D01*
X96335740Y-71743000D01*
X96424260Y-71743000D01*
X96490442Y-71749518D01*
X96490442Y-71749518D01*
G37*
G36*
X99030442Y-71749518D02*
G01*
X99096627Y-71756037D01*
X99266466Y-71807557D01*
X99266468Y-71807558D01*
X99344728Y-71849389D01*
X99422991Y-71891222D01*
X99458729Y-71920552D01*
X99560186Y-72003814D01*
X99643448Y-72105271D01*
X99672778Y-72141009D01*
X99756443Y-72297534D01*
X99807963Y-72467373D01*
X99825359Y-72644000D01*
X99807963Y-72820627D01*
X99756443Y-72990466D01*
X99672778Y-73146991D01*
X99643448Y-73182729D01*
X99560186Y-73284186D01*
X99458729Y-73367448D01*
X99422991Y-73396778D01*
X99266466Y-73480443D01*
X99096627Y-73531963D01*
X99030442Y-73538482D01*
X98964260Y-73545000D01*
X98875740Y-73545000D01*
X98809558Y-73538482D01*
X98743373Y-73531963D01*
X98573534Y-73480443D01*
X98417009Y-73396778D01*
X98381271Y-73367448D01*
X98279814Y-73284186D01*
X98196552Y-73182729D01*
X98167222Y-73146991D01*
X98083557Y-72990466D01*
X98032037Y-72820627D01*
X98014641Y-72644000D01*
X98032037Y-72467373D01*
X98083557Y-72297534D01*
X98167222Y-72141009D01*
X98196552Y-72105271D01*
X98279814Y-72003814D01*
X98381271Y-71920552D01*
X98417009Y-71891222D01*
X98495272Y-71849389D01*
X98573532Y-71807558D01*
X98573534Y-71807557D01*
X98743373Y-71756037D01*
X98809558Y-71749518D01*
X98875740Y-71743000D01*
X98964260Y-71743000D01*
X99030442Y-71749518D01*
X99030442Y-71749518D01*
G37*
G36*
X101570442Y-71749518D02*
G01*
X101636627Y-71756037D01*
X101806466Y-71807557D01*
X101806468Y-71807558D01*
X101884728Y-71849389D01*
X101962991Y-71891222D01*
X101998729Y-71920552D01*
X102100186Y-72003814D01*
X102183448Y-72105271D01*
X102212778Y-72141009D01*
X102296443Y-72297534D01*
X102347963Y-72467373D01*
X102365359Y-72644000D01*
X102347963Y-72820627D01*
X102296443Y-72990466D01*
X102212778Y-73146991D01*
X102183448Y-73182729D01*
X102100186Y-73284186D01*
X101998729Y-73367448D01*
X101962991Y-73396778D01*
X101806466Y-73480443D01*
X101636627Y-73531963D01*
X101570442Y-73538482D01*
X101504260Y-73545000D01*
X101415740Y-73545000D01*
X101349558Y-73538482D01*
X101283373Y-73531963D01*
X101113534Y-73480443D01*
X100957009Y-73396778D01*
X100921271Y-73367448D01*
X100819814Y-73284186D01*
X100736552Y-73182729D01*
X100707222Y-73146991D01*
X100623557Y-72990466D01*
X100572037Y-72820627D01*
X100554641Y-72644000D01*
X100572037Y-72467373D01*
X100623557Y-72297534D01*
X100707222Y-72141009D01*
X100736552Y-72105271D01*
X100819814Y-72003814D01*
X100921271Y-71920552D01*
X100957009Y-71891222D01*
X101035272Y-71849389D01*
X101113532Y-71807558D01*
X101113534Y-71807557D01*
X101283373Y-71756037D01*
X101349558Y-71749518D01*
X101415740Y-71743000D01*
X101504260Y-71743000D01*
X101570442Y-71749518D01*
X101570442Y-71749518D01*
G37*
G36*
X104901000Y-73545000D02*
G01*
X103099000Y-73545000D01*
X103099000Y-71743000D01*
X104901000Y-71743000D01*
X104901000Y-73545000D01*
X104901000Y-73545000D01*
G37*
G36*
X118961000Y-72987000D02*
G01*
X117259000Y-72987000D01*
X117259000Y-71285000D01*
X118961000Y-71285000D01*
X118961000Y-72987000D01*
X118961000Y-72987000D01*
G37*
G36*
X125896823Y-71297313D02*
G01*
X126057242Y-71345976D01*
X126189906Y-71416886D01*
X126205078Y-71424996D01*
X126334659Y-71531341D01*
X126441004Y-71660922D01*
X126441005Y-71660924D01*
X126520024Y-71808758D01*
X126568687Y-71969177D01*
X126585117Y-72136000D01*
X126568687Y-72302823D01*
X126520024Y-72463242D01*
X126487883Y-72523373D01*
X126441004Y-72611078D01*
X126334659Y-72740659D01*
X126205078Y-72847004D01*
X126205076Y-72847005D01*
X126057242Y-72926024D01*
X125896823Y-72974687D01*
X125771804Y-72987000D01*
X125688196Y-72987000D01*
X125563177Y-72974687D01*
X125402758Y-72926024D01*
X125254924Y-72847005D01*
X125254922Y-72847004D01*
X125125341Y-72740659D01*
X125018996Y-72611078D01*
X124972117Y-72523373D01*
X124939976Y-72463242D01*
X124891313Y-72302823D01*
X124874883Y-72136000D01*
X124891313Y-71969177D01*
X124939976Y-71808758D01*
X125018995Y-71660924D01*
X125018996Y-71660922D01*
X125125341Y-71531341D01*
X125254922Y-71424996D01*
X125270094Y-71416886D01*
X125402758Y-71345976D01*
X125563177Y-71297313D01*
X125688196Y-71285000D01*
X125771804Y-71285000D01*
X125896823Y-71297313D01*
X125896823Y-71297313D01*
G37*
M02*
