G04 #@! TF.GenerationSoftware,KiCad,Pcbnew,5.1.4-e60b266~84~ubuntu18.04.1*
G04 #@! TF.CreationDate,2019-08-12T17:35:48+02:00*
G04 #@! TF.ProjectId,ebuzzz-adapter,6562757a-7a7a-42d6-9164-61707465722e,rev?*
G04 #@! TF.SameCoordinates,Original*
G04 #@! TF.FileFunction,Legend,Bot*
G04 #@! TF.FilePolarity,Positive*
%FSLAX46Y46*%
G04 Gerber Fmt 4.6, Leading zero omitted, Abs format (unit mm)*
G04 Created by KiCad (PCBNEW 5.1.4-e60b266~84~ubuntu18.04.1) date 2019-08-12 17:35:48*
%MOMM*%
%LPD*%
G04 APERTURE LIST*
%ADD10C,0.150000*%
%ADD11C,0.010000*%
G04 APERTURE END LIST*
D10*
X106846666Y-83256380D02*
X107180000Y-82780190D01*
X107418095Y-83256380D02*
X107418095Y-82256380D01*
X107037142Y-82256380D01*
X106941904Y-82304000D01*
X106894285Y-82351619D01*
X106846666Y-82446857D01*
X106846666Y-82589714D01*
X106894285Y-82684952D01*
X106941904Y-82732571D01*
X107037142Y-82780190D01*
X107418095Y-82780190D01*
X106513333Y-82256380D02*
X105846666Y-83256380D01*
X105846666Y-82256380D02*
X106513333Y-83256380D01*
X107441904Y-79716380D02*
X106870476Y-79716380D01*
X107156190Y-80716380D02*
X107156190Y-79716380D01*
X106632380Y-79716380D02*
X105965714Y-80716380D01*
X105965714Y-79716380D02*
X106632380Y-80716380D01*
X107441904Y-74684000D02*
X107537142Y-74636380D01*
X107680000Y-74636380D01*
X107822857Y-74684000D01*
X107918095Y-74779238D01*
X107965714Y-74874476D01*
X108013333Y-75064952D01*
X108013333Y-75207809D01*
X107965714Y-75398285D01*
X107918095Y-75493523D01*
X107822857Y-75588761D01*
X107680000Y-75636380D01*
X107584761Y-75636380D01*
X107441904Y-75588761D01*
X107394285Y-75541142D01*
X107394285Y-75207809D01*
X107584761Y-75207809D01*
X106965714Y-75636380D02*
X106965714Y-74636380D01*
X106394285Y-75636380D01*
X106394285Y-74636380D01*
X105918095Y-75636380D02*
X105918095Y-74636380D01*
X105680000Y-74636380D01*
X105537142Y-74684000D01*
X105441904Y-74779238D01*
X105394285Y-74874476D01*
X105346666Y-75064952D01*
X105346666Y-75207809D01*
X105394285Y-75398285D01*
X105441904Y-75493523D01*
X105537142Y-75588761D01*
X105680000Y-75636380D01*
X105918095Y-75636380D01*
X107918095Y-72096380D02*
X107299047Y-72096380D01*
X107632380Y-72477333D01*
X107489523Y-72477333D01*
X107394285Y-72524952D01*
X107346666Y-72572571D01*
X107299047Y-72667809D01*
X107299047Y-72905904D01*
X107346666Y-73001142D01*
X107394285Y-73048761D01*
X107489523Y-73096380D01*
X107775238Y-73096380D01*
X107870476Y-73048761D01*
X107918095Y-73001142D01*
X107013333Y-72096380D02*
X106680000Y-73096380D01*
X106346666Y-72096380D01*
X106108571Y-72096380D02*
X105489523Y-72096380D01*
X105822857Y-72477333D01*
X105680000Y-72477333D01*
X105584761Y-72524952D01*
X105537142Y-72572571D01*
X105489523Y-72667809D01*
X105489523Y-72905904D01*
X105537142Y-73001142D01*
X105584761Y-73048761D01*
X105680000Y-73096380D01*
X105965714Y-73096380D01*
X106060952Y-73048761D01*
X106108571Y-73001142D01*
D11*
G36*
X99444186Y-76468931D02*
G01*
X99360365Y-76913555D01*
X99051080Y-77041053D01*
X98741794Y-77168551D01*
X98370754Y-76916246D01*
X98266843Y-76845996D01*
X98172913Y-76783272D01*
X98093348Y-76730938D01*
X98032530Y-76691857D01*
X97994843Y-76668893D01*
X97984579Y-76663942D01*
X97966090Y-76676676D01*
X97926580Y-76711882D01*
X97870478Y-76765062D01*
X97802213Y-76831718D01*
X97726214Y-76907354D01*
X97646908Y-76987472D01*
X97568725Y-77067574D01*
X97496093Y-77143164D01*
X97433441Y-77209745D01*
X97385197Y-77262818D01*
X97355790Y-77297887D01*
X97348759Y-77309623D01*
X97358877Y-77331260D01*
X97387241Y-77378662D01*
X97430871Y-77447193D01*
X97486782Y-77532215D01*
X97551994Y-77629093D01*
X97589781Y-77684350D01*
X97658657Y-77785248D01*
X97719860Y-77876299D01*
X97770422Y-77952970D01*
X97807372Y-78010728D01*
X97827742Y-78045043D01*
X97830803Y-78052254D01*
X97823864Y-78072748D01*
X97804949Y-78120513D01*
X97776913Y-78188832D01*
X97742609Y-78270989D01*
X97704891Y-78360270D01*
X97666613Y-78449958D01*
X97630630Y-78533338D01*
X97599794Y-78603694D01*
X97576961Y-78654310D01*
X97564983Y-78678471D01*
X97564276Y-78679422D01*
X97545469Y-78684036D01*
X97495382Y-78694328D01*
X97419207Y-78709287D01*
X97322135Y-78727901D01*
X97209357Y-78749159D01*
X97143558Y-78761418D01*
X97023050Y-78784362D01*
X96914203Y-78806195D01*
X96822524Y-78825722D01*
X96753519Y-78841748D01*
X96712696Y-78853079D01*
X96704489Y-78856674D01*
X96696452Y-78881006D01*
X96689967Y-78935959D01*
X96685030Y-79015108D01*
X96681636Y-79112026D01*
X96679782Y-79220287D01*
X96679462Y-79333465D01*
X96680673Y-79445135D01*
X96683410Y-79548868D01*
X96687669Y-79638241D01*
X96693445Y-79706826D01*
X96700733Y-79748197D01*
X96705105Y-79756810D01*
X96731236Y-79767133D01*
X96786607Y-79781892D01*
X96863893Y-79799352D01*
X96955770Y-79817780D01*
X96987842Y-79823741D01*
X97142476Y-79852066D01*
X97264625Y-79874876D01*
X97358327Y-79893080D01*
X97427616Y-79907583D01*
X97476529Y-79919292D01*
X97509103Y-79929115D01*
X97529372Y-79937956D01*
X97541374Y-79946724D01*
X97543053Y-79948457D01*
X97559816Y-79976371D01*
X97585386Y-80030695D01*
X97617212Y-80104777D01*
X97652740Y-80191965D01*
X97689417Y-80285608D01*
X97724689Y-80379052D01*
X97756004Y-80465647D01*
X97780807Y-80538740D01*
X97796546Y-80591678D01*
X97800668Y-80617811D01*
X97800324Y-80618726D01*
X97786359Y-80640086D01*
X97754678Y-80687084D01*
X97708609Y-80754827D01*
X97651482Y-80838423D01*
X97586627Y-80932982D01*
X97568157Y-80959854D01*
X97502301Y-81057275D01*
X97444350Y-81146163D01*
X97397462Y-81221412D01*
X97364793Y-81277920D01*
X97349500Y-81310581D01*
X97348759Y-81314593D01*
X97361608Y-81335684D01*
X97397112Y-81377464D01*
X97450707Y-81435445D01*
X97517829Y-81505135D01*
X97593913Y-81582045D01*
X97674396Y-81661683D01*
X97754713Y-81739561D01*
X97830301Y-81811186D01*
X97896595Y-81872070D01*
X97949031Y-81917721D01*
X97983045Y-81943650D01*
X97992455Y-81947883D01*
X98014357Y-81937912D01*
X98059200Y-81911020D01*
X98119679Y-81871736D01*
X98166211Y-81840117D01*
X98250525Y-81782098D01*
X98350374Y-81713784D01*
X98450527Y-81645579D01*
X98504373Y-81609075D01*
X98686629Y-81485800D01*
X98839619Y-81568520D01*
X98909318Y-81604759D01*
X98968586Y-81632926D01*
X99008689Y-81648991D01*
X99018897Y-81651226D01*
X99031171Y-81634722D01*
X99055387Y-81588082D01*
X99089737Y-81515609D01*
X99132412Y-81421606D01*
X99181606Y-81310374D01*
X99235510Y-81186215D01*
X99292316Y-81053432D01*
X99350218Y-80916327D01*
X99407407Y-80779202D01*
X99462076Y-80646358D01*
X99512416Y-80522098D01*
X99556620Y-80410725D01*
X99592881Y-80316539D01*
X99619391Y-80243844D01*
X99634342Y-80196941D01*
X99636746Y-80180833D01*
X99617689Y-80160286D01*
X99575964Y-80126933D01*
X99520294Y-80087702D01*
X99515622Y-80084599D01*
X99371736Y-79969423D01*
X99255717Y-79835053D01*
X99168570Y-79685784D01*
X99111301Y-79525913D01*
X99084914Y-79359737D01*
X99090415Y-79191552D01*
X99128810Y-79025655D01*
X99201105Y-78866342D01*
X99222374Y-78831487D01*
X99333004Y-78690737D01*
X99463698Y-78577714D01*
X99609936Y-78493003D01*
X99767192Y-78437194D01*
X99930943Y-78410874D01*
X100096667Y-78414630D01*
X100259838Y-78449050D01*
X100415935Y-78514723D01*
X100560433Y-78612235D01*
X100605131Y-78651813D01*
X100718888Y-78775703D01*
X100801782Y-78906124D01*
X100858644Y-79052315D01*
X100890313Y-79197088D01*
X100898131Y-79359860D01*
X100872062Y-79523440D01*
X100814755Y-79682298D01*
X100728856Y-79830906D01*
X100617014Y-79963735D01*
X100481877Y-80075256D01*
X100464117Y-80087011D01*
X100407850Y-80125508D01*
X100365077Y-80158863D01*
X100344628Y-80180160D01*
X100344331Y-80180833D01*
X100348721Y-80203871D01*
X100366124Y-80256157D01*
X100394732Y-80333390D01*
X100432735Y-80431268D01*
X100478326Y-80545491D01*
X100529697Y-80671758D01*
X100585038Y-80805767D01*
X100642542Y-80943218D01*
X100700399Y-81079808D01*
X100756802Y-81211237D01*
X100809942Y-81333205D01*
X100858010Y-81441409D01*
X100899199Y-81531549D01*
X100931699Y-81599323D01*
X100953703Y-81640430D01*
X100962564Y-81651226D01*
X100989640Y-81642819D01*
X101040303Y-81620272D01*
X101105817Y-81587613D01*
X101141841Y-81568520D01*
X101294832Y-81485800D01*
X101477088Y-81609075D01*
X101570125Y-81672228D01*
X101671985Y-81741727D01*
X101767438Y-81807165D01*
X101815250Y-81840117D01*
X101882495Y-81885273D01*
X101939436Y-81921057D01*
X101978646Y-81942938D01*
X101991381Y-81947563D01*
X102009917Y-81935085D01*
X102050941Y-81900252D01*
X102110475Y-81846678D01*
X102184542Y-81777983D01*
X102269165Y-81697781D01*
X102322685Y-81646286D01*
X102416319Y-81554286D01*
X102497241Y-81471999D01*
X102562177Y-81402945D01*
X102607858Y-81350644D01*
X102631011Y-81318616D01*
X102633232Y-81312116D01*
X102622924Y-81287394D01*
X102594439Y-81237405D01*
X102550937Y-81167212D01*
X102495577Y-81081875D01*
X102431520Y-80986456D01*
X102413303Y-80959854D01*
X102346927Y-80863167D01*
X102287378Y-80776117D01*
X102237984Y-80703595D01*
X102202075Y-80650493D01*
X102182981Y-80621703D01*
X102181136Y-80618726D01*
X102183895Y-80595782D01*
X102198538Y-80545336D01*
X102222513Y-80474041D01*
X102253266Y-80388547D01*
X102288244Y-80295507D01*
X102324893Y-80201574D01*
X102360661Y-80113399D01*
X102392994Y-80037634D01*
X102419338Y-79980931D01*
X102437142Y-79949943D01*
X102438407Y-79948457D01*
X102449294Y-79939601D01*
X102467682Y-79930843D01*
X102497606Y-79921277D01*
X102543103Y-79909996D01*
X102608209Y-79896093D01*
X102696961Y-79878663D01*
X102813393Y-79856798D01*
X102961542Y-79829591D01*
X102993618Y-79823741D01*
X103088686Y-79805374D01*
X103171565Y-79787405D01*
X103234930Y-79771569D01*
X103271458Y-79759600D01*
X103276356Y-79756810D01*
X103284427Y-79732072D01*
X103290987Y-79676790D01*
X103296033Y-79597389D01*
X103299559Y-79500296D01*
X103301561Y-79391938D01*
X103302036Y-79278740D01*
X103300977Y-79167128D01*
X103298382Y-79063529D01*
X103294246Y-78974368D01*
X103288563Y-78906072D01*
X103281331Y-78865066D01*
X103276971Y-78856674D01*
X103252698Y-78848208D01*
X103197426Y-78834435D01*
X103116662Y-78816550D01*
X103015912Y-78795748D01*
X102900683Y-78773223D01*
X102837902Y-78761418D01*
X102718787Y-78739151D01*
X102612565Y-78718979D01*
X102524427Y-78701915D01*
X102459566Y-78688969D01*
X102423174Y-78681155D01*
X102417184Y-78679422D01*
X102407061Y-78659890D01*
X102385662Y-78612843D01*
X102355839Y-78545003D01*
X102320445Y-78463091D01*
X102282332Y-78373828D01*
X102244353Y-78283935D01*
X102209360Y-78200135D01*
X102180206Y-78129147D01*
X102159743Y-78077694D01*
X102150823Y-78052497D01*
X102150657Y-78051396D01*
X102160769Y-78031519D01*
X102189117Y-77985777D01*
X102232723Y-77918717D01*
X102288606Y-77834884D01*
X102353787Y-77738826D01*
X102391679Y-77683650D01*
X102460725Y-77582481D01*
X102522050Y-77490630D01*
X102572663Y-77412744D01*
X102609571Y-77353469D01*
X102629782Y-77317451D01*
X102632701Y-77309377D01*
X102620153Y-77290584D01*
X102585463Y-77250457D01*
X102533063Y-77193493D01*
X102467384Y-77124185D01*
X102392856Y-77047031D01*
X102313913Y-76966525D01*
X102234983Y-76887163D01*
X102160500Y-76813440D01*
X102094894Y-76749852D01*
X102042596Y-76700894D01*
X102008039Y-76671061D01*
X101996478Y-76663942D01*
X101977654Y-76673953D01*
X101932631Y-76702078D01*
X101865787Y-76745454D01*
X101781499Y-76801218D01*
X101684144Y-76866506D01*
X101610707Y-76916246D01*
X101239667Y-77168551D01*
X100621095Y-76913555D01*
X100537275Y-76468931D01*
X100453454Y-76024307D01*
X99528006Y-76024307D01*
X99444186Y-76468931D01*
X99444186Y-76468931D01*
G37*
X99444186Y-76468931D02*
X99360365Y-76913555D01*
X99051080Y-77041053D01*
X98741794Y-77168551D01*
X98370754Y-76916246D01*
X98266843Y-76845996D01*
X98172913Y-76783272D01*
X98093348Y-76730938D01*
X98032530Y-76691857D01*
X97994843Y-76668893D01*
X97984579Y-76663942D01*
X97966090Y-76676676D01*
X97926580Y-76711882D01*
X97870478Y-76765062D01*
X97802213Y-76831718D01*
X97726214Y-76907354D01*
X97646908Y-76987472D01*
X97568725Y-77067574D01*
X97496093Y-77143164D01*
X97433441Y-77209745D01*
X97385197Y-77262818D01*
X97355790Y-77297887D01*
X97348759Y-77309623D01*
X97358877Y-77331260D01*
X97387241Y-77378662D01*
X97430871Y-77447193D01*
X97486782Y-77532215D01*
X97551994Y-77629093D01*
X97589781Y-77684350D01*
X97658657Y-77785248D01*
X97719860Y-77876299D01*
X97770422Y-77952970D01*
X97807372Y-78010728D01*
X97827742Y-78045043D01*
X97830803Y-78052254D01*
X97823864Y-78072748D01*
X97804949Y-78120513D01*
X97776913Y-78188832D01*
X97742609Y-78270989D01*
X97704891Y-78360270D01*
X97666613Y-78449958D01*
X97630630Y-78533338D01*
X97599794Y-78603694D01*
X97576961Y-78654310D01*
X97564983Y-78678471D01*
X97564276Y-78679422D01*
X97545469Y-78684036D01*
X97495382Y-78694328D01*
X97419207Y-78709287D01*
X97322135Y-78727901D01*
X97209357Y-78749159D01*
X97143558Y-78761418D01*
X97023050Y-78784362D01*
X96914203Y-78806195D01*
X96822524Y-78825722D01*
X96753519Y-78841748D01*
X96712696Y-78853079D01*
X96704489Y-78856674D01*
X96696452Y-78881006D01*
X96689967Y-78935959D01*
X96685030Y-79015108D01*
X96681636Y-79112026D01*
X96679782Y-79220287D01*
X96679462Y-79333465D01*
X96680673Y-79445135D01*
X96683410Y-79548868D01*
X96687669Y-79638241D01*
X96693445Y-79706826D01*
X96700733Y-79748197D01*
X96705105Y-79756810D01*
X96731236Y-79767133D01*
X96786607Y-79781892D01*
X96863893Y-79799352D01*
X96955770Y-79817780D01*
X96987842Y-79823741D01*
X97142476Y-79852066D01*
X97264625Y-79874876D01*
X97358327Y-79893080D01*
X97427616Y-79907583D01*
X97476529Y-79919292D01*
X97509103Y-79929115D01*
X97529372Y-79937956D01*
X97541374Y-79946724D01*
X97543053Y-79948457D01*
X97559816Y-79976371D01*
X97585386Y-80030695D01*
X97617212Y-80104777D01*
X97652740Y-80191965D01*
X97689417Y-80285608D01*
X97724689Y-80379052D01*
X97756004Y-80465647D01*
X97780807Y-80538740D01*
X97796546Y-80591678D01*
X97800668Y-80617811D01*
X97800324Y-80618726D01*
X97786359Y-80640086D01*
X97754678Y-80687084D01*
X97708609Y-80754827D01*
X97651482Y-80838423D01*
X97586627Y-80932982D01*
X97568157Y-80959854D01*
X97502301Y-81057275D01*
X97444350Y-81146163D01*
X97397462Y-81221412D01*
X97364793Y-81277920D01*
X97349500Y-81310581D01*
X97348759Y-81314593D01*
X97361608Y-81335684D01*
X97397112Y-81377464D01*
X97450707Y-81435445D01*
X97517829Y-81505135D01*
X97593913Y-81582045D01*
X97674396Y-81661683D01*
X97754713Y-81739561D01*
X97830301Y-81811186D01*
X97896595Y-81872070D01*
X97949031Y-81917721D01*
X97983045Y-81943650D01*
X97992455Y-81947883D01*
X98014357Y-81937912D01*
X98059200Y-81911020D01*
X98119679Y-81871736D01*
X98166211Y-81840117D01*
X98250525Y-81782098D01*
X98350374Y-81713784D01*
X98450527Y-81645579D01*
X98504373Y-81609075D01*
X98686629Y-81485800D01*
X98839619Y-81568520D01*
X98909318Y-81604759D01*
X98968586Y-81632926D01*
X99008689Y-81648991D01*
X99018897Y-81651226D01*
X99031171Y-81634722D01*
X99055387Y-81588082D01*
X99089737Y-81515609D01*
X99132412Y-81421606D01*
X99181606Y-81310374D01*
X99235510Y-81186215D01*
X99292316Y-81053432D01*
X99350218Y-80916327D01*
X99407407Y-80779202D01*
X99462076Y-80646358D01*
X99512416Y-80522098D01*
X99556620Y-80410725D01*
X99592881Y-80316539D01*
X99619391Y-80243844D01*
X99634342Y-80196941D01*
X99636746Y-80180833D01*
X99617689Y-80160286D01*
X99575964Y-80126933D01*
X99520294Y-80087702D01*
X99515622Y-80084599D01*
X99371736Y-79969423D01*
X99255717Y-79835053D01*
X99168570Y-79685784D01*
X99111301Y-79525913D01*
X99084914Y-79359737D01*
X99090415Y-79191552D01*
X99128810Y-79025655D01*
X99201105Y-78866342D01*
X99222374Y-78831487D01*
X99333004Y-78690737D01*
X99463698Y-78577714D01*
X99609936Y-78493003D01*
X99767192Y-78437194D01*
X99930943Y-78410874D01*
X100096667Y-78414630D01*
X100259838Y-78449050D01*
X100415935Y-78514723D01*
X100560433Y-78612235D01*
X100605131Y-78651813D01*
X100718888Y-78775703D01*
X100801782Y-78906124D01*
X100858644Y-79052315D01*
X100890313Y-79197088D01*
X100898131Y-79359860D01*
X100872062Y-79523440D01*
X100814755Y-79682298D01*
X100728856Y-79830906D01*
X100617014Y-79963735D01*
X100481877Y-80075256D01*
X100464117Y-80087011D01*
X100407850Y-80125508D01*
X100365077Y-80158863D01*
X100344628Y-80180160D01*
X100344331Y-80180833D01*
X100348721Y-80203871D01*
X100366124Y-80256157D01*
X100394732Y-80333390D01*
X100432735Y-80431268D01*
X100478326Y-80545491D01*
X100529697Y-80671758D01*
X100585038Y-80805767D01*
X100642542Y-80943218D01*
X100700399Y-81079808D01*
X100756802Y-81211237D01*
X100809942Y-81333205D01*
X100858010Y-81441409D01*
X100899199Y-81531549D01*
X100931699Y-81599323D01*
X100953703Y-81640430D01*
X100962564Y-81651226D01*
X100989640Y-81642819D01*
X101040303Y-81620272D01*
X101105817Y-81587613D01*
X101141841Y-81568520D01*
X101294832Y-81485800D01*
X101477088Y-81609075D01*
X101570125Y-81672228D01*
X101671985Y-81741727D01*
X101767438Y-81807165D01*
X101815250Y-81840117D01*
X101882495Y-81885273D01*
X101939436Y-81921057D01*
X101978646Y-81942938D01*
X101991381Y-81947563D01*
X102009917Y-81935085D01*
X102050941Y-81900252D01*
X102110475Y-81846678D01*
X102184542Y-81777983D01*
X102269165Y-81697781D01*
X102322685Y-81646286D01*
X102416319Y-81554286D01*
X102497241Y-81471999D01*
X102562177Y-81402945D01*
X102607858Y-81350644D01*
X102631011Y-81318616D01*
X102633232Y-81312116D01*
X102622924Y-81287394D01*
X102594439Y-81237405D01*
X102550937Y-81167212D01*
X102495577Y-81081875D01*
X102431520Y-80986456D01*
X102413303Y-80959854D01*
X102346927Y-80863167D01*
X102287378Y-80776117D01*
X102237984Y-80703595D01*
X102202075Y-80650493D01*
X102182981Y-80621703D01*
X102181136Y-80618726D01*
X102183895Y-80595782D01*
X102198538Y-80545336D01*
X102222513Y-80474041D01*
X102253266Y-80388547D01*
X102288244Y-80295507D01*
X102324893Y-80201574D01*
X102360661Y-80113399D01*
X102392994Y-80037634D01*
X102419338Y-79980931D01*
X102437142Y-79949943D01*
X102438407Y-79948457D01*
X102449294Y-79939601D01*
X102467682Y-79930843D01*
X102497606Y-79921277D01*
X102543103Y-79909996D01*
X102608209Y-79896093D01*
X102696961Y-79878663D01*
X102813393Y-79856798D01*
X102961542Y-79829591D01*
X102993618Y-79823741D01*
X103088686Y-79805374D01*
X103171565Y-79787405D01*
X103234930Y-79771569D01*
X103271458Y-79759600D01*
X103276356Y-79756810D01*
X103284427Y-79732072D01*
X103290987Y-79676790D01*
X103296033Y-79597389D01*
X103299559Y-79500296D01*
X103301561Y-79391938D01*
X103302036Y-79278740D01*
X103300977Y-79167128D01*
X103298382Y-79063529D01*
X103294246Y-78974368D01*
X103288563Y-78906072D01*
X103281331Y-78865066D01*
X103276971Y-78856674D01*
X103252698Y-78848208D01*
X103197426Y-78834435D01*
X103116662Y-78816550D01*
X103015912Y-78795748D01*
X102900683Y-78773223D01*
X102837902Y-78761418D01*
X102718787Y-78739151D01*
X102612565Y-78718979D01*
X102524427Y-78701915D01*
X102459566Y-78688969D01*
X102423174Y-78681155D01*
X102417184Y-78679422D01*
X102407061Y-78659890D01*
X102385662Y-78612843D01*
X102355839Y-78545003D01*
X102320445Y-78463091D01*
X102282332Y-78373828D01*
X102244353Y-78283935D01*
X102209360Y-78200135D01*
X102180206Y-78129147D01*
X102159743Y-78077694D01*
X102150823Y-78052497D01*
X102150657Y-78051396D01*
X102160769Y-78031519D01*
X102189117Y-77985777D01*
X102232723Y-77918717D01*
X102288606Y-77834884D01*
X102353787Y-77738826D01*
X102391679Y-77683650D01*
X102460725Y-77582481D01*
X102522050Y-77490630D01*
X102572663Y-77412744D01*
X102609571Y-77353469D01*
X102629782Y-77317451D01*
X102632701Y-77309377D01*
X102620153Y-77290584D01*
X102585463Y-77250457D01*
X102533063Y-77193493D01*
X102467384Y-77124185D01*
X102392856Y-77047031D01*
X102313913Y-76966525D01*
X102234983Y-76887163D01*
X102160500Y-76813440D01*
X102094894Y-76749852D01*
X102042596Y-76700894D01*
X102008039Y-76671061D01*
X101996478Y-76663942D01*
X101977654Y-76673953D01*
X101932631Y-76702078D01*
X101865787Y-76745454D01*
X101781499Y-76801218D01*
X101684144Y-76866506D01*
X101610707Y-76916246D01*
X101239667Y-77168551D01*
X100621095Y-76913555D01*
X100537275Y-76468931D01*
X100453454Y-76024307D01*
X99528006Y-76024307D01*
X99444186Y-76468931D01*
M02*
